<svg width="666" height="330" viewBox="0 0 666 330" fill="none" xmlns="http://www.w3.org/2000/svg">
<path d="M24.704 11.92L24.448 22.384C24.448 25.8187 24.7787 28.5387 25.44 30.544C26.1867 32.912 27.6693 34.096 29.888 34.096C31.424 34.096 32.736 32.784 33.824 30.16C34.9333 27.536 35.4987 23.728 35.52 18.736C31.7867 18.1813 29.92 16.592 29.92 13.968C29.92 13.008 30.2187 12.2187 30.816 11.6C31.4347 10.9813 32.2667 10.672 33.312 10.672C34.9547 10.672 36.1813 11.2587 36.992 12.432C37.824 13.584 38.2933 15.312 38.4 17.616C39.3813 17.6587 40.1813 17.68 40.8 17.68C40.928 17.7013 40.992 17.8187 40.992 18.032C40.992 18.224 40.9493 18.3733 40.864 18.48C40.6507 18.8 40.1387 18.96 39.328 18.96H38.368C38.176 27.28 36.416 32.464 33.088 34.512C32.128 35.088 31.0613 35.376 29.888 35.376C26.5173 35.376 24.1493 33.4773 22.784 29.68C22.3147 31.0667 21.6747 32.208 20.864 33.104C20.0533 33.9787 19.2427 34.576 18.432 34.896C17.6213 35.216 16.768 35.376 15.872 35.376C11.1147 35.376 8.736 32.0907 8.736 25.52V19.984C8.71467 17.2533 8.46933 15.3547 8 14.288C7.53067 13.2213 6.85867 12.688 5.984 12.688C3.97867 12.688 2.976 14.6933 2.976 18.704C2.93333 18.832 2.816 18.896 2.624 18.896C2.432 18.896 2.28267 18.8533 2.176 18.768C1.856 18.5547 1.696 18.0427 1.696 17.232C1.696 15.2693 2.112 13.776 2.944 12.752C3.776 11.728 4.91733 11.216 6.368 11.216C8.416 11.216 9.80267 11.8667 10.528 13.168C11.2533 14.4693 11.616 16.7413 11.616 19.984V25.68C11.616 28.7307 11.9467 30.896 12.608 32.176C13.2907 33.456 14.3467 34.096 15.776 34.096C17.2053 34.096 18.3147 33.5093 19.104 32.336C20.6613 30.0107 21.44 23.6 21.44 13.104C21.44 12.4853 21.6213 12.0053 21.984 11.664C22.368 11.3227 22.784 11.152 23.232 11.152C23.7013 11.152 24.192 11.408 24.704 11.92ZM31.392 13.872C31.392 15.664 32.7573 16.816 35.488 17.328C35.424 15.3227 35.2107 13.936 34.848 13.168C34.5067 12.4 34.0267 12.016 33.408 12.016C32.8107 12.016 32.32 12.1973 31.936 12.56C31.5733 12.9227 31.392 13.36 31.392 13.872ZM53.9088 26.8C54.3568 26.8 54.5808 27.1413 54.5808 27.824C54.5808 29.4027 54.0261 30.8427 52.9168 32.144C51.8288 33.4453 50.1648 34.096 47.9248 34.096C45.6848 34.096 43.8821 33.4987 42.5168 32.304C41.1728 31.088 40.5008 29.3173 40.5008 26.992C40.5008 24.6453 41.0981 22.8213 42.2928 21.52C43.4874 20.1973 45.0128 19.536 46.8688 19.536C48.2128 19.536 49.1941 19.8987 49.8128 20.624C50.4314 21.328 50.7408 22.1707 50.7408 23.152C50.7408 24.752 50.0688 26.0853 48.7248 27.152C47.4021 28.1973 45.7061 28.72 43.6368 28.72C43.8288 30.0853 44.3194 31.12 45.1088 31.824C45.9194 32.5067 46.9754 32.848 48.2768 32.848C49.5994 32.848 50.7834 32.3573 51.8288 31.376C52.8954 30.3733 53.4288 28.912 53.4288 26.992C53.4501 26.864 53.6101 26.8 53.9088 26.8ZM43.5408 27.248V27.536C44.8634 27.3653 46.0048 26.9493 46.9648 26.288C47.9461 25.6267 48.4368 24.6453 48.4368 23.344C48.4368 22.512 48.2554 21.8827 47.8928 21.456C47.5301 21.008 47.0181 20.784 46.3568 20.784C45.3541 20.784 44.6288 21.2747 44.1808 22.256C43.7541 23.2373 43.5408 24.9013 43.5408 27.248ZM62.908 26.416C63.292 26.416 63.484 26.9813 63.484 28.112C63.484 29.7547 63.036 31.1627 62.14 32.336C61.244 33.5093 60.1027 34.096 58.716 34.096C56.988 34.096 55.6973 33.584 54.844 32.56C53.9907 31.536 53.564 30.0853 53.564 28.208V16.176C53.564 13.424 53.852 11.408 54.428 10.128C55.004 8.848 56.0173 8.208 57.468 8.208C59.58 8.208 60.636 9.63733 60.636 12.496C60.636 14.6507 60.2093 16.3787 59.356 17.68C58.524 18.9813 57.564 19.952 56.476 20.592V29.168C56.476 30.384 56.7107 31.3013 57.18 31.92C57.6493 32.5387 58.2893 32.848 59.1 32.848C59.9107 32.848 60.668 32.3573 61.372 31.376C62.076 30.3947 62.428 28.8053 62.428 26.608C62.4707 26.48 62.6307 26.416 62.908 26.416ZM59.26 12.528C59.26 10.48 58.748 9.456 57.724 9.456C57.468 9.456 57.2653 9.54133 57.116 9.712C56.988 9.88266 56.8707 10.3093 56.764 10.992C56.572 12.0373 56.476 14.7893 56.476 19.248C58.332 17.904 59.26 15.664 59.26 12.528ZM71.8455 26.416C72.2295 26.416 72.4215 26.9813 72.4215 28.112C72.4215 29.7547 71.9735 31.1627 71.0775 32.336C70.1815 33.5093 69.0402 34.096 67.6535 34.096C65.9255 34.096 64.6348 33.584 63.7815 32.56C62.9282 31.536 62.5015 30.0853 62.5015 28.208V16.176C62.5015 13.424 62.7895 11.408 63.3655 10.128C63.9415 8.848 64.9548 8.208 66.4055 8.208C68.5175 8.208 69.5735 9.63733 69.5735 12.496C69.5735 14.6507 69.1468 16.3787 68.2935 17.68C67.4615 18.9813 66.5015 19.952 65.4135 20.592V29.168C65.4135 30.384 65.6482 31.3013 66.1175 31.92C66.5868 32.5387 67.2268 32.848 68.0375 32.848C68.8482 32.848 69.6055 32.3573 70.3095 31.376C71.0135 30.3947 71.3655 28.8053 71.3655 26.608C71.4082 26.48 71.5682 26.416 71.8455 26.416ZM68.1975 12.528C68.1975 10.48 67.6855 9.456 66.6615 9.456C66.4055 9.456 66.2028 9.54133 66.0535 9.712C65.9255 9.88266 65.8082 10.3093 65.7015 10.992C65.5095 12.0373 65.4135 14.7893 65.4135 19.248C67.2695 17.904 68.1975 15.664 68.1975 12.528ZM84.783 27.44C85.231 27.44 85.455 27.7493 85.455 28.368C85.455 28.9867 85.327 29.6053 85.071 30.224C84.815 30.8427 84.4417 31.4507 83.951 32.048C83.4817 32.6453 82.8097 33.136 81.935 33.52C81.0817 33.904 80.111 34.096 79.023 34.096C76.6337 34.096 74.7563 33.4987 73.391 32.304C72.047 31.088 71.375 29.3173 71.375 26.992C71.375 24.6453 71.9723 22.8213 73.167 21.52C74.3617 20.1973 75.887 19.536 77.743 19.536C79.087 19.536 80.0683 19.8987 80.687 20.624C81.3057 21.328 81.615 22.1707 81.615 23.152C81.615 23.6853 81.455 24.112 81.135 24.432C80.815 24.752 80.5057 24.912 80.207 24.912C79.6523 24.912 79.2897 24.784 79.119 24.528C79.247 24.208 79.311 23.7493 79.311 23.152C79.311 22.5547 79.1083 22.0107 78.703 21.52C78.2977 21.0293 77.807 20.784 77.231 20.784C76.2283 20.784 75.503 21.2747 75.055 22.256C74.6283 23.2373 74.415 24.784 74.415 26.896C74.415 28.9867 74.8203 30.5013 75.631 31.44C76.463 32.3787 77.615 32.848 79.087 32.848C80.559 32.848 81.7963 32.4 82.799 31.504C83.8017 30.5867 84.303 29.296 84.303 27.632C84.3243 27.504 84.4843 27.44 84.783 27.44ZM90.8078 19.536C92.7064 19.536 94.2531 20.1653 95.4478 21.424C96.6424 22.6827 97.2398 24.4 97.2398 26.576C97.2398 28.7307 96.6744 30.5227 95.5438 31.952C94.4344 33.3813 92.9411 34.096 91.0638 34.096C89.1864 34.096 87.6184 33.456 86.3598 32.176C85.1224 30.8747 84.5038 29.0827 84.5038 26.8C84.5038 24.496 85.0798 22.7147 86.2318 21.456C87.4051 20.176 88.9304 19.536 90.8078 19.536ZM90.8398 20.784C90.2638 20.784 89.7624 20.9333 89.3358 21.232C88.9304 21.5093 88.7278 21.9147 88.7278 22.448C88.7278 23.8133 89.2611 25.1253 90.3278 26.384C91.3944 27.6213 92.6638 28.4427 94.1358 28.848C94.1784 28.0373 94.1998 27.344 94.1998 26.768C94.1998 24.5493 93.9651 23.0027 93.4958 22.128C93.0264 21.232 92.1411 20.784 90.8398 20.784ZM87.5438 26.768C87.5438 28.944 87.8104 30.5013 88.3438 31.44C88.8984 32.3787 89.7944 32.848 91.0318 32.848C91.8851 32.848 92.5358 32.6347 92.9838 32.208C93.4531 31.76 93.7731 31.0453 93.9438 30.064C92.5571 29.7653 91.2771 29.136 90.1038 28.176C88.9518 27.216 88.1091 26.1493 87.5758 24.976C87.5544 25.3387 87.5438 25.936 87.5438 26.768ZM107.566 32.144V24.464C107.566 21.9253 106.926 20.656 105.646 20.656C104.579 20.656 103.758 21.2427 103.182 22.416C102.627 23.5893 102.35 25.6587 102.35 28.624V33.648C102.136 33.9467 101.763 34.096 101.23 34.096C100.696 34.096 100.27 33.936 99.9495 33.616C99.6295 33.2747 99.4695 32.784 99.4695 32.144V19.984C99.6828 19.6853 100.056 19.536 100.59 19.536C101.123 19.536 101.55 19.7067 101.87 20.048C102.19 20.368 102.35 20.848 102.35 21.488C103.075 20.1867 104.302 19.536 106.03 19.536C108.056 19.536 109.422 20.4 110.126 22.128C110.851 20.4 112.206 19.536 114.19 19.536C115.576 19.536 116.675 19.9733 117.486 20.848C118.318 21.7227 118.734 22.9813 118.734 24.624V29.168C118.734 30.384 118.926 31.3013 119.31 31.92C119.694 32.5387 120.259 32.848 121.006 32.848C121.774 32.848 122.446 32.3787 123.022 31.44C123.598 30.48 123.886 28.8693 123.886 26.608C123.907 26.48 124.067 26.416 124.366 26.416C124.75 26.416 124.942 26.9813 124.942 28.112C124.942 29.9253 124.547 31.376 123.758 32.464C122.99 33.552 121.859 34.096 120.366 34.096C118.872 34.096 117.72 33.584 116.91 32.56C116.12 31.536 115.726 30.0853 115.726 28.208V24.464C115.726 21.9253 115.086 20.656 113.806 20.656C111.63 20.656 110.542 23.3333 110.542 28.688V33.648C110.328 33.9467 109.944 34.096 109.39 34.096C108.856 34.096 108.419 33.936 108.078 33.616C107.736 33.2747 107.566 32.784 107.566 32.144ZM137.346 26.8C137.794 26.8 138.018 27.1413 138.018 27.824C138.018 29.4027 137.464 30.8427 136.354 32.144C135.266 33.4453 133.602 34.096 131.362 34.096C129.122 34.096 127.32 33.4987 125.954 32.304C124.61 31.088 123.938 29.3173 123.938 26.992C123.938 24.6453 124.536 22.8213 125.73 21.52C126.925 20.1973 128.45 19.536 130.306 19.536C131.65 19.536 132.632 19.8987 133.25 20.624C133.869 21.328 134.178 22.1707 134.178 23.152C134.178 24.752 133.506 26.0853 132.162 27.152C130.84 28.1973 129.144 28.72 127.074 28.72C127.266 30.0853 127.757 31.12 128.546 31.824C129.357 32.5067 130.413 32.848 131.714 32.848C133.037 32.848 134.221 32.3573 135.266 31.376C136.333 30.3733 136.866 28.912 136.866 26.992C136.888 26.864 137.048 26.8 137.346 26.8ZM126.978 27.248V27.536C128.301 27.3653 129.442 26.9493 130.402 26.288C131.384 25.6267 131.874 24.6453 131.874 23.344C131.874 22.512 131.693 21.8827 131.33 21.456C130.968 21.008 130.456 20.784 129.794 20.784C128.792 20.784 128.066 21.2747 127.618 22.256C127.192 23.2373 126.978 24.9013 126.978 27.248Z" fill="url(#paint0_linear_61_3634)"/>
<path d="M29.92 71.12V149H5.5V71.12H29.92ZM65.3692 90.59V100.16H89.5692V118.53H65.3692V129.53H92.8692V149H40.9492V71.12H92.8692V90.59H65.3692ZM126.492 130.52H150.032V149H102.072V71.12H126.492V130.52ZM218.877 71.12V90.48H198.197V149H173.777V90.48H153.317V71.12H218.877ZM255.97 149.77C246.657 149.77 238.957 147.607 232.87 143.28C226.857 138.88 223.593 132.463 223.08 124.03H249.04C249.407 128.503 251.387 130.74 254.98 130.74C256.3 130.74 257.4 130.447 258.28 129.86C259.233 129.2 259.71 128.21 259.71 126.89C259.71 125.057 258.72 123.59 256.74 122.49C254.76 121.317 251.68 119.997 247.5 118.53C242.513 116.77 238.37 115.047 235.07 113.36C231.843 111.673 229.057 109.217 226.71 105.99C224.363 102.763 223.227 98.62 223.3 93.56C223.3 88.5 224.583 84.21 227.15 80.69C229.79 77.0967 233.347 74.3833 237.82 72.55C242.367 70.7167 247.463 69.8 253.11 69.8C262.643 69.8 270.197 72 275.77 76.4C281.417 80.8 284.387 86.9967 284.68 94.99H258.39C258.317 92.79 257.767 91.2133 256.74 90.26C255.713 89.3067 254.467 88.83 253 88.83C251.973 88.83 251.13 89.1967 250.47 89.93C249.81 90.59 249.48 91.5433 249.48 92.79C249.48 94.55 250.433 96.0167 252.34 97.19C254.32 98.29 257.437 99.6467 261.69 101.26C266.603 103.093 270.637 104.853 273.79 106.54C277.017 108.227 279.803 110.573 282.15 113.58C284.497 116.587 285.67 120.363 285.67 124.91C285.67 129.677 284.497 133.967 282.15 137.78C279.803 141.52 276.393 144.453 271.92 146.58C267.447 148.707 262.13 149.77 255.97 149.77Z" fill="url(#paint1_linear_61_3634)"/>
<path d="M303.56 259.02H270.52L265.62 274H233L269.26 174.88H305.1L341.22 274H308.46L303.56 259.02ZM296 235.64L287.04 208.06L278.08 235.64H296ZM379.361 174.88V274H348.281V174.88H379.361Z" fill="url(#paint2_linear_61_3634)"/>
<path d="M466.66 195.12V214.48H445.98V273H421.56V214.48H401.1V195.12H466.66ZM497.703 214.59V224.16H521.903V242.53H497.703V253.53H525.203V273H473.283V195.12H525.203V214.59H497.703ZM564.876 273.77C555.563 273.77 547.863 271.607 541.776 267.28C535.763 262.88 532.5 256.463 531.986 248.03H557.946C558.313 252.503 560.293 254.74 563.886 254.74C565.206 254.74 566.306 254.447 567.186 253.86C568.14 253.2 568.616 252.21 568.616 250.89C568.616 249.057 567.626 247.59 565.646 246.49C563.666 245.317 560.586 243.997 556.406 242.53C551.42 240.77 547.276 239.047 543.976 237.36C540.75 235.673 537.963 233.217 535.616 229.99C533.27 226.763 532.133 222.62 532.206 217.56C532.206 212.5 533.49 208.21 536.056 204.69C538.696 201.097 542.253 198.383 546.726 196.55C551.273 194.717 556.37 193.8 562.016 193.8C571.55 193.8 579.103 196 584.676 200.4C590.323 204.8 593.293 210.997 593.586 218.99H567.296C567.223 216.79 566.673 215.213 565.646 214.26C564.62 213.307 563.373 212.83 561.906 212.83C560.88 212.83 560.036 213.197 559.376 213.93C558.716 214.59 558.386 215.543 558.386 216.79C558.386 218.55 559.34 220.017 561.246 221.19C563.226 222.29 566.343 223.647 570.596 225.26C575.51 227.093 579.543 228.853 582.696 230.54C585.923 232.227 588.71 234.573 591.056 237.58C593.403 240.587 594.576 244.363 594.576 248.91C594.576 253.677 593.403 257.967 591.056 261.78C588.71 265.52 585.3 268.453 580.826 270.58C576.353 272.707 571.036 273.77 564.876 273.77ZM664.316 195.12V214.48H643.636V273H619.216V214.48H598.756V195.12H664.316Z" fill="url(#paint3_linear_61_3634)"/>
<path d="M444.148 291.6L442.468 300H441.616L442.948 293.34L438.604 298.932H438.184L435.94 293.232L434.596 300H433.744L435.424 291.6H436.144L438.568 297.84L443.368 291.6H444.148ZM452.045 293.688L450.785 300H449.969L450.173 299.004C449.869 299.34 449.509 299.6 449.093 299.784C448.677 299.968 448.217 300.06 447.713 300.06C447.177 300.06 446.701 299.952 446.285 299.736C445.869 299.52 445.545 299.212 445.313 298.812C445.081 298.404 444.965 297.928 444.965 297.384C444.965 296.672 445.117 296.032 445.421 295.464C445.733 294.896 446.161 294.452 446.705 294.132C447.249 293.804 447.857 293.64 448.529 293.64C449.129 293.64 449.633 293.76 450.041 294C450.449 294.232 450.745 294.568 450.929 295.008L451.193 293.688H452.045ZM447.893 299.304C448.413 299.304 448.881 299.18 449.297 298.932C449.713 298.676 450.037 298.324 450.269 297.876C450.509 297.42 450.629 296.912 450.629 296.352C450.629 295.736 450.445 295.256 450.077 294.912C449.717 294.56 449.209 294.384 448.553 294.384C448.033 294.384 447.565 294.512 447.149 294.768C446.733 295.024 446.405 295.38 446.165 295.836C445.933 296.284 445.817 296.788 445.817 297.348C445.817 297.964 445.997 298.444 446.357 298.788C446.725 299.132 447.237 299.304 447.893 299.304ZM460.694 291.096L458.918 300H458.102L458.306 299.004C458.002 299.34 457.642 299.6 457.226 299.784C456.81 299.968 456.35 300.06 455.846 300.06C455.31 300.06 454.834 299.952 454.418 299.736C454.002 299.52 453.678 299.212 453.446 298.812C453.214 298.404 453.098 297.928 453.098 297.384C453.098 296.672 453.25 296.032 453.554 295.464C453.866 294.896 454.294 294.452 454.838 294.132C455.382 293.804 455.99 293.64 456.662 293.64C457.254 293.64 457.754 293.76 458.162 294C458.578 294.232 458.878 294.568 459.062 295.008L459.842 291.096H460.694ZM456.026 299.304C456.546 299.304 457.014 299.18 457.43 298.932C457.846 298.676 458.17 298.324 458.402 297.876C458.642 297.42 458.762 296.912 458.762 296.352C458.762 295.736 458.578 295.256 458.21 294.912C457.85 294.56 457.342 294.384 456.686 294.384C456.166 294.384 455.698 294.512 455.282 294.768C454.866 295.024 454.538 295.38 454.298 295.836C454.066 296.284 453.95 296.788 453.95 297.348C453.95 297.964 454.13 298.444 454.49 298.788C454.858 299.132 455.37 299.304 456.026 299.304ZM462.083 297.084C462.075 297.14 462.071 297.224 462.071 297.336C462.071 297.976 462.251 298.464 462.611 298.8C462.979 299.136 463.523 299.304 464.243 299.304C464.659 299.304 465.047 299.236 465.407 299.1C465.775 298.956 466.075 298.76 466.307 298.512L466.691 299.124C466.395 299.42 466.023 299.652 465.575 299.82C465.135 299.98 464.667 300.06 464.171 300.06C463.259 300.06 462.539 299.82 462.011 299.34C461.491 298.86 461.231 298.204 461.231 297.372C461.231 296.668 461.379 296.032 461.675 295.464C461.979 294.896 462.395 294.452 462.923 294.132C463.459 293.804 464.059 293.64 464.723 293.64C465.563 293.64 466.231 293.88 466.727 294.36C467.223 294.832 467.471 295.484 467.471 296.316C467.471 296.548 467.443 296.804 467.387 297.084H462.083ZM464.699 294.36C464.067 294.36 463.527 294.548 463.079 294.924C462.631 295.3 462.327 295.808 462.167 296.448H466.667C466.675 296.392 466.679 296.316 466.679 296.22C466.679 295.628 466.499 295.172 466.139 294.852C465.779 294.524 465.299 294.36 464.699 294.36ZM482.245 293.688L478.681 300H477.853L476.797 294.84L473.845 300H473.029L471.793 293.688H472.573L473.593 299.04L476.641 293.688H477.361L478.417 299.04L481.417 293.688H482.245ZM483.468 293.688H484.32L483.072 300H482.22L483.468 293.688ZM484.26 292.308C484.092 292.308 483.952 292.252 483.84 292.14C483.736 292.028 483.684 291.896 483.684 291.744C483.684 291.56 483.744 291.408 483.864 291.288C483.992 291.16 484.152 291.096 484.344 291.096C484.512 291.096 484.652 291.152 484.764 291.264C484.876 291.368 484.932 291.492 484.932 291.636C484.932 291.828 484.868 291.988 484.74 292.116C484.612 292.244 484.452 292.308 484.26 292.308ZM486.811 298.092C486.779 298.284 486.763 298.416 486.763 298.488C486.763 299.048 487.067 299.328 487.675 299.328C488.035 299.328 488.359 299.22 488.647 299.004L488.851 299.652C488.491 299.924 488.023 300.06 487.447 300.06C486.975 300.06 486.599 299.932 486.319 299.676C486.047 299.42 485.911 299.068 485.911 298.62C485.911 298.444 485.927 298.28 485.959 298.128L486.691 294.408H485.575L485.707 293.688H486.835L487.111 292.308H487.963L487.687 293.688H489.607L489.463 294.408H487.543L486.811 298.092ZM494.65 293.64C495.362 293.64 495.914 293.824 496.306 294.192C496.706 294.552 496.906 295.052 496.906 295.692C496.906 295.916 496.882 296.156 496.834 296.412L496.114 300H495.262L495.982 296.4C496.022 296.176 496.042 295.984 496.042 295.824C496.042 295.368 495.902 295.02 495.622 294.78C495.35 294.532 494.946 294.408 494.41 294.408C493.73 294.408 493.17 294.596 492.73 294.972C492.29 295.34 491.994 295.888 491.842 296.616L491.17 300H490.318L492.094 291.096H492.946L492.238 294.636C492.822 293.972 493.626 293.64 494.65 293.64Z" fill="#1F7FAA"/>
<path d="M509.711 302.074C509.795 302.134 509.896 302.166 510 302.166C510.103 302.166 510.204 302.134 510.289 302.074L510 301.666L510.289 302.074L510.295 302.07L510.309 302.06L510.362 302.022C510.408 301.988 510.474 301.94 510.559 301.876C511.549 301.128 512.484 300.309 513.357 299.426C514.122 298.648 514.9 297.738 515.489 296.772C516.076 295.812 516.5 294.756 516.5 293.698C516.5 292.441 516.11 291.459 515.42 290.792C514.733 290.13 513.807 289.833 512.833 289.833C511.683 289.833 510.668 290.388 510 291.244C509.332 290.388 508.316 289.833 507.167 289.833C505.113 289.833 503.5 291.592 503.5 293.698C503.5 294.756 503.925 295.812 504.511 296.772C505.1 297.738 505.878 298.648 506.643 299.427C507.573 300.368 508.574 301.235 509.638 302.022L509.691 302.06L509.705 302.07L509.711 302.074Z" fill="#FF0000"/>
<path d="M526.884 293.64C527.42 293.64 527.896 293.748 528.312 293.964C528.736 294.18 529.064 294.488 529.296 294.888C529.528 295.288 529.644 295.76 529.644 296.304C529.644 297.016 529.488 297.66 529.176 298.236C528.872 298.804 528.448 299.252 527.904 299.58C527.36 299.9 526.748 300.06 526.068 300.06C525.46 300.06 524.948 299.936 524.532 299.688C524.124 299.44 523.832 299.084 523.656 298.62L523.38 300H522.564L524.34 291.096H525.192L524.484 294.636C524.788 294.316 525.14 294.072 525.54 293.904C525.948 293.728 526.396 293.64 526.884 293.64ZM526.056 299.304C526.576 299.304 527.04 299.18 527.448 298.932C527.864 298.676 528.188 298.324 528.42 297.876C528.66 297.428 528.78 296.92 528.78 296.352C528.78 295.736 528.596 295.256 528.228 294.912C527.868 294.56 527.36 294.384 526.704 294.384C526.184 294.384 525.716 294.512 525.3 294.768C524.892 295.016 524.568 295.368 524.328 295.824C524.096 296.272 523.98 296.78 523.98 297.348C523.98 297.964 524.16 298.444 524.52 298.788C524.888 299.132 525.4 299.304 526.056 299.304ZM537.085 293.688L532.477 300.816C532.093 301.408 531.733 301.816 531.397 302.04C531.061 302.272 530.661 302.388 530.197 302.388C529.893 302.388 529.605 302.336 529.333 302.232C529.061 302.136 528.849 302 528.697 301.824L529.153 301.2C529.441 301.504 529.813 301.656 530.269 301.656C530.549 301.656 530.801 301.58 531.025 301.428C531.249 301.276 531.481 301.012 531.721 300.636L532.165 299.964L530.593 293.688H531.457L532.765 299.064L536.209 293.688H537.085ZM544.486 293.64C545.022 293.64 545.498 293.748 545.914 293.964C546.338 294.18 546.666 294.488 546.898 294.888C547.13 295.288 547.246 295.76 547.246 296.304C547.246 297.016 547.09 297.66 546.778 298.236C546.474 298.804 546.05 299.252 545.506 299.58C544.962 299.9 544.35 300.06 543.67 300.06C543.07 300.06 542.566 299.944 542.158 299.712C541.75 299.472 541.454 299.128 541.27 298.68L540.55 302.328H539.698L541.414 293.688H542.23L542.026 294.696C542.33 294.352 542.69 294.092 543.106 293.916C543.522 293.732 543.982 293.64 544.486 293.64ZM543.658 299.304C544.178 299.304 544.642 299.18 545.05 298.932C545.466 298.676 545.79 298.324 546.022 297.876C546.262 297.428 546.382 296.92 546.382 296.352C546.382 295.736 546.198 295.256 545.83 294.912C545.47 294.56 544.962 294.384 544.306 294.384C543.786 294.384 543.318 294.512 542.902 294.768C542.494 295.016 542.17 295.368 541.93 295.824C541.698 296.272 541.582 296.78 541.582 297.348C541.582 297.964 541.762 298.444 542.122 298.788C542.49 299.132 543.002 299.304 543.658 299.304ZM549.09 297.084C549.082 297.14 549.078 297.224 549.078 297.336C549.078 297.976 549.258 298.464 549.618 298.8C549.986 299.136 550.53 299.304 551.25 299.304C551.666 299.304 552.054 299.236 552.414 299.1C552.782 298.956 553.082 298.76 553.314 298.512L553.698 299.124C553.402 299.42 553.03 299.652 552.582 299.82C552.142 299.98 551.674 300.06 551.178 300.06C550.266 300.06 549.546 299.82 549.018 299.34C548.498 298.86 548.238 298.204 548.238 297.372C548.238 296.668 548.386 296.032 548.682 295.464C548.986 294.896 549.402 294.452 549.93 294.132C550.466 293.804 551.066 293.64 551.73 293.64C552.57 293.64 553.238 293.88 553.734 294.36C554.23 294.832 554.478 295.484 554.478 296.316C554.478 296.548 554.45 296.804 554.394 297.084H549.09ZM551.706 294.36C551.074 294.36 550.534 294.548 550.086 294.924C549.638 295.3 549.334 295.808 549.174 296.448H553.674C553.682 296.392 553.686 296.316 553.686 296.22C553.686 295.628 553.506 295.172 553.146 294.852C552.786 294.524 552.306 294.36 551.706 294.36ZM558.349 300.06C557.773 300.06 557.269 299.952 556.837 299.736C556.405 299.512 556.069 299.2 555.829 298.8C555.597 298.392 555.481 297.92 555.481 297.384C555.481 296.672 555.637 296.032 555.949 295.464C556.261 294.896 556.693 294.452 557.245 294.132C557.805 293.804 558.433 293.64 559.129 293.64C560.009 293.64 560.705 293.88 561.217 294.36C561.737 294.84 561.997 295.488 561.997 296.304C561.997 297.016 561.841 297.66 561.529 298.236C561.217 298.804 560.781 299.252 560.221 299.58C559.669 299.9 559.045 300.06 558.349 300.06ZM558.409 299.304C558.929 299.304 559.397 299.18 559.813 298.932C560.229 298.676 560.553 298.324 560.785 297.876C561.025 297.42 561.145 296.912 561.145 296.352C561.145 295.736 560.961 295.256 560.593 294.912C560.233 294.56 559.725 294.384 559.069 294.384C558.549 294.384 558.081 294.512 557.665 294.768C557.249 295.024 556.921 295.38 556.681 295.836C556.449 296.284 556.333 296.788 556.333 297.348C556.333 297.964 556.513 298.444 556.873 298.788C557.241 299.132 557.753 299.304 558.409 299.304ZM567.384 293.64C567.92 293.64 568.396 293.748 568.812 293.964C569.236 294.18 569.564 294.488 569.796 294.888C570.028 295.288 570.144 295.76 570.144 296.304C570.144 297.016 569.988 297.66 569.676 298.236C569.372 298.804 568.948 299.252 568.404 299.58C567.86 299.9 567.248 300.06 566.568 300.06C565.968 300.06 565.464 299.944 565.056 299.712C564.648 299.472 564.352 299.128 564.168 298.68L563.448 302.328H562.596L564.312 293.688H565.128L564.924 294.696C565.228 294.352 565.588 294.092 566.004 293.916C566.42 293.732 566.88 293.64 567.384 293.64ZM566.556 299.304C567.076 299.304 567.54 299.18 567.948 298.932C568.364 298.676 568.688 298.324 568.92 297.876C569.16 297.428 569.28 296.92 569.28 296.352C569.28 295.736 569.096 295.256 568.728 294.912C568.368 294.56 567.86 294.384 567.204 294.384C566.684 294.384 566.216 294.512 565.8 294.768C565.392 295.016 565.068 295.368 564.828 295.824C564.596 296.272 564.48 296.78 564.48 297.348C564.48 297.964 564.66 298.444 565.02 298.788C565.388 299.132 565.9 299.304 566.556 299.304ZM572.973 291.096H573.825L572.049 300H571.197L572.973 291.096ZM575.211 297.084C575.203 297.14 575.199 297.224 575.199 297.336C575.199 297.976 575.379 298.464 575.739 298.8C576.107 299.136 576.651 299.304 577.371 299.304C577.787 299.304 578.175 299.236 578.535 299.1C578.903 298.956 579.203 298.76 579.435 298.512L579.819 299.124C579.523 299.42 579.151 299.652 578.703 299.82C578.263 299.98 577.795 300.06 577.299 300.06C576.387 300.06 575.667 299.82 575.139 299.34C574.619 298.86 574.359 298.204 574.359 297.372C574.359 296.668 574.507 296.032 574.803 295.464C575.107 294.896 575.523 294.452 576.051 294.132C576.587 293.804 577.187 293.64 577.851 293.64C578.691 293.64 579.359 293.88 579.855 294.36C580.351 294.832 580.599 295.484 580.599 296.316C580.599 296.548 580.571 296.804 580.515 297.084H575.211ZM577.827 294.36C577.195 294.36 576.655 294.548 576.207 294.924C575.759 295.3 575.455 295.808 575.295 296.448H579.795C579.803 296.392 579.807 296.316 579.807 296.22C579.807 295.628 579.627 295.172 579.267 294.852C578.907 294.524 578.427 294.36 577.827 294.36Z" fill="#2590B3"/>
<path d="M591.552 291.48C592.576 291.48 593.46 291.664 594.204 292.032C594.956 292.4 595.528 292.916 595.92 293.58C596.312 294.236 596.508 295.004 596.508 295.884C596.508 296.62 596.38 297.312 596.124 297.96C595.876 298.6 595.524 299.116 595.068 299.508C594.62 299.892 594.108 300.084 593.532 300.084C593.116 300.084 592.772 300.012 592.5 299.868C592.236 299.724 592.052 299.516 591.948 299.244C591.436 299.804 590.752 300.084 589.896 300.084C589.432 300.084 589.012 299.98 588.636 299.772C588.268 299.564 587.976 299.268 587.76 298.884C587.544 298.492 587.436 298.04 587.436 297.528C587.436 296.896 587.572 296.312 587.844 295.776C588.124 295.24 588.504 294.816 588.984 294.504C589.472 294.184 590.016 294.024 590.616 294.024C591.504 294.024 592.132 294.34 592.5 294.972L592.68 294.108H594.312L593.532 298.008C593.508 298.112 593.496 298.204 593.496 298.284C593.496 298.604 593.66 298.764 593.988 298.764C594.252 298.764 594.484 298.62 594.684 298.332C594.884 298.036 595.036 297.672 595.14 297.24C595.244 296.8 595.296 296.372 595.296 295.956C595.296 294.908 594.964 294.092 594.3 293.508C593.636 292.916 592.664 292.62 591.384 292.62C590.368 292.62 589.468 292.844 588.684 293.292C587.908 293.74 587.304 294.356 586.872 295.14C586.44 295.916 586.224 296.784 586.224 297.744C586.224 298.456 586.372 299.084 586.668 299.628C586.964 300.164 587.396 300.58 587.964 300.876C588.532 301.172 589.212 301.32 590.004 301.32C590.812 301.32 591.568 301.168 592.272 300.864L592.536 301.968C592.168 302.12 591.748 302.24 591.276 302.328C590.812 302.424 590.356 302.472 589.908 302.472C588.884 302.472 587.992 302.276 587.232 301.884C586.472 301.492 585.888 300.944 585.48 300.24C585.08 299.544 584.88 298.744 584.88 297.84C584.88 296.632 585.164 295.544 585.732 294.576C586.3 293.608 587.088 292.852 588.096 292.308C589.112 291.756 590.264 291.48 591.552 291.48ZM590.4 298.704C590.744 298.704 591.048 298.616 591.312 298.44C591.576 298.264 591.78 298.024 591.924 297.72C592.076 297.416 592.152 297.084 592.152 296.724C592.152 296.308 592.032 295.988 591.792 295.764C591.56 295.532 591.236 295.416 590.82 295.416C590.316 295.416 589.904 295.596 589.584 295.956C589.264 296.308 589.104 296.784 589.104 297.384C589.104 297.808 589.22 298.136 589.452 298.368C589.684 298.592 590 298.704 590.4 298.704ZM602.344 291.6H604.3L602.62 300H600.664L602.344 291.6ZM609.522 293.448C610.242 293.448 610.814 293.64 611.238 294.024C611.662 294.4 611.874 294.94 611.874 295.644C611.874 295.908 611.846 296.168 611.79 296.424L611.07 300H609.198L609.894 296.544C609.926 296.408 609.942 296.26 609.942 296.1C609.942 295.764 609.85 295.508 609.666 295.332C609.482 295.156 609.206 295.068 608.838 295.068C608.358 295.068 607.958 295.208 607.638 295.488C607.326 295.76 607.114 296.172 607.002 296.724L606.354 300H604.482L605.766 293.544H607.542L607.398 294.24C607.974 293.712 608.682 293.448 609.522 293.448ZM615.323 297.72C615.307 297.784 615.299 297.872 615.299 297.984C615.299 298.4 615.527 298.608 615.983 298.608C616.231 298.608 616.483 298.532 616.739 298.38L617.015 299.712C616.599 299.968 616.063 300.096 615.407 300.096C614.799 300.096 614.311 299.936 613.943 299.616C613.575 299.296 613.391 298.856 613.391 298.296C613.391 298.136 613.411 297.948 613.451 297.732L613.967 295.128H612.971L613.259 293.688H614.255L614.567 292.116H616.439L616.127 293.688H617.735L617.447 295.128H615.839L615.323 297.72ZM624.802 296.292C624.802 296.588 624.766 296.916 624.694 297.276H619.75C619.814 298.156 620.37 298.596 621.418 298.596C621.746 298.596 622.058 298.544 622.354 298.44C622.658 298.336 622.922 298.188 623.146 297.996L623.926 299.232C623.566 299.52 623.154 299.736 622.69 299.88C622.226 300.024 621.738 300.096 621.226 300.096C620.562 300.096 619.978 299.98 619.474 299.748C618.978 299.508 618.594 299.168 618.322 298.728C618.058 298.288 617.926 297.78 617.926 297.204C617.926 296.492 618.086 295.852 618.406 295.284C618.734 294.708 619.186 294.26 619.762 293.94C620.338 293.612 620.994 293.448 621.73 293.448C622.354 293.448 622.894 293.564 623.35 293.796C623.814 294.028 624.17 294.36 624.418 294.792C624.674 295.224 624.802 295.724 624.802 296.292ZM621.646 294.852C621.206 294.852 620.834 294.972 620.53 295.212C620.226 295.444 620.01 295.768 619.882 296.184H623.086C623.086 295.768 622.954 295.444 622.69 295.212C622.434 294.972 622.086 294.852 621.646 294.852ZM628.234 294.312C628.514 294.008 628.85 293.788 629.242 293.652C629.642 293.516 630.11 293.448 630.646 293.448L630.31 295.176C630.086 295.16 629.942 295.152 629.878 295.152C629.31 295.152 628.854 295.292 628.51 295.572C628.174 295.852 627.946 296.288 627.826 296.88L627.202 300H625.33L626.614 293.544H628.39L628.234 294.312ZM636.935 295.668H638.711L638.015 299.124C637.591 299.452 637.099 299.704 636.539 299.88C635.979 300.056 635.399 300.144 634.799 300.144C633.959 300.144 633.227 299.992 632.603 299.688C631.979 299.384 631.495 298.956 631.151 298.404C630.815 297.852 630.647 297.216 630.647 296.496C630.647 295.544 630.867 294.684 631.307 293.916C631.747 293.148 632.367 292.548 633.167 292.116C633.967 291.676 634.887 291.456 635.927 291.456C636.727 291.456 637.419 291.58 638.003 291.828C638.595 292.076 639.071 292.44 639.431 292.92L638.039 294.048C637.759 293.72 637.443 293.484 637.091 293.34C636.739 293.188 636.323 293.112 635.843 293.112C635.203 293.112 634.639 293.256 634.151 293.544C633.663 293.824 633.283 294.212 633.011 294.708C632.747 295.204 632.615 295.76 632.615 296.376C632.615 297.024 632.823 297.54 633.239 297.924C633.663 298.3 634.267 298.488 635.051 298.488C635.547 298.488 636.011 298.388 636.443 298.188L636.935 295.668ZM642.425 294.312C642.705 294.008 643.041 293.788 643.433 293.652C643.833 293.516 644.301 293.448 644.837 293.448L644.501 295.176C644.277 295.16 644.133 295.152 644.069 295.152C643.501 295.152 643.045 295.292 642.701 295.572C642.365 295.852 642.137 296.288 642.017 296.88L641.393 300H639.521L640.805 293.544H642.581L642.425 294.312ZM651.591 296.292C651.591 296.588 651.555 296.916 651.483 297.276H646.539C646.603 298.156 647.159 298.596 648.207 298.596C648.535 298.596 648.847 298.544 649.143 298.44C649.447 298.336 649.711 298.188 649.935 297.996L650.715 299.232C650.355 299.52 649.943 299.736 649.479 299.88C649.015 300.024 648.527 300.096 648.015 300.096C647.351 300.096 646.767 299.98 646.263 299.748C645.767 299.508 645.383 299.168 645.111 298.728C644.847 298.288 644.715 297.78 644.715 297.204C644.715 296.492 644.875 295.852 645.195 295.284C645.523 294.708 645.975 294.26 646.551 293.94C647.127 293.612 647.783 293.448 648.519 293.448C649.143 293.448 649.683 293.564 650.139 293.796C650.603 294.028 650.959 294.36 651.207 294.792C651.463 295.224 651.591 295.724 651.591 296.292ZM648.435 294.852C647.995 294.852 647.623 294.972 647.319 295.212C647.015 295.444 646.799 295.768 646.671 296.184H649.875C649.875 295.768 649.743 295.444 649.479 295.212C649.223 294.972 648.875 294.852 648.435 294.852ZM659.955 293.544L658.671 300H656.895L657.015 299.364C656.479 299.852 655.819 300.096 655.035 300.096C654.531 300.096 654.067 299.98 653.643 299.748C653.219 299.516 652.879 299.184 652.623 298.752C652.375 298.312 652.251 297.796 652.251 297.204C652.251 296.492 652.407 295.852 652.719 295.284C653.039 294.708 653.471 294.26 654.015 293.94C654.559 293.612 655.159 293.448 655.815 293.448C656.807 293.448 657.507 293.772 657.915 294.42L658.083 293.544H659.955ZM655.611 298.548C655.979 298.548 656.307 298.46 656.595 298.284C656.883 298.1 657.107 297.848 657.267 297.528C657.427 297.208 657.507 296.84 657.507 296.424C657.507 295.984 657.375 295.636 657.111 295.38C656.855 295.124 656.495 294.996 656.031 294.996C655.663 294.996 655.335 295.088 655.047 295.272C654.759 295.448 654.535 295.696 654.375 296.016C654.215 296.336 654.135 296.704 654.135 297.12C654.135 297.56 654.263 297.908 654.519 298.164C654.783 298.42 655.147 298.548 655.611 298.548ZM662.948 297.72C662.932 297.784 662.924 297.872 662.924 297.984C662.924 298.4 663.152 298.608 663.608 298.608C663.856 298.608 664.108 298.532 664.364 298.38L664.64 299.712C664.224 299.968 663.688 300.096 663.032 300.096C662.424 300.096 661.936 299.936 661.568 299.616C661.2 299.296 661.016 298.856 661.016 298.296C661.016 298.136 661.036 297.948 661.076 297.732L661.592 295.128H660.596L660.884 293.688H661.88L662.192 292.116H664.064L663.752 293.688H665.36L665.072 295.128H663.464L662.948 297.72Z" fill="#4ABFA7"/>
<path d="M381.456 165.585C381.906 165.663 381.906 166.337 381.456 166.415C368.309 168.686 366.03 171.491 364.432 189.602C364.388 190.095 363.612 190.095 363.568 189.602C361.97 171.491 359.691 168.686 346.544 166.415C346.094 166.337 346.094 165.663 346.544 165.585C359.691 163.314 361.97 160.509 363.568 142.398C363.612 141.905 364.388 141.905 364.432 142.398C366.03 160.509 368.309 163.314 381.456 165.585Z" fill="url(#paint4_linear_61_3634)"/>
<defs>
<linearGradient id="paint0_linear_61_3634" x1="137" y1="23" x2="17.1412" y2="7.04282" gradientUnits="userSpaceOnUse">
<stop stop-color="#32B3C7"/>
<stop offset="1" stop-color="#02317E"/>
</linearGradient>
<linearGradient id="paint1_linear_61_3634" x1="285.154" y1="141.3" x2="6.57276" y2="88.0567" gradientUnits="userSpaceOnUse">
<stop stop-color="#2BD4EE"/>
<stop offset="1" stop-color="#002B7A"/>
</linearGradient>
<linearGradient id="paint2_linear_61_3634" x1="292" y1="159.5" x2="373" y2="279.5" gradientUnits="userSpaceOnUse">
<stop stop-color="#2BD4EE"/>
<stop offset="0.511572" stop-color="#004ED4"/>
<stop offset="1" stop-color="#E04362"/>
</linearGradient>
<linearGradient id="paint3_linear_61_3634" x1="651.161" y1="234.5" x2="400" y2="227.91" gradientUnits="userSpaceOnUse">
<stop stop-color="#2BD4EE"/>
<stop offset="1" stop-color="#02317E"/>
</linearGradient>
<linearGradient id="paint4_linear_61_3634" x1="355.714" y1="157.633" x2="374.869" y2="176.601" gradientUnits="userSpaceOnUse">
<stop stop-color="#FFD754"/>
<stop offset="1" stop-color="#FFA629"/>
</linearGradient>
</defs>
</svg>
