<svg xmlns="http://www.w3.org/2000/svg" viewBox="0 0 512 512"><circle cx="256" cy="256" r="256" fill="#F0F0F0"/><path d="M435.138 73.144C388.965 27.904 325.747 0 256 0c-22.26 0-87.394 27.904-133.565 73.144h312.703zM256 219.43h253.388c-3.694-25.825-11.237-50.405-22.038-73.143H244.87L256 219.43zM24.65 365.715h462.7c10.802-22.737 18.345-47.32 22.04-73.144H2.612c3.695 25.826 11.236 50.408 22.04 73.144zm52.212 73.14C123.035 484.096 186.253 512 256 512s132.965-27.904 179.138-73.144H76.862z" fill="#6DA544"/><path d="M256 0C127.034 0 20.36 95.37 2.612 219.43H256V0z" fill="#D80027"/><path d="M128 196.267l-11.13-22.26v-44.522l27.826-22.26 27.826 22.26v33.4l11.13-11.13v22.26l-22.26 22.26zM68.135 128l2.947 9.07h9.536l-7.715 5.607 2.948 9.07-7.716-5.606-7.716 5.606 2.948-9.07-7.715-5.607h9.536zm22.26-22.26l2.947 9.07h9.537l-7.716 5.607 2.947 9.07-7.715-5.605-7.715 5.605 2.948-9.07-7.716-5.607h9.535zm22.26-22.262l2.947 9.07h9.535l-7.714 5.607 2.946 9.07-7.714-5.605-7.716 5.605 2.947-9.07-7.714-5.607h9.535zM221.256 128l-2.947 9.07h-9.535l7.714 5.607-2.947 9.07 7.715-5.606 7.716 5.606-2.947-9.07 7.714-5.607h-9.535zm-22.26-22.26l-2.947 9.07h-9.535l7.714 5.607-2.947 9.07 7.715-5.605 7.716 5.605-2.948-9.07 7.715-5.607h-9.535zm-22.26-22.262l-2.948 9.07h-9.535l7.714 5.607-2.947 9.07 7.716-5.605 7.715 5.605-2.947-9.07 7.714-5.607h-9.535zm-32.04-11.13l-2.948 9.07h-9.535l7.714 5.606-2.947 9.07 7.716-5.605 7.715 5.605-2.947-9.07 7.714-5.606h-9.535z" fill="#F0F0F0"/></svg>