<svg xmlns="http://www.w3.org/2000/svg" viewBox="0 0 512 512"><circle cx="256" cy="256" r="256" fill="#F0F0F0"/><path d="M0 256c0 97.035 54 181.455 133.565 224.873V31.127C54 74.545 0 158.965 0 256z" fill="#D80027"/><path d="M0 256c0 118.28 80.22 217.805 189.217 247.18V8.82C80.22 38.195 0 137.72 0 256z" fill="#0052B4"/><path d="M91.826 89.043v41.74c0 20.747 16.818 37.565 37.565 37.565s37.565-16.818 37.565-37.565v-41.74h-75.13z" fill="#D80027"/><path d="M129.39 146.087c-8.44 0-15.304-6.865-15.304-15.304v-19.478h30.61v19.478c0 8.44-6.866 15.304-15.305 15.304z" fill="#F0F0F0"/><path d="M278.26 267.13h-66.783c0-12.294-9.967-22.26-22.26-22.26s-22.26 9.967-22.26 22.26h-66.783c0 12.295 10.7 22.26 23.002 22.26h-.74c0 12.295 9.965 22.26 22.26 22.26 0 12.295 9.965 22.26 22.26 22.26h44.522c12.294 0 22.26-9.966 22.26-22.26 12.294 0 22.26-9.966 22.26-22.26h-.74c12.293 0 23.002-9.966 23.002-22.26zm9.15-35.623l-5.844 9.357 7.1 8.448-10.704-2.665-5.845 9.353-.77-11.005-10.704-2.67 10.23-4.132-.77-11.005 7.1 8.452zm-34.104-28.615l-2.3 10.8 9.553 5.515-10.972 1.158-2.293 10.788-4.488-10.078-10.97 1.152 8.2-7.382-4.486-10.076 9.552 5.515zm-41.83-15.224l1.535 10.925 10.863 1.915-9.914 4.836 1.535 10.925-7.662-7.936-9.916 4.836 5.18-9.74-7.663-7.934 10.865 1.914zm-44.516 0l5.18 9.74 10.863-1.915-7.663 7.937 5.18 9.74-9.914-4.837-7.664 7.934 1.536-10.923-9.915-4.835 10.863-1.916zm-41.832 15.224l8.198 7.383 9.552-5.515-4.484 10.08 8.195 7.38-10.97-1.153-4.5 10.078-2.3-10.8-10.972-1.152 9.552-5.518zm-34.102 28.615l10.23 4.134 7.087-8.45-.766 11.007 10.227 4.133-10.705 2.666-.772 11.004-5.84-9.353-10.704 2.667 7.1-8.45z" fill="#FFDA44"/></svg>