<svg xmlns="http://www.w3.org/2000/svg" viewBox="0 0 512.001 512.001"><path d="M256 .001c141.384 0 256 114.616 256 256S397.385 512 256 512s-256-114.616-256-256" fill="#FFDA44"/><path d="M250.436 113.78H468.88a257.41 257.41 0 0 0-51.987-56.889h-166.457v56.9zm0 113.777H510.42c-2.182-19.726-6.603-38.773-13.006-56.888h-246.98v56.888zM14.588 341.335h482.825c6.403-18.115 10.825-37.164 13.007-56.9H1.582c2.18 19.727 6.602 38.776 13.006 56.9zm80.52 113.777h321.784c20.05-16.22 37.603-35.403 51.987-56.9H43.123c14.384 21.486 31.936 40.667 51.985 56.9z" fill="#D80027"/><path d="M256 .001C114.616.001-.001 114.617 0 256.003h256V.001z" fill="#4A1F63"/><path d="M211.48 133.566v22.26h-11.13v-22.26h-22.26v22.26h-11.13v-44.522h-44.522v44.522h-11.13v-22.26h-22.26v22.26h-11.13v-22.26H55.652v66.782H233.74v-66.782z" fill="#F0F0F0"/></svg>