<svg xmlns="http://www.w3.org/2000/svg" viewBox="0 0 512 512"><circle cx="256" cy="256" r="256" fill="#F0F0F0"/><path d="M2.168 289.4c5.956 45.713 23.978 87.628 50.755 122.464L189.217 289.4H2.168zM222.6 509.833v-187.05L100.145 459.078c34.837 26.777 76.75 44.8 122.464 50.755zm0-507.666c-45.713 5.956-87.627 23.978-122.464 50.755L222.6 189.218V2.167zM2.168 222.6h187.05L52.922 100.145c-26.777 34.836-44.8 76.75-50.754 122.464zM289.4 2.167v187.05L411.857 52.922C377.02 26.147 335.105 8.122 289.4 2.167zM509.833 222.6c-5.956-45.713-23.978-87.628-50.755-122.465L322.783 222.6h187.05zm-187.05 66.8L459.08 411.856c26.776-34.837 44.8-76.752 50.755-122.465h-187.05zM289.4 509.833c45.713-5.956 87.63-23.978 122.465-50.756L289.4 322.783v187.05z" fill="#D80027"/><path d="M459.098 411.876L303.223 256l155.875-155.876c-6.722-8.736-14.076-17.14-22.078-25.144a258.09 258.09 0 0 0-25.144-22.078L256 208.777 100.125 52.902C91.39 59.624 82.984 66.977 74.98 74.98s-15.357 16.408-22.078 25.145L208.778 256 52.903 411.876c6.722 8.735 14.076 17.14 22.078 25.144s16.408 15.357 25.145 22.078L256 303.223l155.876 155.875c8.735-6.722 17.14-14.076 25.144-22.078a258.56 258.56 0 0 0 22.078-25.144z" fill="#496E2D"/><path d="M289.39 509.833v-220.44h220.442A258.2 258.2 0 0 0 512 256c0-11.316-.743-22.46-2.167-33.4h-220.44l-.001-.001V2.168A258.52 258.52 0 0 0 256 0c-11.317.001-22.46.745-33.39 2.168l.001 220.44H2.168A258.35 258.35 0 0 0 0 256c.001 11.32.744 22.46 2.168 33.39h220.44l.001 220.442C233.54 511.256 244.68 512 256 512s22.462-.744 33.39-2.167z" fill="#F0F0F0"/></svg>