<svg xmlns="http://www.w3.org/2000/svg" viewBox="0 0 512 512"><path d="M74.98 437.02c-99.974-99.974-99.974-262.064 0-362.04s262.065-99.974 362.04 0c0 .035 67.968 230.057-32.007 330.033S75.05 437.1 74.98 437.02z" fill="#FFDA44"/><path d="M74.98 437.02c99.974 99.974 262.065 99.974 362.04 0s99.974-262.064 0-362.04L74.98 437.02z" fill="#FF9811"/><path d="M400.816 144.695v-44.522H315.48l-6.52 6.52c-23.19 23.19-19.288 50.24-16.44 69.993 2.64 18.323 2.958 25.342-3.856 32.157s-13.835 6.497-32.156 3.854c-19.752-2.847-46.803-6.748-69.992 16.44s-19.285 50.238-16.435 69.99c2.643 18.32 2.96 25.34-3.85 32.15s-13.834 6.494-32.15 3.85c-7.142-1.03-14.527-2.095-22.41-2.183l-.49 44.52c4.934.055 10.573.867 16.543 1.73 7.068 1.02 15.068 2.175 23.494 2.175 8.732 0 17.918-1.245 27-5.162v35.62h66.783v-33.39h-33.39v-22.26h22.26v-33.39h-17.792c.844-10.802-.64-21.146-1.92-30.014-2.643-18.32-2.96-25.34 3.85-32.15s13.832-6.498 32.156-3.856c14.393 2.075 32.66 4.697 50.488-3v35.627h66.783V256h-33.39v-22.26h22.26v-33.39h-17.79c.845-10.803-.638-21.146-1.918-30.017-1.845-12.8-2.557-20.085-.493-25.636l64.723-.001z" fill="#F0F0F0"/></svg>