<svg xmlns="http://www.w3.org/2000/svg" xmlns:xlink="http://www.w3.org/1999/xlink" viewBox="0 0 512 512"><circle cx="256" cy="256" r="256" fill="#F0F0F0"/><path d="M411.876 52.902c-91.652-70.526-220.1-70.526-311.752-.001L256 208.777 411.876 52.902zM255.998 303.224L100.124 459.098c91.652 70.526 220.1 70.526 311.752 0L255.998 303.224z" fill="#D80027"/><path d="M208.777 256L52.902 100.124c-70.526 91.652-70.526 220.1 0 311.752L208.777 256zm94.447 0l155.874 155.876c70.526-91.652 70.526-220.1 0-311.752L303.224 256z" fill="#6DA544"/><circle cx="256" cy="256" r="111.304" fill="#F0F0F0"/><g fill="#D80027"><path d="M256 178.087l9.64 16.696h19.28l-9.64 16.695 9.64 16.696h-19.28L256 244.87l-9.64-16.696h-19.278l9.64-16.696-9.64-16.695h19.278z"/><use xlink:href="#A"/><use xlink:href="#A" x="97.991"/></g><defs><path id="A" d="M207.005 256l9.64 16.696h19.278l-9.64 16.695 9.64 16.696h-19.278l-9.64 16.696-9.64-16.696h-19.278l9.64-16.696-9.64-16.695h19.278z"/></defs></svg>