<svg xmlns="http://www.w3.org/2000/svg" viewBox="0 0 511.989 511.989"><circle cx="255.997" cy="255.996" r="255.957" fill="#F0F0F0"/><path d="M34.33 128.016c-11.553 20.008-20.075 40.926-25.75 62.233L436.638 437.4c15.615-15.57 29.47-33.4 41.02-53.417L34.33 128.016z"/><path d="M383.974 34.33C281.558-24.8 155.278-5.093 75.35 74.6l428.058 247.14c29.053-109.062-17.02-228.28-119.435-287.4zM128.017 477.66C230.43 536.8 356.714 517.082 436.64 437.4L8.58 190.25c-29.05 109.064 17.02 228.28 119.437 287.4z" fill="#FFDA44"/><g fill="#D80027"><path d="M328.33 228.173c0 39.95-32.386 72.336-72.336 72.336s-72.336-32.386-72.336-72.336c0-12.456 3.15-24.177 8.695-34.4-15.697 16.053-25.388 38.005-25.388 62.23 0 49.17 39.86 89.03 89.03 89.03s89.03-39.86 89.03-89.03c0-24.226-9.7-46.178-25.388-62.23 5.546 10.235 8.695 21.954 8.695 34.4z"/><path d="M239.304 144.7H272.7v166.93h-33.386z"/><path d="M311.638 178.095H200.353c0 7.683 6.693 13.9 14.375 13.9h-.464c0 7.683 6.23 13.9 13.9 13.9 0 7.683 6.23 13.9 13.9 13.9h27.82c7.683 0 13.9-6.228 13.9-13.9 7.683 0 13.9-6.228 13.9-13.9h-.463c7.68-.001 14.372-6.227 14.372-13.9zm-133.54 144.672h155.8v33.386h-155.8z"/><path d="M289.382 333.896h66.77v33.386h-66.77zm-133.542 0h66.77v33.386h-66.77z"/></g></svg>