<svg xmlns="http://www.w3.org/2000/svg" viewBox="0 0 512 512"><path d="M0,256C0,114.616,114.616,0,256,0s256,114.616,256,256H0z" fill="#F0F0F0"/><path d="M189.217 242.005L175.222 256h13.995zm133.566.001V256h13.994zM7.386 194.784C2.57 214.4 0 234.9 0 256h80.777l61.216-61.216H7.386zm362.62 0L431.22 256H512a256.55 256.55 0 0 0-7.386-61.216h-134.6z" fill="#0052B4"/><path d="M354.264 194.784h-31.48L384 256h31.482zm-165.047 31.48l-.002-31.48L128 256h31.482z" fill="#D80027"/><path d="M119.922 39.142a257.11 257.11 0 0 0-30.026 22.075h52.1l-22.074-22.075zm302.182 22.075c-9.44-8.058-19.473-15.44-30.024-22.075l-22.074 22.075h52.098z" fill="#0052B4"/><path d="M289.4 161.4h204.55c-9.678-24.32-22.98-46.797-39.233-66.783H289.4V2.167A258.53 258.53 0 0 0 256 0a258.48 258.48 0 0 0-33.39 2.167v92.44H57.292C41.04 114.594 27.737 137.072 18.06 161.4H222.6V256h66.783v-94.6zM189.217 61.217l-38.593-38.594a253.45 253.45 0 0 0-20.856 10.625l27.97 27.97h31.48zm133.566 0l38.594-38.593c-7.34-3.32-14.868-6.295-22.558-8.924l-16.036 16.037v31.48z" fill="#D80027"/><path d="M512 256c0 141.384-114.616 256-256 256S0 397.384 0 256h512z" fill="#F0F0F0"/><path d="M469.33 288.65c-21.333 0-21.333-19.506-42.667-19.506s-21.333 19.506-42.665 19.506-21.333-19.506-42.665-19.506S320 288.65 298.666 288.65s-21.335-19.506-42.67-19.506-21.333 19.506-42.665 19.506-21.33-19.506-42.663-19.506-21.335 19.506-42.67 19.506-21.335-19.506-42.67-19.506-21.33 19.506-42.663 19.506c-21.218 0-21.34-19.3-42.332-19.497a256.38 256.38 0 0 0 4.103 34.448c17.004 2.5 18.493 19.182 38.23 19.182C64 322.783 64 303.28 85.33 303.28c21.335 0 21.335 19.504 42.67 19.504s21.335-19.504 42.67-19.504 21.333 19.504 42.663 19.504 21.333-19.504 42.665-19.504 21.335 19.504 42.67 19.504 21.335-19.504 42.667-19.504 21.333 19.504 42.665 19.504 21.333-19.504 42.665-19.504S448 322.783 469.33 322.783c19.74 0 21.228-16.682 38.233-19.18a256.53 256.53 0 0 0 4.105-34.448c-20.995.207-21.12 19.496-42.34 19.496zm-42.667 47.277c-21.333 0-21.333 19.506-42.665 19.506s-21.333-19.506-42.665-19.506-21.333 19.506-42.667 19.506-21.335-19.506-42.67-19.506-21.333 19.506-42.665 19.506-21.33-19.506-42.663-19.506-21.335 19.506-42.67 19.506-21.335-19.506-42.67-19.506-21.33 19.506-42.663 19.506c-15.243 0-19.597-9.956-28.622-15.644 6.008 17.36 13.824 33.872 23.237 49.308 1.637.302 3.42.47 5.385.47 21.333 0 21.333-19.504 42.663-19.504s21.335 19.504 42.67 19.504 21.335-19.504 42.67-19.504S192 389.566 213.33 389.566s21.333-19.504 42.665-19.504 21.335 19.504 42.67 19.504 21.335-19.504 42.667-19.504 21.333 19.504 42.665 19.504 21.333-19.504 42.665-19.504 21.335 19.504 42.667 19.504c1.967 0 3.75-.167 5.387-.47 9.413-15.435 17.23-31.948 23.24-49.306-9.026 5.685-13.38 15.643-28.626 15.643-21.332 0-21.332-19.506-42.667-19.506z" fill="#0052B4"/><path d="M511.862 247.957l.063 2.136-.063-2.136zM.075 250.092l.063-2.136-.063 2.136zM0 256l.075-5.908L0 256zm0 0a258.15 258.15 0 0 0 .38 13.897c20.943.235 21.082 19.494 42.285 19.494C64 289.4 64 269.887 85.33 269.887S106.665 289.39 128 289.39s21.335-19.504 42.67-19.504 21.333 19.504 42.663 19.504 21.333-19.504 42.665-19.504 21.335 19.504 42.67 19.504 21.335-19.504 42.667-19.504S362.667 289.4 384 289.4s21.333-19.504 42.665-19.504S448 289.4 469.33 289.4c21.205 0 21.344-19.26 42.3-19.494A260.27 260.27 0 0 0 512 256H0zm511.925-5.908L512 256l-.075-5.908z" fill="#F0F0F0"/><path d="M426.663 402.71c-21.333 0-21.333 19.506-42.665 19.506s-21.333-19.506-42.665-19.506-21.333 19.506-42.667 19.506-21.335-19.506-42.67-19.506-21.333 19.506-42.665 19.506S192 402.71 170.668 402.71s-21.335 19.506-42.67 19.506-21.335-19.506-42.67-19.506c-14.734 0-19.293 9.304-27.733 15.06 22.39 27.426 50.36 50.1 82.164 66.352L256 478.266l116.24 5.855c31.804-16.243 59.774-38.924 82.163-66.35-8.444-5.756-13.003-15.062-27.74-15.062z" fill="#0052B4"/><path d="M397.983 408.814l-77.875 14.895-9.866-78.665L256 402.9l-54.24-57.856-9.87 78.665-77.87-14.895 38.19 69.452-12.472 5.866C174.624 501.95 214.137 512 256 512s81.376-10.05 116.264-27.867l-12.467-5.865 38.186-69.454z" fill="#FFDA44"/></svg>