<svg xmlns="http://www.w3.org/2000/svg" viewBox="0 0 512 512"><circle cx="256" cy="256" r="256" fill="#6DA544"/><path d="M392.984 367.304l7.025 14.7 15.864-3.666-7.104 14.65 12.757 10.116-15.884 3.58.045 16.283-12.703-10.187-12.702 10.187.044-16.283-15.883-3.58 12.757-10.116-7.104-14.65 15.863 3.666zm-65.352-155.826l7.026 14.7 15.864-3.667-7.105 14.652 12.757 10.116-15.883 3.58.044 16.282-12.703-10.186-12.702 10.186.043-16.282-15.882-3.58 12.757-10.116-7.105-14.652 15.865 3.667zm65.352-89.043l7.025 14.7 15.864-3.668-7.103 14.652 12.756 10.117-15.884 3.58.043 16.283-12.7-10.187-12.702 10.187.044-16.283-15.882-3.58L377.2 148.1l-7.104-14.652 15.863 3.668zm57.083 66.782l7.025 14.7 15.865-3.667-7.105 14.652 12.757 10.116-15.883 3.58.044 16.283-12.703-10.187-12.702 10.187.043-16.283-15.882-3.58 12.757-10.116-7.105-14.652 15.864 3.667zM409.25 267.13l5.527 17.007h17.88l-14.467 10.5 5.527 17.005-14.468-10.5-14.465 10.5 5.525-17.005-14.466-10.5h17.88zm-125.424 61.218c-39.957 0-72.35-32.392-72.35-72.348s32.4-72.348 72.35-72.348c12.458 0 24.18 3.15 34.415 8.696-16.055-15.702-38-25.392-62.243-25.392-49.176 0-89.042 39.866-89.042 89.043s39.866 89.043 89.042 89.043c24.232 0 46.188-9.7 62.242-25.392-10.233 5.547-21.956 8.698-34.414 8.698zm-122.84-228.174c-7.7-13.304-22.075-22.26-38.55-22.26s-30.85 8.957-38.55 22.26h77.102zm.148.256l-38.7 38.7-38.7-38.7a44.3 44.3 0 0 0-5.822 22.004c0 24.6 19.933 44.522 44.522 44.522s44.522-19.932 44.522-44.522c-.001-8.006-2.125-15.513-5.824-22.004z" fill="#FFDA44"/><path d="M111.304 128v37.554c3.557.915 7.287 1.402 11.13 1.402s7.573-.488 11.13-1.402V128h-22.26z" fill="#A2001D"/></svg>