<svg xmlns="http://www.w3.org/2000/svg" viewBox="0 0 512 512"><path d="M483.574 138.616c-11.83-22.92-27.334-44.43-46.546-63.643s-40.726-34.718-63.644-46.546l-180.35 164.606-164.607 180.35c11.83 22.92 27.334 44.432 46.546 63.644s40.725 34.717 63.643 46.546l180.35-164.607 164.608-180.35z" fill="#FFDA44"/><path d="M74.974 437.027c10.74 10.74 22.198 20.317 34.217 28.75L465.775 109.19c-8.43-12.02-18.01-23.478-28.748-34.217S414.83 54.658 402.8 46.226L46.226 402.8c8.43 12.017 18.008 23.478 28.748 34.217z" fill="#D80027"/><path d="M74.974 74.972c-80.767 80.767-96.272 202.065-46.546 298.4L373.384 28.427C277.038-21.298 155.74-5.8 74.974 74.972zm362.053 362.055c80.766-80.766 96.27-202.064 46.547-298.4L138.618 483.573c96.345 49.725 217.644 34.22 298.4-46.546z" fill="#338AF3"/><path d="M136.426 77.905l13.814 42.517h44.704l-36.166 26.276 13.814 42.516-36.166-26.277-36.168 26.277 13.816-42.516-36.168-26.276H122.6z" fill="#FFDA44"/></svg>