<svg xmlns="http://www.w3.org/2000/svg" viewBox="0 0 512 512"><path d="M512 256c0 141.384-114.616 256-256 256S0 397.384 0 256C0 256.06 256 .028 256 0c141.384 0 256 114.616 256 256z" fill="#0052B4"/><g fill="#F0F0F0"><path d="M256 0h-.043.043zm-.685 256H256v-.685l-.685.685z"/><path d="M256 133.565L255.957 0C114.59.024 0 114.63 0 256h133.565v-75.21l75.21 75.21h46.54l.685-.685v-46.537l-75.213-75.213H256z"/></g><path d="M129.515 33.4C89.476 56.2 56.2 89.476 33.4 129.515V256h66.783V100.174H256V33.4H129.515zM256 224.52l-90.955-90.953-31.48.002L256 256v-31.48z" fill="#D80027"/><path d="M445.217 256zM289.4 256z" fill="#496E2D"/><path d="M345.043 256l4.738 14.576h15.325l-12.398 9.008 4.736 14.577-12.4-9-12.4 9 4.736-14.577-12.398-9.008h15.325zm-62.963 26.08l13.655 6.957 10.838-10.837-2.398 15.138 13.656 6.958-15.138 2.396-2.397 15.14-6.96-13.657-15.137 2.398 10.84-10.837zM256 345.043l14.576-4.736.002-15.324 9.006 12.397 14.577-4.737-9 12.4 9 12.4-14.577-4.736-9.006 12.398V349.78zm26.08 62.963l6.957-13.656-10.837-10.836 15.138 2.397 6.958-13.656 2.397 15.138 15.138 2.396-13.656 6.96 2.398 15.14-10.838-10.84zm62.963 26.08l-4.736-14.577H324.98l12.4-9.008-4.736-14.576 12.4 9.008 12.4-9.008-4.736 14.576 12.398 9.008H349.78zm62.963-26.08l-13.656-6.956-10.836 10.837 2.397-15.14-13.656-6.957 15.138-2.398 2.398-15.138 6.957 13.656 15.138-2.397-10.84 10.837zm26.08-62.964L419.5 349.78v15.325l-9.008-12.4-14.576 4.737 9-12.4-9-12.4 14.576 4.737 9.008-12.397v15.324zm-26.08-62.96l-6.956 13.655 10.836 10.837-15.138-2.398-6.957 13.657-2.398-15.14-15.138-2.397 13.656-6.957-2.397-15.137 10.837 10.836z" fill="#F0F0F0"/></svg>