<svg xmlns="http://www.w3.org/2000/svg" viewBox="0 0 512 512"><circle cx="256" cy="256" r="256" fill="#F0F0F0"/><path d="M256 512c77.6 0 147.114-34.524 194.06-89.043H61.94C108.886 477.476 178.4 512 256 512zm256-256C512 114.616 397.384 0 256 0S0 114.616 0 256a256.28 256.28 0 0 0 8.819 66.783h494.363C508.92 301.5 512 279.107 512 256z" fill="#0052B4"/><path d="M20.348 356.174a254.96 254.96 0 0 0 17.227 33.391h436.852c6.52-10.644 12.3-21.796 17.227-33.39H20.348z" fill="#D80027"/><path d="M183 272.696l4.144 12.754h13.4l-10.85 7.883 4.144 12.754-10.85-7.883-10.85 7.883 4.145-12.754-10.85-7.883h13.4zm0 166.956l4.144 12.755h13.4l-10.85 7.882 4.144 12.754L183 465.16l-10.85 7.882 4.145-12.754-10.85-7.882h13.4zM105.274 383.2l4.144 12.753h13.4l-10.85 7.882 4.144 12.756-10.85-7.883-10.85 7.883 4.146-12.756-10.85-7.882h13.4zm29.686-93.8l4.144 12.755h13.4l-10.848 7.882 4.144 12.755-10.85-7.883-10.85 7.883 4.146-12.755-10.85-7.882h13.4zm-47.24 52.515l13.408.001 4.145-12.757 4.145 12.756 13.4-.001-10.85 7.883 4.145 12.755-10.85-7.883-10.85 7.88 4.144-12.753zM124.1 453.9l4.144-12.752-10.85-7.882h13.4l4.145-12.755 4.145 12.754h13.4l-10.85 7.882 4.144 12.756-10.85-7.884zm136.577-70.7l-4.143 12.753h-13.4l10.848 7.882-4.144 12.756 10.85-7.883 10.85 7.883-4.145-12.756 10.85-7.882h-13.4zm-29.685-93.8l-4.143 12.755h-13.4l10.848 7.882-4.144 12.755 10.85-7.883 10.85 7.883-4.145-12.755 10.85-7.882h-13.4zm47.24 52.515l-13.4.001-4.145-12.757-4.144 12.756-13.4-.001 10.85 7.883-4.145 12.755 10.85-7.883 10.85 7.88-4.144-12.753zM241.84 453.9l-4.143-12.752 10.85-7.882h-13.4l-4.145-12.755-4.144 12.754h-13.4l10.85 7.882-4.144 12.756 10.85-7.884z" fill="#FFDA44"/></svg>