<svg xmlns="http://www.w3.org/2000/svg" viewBox="0 0 512 512"><circle cx="256" cy="256" r="256" fill="#F0F0F0"/><path d="M256 0C185.307 0 121.307 28.654 74.98 74.98L256 256V0zM0 256c0 70.693 28.654 134.693 74.98 181.02L256 256H0zm256 256c70.693 0 134.693-28.654 181.02-74.98L256 256v256zm256-256c0-70.693-28.654-134.693-74.98-181.02L256 256h256z"/><path d="M166.957 178.087L256 189.22l89.043-11.133V124.66l-35.617 17.81L256 89.043l-53.426 53.427-35.617-17.81z" fill="#FFDA44"/><path d="M256 389.565c-49.1 0-89.043-39.945-89.043-89.043v-89.04l33.39-33.394h111.304l33.39 33.394v89.04c0 49.098-39.944 89.043-89.043 89.043z" fill="#D80027"/><path d="M256 356.174c-30.687 0-55.652-24.966-55.652-55.652V211.48h111.304v89.04c0 30.687-24.965 55.653-55.652 55.653z" fill="#F0F0F0"/><path d="M166.957 178.087h33.4v33.4h-33.4zm144.695 0h33.4v33.4h-33.4zm0 72.348h33.4v33.4h-33.4zm-144.695 0h33.4v33.4h-33.4zM256 356.174c-5.816 0-11.423-.9-16.696-2.562v34.36a89.03 89.03 0 0 0 33.392 0v-34.36A55.51 55.51 0 0 1 256 356.174zm-54.908-46.618l-26.648 26.648c4.62 10.52 11.212 19.978 19.314 27.908l23.6-23.6c-8.422-8.137-14.3-18.897-16.266-30.956zm136.464 26.65l-26.648-26.648c-1.978 12.058-7.844 22.817-16.265 30.957l23.6 23.6a89.4 89.4 0 0 0 19.313-27.909z" fill="#FFDA44"/><path d="M244.87 230.03v18.55c0 6.146 4.983 11.13 11.13 11.13s11.13-4.984 11.13-11.13v-18.55h-22.26zm0 74.203v18.55c0 6.146 4.983 11.13 11.13 11.13s11.13-4.984 11.13-11.13v-18.55h-22.26zm33.4-37.103v18.552c0 6.146 4.983 11.13 11.13 11.13s11.13-4.984 11.13-11.13V267.13h-22.26zm-33.4 0v18.552c0 6.146 4.983 11.13 11.13 11.13s11.13-4.984 11.13-11.13V267.13h-22.26zm-33.392 0v18.552c0 6.146 4.983 11.13 11.13 11.13s11.13-4.984 11.13-11.13V267.13h-22.26z" fill="#0052B4"/></svg>