<svg xmlns="http://www.w3.org/2000/svg" viewBox="0 0 512 512"><circle cx="256" cy="256" r="256" fill="#FFDA44"/><path d="M256 0C193.323 0 135.917 22.537 91.415 59.934L367.304 256 91.415 452.066C135.917 489.463 193.323 512 256 512c141.384 0 256-114.616 256-256S397.384 0 256 0z" fill="#D80027"/><path d="M74.98 74.98c-99.974 99.974-99.974 262.065 0 362.04L256 256 74.98 74.98z"/><path d="M70.98 197.355l38.96 36.872 47.108-25.664-23.025 48.45 38.96 36.873-53.194-6.928-23.028 48.45-9.847-52.732-53.194-6.93 47.106-25.66z" fill="#F0F0F0"/></svg>