<svg xmlns="http://www.w3.org/2000/svg" viewBox="0 0 512 512"><circle cx="256" cy="256" r="256" fill="#0052B4"/><path d="M256 100.174l8.3 25.5h26.82l-21.7 15.765 8.3 25.5L256 151.2l-21.7 15.766 8.3-25.5-21.7-15.765h26.82zm-110.186 45.64l23.9 12.176 18.965-18.964-4.197 26.5 23.9 12.177-26.5 4.196-4.196 26.492-12.177-23.9-26.5 4.197 18.965-18.965zM100.175 256l25.5-8.3v-26.8l15.764 21.7 25.5-8.3L151.2 256l15.767 21.7-25.5-8.288-15.764 21.7v-26.82zm45.64 110.186l12.177-23.9-18.964-18.965 26.5 4.198 12.175-23.9 4.197 26.5 26.5 4.196-23.896 12.177 4.195 26.5-18.965-18.965zM256 411.826l-8.3-25.5h-26.82l21.7-15.765-8.3-25.507L256 360.8l21.7-15.764-8.3 25.507 21.7 15.765h-26.8zm110.187-45.64L342.288 354l-18.966 18.965 4.197-26.492-23.897-12.176 26.5-4.196 4.196-26.5 12.176 23.9 26.5-4.198-18.965 18.967zM411.826 256l-25.5 8.3v26.82l-15.765-21.7-25.507 8.3L360.8 256l-15.765-21.7 25.508 8.3 15.764-21.7v26.822zm-45.64-110.186L354 169.714l18.965 18.965-26.492-4.198-12.175 23.9-4.196-26.5-26.5-4.197 23.897-12.176-4.197-26.5 18.967 18.964z" fill="#FFDA44"/></svg>