<svg xmlns="http://www.w3.org/2000/svg" viewBox="0 0 512 512"><path d="M512 256c0 141.384-114.616 256-256 256S0 397.384 0 256C0 256.06 256 .028 256 0c141.384 0 256 114.616 256 256z" fill="#0052B4"/><g fill="#F0F0F0"><path d="M256 0h-.043.043zm-.685 256H256v-.685l-.685.685z"/><path d="M256 133.565L255.957 0C114.592.024 0 114.63 0 256h133.565v-75.21L208.777 256h46.54l.685-.685v-46.537l-75.213-75.213H256z"/></g><path d="M129.515 33.4a257.39 257.39 0 0 0-96.125 96.125v126.485h66.783V100.174H256V33.4H129.515zM256 224.52l-90.953-90.953-31.48.002L256 256v-31.48z" fill="#D80027"/><path d="M411.826 300.522v11.13h-89.043v-11.13H289.39v44.52h22.26v11.13h111.305v-11.13h22.26v-44.52z" fill="#FFDA44"/><path d="M289.39 133.565V256c0 59.64 77.913 77.913 77.913 77.913S445.217 315.64 445.217 256V133.565H289.39z" fill="#338AF3"/><path d="M367.3 224.9c-19.477 0-19.477 17.8-38.954 17.8s-19.477-17.8-38.954-17.8v31.165c19.477 0 19.477 17.8 38.954 17.8s19.477-17.8 38.954-17.8 19.48 17.8 38.96 17.8 19.48-17.8 38.96-17.8V224.9c-19.48 0-19.48 17.8-38.96 17.8s-19.48-17.8-38.96-17.8zm0-62.386c-19.477 0-19.477 17.8-38.954 17.8s-19.477-17.8-38.954-17.8v31.165c19.477 0 19.477 17.8 38.954 17.8s19.477-17.8 38.954-17.8 19.48 17.8 38.96 17.8 19.48-17.8 38.96-17.8v-31.165c-19.48 0-19.48 17.8-38.96 17.8s-19.48-17.8-38.96-17.8z" fill="#F3F3F3"/></svg>