<svg xmlns="http://www.w3.org/2000/svg" viewBox="0 0 512 512"><circle cx="256" cy="256" r="256" fill="#338AF3"/><path d="M256 111.304l11.05 34.012h35.764l-28.932 21.02 11.05 34L256 179.328l-28.933 21.02 11.053-34-28.933-21.02h35.763zM111.304 256.002l34.012-11.052v-35.764l21.02 28.934 34-11.05-21.02 28.933 21.02 28.93-34-11.052-21.02 28.933V267.05zM256 400.696l-11.05-34.012h-35.764l28.934-21.02-11.05-34L256 332.672l28.93-21.02-11.052 34 28.933 21.02h-35.76zM400.696 256l-34.012 11.05v35.763l-21.02-28.933-34 11.05L332.672 256l-21.02-28.93 34 11.052 21.02-28.934v35.763z" fill="#F0F0F0"/></svg>