<svg xmlns="http://www.w3.org/2000/svg" viewBox="0 0 512 512"><circle cx="256" cy="256" r="256" fill="#F0F0F0"/><path d="M500.87 256l8.96-33.39c-1.488-11.38-3.72-22.53-6.647-33.39H233.74V.974c-11.36.978-22.505 2.707-33.39 5.12L155.826 33.39l-22.26-2.247c-11.715 6.392-22.876 13.672-33.39 21.75v136.322H8.82c-2.927 10.862-5.16 22-6.647 33.39L11.13 256l-8.96 33.39c1.488 11.38 3.72 22.53 6.647 33.39h91.355v136.322a256.26 256.26 0 0 0 33.391 21.751l33.39-2.247 33.39 27.296c10.887 2.413 22.032 4.142 33.39 5.12V322.783H503.18c2.927-10.862 5.16-22 6.647-33.39L500.87 256z" fill="#0052B4"/><path d="M509.833 222.61H200.348V6.085c-23.658 5.246-46.087 13.75-66.783 25.042v191.48H2.167C.744 233.54 0 244.683 0 256a258.53 258.53 0 0 0 2.167 33.391h131.398v191.48c20.696 11.292 43.125 19.797 66.783 25.042V289.392h309.485C511.256 278.46 512 267.317 512 256a258.53 258.53 0 0 0-2.167-33.391z" fill="#D80027"/></svg>