<svg xmlns="http://www.w3.org/2000/svg" viewBox="0 0 512 512"><circle cx="256" cy="256" r="256" fill="#F0F0F0"/><path d="M256 0c-45.26 0-87.77 11.762-124.66 32.372v447.256C168.232 500.238 210.74 512 256 512c141.384 0 256-114.616 256-256S397.384 0 256 0z" fill="#6DA544"/><path d="M132.092 31.95C115.987 40.876 100.95 51.484 87.2 63.544l4.206-3.6L287.48 256 91.415 452.066l-4.206-3.6c13.74 12.06 28.778 22.667 44.882 31.593L512 256 132.092 31.95z" fill="#F0F0F0"/><path d="M110.47 45.382c-7.807 5.406-15.305 11.223-22.45 17.44L256 256 88.02 449.178c7.145 6.217 14.643 12.035 22.45 17.44L468.178 256 110.47 45.382z" fill="#FFDA44"/><path d="M91.415 59.934c-5.69 4.782-11.183 9.795-16.435 15.046L233.74 256 74.98 437.02c5.252 5.252 10.743 10.266 16.435 15.046L287.48 256 91.415 59.934z"/><path d="M74.98 74.98c-99.974 99.974-99.974 262.065 0 362.04L256 256 74.98 74.98z" fill="#D80027"/></svg>