<svg xmlns="http://www.w3.org/2000/svg" viewBox="0 0 512 512"><circle cx="256" cy="256" r="256" fill="#F0F0F0"/><path d="M256 512c64.917 0 124.18-24.176 169.306-64H86.694c45.127 39.824 104.39 64 169.306 64z" fill="#D80027"/><path d="M8.065 320a254.29 254.29 0 0 0 26.19 64h443.487c11.46-19.8 20.346-41.294 26.2-64L256 300.522 8.065 320zm495.87-128c-5.845-22.706-14.73-44.2-26.2-64L256 122.435V0c-19.017 0-37.55 2.075-55.386 6.008C200.272 6.084 33.4 137.718 33.4 256c4.267.742 222.6 22.26 222.6 22.26V192h247.935z" fill="#0052B4"/><path d="M256 159.722v-128h-81.075l25.697-25.697C95.13 29.29 14.076 117.615 1.67 226.783.58 236.373 0 246.118 0 256h129.67v-51.023L181.198 256h91.585l-97.86-96.278H256z" fill="#F0F0F0"/><path d="M256.117 256l-96.278-96.278-30.17.001L225.947 256H97.39V128h380.353c-13.938-24.093-31.696-45.697-52.437-64H97.39v-8.925c-25.828 20.417-47.62 45.705-64 74.48V256H0c0 22.1 2.8 43.545 8.065 64h495.87C509.2 299.544 512 278.1 512 256H256.117z" fill="#D80027"/></svg>