<svg xmlns="http://www.w3.org/2000/svg" viewBox="0 0 511.999 511.999"><circle cx="255.999" cy="255.999" r="255.999" fill="#FFDA44"/><path d="M74.98 437.02c10.74 10.74 22.198 20.317 34.217 28.748L465.765 109.2c-8.43-12.02-18.008-23.478-28.748-34.217a257.6 257.6 0 0 0-34.216-28.747L46.235 402.804a257.35 257.35 0 0 0 28.745 34.215z"/><path d="M74.98 74.98c-80.763 80.763-96.268 202.056-46.544 298.397l344.94-344.94C277.036-21.285 155.74-5.78 74.98 74.98z" fill="#6DA544"/><path d="M437.018 437.02c80.762-80.76 96.266-202.054 46.545-298.397L138.62 483.564c96.342 49.722 217.635 34.218 298.398-46.545z" fill="#D80027"/><path d="M162.77 302.008l23.898 12.177 18.966-18.965-4.196 26.5 23.897 12.178-26.5 4.195-4.196 26.5-12.176-23.898-26.5 4.196 18.965-18.965zM302.007 162.77l23.897 12.177 18.966-18.965-4.195 26.5 23.897 12.178-26.5 4.196-4.195 26.5L321.7 201.45l-26.5 4.195 18.965-18.965z" fill="#F0F0F0"/></svg>