<svg xmlns="http://www.w3.org/2000/svg" xmlns:xlink="http://www.w3.org/1999/xlink" viewBox="0 0 512 512"><circle cx="256" cy="256" r="256" fill="#F0F0F0"/><path d="M345.043 256c0 22.26-39.866 77.913-89.043 77.913S166.957 278.26 166.957 256c0-49.178 39.866-89.043 89.043-89.043s89.043 39.865 89.043 89.043z" fill="#D80027"/><path d="M345.043,256c0,49.178-39.866,89.043-89.043,89.043S166.957,305.178,166.957,256" fill="#0052B4"/><use xlink:href="#A"/><use xlink:href="#A" x="-39.357" y="39.355"/><use xlink:href="#A" x="47.228" y="47.212"/><use xlink:href="#A" x="7.872" y="86.573"/><use xlink:href="#A" x="23.613" y="23.608"/><use xlink:href="#A" x="-15.732" y="62.962"/><path d="M397.678 177.3l-62.962-62.962 15.74-15.74 62.962 62.962zm-62.965-15.732l-23.6-23.6 15.74-15.74 23.6 23.6zm39.347 39.34l-23.6-23.6 15.74-15.74 23.6 23.6zm7.855-86.57l-23.6-23.6 15.74-15.74 23.6 23.6zm39.368 39.35l-23.6-23.6 15.74-15.74 23.6 23.6zm-330.56 204.63l62.962 62.962-15.74 15.74-62.962-62.962zm62.957 15.732l23.6 23.6-15.74 15.74-23.6-23.6zm-39.35-39.347l23.6 23.6-15.74 15.74-23.6-23.6zm23.613-23.603l62.962 62.962-15.74 15.74-62.962-62.962zm15.74-220.37L90.72 153.682l-15.74-15.74 62.962-62.962zm23.604 23.595l-62.962 62.962-15.74-15.74 62.962-62.962zm23.625 23.622L137.95 200.9l-15.74-15.74 62.962-62.962z"/><defs><path id="A" d="M350.442 334.705l23.61-23.61 15.74 15.74-23.61 23.61z"/></defs></svg>