<svg xmlns="http://www.w3.org/2000/svg" viewBox="0 0 512 512"><path d="M367.304 25.402C333.648 9.128 295.89 0 256 0s-77.648 9.128-111.304 25.402L122.435 256l22.26 230.598C178.352 502.872 216.11 512 256 512s77.648-9.128 111.304-25.402L389.565 256l-22.26-230.598z" fill="#FFDA44"/><path d="M144.696 25.4C59.065 66.818 0 154.507 0 256s59.065 189.182 144.696 230.6V25.4zm222.608 0V486.6C452.934 445.182 512 357.493 512 256S452.934 66.818 367.304 25.4z" fill="#0052B4"/><path d="M328.348 278.26l16.695 22.26v-89.044l-16.695 22.26H278.26v-50.087l22.26-16.695h-89.044l22.26 16.695v50.087h-50.087l-16.695-22.26v89.044l16.695-22.26h50.087v50.087l-22.26 16.695h89.044l-22.26-16.695V278.26z" fill="#D80027"/><path d="M322.783 244.87H267.13v-55.653h-22.26v55.653h-55.653v22.26h55.653v55.653h22.26V267.13h55.653z" fill="#F0F0F0"/></svg>