<svg xmlns="http://www.w3.org/2000/svg" viewBox="0 0 512 512"><circle cx="256" cy="256" r="256" fill="#338AF3"/><path d="M122.435 278.26h267.13v33.39h-267.13z" fill="#818085"/><path d="M166.957 178.087L256 189.22l89.043-11.132V124.66l-35.617 17.81L256 89.043l-53.426 53.427-35.617-17.81z" fill="#FFDA44"/><path d="M144.696 345.045h-33.392v-61.218l11.13-16.697-11.13-16.695V211.48h33.392zm256 0h-33.392V211.48h33.392v38.955l-11.13 16.976 11.13 16.42z" fill="#F0F0F0"/><path d="M111.304 250.435h289.39v33.39h-289.39z" fill="#ACABB1"/><path d="M256 389.565c-49.1 0-89.043-39.945-89.043-89.043V178.088h178.087v122.434c-.001 49.098-39.945 89.043-89.044 89.043z" fill="#F0F0F0"/><path d="M256 356.174c-30.687 0-55.652-24.966-55.652-55.652V211.48h111.304v89.042c0 30.686-24.965 55.652-55.652 55.652z" fill="#0052B4"/><path d="M166.957 178.087h33.4v33.4h-33.4zm144.695 0h33.4v33.4h-33.4zm0 72.348h33.4v33.4h-33.4zm-144.695 0h33.4v33.4h-33.4zm72.347-72.348h33.4v33.4h-33.4zM256 356.174c-5.816 0-11.423-.9-16.696-2.562v34.36a89.03 89.03 0 0 0 33.392 0v-34.36A55.51 55.51 0 0 1 256 356.174zm-54.908-46.618l-26.648 26.648c4.62 10.52 11.212 19.978 19.314 27.908l23.6-23.6c-8.422-8.137-14.3-18.897-16.266-30.956zm136.464 26.65l-26.648-26.648c-1.978 12.058-7.844 22.817-16.265 30.957l23.6 23.6a89.4 89.4 0 0 0 19.313-27.909z" fill="#D80027"/></svg>