<svg xmlns="http://www.w3.org/2000/svg" viewBox="0 0 512 512"><path d="M256 512c141.384 0 256-114.616 256-256 0-42.963-10.6-83.446-29.302-119l-227 119.3L375 29.302C339.446 10.6 298.963 0 256 0 114.616 0 0 114.616 0 256c0 70.693 28.654 134.693 74.98 181.02S185.307 512 256 512z" fill="#0052B4"/><path d="M482.428 137.28c-11.718-22.304-26.953-43.245-45.707-62s-39.693-33.99-62-45.706L74.68 437.32l407.747-300.04z" fill="#F0F0F0"/><path d="M74.68 437.32l407.747-300.04c-11.718-22.304-26.953-43.245-45.707-62L74.68 437.32z" fill="#FF9811"/><path d="M222.308 150.122l-31.264 14.706 16.65 30.28-33.95-6.495-4.302 34.296-23.648-25.225-23.648 25.225-4.3-34.296-33.95 6.493 16.647-30.28-31.264-14.705 31.265-14.707-16.648-30.278 33.948 6.493 4.303-34.296 23.647 25.225 23.648-25.225 4.302 34.296 33.95-6.493-16.65 30.28z" fill="#F0F0F0"/></svg>