<svg xmlns="http://www.w3.org/2000/svg" viewBox="0 0 512 512"><circle cx="256" cy="256" r="256" fill="#FFDA44"/><g fill="#D80027"><path d="M294.932 509.057c41.636-6.352 79.962-22.748 112.456-46.618L256 256l38.932 253.057zM217.067 2.943C175.432 9.295 137.106 25.7 104.6 49.56L256 256 217.067 2.943zM104.6 462.44c32.494 23.87 70.82 40.265 112.455 46.62L256 256 104.6 462.44zM49.56 104.6C25.7 137.106 9.296 175.43 2.943 217.067L256 256 49.56 104.6zM2.943 294.932c6.352 41.636 22.748 79.962 46.618 112.456L256 256 2.943 294.932zm506.114-77.865c-6.353-41.635-22.748-79.96-46.618-112.456L256 256l253.057-38.933zM407.388 49.56C374.893 25.7 336.568 9.295 294.932 2.943L256 256 407.388 49.56zM462.44 407.4c23.87-32.495 40.264-70.822 46.618-112.456L256 256l206.44 151.4z"/><circle cx="256" cy="256" r="89.043"/></g><circle cx="256" cy="256" r="66.783" fill="#FFDA44"/></svg>