<svg xmlns="http://www.w3.org/2000/svg" viewBox="0 0 512 512"><circle cx="256" cy="256" r="256" fill="#0052B4"/><path d="M365.865 273.86a111.66 111.66 0 0 0 1.439-17.86 111.66 111.66 0 0 1-1.439 17.86l45.96-17.86-112.22-43.605-15.937-41.015c26.874 8.81 48.14 30.076 56.95 56.95l25.245 9.81c-7.63-47.096-44.9-84.378-92.005-92.006L256 100.174l-17.86 45.96c-47.096 7.63-84.376 44.9-92.005 92.006L100.174 256l45.962 17.86c7.63 47.096 44.91 84.376 92.005 92.005l17.86 45.96 17.86-45.96c47.095-7.63 84.376-44.9 92.005-92.005zm-83.457-44.267L256 256h94.365l-67.958 26.408L256 256v94.366l-26.408-67.96L256 256h-94.365l67.957-26.407L256 256v-94.365l26.408 67.958zM228.33 171.38l-15.938 41.015-41.013 15.937c8.81-26.877 30.076-48.142 56.95-56.952zM171.38 283.67l41.012 15.937 15.938 41.013c-26.875-8.8-48.14-30.075-56.95-56.95zm112.288 56.95l15.937-41.013 41.013-15.937c-8.8 26.875-30.075 48.14-56.95 56.95z" fill="#F0F0F0"/><path d="M350.365 256H256l26.408 26.408zm-188.73 0H256l-26.408-26.407zM256 350.366V256l-26.408 26.408zM256 256l26.408-26.407L256 161.635z" fill="#0052B4"/><path d="M244.87 33.4h22.26v44.522h-22.26zM33.4 244.87h44.522v22.26H33.4zm211.47 189.217h22.26v44.522h-22.26zM434.087 244.87h44.522v22.26h-44.522z" fill="#F0F0F0"/></svg>