<svg xmlns="http://www.w3.org/2000/svg" viewBox="0 0 512 512"><circle cx="256" cy="256" r="256" fill="#F0F0F0"/><path d="M61.94 89.043a256.91 256.91 0 0 0-24.366 33.391h436.852a256.75 256.75 0 0 0-24.366-33.391H61.94zm0 333.914h388.12a256.91 256.91 0 0 0 24.366-33.391H37.574a256.88 256.88 0 0 0 24.365 33.391zm161.3-213.77l21.004 28.945 34.017-11.03-21.037 28.92 21.002 28.944-34.005-11.072-21.037 28.92.02-35.76L189.2 255.98l34.018-11.03zm-57.325 119.162c-39.956 0-72.348-32.392-72.348-72.348s32.392-72.348 72.348-72.348c12.458 0 24.18 3.15 34.415 8.696-16.055-15.7-38.012-25.392-62.24-25.392-49.178 0-89.043 39.866-89.043 89.043s39.866 89.043 89.043 89.043c24.23 0 46.186-9.7 62.24-25.392-10.234 5.548-21.956 8.698-34.415 8.698z" fill="#D80027"/></svg>