<svg xmlns="http://www.w3.org/2000/svg" viewBox="0 0 512 512"><circle cx="256" cy="256" r="256" fill="#F0F0F0"/><path d="M31.127 133.565h449.745C437.454 54 353.035 0 256 0S74.546 54 31.127 133.565zM256 512c97.035 0 181.454-54 224.873-133.565H31.127C74.546 458 158.965 512 256 512z" fill="#D80027"/><path d="M345.043 256c0 49.178-39.866 77.913-89.043 77.913S166.957 305.178 166.957 256s39.866-89.043 89.043-89.043 89.043 39.865 89.043 89.043z" fill="#FFDA44"/><path d="M345.043,256c0,49.178-39.866,89.043-89.043,89.043S166.957,305.178,166.957,256" fill="#0052B4"/><path d="M200.348 233.74h22.26v44.522h-22.26zm89.042 0h22.26v44.522H289.4zm-44.52-33.392h22.26v77.913h-22.26z" fill="#D80027"/></svg>