<svg xmlns="http://www.w3.org/2000/svg" viewBox="0 0 512 512"><circle cx="256" cy="256" r="256" fill="#FCFCFC"/><path d="M333.913 211.478v22.26h30.552c-12.75 17.72-29.733 32.186-49.465 41.927-5.062-5.26-12.17-8.536-20.044-8.536-13.275 0-24.37 9.3-27.15 21.738a134.76 134.76 0 0 1-11.806.523 135.54 135.54 0 0 1-11.806-.523c-2.78-12.438-13.875-21.738-27.15-21.738-7.875 0-14.98 3.277-20.044 8.536-19.732-9.74-36.714-24.208-49.464-41.927h30.55v-22.26h-77.913c0 86.06 69.767 155.826 155.826 155.826s155.826-69.767 155.826-155.826h-77.913z" fill="#D80027"/></svg>