<svg xmlns="http://www.w3.org/2000/svg" viewBox="0 0 512 512"><circle cx="256" cy="256" r="256" fill="#F0F0F0"/><path d="M256 0C255.76-.18-.068 255.933 0 256 0 114.616 114.616 0 256 0zm0 0c.24-.18 256.068 255.932 256 256C512 114.616 397.384 0 256 0z" fill="#D80027"/><path d="M256 512c-.24.18-256.068-255.932-256-256 0 141.384 114.616 256 256 256zm0 0c.24.18 256.068-255.932 256-256 0 141.384-114.616 256-256 256z" fill="#0052B4"/><path d="M256 133.565l27.628 85.03h89.405l-72.33 52.55 27.628 85.03-72.33-52.55-72.33 52.55 27.628-85.03-72.33-52.55h89.404z" fill="#FFDA44"/></svg>