<svg xmlns="http://www.w3.org/2000/svg" xmlns:xlink="http://www.w3.org/1999/xlink" viewBox="0 0 512 512"><circle cx="256" cy="256" r="256" fill="#F0F0F0"/><path d="M509.833 222.61h-220.44V2.167C278.46.744 267.317 0 256 0a258.53 258.53 0 0 0-33.391 2.167v220.44H2.167C.744 233.54 0 244.683 0 256a258.53 258.53 0 0 0 2.167 33.391h220.44v220.442C233.54 511.256 244.683 512 256 512a258.35 258.35 0 0 0 33.391-2.167v-220.44h220.442C511.256 278.46 512 267.317 512 256a258.53 258.53 0 0 0-2.167-33.391z" fill="#D80027"/><use xlink:href="#A"/><use xlink:href="#B"/><path d="M421.554 122.435h-98.77v44.522h11.13v-22.26h87.638a44.58 44.58 0 0 0 1.406-11.13c0-3.844-.487-7.574-1.403-11.13z" fill="#ACABB1"/><use xlink:href="#A" x="-233.739"/><use xlink:href="#C"/><path d="M187.815 122.435H89.043v44.522h11.13v-22.26h87.638a44.58 44.58 0 0 0 1.406-11.13c0-3.844-.486-7.574-1.402-11.13z" fill="#ACABB1"/><use xlink:href="#D"/><use xlink:href="#B" y="222.609"/><path d="M421.554 345.043h-98.77v44.522h11.13v-22.26h87.638a44.58 44.58 0 0 0 1.406-11.13c0-3.843-.487-7.573-1.403-11.13z" fill="#ACABB1"/><use xlink:href="#D" x="-233.739"/><use xlink:href="#C" y="222.609"/><path d="M187.815 345.043H89.043v44.522h11.13v-22.26h87.638a44.58 44.58 0 0 0 1.406-11.13c0-3.843-.486-7.573-1.402-11.13z" fill="#ACABB1"/><defs><path id="A" d="M378.435 89.043c-20.746 0-38.177 14.19-43.12 33.39l43.12 11.13 43.12-11.13c-4.942-19.2-22.373-33.39-43.12-33.39z"/><path id="B" d="M333.913 189.217l55.652 11.13v-23.663c15.645-4.028 27.96-16.345 31.986-31.99l-43.116-11.13h-55.652l11.13 33.39v22.26z"/><path id="C" d="M100.174 189.217l55.652 11.13v-23.663c15.645-4.028 27.96-16.345 31.986-31.99l-43.116-11.13H89.043l11.13 33.39v22.26z"/><path id="D" d="M378.435 311.652c-20.746 0-38.177 14.19-43.12 33.39l43.12 11.13 43.12-11.13c-4.942-19.202-22.373-33.39-43.12-33.39z"/></defs></svg>