<svg xmlns="http://www.w3.org/2000/svg" viewBox="0 0 512.001 512.001"><path d="M437.027 437.027c96.01-96.01 99.802-249.296 11.413-349.855L256 256 87.172 448.44c100.56 88.39 253.843 84.598 349.855-11.413z" fill="#496E2D"/><path d="M74.974 74.974c96.01-96.01 249.296-99.802 349.855-11.413L256 256.003 63.562 424.83c-88.4-100.56-84.598-253.844 11.412-349.855z" fill="#0052B4"/><path d="M424.827 63.56L63.56 424.828c3.652 4.155 7.444 8.23 11.413 12.198s8.045 7.76 12.2 11.414L448.44 87.172c-3.652-4.156-7.445-8.232-11.414-12.2s-8.043-7.76-12.198-11.41z" fill="#FFDA44"/><path d="M107.86 89.036l5.527 17.007h17.88l-14.466 10.5 5.525 17.007-14.467-10.5-14.467 10.5 5.527-17.007-14.467-10.5h17.882zm91.34 0l5.527 17.007h17.88l-14.466 10.5 5.526 17.007-14.467-10.5-14.467 10.5 5.527-17.007-14.467-10.5h17.88zm-91.34 89.047l5.527 17.007h17.88L116.8 205.6l5.525 17.007-14.467-10.5-14.467 10.5 5.53-17.007-14.467-10.5h17.882zm91.34 0l5.527 17.007h17.88l-14.466 10.5 5.526 17.007-14.467-10.5-14.467 10.5 5.527-17.007-14.467-10.5h17.88zm-45.67-44.523l5.527 17.007h17.88l-14.466 10.5 5.526 17.007-14.467-10.5-14.467 10.5 5.526-17.007-14.467-10.5h17.882z" fill="#F0F0F0"/></svg>