<svg xmlns="http://www.w3.org/2000/svg" viewBox="0 0 512 512"><circle cx="256" cy="256" r="256" fill="#F0F0F0"/><path d="M428.81 67.137C383.27 25.445 322.608 0 256 0a258.56 258.56 0 0 0-32.195 2.01l-123.63 142.686L8.1 320.13c5.948 23.06 15.042 44.855 26.775 64.917L256 256 428.81 67.137z" fill="#FFDA44"/><path d="M469.13 397.838l-358.168 69.12C152.192 495.36 202.15 512 256 512c88.92 0 167.24-45.343 213.13-114.162z" fill="#6DA544"/><path d="M428.845 67.17L35.022 385.296c10.3 17.568 22.634 33.8 36.68 48.368L512 256c0-74.76-32.05-142.027-83.155-188.83z" fill="#D80027"/><path d="M0 256c0 22.147 2.814 43.636 8.1 64.13L223.805 2C97.618 17.844 0 125.52 0 256z" fill="#0052B4"/></svg>