<svg xmlns="http://www.w3.org/2000/svg" viewBox="0 0 512 512"><circle cx="256" cy="256" r="256" fill="#F0F0F0"/><path d="M411.856 52.92C368.7 19.74 314.654 0 256 0S143.3 19.74 100.143 52.92L256 208.776 411.856 52.92zM52.92 100.144C19.74 143.3 0 197.346 0 256s19.74 112.7 52.92 155.858L208.777 256 52.92 100.144zm47.223 358.936C143.3 492.26 197.346 512 256 512s112.7-19.74 155.857-52.92L256 303.224 100.143 459.08zm358.937-47.224C492.26 368.7 512 314.654 512 256s-19.74-112.7-52.92-155.856L303.224 256 459.08 411.856z" fill="#0052B4"/></svg>