<svg xmlns="http://www.w3.org/2000/svg" viewBox="0 0 512 512"><path d="M111.713 467.478C152.8 495.563 202.476 512 256 512s103.202-16.437 144.287-44.522L256 445.217l-144.287 22.26zM400.287 44.522C359.202 16.437 309.524 0 256 0S152.797 16.437 111.713 44.522L256 66.783l144.287-22.26z" fill="#D80027"/><path d="M511.348 239.304c-6.065-79-54.072-155.826-111.06-194.783H111.713C48.577 87.682 5.75 158.37.538 239.304L256 256l255.348-16.696zM.538 272.696C5.75 353.63 48.576 424.318 111.712 467.48h288.574c63.14-43.16 105.963-113.848 111.175-194.783L256 256 .538 272.696z" fill="#0052B4"/><path d="M511.348 239.303H272.696V33.39h-33.39v205.912H.54A260.12 260.12 0 0 0 0 256c0 5.61.183 11.175.538 16.695h238.767V478.61h33.39V272.695h238.767c.354-5.52.537-11.086.537-16.695 0-5.57-.225-11.138-.652-16.697z" fill="#D80027"/><path d="M100.174 256L256 158.058 411.826 256 256 353.943z" fill="#F0F0F0"/><path d="M166.957 300.522h200.347l-44.52-66.783-22.26 22.26-22.26-11.13L256 278.26h-44.522L189.217 256z" fill="#6DA544"/><path d="M256 189.217l5.526 17.005h17.88l-14.465 10.51 5.526 17.006L256 223.23l-14.466 10.5 5.526-17.006-14.465-10.51h17.88z" fill="#FFDA44"/><path d="M256 130.074L55.652 256 256 381.926 456.348 256 256 130.074zM118.4 256L256 169.513 393.6 256 256 342.487 118.4 256z" fill="#D80027"/></svg>