<svg xmlns="http://www.w3.org/2000/svg" viewBox="0 0 512 512"><path d="M512 256c0 141.384-114.616 256-256 256S0 397.384 0 256c11.13 0 256-33.39 256-33.39L512 256z" fill="#338AF3"/><path d="M0,256C0,114.616,114.616,0,256,0s256,114.616,256,256" fill="#F0F0F0"/><path d="M357.616 176.644L256 278.26 154.384 176.644a121.72 121.72 0 0 0-20.818 68.225v33.39c0 53.616 34.645 99.29 82.722 115.82-6.417 12.576-5.335 28.27 4.068 40.006l36.385-29.158 36.385 29.158c9.513-11.872 10.517-27.802 3.847-40.452 47.42-16.9 81.46-62.228 81.46-115.374v-33.4c.001-25.24-7.677-48.718-20.818-68.226z" fill="#6DA544"/><path d="M256 367.304c-49.1 0-89.043-39.945-89.043-89.043v-33.39c0-49.1 39.945-89.043 89.043-89.043s89.043 39.945 89.043 89.043v33.39c0 49.098-39.944 89.043-89.043 89.043z" fill="#FFDA44"/><path d="M311.652 278.26v-33.39c0-30.687-24.966-55.652-55.652-55.652s-55.652 24.966-55.652 55.652v33.39L256 289.39l55.652-11.13z" fill="#338AF3"/><path d="M200.348 278.26c0 30.687 24.966 55.652 55.652 55.652s55.652-24.966 55.652-55.652H200.348z" fill="#6DA544"/><path d="M322.783 155.826c0-18.44-14.95-33.39-33.39-33.39a33.26 33.26 0 0 0-22.261 8.509v-19.64h11.13v-22.26h-11.13v-11.13h-22.26v11.13h-11.13v22.26h11.13v19.64c-5.91-5.29-13.707-8.51-22.26-8.51-18.44 0-33.39 14.95-33.39 33.39 0 9.887 4.3 18.767 11.13 24.882v19.64h111.304v-19.64c6.83-6.115 11.13-14.995 11.13-24.882z" fill="#FFDA44"/></svg>