<svg xmlns="http://www.w3.org/2000/svg" viewBox="0 0 512 512"><path d="M496.077 345.043C506.367 317.3 512 287.314 512 256s-5.633-61.3-15.923-89.043L256 144.696l-240.077 22.26C5.633 194.7 0 224.686 0 256s5.633 61.3 15.923 89.043L256 367.304l240.077-22.26z" fill="#F0F0F0"/><path d="M256,512c110.07,0,203.906-69.472,240.076-166.957H15.922C52.094,442.528,145.928,512,256,512z" fill="#D80027"/><path d="M256,0C145.928,0,52.094,69.472,15.922,166.957h480.155C459.906,69.472,366.07,0,256,0z" fill="#496E2D"/><path d="M256 200.348l13.813 42.513h44.703l-36.165 26.277 13.815 42.514L256 285.38l-36.166 26.273 13.815-42.514-36.165-26.277h44.703z"/><path d="M332.058 50.087v51.94a14.86 14.86 0 0 1-14.84 14.841v22.26c20.458 0 37.1-16.643 37.1-37.102v-51.94h-22.26zm-159.536 51.94a14.86 14.86 0 0 1-14.841 14.841v22.26c20.46 0 37.102-16.643 37.102-37.102v-51.94h-22.26v51.94zm126.14-51.94h22.26v51.94h-22.26zm-33.388 29.68c0 2.046-1.665 3.7-3.7 3.7s-3.7-1.665-3.7-3.7v-29.68h-22.26v29.68c0 2.046-1.664 3.7-3.7 3.7a3.71 3.71 0 0 1-3.7-3.7v-29.68h-22.26v29.68c0 14.322 11.65 25.972 25.97 25.972 5.515 0 10.63-1.733 14.84-4.676a25.82 25.82 0 0 0 14.84 4.676 26 26 0 0 0 3.277-.215c-1.578 6.5-7.43 11.345-14.407 11.345v22.26c20.458 0 37.1-16.643 37.1-37.102v-51.94h-22.26l.001 29.68zm-59.36 37.103h33.4v22.26h-33.4z" fill="#F0F0F0"/></svg>