<svg xmlns="http://www.w3.org/2000/svg" viewBox="0 0 511.58 511.58"><circle cx="255.79" cy="255.79" r="255.79" fill="#F0F0F0"/><path d="M456.714 205.744h-84.15c0-15.355-12.448-27.803-27.803-27.803l-22.243 44.485 22.984 66.728h27.803c15.356 0 27.803-12.447 27.803-27.803 15.356 0 27.803-12.447 27.803-27.803h-.926c15.355-.001 28.73-12.448 28.73-27.804zm-401.85 0h84.15c0-15.355 12.448-27.803 27.803-27.803l22.243 44.485-22.984 66.728h-27.803c-15.356 0-27.803-12.447-27.803-27.803-15.356 0-27.803-12.447-27.803-27.803h.926c-15.356-.001-28.73-12.448-28.73-27.804z" fill="#ACABB1"/><path d="M344.76 355.88v11.12H166.82v-11.12h-44.485v44.485h44.485v11.12h177.94v-11.12h44.485V355.88z" fill="#FFDA44"/><path d="M166.82 177.94v111.212c0 68.103 88.97 88.97 88.97 88.97s88.97-20.868 88.97-88.97V177.94l-88.97-11.12-88.97 11.12z" fill="#0052B4"/><path d="M166.82 222.43h177.94v66.728H166.82z" fill="#D80027"/><path d="M300.274 122.334v16.682l-11.12 5.56-11.12-11.122V100.09h-44.485v33.364l-11.12 11.122-11.122-5.56v-16.682H166.82v55.606h177.94v-55.606z" fill="#FFDA44"/></svg>