<svg xmlns="http://www.w3.org/2000/svg" viewBox="0 0 512 512"><path d="M378.435 31.127C342.064 11.283 300.35 0 256 0s-86.064 11.283-122.435 31.127L111.304 256l22.26 224.873C169.936 500.717 211.65 512 256 512s86.064-11.283 122.435-31.127L400.696 256l-22.26-224.873z" fill="#FFDA44"/><path d="M133.565 480.87V31.126C53.99 74.546 0 158.965 0 256s53.99 181.454 133.565 224.87z" fill="#338AF3"/><path d="M512 256c0-97.035-54-181.454-133.565-224.874V480.87C458 437.454 512 353.035 512 256zm-311.652 66.783L155.825 256l44.522-66.783L244.87 256zm111.304 0L267.13 256l44.522-66.783L356.174 256zM256 411.826l-44.522-66.783L256 278.26l44.522 66.782z" fill="#6DA544"/></svg>