<svg xmlns="http://www.w3.org/2000/svg" viewBox="0 0 512 512"><path d="M233.74 278.26L74.98 74.98C121.306 28.654 185.307 0 256 0c141.384 0 256 114.616 256 256l-278.26 22.26z" fill="#D80027"/><path d="M233.74 256L74.98 437.02C121.306 483.346 185.307 512 256 512c141.384 0 256-114.616 256-256H233.74z" fill="#0052B4"/><path d="M74.98 74.98c-99.974 99.974-99.974 262.065 0 362.04L256 256 74.98 74.98z" fill="#F0F0F0"/><g fill="#FFDA44"><path d="M28.06 256l-.235 5.564c0 39.956 32.392 72.348 72.348 72.348s72.348-32.392 72.348-72.348c0-1.874-.095-3.727-.235-5.564H28.06z"/><circle cx="100.174" cy="200.348" r="22.261"/></g><path d="M50.087 194.783v72.348c0 38.34 50.087 50.087 50.087 50.087s50.087-11.747 50.087-50.087v-72.348H50.087z" fill="#D80027"/><path d="M100.198 293.92c-9.292-3.344-27.85-11.9-27.85-26.8v-50.087H128v50.087c0 14.95-18.557 23.474-27.802 26.8z" fill="#338AF3"/><path d="M111.304 244.87v-11.13l-11.13-5.565-11.13 5.565v11.13l-5.565 5.565v22.26h33.392v-22.26z" fill="#F3F3F3"/></svg>