<svg xmlns="http://www.w3.org/2000/svg" viewBox="0 0 512 512"><path d="M486.598 367.304C502.872 333.65 512 295.9 512 256s-9.128-77.65-25.402-111.304L256 133.565l-230.598 11.13C9.128 178.35 0 216.1 0 256s9.128 77.65 25.402 111.304L256 378.435l230.598-11.13z" fill="#FFDA44"/><path d="M256 0C154.506 0 66.8 59.065 25.402 144.696h461.195C445.2 59.065 357.493 0 256 0z"/><path d="M256 512c-101.494 0-189.2-59.065-230.598-144.696h461.195C445.2 452.935 357.493 512 256 512z" fill="#0052B4"/><path d="M499.91 178.087H12.09C4.247 202.656 0 228.83 0 256s4.247 53.344 12.09 77.913H499.9C507.753 309.344 512 283.17 512 256s-4.247-53.344-12.09-77.913z" fill="#A2001D"/><path d="M89.043 244.87h333.913v22.26H89.043zm44.522-44.522h244.87v22.26h-244.87z" fill="#FFDA44"/><path d="M380.025 256S322.782 322.783 256 322.783 189.217 256 189.217 256s0-66.783 66.783-66.783S380.025 256 380.025 256z" fill="#F0F0F0"/><path d="M256,322.783c-66.783,0-124.025-66.783-124.025-66.783S189.217,189.217,256,189.217"/><path d="M211.478 233.74h22.26v44.522h-22.26z" fill="#F0F0F0"/><path d="M278.26 233.74h22.26v44.522h-22.26z"/><g fill="#0052B4"><circle cx="89.043" cy="256" r="22.261"/><circle cx="422.957" cy="256" r="22.261"/></g></svg>