<svg xmlns="http://www.w3.org/2000/svg" viewBox="0 0 512 512"><path d="M512 256c0 141.384-114.616 256-256 256S0 397.384 0 256C0 256.06 256 .028 256 0c141.384 0 256 114.616 256 256z" fill="#0052B4"/><g fill="#F0F0F0"><path d="M256 0h-.043.043zm-.685 256H256v-.685l-.685.685z"/><path d="M256 133.565L255.957 0C114.59.024 0 114.63 0 256h133.565v-75.21l75.21 75.21h46.54l.685-.685v-46.537l-75.213-75.213H256z"/></g><path d="M129.515 33.4C89.476 56.2 56.2 89.476 33.4 129.515V256h66.783V100.174H256V33.4H129.515zM256 224.52l-90.955-90.953-31.48.002L256 256v-31.48z" fill="#D80027"/><path d="M289.39 133.565V256c0 59.64 77.913 77.914 77.913 77.914S445.217 315.64 445.217 256V133.565H289.39z" fill="#FFDA44"/><path d="M356.174 178.087c0 12.295-9.966 44.522-22.26 44.522s-22.26-32.227-22.26-44.522 22.26-22.26 22.26-22.26 22.26 9.966 22.26 22.26z" fill="#FF9811"/><path d="M415.245 202.332c3.592-8.765 6.386-21.577 6.386-27.955 0-10.246-13.357-18.55-13.357-18.55s-13.357 8.306-13.357 18.55c0 6.378 2.794 19.2 6.386 27.955l-7.71 17.4a38.9 38.9 0 0 0 29.362 0l-7.71-17.4z" fill="#A2001D"/><path d="M350.61 256s-11.13 22.26-11.13 44.522h55.652C395.13 278.26 384 256 384 256l-16.696-11.13L350.61 256z" fill="#6DA544"/><path d="M384 256v-5.565a16.7 16.7 0 0 0-16.696-16.696 16.7 16.7 0 0 0-16.696 16.696V256H384z" fill="#D80027"/></svg>