<svg xmlns="http://www.w3.org/2000/svg" viewBox="0 0 512 512"><circle cx="256" cy="256" r="256" fill="#338AF3"/><path d="M255.26 166.957c-49.18 0-89.043 39.866-89.043 89.043s39.865 89.043 89.043 89.043 89.043-39.866 89.043-89.043-39.868-89.043-89.043-89.043zM233 256c0-12.294 9.966-22.26 22.26-22.26s22.26 9.967 22.26 22.26-9.967 22.26-22.26 22.26S233 268.295 233 256zm45.34-38.08c-3.455-2.1-7.22-3.73-11.2-4.83v-22.8a66.39 66.39 0 0 1 27.245 11.595L278.34 217.92zm-33.47-5.2a44.25 44.25 0 0 0-11.75 4.67l-16.1-16.1c8.144-5.702 17.612-9.64 27.86-11.244V212.7zm-11.75 81.9c3.626 2.082 7.572 3.67 11.75 4.668v22.684c-10.248-1.6-19.714-5.542-27.858-11.244l16.1-16.108zm34 4.288a44.16 44.16 0 0 0 11.208-4.83l16.035 16.035c-7.946 5.753-17.203 9.793-27.244 11.595V298.908zm26.748-20.77c1.96-3.413 3.494-7.105 4.5-11H321.1a66.38 66.38 0 0 1-11.11 27.117l-16.1-16.108zm4.5-33.27a44.19 44.19 0 0 0-4.5-11.008l16.1-16.1c5.564 7.947 9.44 17.155 11.1 27.117h-22.7zm-97.234-27.985l16.035 16.035a44.25 44.25 0 0 0-5.04 11.95h-22.722c1.733-10.326 5.832-19.844 11.727-27.985zm-11.727 50.245h22.722a44.22 44.22 0 0 0 5.04 11.95l-16.035 16.035a66.4 66.4 0 0 1-11.727-27.985zM399.955 256c0-39.58-15.898-75.44-41.648-101.565l-23.6 23.6c19.708 20.08 31.868 47.596 31.868 77.954 0 61.472-49.833 111.304-111.304 111.304S143.956 317.472 143.956 256c0-30.737 12.457-58.563 32.6-78.704l-23.6-23.6c-26.185 26.185-42.38 62.36-42.38 102.315 0 66.215 44.477 122.042 105.186 139.235-6.656 12.644-5.642 28.563 3.866 40.428l36.385-29.158 36.385 29.158c9.602-11.983 10.547-28.104 3.67-40.8C356.102 377.24 399.955 321.745 399.955 256z" fill="#F0F0F0"/></svg>