<svg xmlns="http://www.w3.org/2000/svg" viewBox="0 0 512 512"><path d="M256 0c141.384 0 256 114.616 256 256S397.384 512 256 512c0-11.13-33.39-256-33.39-256L256 0z" fill="#F0F0F0"/><path d="M256,512C114.616,512,0,397.384,0,256S114.616,0,256,0" fill="#FFDA44"/><path d="M354.03 222.765l48.11 63.646c-7.58 11.478-7.54 26.942 1.227 38.54 11.12 14.71 32.06 17.623 46.773 6.502s17.623-32.06 6.5-46.772c-8.765-11.597-23.633-15.853-36.743-11.69l-74.98-99.193-44.398 33.558 26.848 35.515 26.662-20.104zm69.263 73.17c4.904-3.708 11.885-2.736 15.592 2.166s2.737 11.885-2.167 15.593-11.884 2.737-15.6-2.168a11.13 11.13 0 0 1 2.165-15.591z" fill="#ACABB1"/><path d="M436.55 242.868l26.848-35.515-44.396-33.56-74.98 99.193c-13.108-4.162-27.977.095-36.743 11.69-11.122 14.712-8.2 35.652 6.5 46.772s35.652 8.21 46.772-6.502c8.766-11.597 8.806-27.06 1.227-38.54l48.11-63.646 26.66 20.106zm-93.757 68.657a11.13 11.13 0 0 1-15.59 2.168c-4.904-3.708-5.874-10.69-2.167-15.593s10.687-5.874 15.592-2.166 5.872 10.688 2.165 15.59z" fill="#FFDA44"/></svg>