<svg xmlns="http://www.w3.org/2000/svg" viewBox="0 0 512 512"><path d="M512 256c0 141.384-114.616 256-256 256S0 397.384 0 256C0 256.06 256 .028 256 0c141.384 0 256 114.616 256 256z" fill="#0052B4"/><g fill="#F0F0F0"><path d="M256 0h-.043.043zm-.685 256H256v-.685l-.685.685z"/><path d="M256 133.565L255.957 0C114.59.024 0 114.63 0 256h133.565v-75.21l75.21 75.21h46.54l.685-.685v-46.537l-75.213-75.213H256z"/></g><path d="M129.515 33.39C89.476 56.2 56.19 89.476 33.39 129.515V256h66.783V100.174H256V33.39H129.515z" fill="#D80027"/><path d="M367.304 256l-69.193 69.193c12.968 25.01 39.076 42.11 69.193 42.11s56.225-17.1 69.193-42.11L367.304 256z" fill="#FFDA44"/><path d="M256 224.52l-90.955-90.953-31.48.002L256 256v-31.48z" fill="#D80027"/><path d="M289.39 133.565V256c.001 59.64 77.913 77.913 77.913 77.913S445.216 315.64 445.217 256V133.565H289.39z" fill="#6DA544"/><path d="M445.217 256v-.001.001zM289.4 256v-.001z" fill="#496E2D"/><path d="M350.61 189.217H384v89.043h-33.39z" fill="#F0F0F0"/><circle cx="367.304" cy="189.217" r="16.696" fill="#A2001D"/><path d="M311.652 155.826h22.26v22.26h-22.26zm0 50.087h22.26v22.26h-22.26zm0 50.087h22.26v22.26h-22.26zm89.044-100.174h22.26v22.26h-22.26zm0 50.087h22.26v22.26h-22.26zm0 50.087h22.26v22.26h-22.26z" fill="#FFDA44"/></svg>