<svg xmlns="http://www.w3.org/2000/svg" viewBox="0 0 512 512"><circle cx="256" cy="256" r="256" fill="#FCFCFC"/><g fill="#FFDA44"><path d="M299.48 178.846c0-24.012-19.466-43.478-43.48-43.478s-43.48 19.466-43.48 43.478h-95.65c0 23.64 20.594 42.808 44.235 42.808h-1.424c0 23.643 19.164 42.81 42.81 42.81 0 20.933 15.034 38.327 34.89 42.045l-.11.25h37.465l-.11-.25c19.856-3.72 34.89-21.113 34.89-42.045 23.644 0 42.81-19.168 42.81-42.81h-1.426c23.64 0 44.236-19.167 44.236-42.808h-95.65z"/><path d="M236.887 302.324l-26.958 60.863c14.224 5.782 29.77 8.996 46.072 8.996s31.848-3.213 46.07-8.996l-26.957-60.863h-38.228z"/></g><path d="M200.348 200.227v74.89c0 42.598 55.652 55.652 55.652 55.652s55.652-13.054 55.652-55.652v-74.89H200.348z" fill="#F0F0F0"/><path d="M62.08 257.802l30.1 84.184 29.786-84.184h22.732L101.27 369.106H83.085L39.348 257.802h22.73zm349.746 111.304V257.802h21.633v111.304h-21.633z" fill="#338AF3"/><path d="M222.6 224.4v90.754c7.65 5.63 15.883 9.504 22.26 11.984V224.4H222.6zm66.78 0v90.754c-7.65 5.63-15.883 9.504-22.26 11.984V224.4h22.26z" fill="#D80027"/><path d="M200.348 200.225h111.304v35.316H200.348z" fill="#0052B4"/></svg>