<svg xmlns="http://www.w3.org/2000/svg" viewBox="0 0 512 512"><circle cx="256" cy="256" r="256" fill="#F0F0F0"/><path d="M512,256c0,141.384-114.616,256-256,256S0,397.384,0,256" fill="#496E2D"/><path d="M443.014 178.143c-9.155-25.963-33.892-44.577-62.987-44.577h-57.244c-36.883 0-66.783 29.9-66.783 66.783 0 12.05 3.208 23.63 8.79 33.39-21.257-.174-40.93.147-53.313 0v-65.43l2.63-2.63c11.806-11.806 7.87-31.482 7.87-31.482s-19.674-3.935-31.48 7.87l-13.76 13.76H161.39c-33.8 0-61.217 27.408-61.217 61.217h44.522v50.087c0 7.326 1.477 14.305 4.146 20.66l-15.277 12.73h-22.26v-22.26h-22.26v44.522h100.174v44.522h-22.26v22.26h44.522v-44.522l20.405-24.487h48.233l20.405 24.487v22.26h-22.26v22.26h89.043V267.13c0-18.44 14.95-33.39 33.39-33.39.474 0 .944.017 1.414.036-.922-3.568-1.414-7.31-1.414-11.166.002-23.85 18.755-43.317 42.32-44.466zm-120.23 189.16v-46.748h1.855l20.405 24.487v22.26h-22.26z" fill="#D80027"/></svg>