<svg xmlns="http://www.w3.org/2000/svg" viewBox="0 0 512 512"><path d="M512 256c0 141.384-114.616 256-256 256S0 397.384 0 256L256 0c141.384 0 256 114.616 256 256z" fill="#D80027"/><path d="M256 256V0C114.616 0 0 114.616 0 256h256z" fill="#0052B4"/><path d="M205.054 166.957l4.145 12.755h13.4l-10.85 7.88 4.145 12.755-10.85-7.883-10.85 7.883 4.145-12.755-10.85-7.88h13.4zM137.698 66.783l6.907 21.26h22.352l-18.084 13.135 6.9 21.258-18.084-13.14-18.083 13.14 6.908-21.258-18.083-13.135h22.35zm66.782 22.26l6.907 21.26h22.35l-18.083 13.135 6.907 21.258-18.082-13.14-18.083 13.14 6.908-21.258-18.083-13.135h22.35zm-52.787 89.044l6.908 21.26h22.35l-18.083 13.135 6.908 21.258-18.083-13.138L133.6 233.74l6.908-21.258-18.083-13.135h22.35zm-58.517-55.652l6.908 21.26h22.35L104.35 156.83l6.908 21.258-18.083-13.138-18.082 13.138L82 156.83l-18.08-13.136h22.35z" fill="#F0F0F0"/></svg>