<svg xmlns="http://www.w3.org/2000/svg" viewBox="0 0 512 512"><circle cx="256" cy="256" r="256" fill="#0052B4"/><path d="M112.45 155.827l5.526 17.008h17.88l-14.465 10.5 5.525 17.005-14.466-10.5-14.467 10.5 5.527-17.005-14.466-10.5h17.88zm55.65-16.695l5.526 17.007h17.88l-14.465 10.5 5.525 17.005-14.466-10.5-14.466 10.5 5.526-17.005-14.465-10.5h17.88zm55.653-16.696l5.526 17.007h17.88l-14.465 10.5 5.525 17.005-14.466-10.5-14.466 10.5 5.526-17.005-14.465-10.5h17.88zm175.797 33.4l-5.526 17.008h-17.88l14.466 10.5-5.526 17.005 14.466-10.5 14.467 10.5-5.527-17.005 14.466-10.5h-17.88zm-55.65-16.704l-5.526 17.007h-17.88l14.466 10.5-5.526 17.005 14.466-10.5 14.466 10.5-5.526-17.005 14.465-10.5h-17.88zm-55.653-16.696l-5.526 17.007h-17.88l14.465 10.5-5.525 17.005 14.466-10.5 14.466 10.5-5.526-17.005 14.465-10.5h-17.88z" fill="#F0F0F0"/><path d="M300.522 267.13L256 211.478l-22.26 11.13v22.26l-33.39 22.26h-22.26v28.76c32.628 13.212 55.652 45.18 55.652 82.546H256v-22.26l22.26-22.26 22.26 22.26 22.26-22.26v-22.26l22.26-33.39-44.522-11.13z" fill="#FFDA44"/></svg>