<svg width="80" height="80" viewBox="0 0 80 80" fill="none" xmlns="http://www.w3.org/2000/svg">
<path opacity="0.3" d="M39.9999 70.594C56.8938 70.594 70.5891 56.8988 70.5891 40.0048C70.5891 23.1108 56.8938 9.41559 39.9999 9.41559C23.1059 9.41559 9.41064 23.1108 9.41064 40.0048C9.41064 56.8988 23.1059 70.594 39.9999 70.594Z" fill="#32B3C7"/>
<path fill-rule="evenodd" clip-rule="evenodd" d="M7.00689 18.771C18.7313 0.549452 43.0072 -4.71748 61.2288 7.00691C79.4503 18.7313 84.7173 43.0072 72.9929 61.2288C61.9851 78.3367 39.9138 84.0258 22.1763 74.9525L9.08079 75.8943C8.77855 75.9161 8.48996 75.7652 8.33536 75.5046C8.18076 75.2439 8.18667 74.9183 8.35064 74.6635L12.5885 68.0773C-0.497299 55.3303 -3.26142 34.7296 7.00689 18.771ZM60.363 8.35244C42.8846 -2.8938 19.5987 2.15833 8.35242 19.6368C-1.61584 35.1291 1.21975 55.1852 14.1664 67.3731C14.4472 67.6374 14.4995 68.0643 14.2909 68.3885L10.562 74.1837L22.2855 73.3405C22.4329 73.3299 22.5802 73.3603 22.7114 73.4283C39.7566 82.2717 61.0488 76.8349 71.6474 60.363C82.8936 42.8846 77.8415 19.5987 60.363 8.35244Z" fill="#294563"/>
<path fill-rule="evenodd" clip-rule="evenodd" d="M39.1997 32.9458C39.1997 32.5039 39.5579 32.1458 39.9997 32.1458C42.6075 32.1458 44.7214 34.2597 44.7214 36.8675V58.829C44.7214 61.4368 42.6075 63.5508 39.9997 63.5508C39.5579 63.5508 39.1997 63.1926 39.1997 62.7508C39.1997 62.3089 39.5579 61.9508 39.9997 61.9508C41.7238 61.9508 43.1214 60.5531 43.1214 58.829V36.8675C43.1214 35.1434 41.7238 33.7458 39.9997 33.7458C39.5579 33.7458 39.1997 33.3876 39.1997 32.9458Z" fill="#294563"/>
<path fill-rule="evenodd" clip-rule="evenodd" d="M40 33.7458C38.2759 33.7458 36.8783 35.1434 36.8783 36.8675V58.8291C36.8783 60.553 38.2759 61.9507 40.0001 61.9508C40.4419 61.9508 40.8001 62.309 40.8 62.7509C40.8 63.1927 40.4418 63.5508 40 63.5508C37.3923 63.5506 35.2783 61.4367 35.2783 58.8291V36.8675C35.2783 34.2598 37.3923 32.1458 40 32.1458C40.4419 32.1458 40.8 32.504 40.8 32.9458C40.8 33.3876 40.4419 33.7458 40 33.7458Z" fill="#294563"/>
<path fill-rule="evenodd" clip-rule="evenodd" d="M40 18.0589C38.276 18.0589 36.8783 19.4565 36.8783 21.1806C36.8783 22.9047 38.276 24.3023 40 24.3023C41.7241 24.3023 43.1218 22.9047 43.1218 21.1806C43.1218 19.4565 41.7241 18.0589 40 18.0589ZM35.2783 21.1806C35.2783 18.5728 37.3923 16.4589 40 16.4589C42.6078 16.4589 44.7218 18.5728 44.7218 21.1806C44.7218 23.7883 42.6078 25.9023 40 25.9023C37.3923 25.9023 35.2783 23.7883 35.2783 21.1806Z" fill="#294563"/>
</svg>
