<svg width="200" height="179" viewBox="0 0 200 179" fill="none" xmlns="http://www.w3.org/2000/svg">
<circle cx="101" cy="83" r="82.5" fill="#DFF8FC"/>
<path d="M142.681 178.5H1.00372V96.4891C1.00372 94.2178 1.89935 92.0379 3.49677 90.422L65.6944 27.4955C69.0774 24.0728 74.6077 24.0728 77.9907 27.4955L140.188 90.422C141.786 92.0381 142.681 94.2178 142.681 96.4891V178.5Z" fill="#84D1DD"/>
<path d="M140.188 90.4218L77.9907 27.4955C74.6077 24.0728 69.0774 24.0728 65.6944 27.4955L3.49677 90.4218C1.89935 92.0379 1.00372 94.2178 1.00372 96.4889V99.6304H142.681V96.4889C142.681 94.2178 141.786 92.0379 140.188 90.4218Z" fill="#5BC2D2"/>
<path d="M133.19 170.718H10.4952V98.4251C10.4952 97.2724 10.9497 96.1663 11.7604 95.3462L68.7224 37.7168C70.4393 35.9798 73.2457 35.9798 74.9626 37.7168L131.925 95.3462C132.735 96.1663 133.19 97.2726 133.19 98.4251L133.19 170.718Z" fill="white"/>
<path d="M133.19 99.7642V98.4253C133.19 97.2726 132.735 96.1664 131.924 95.3464L74.9624 37.7168C73.2455 35.9798 70.4391 35.9798 68.7222 37.7168L11.7604 95.3462C10.9497 96.1662 10.4952 97.2726 10.4952 98.4251V99.764H133.19V99.7642Z" fill="white"/>
<path d="M10.4952 99.6306H133.19" stroke="#F9DCE5" stroke-width="2" stroke-miterlimit="10"/>
<path d="M121.521 52.6677L5.85919 67.6775L19.9455 176.048L135.607 161.038L121.521 52.6677Z" fill="#D6F0F4"/>
<path d="M133.157 59.6062H16.5273V173.077H133.157V59.6062Z" fill="#E9FBFF"/>
<path d="M71.8423 178.5H1.00354V99.6306L71.8423 139.065V178.5Z" fill="#5BC2D2"/>
<path d="M71.8423 178.5H142.681V99.6306L71.8423 139.065V178.5Z" fill="#5BC2D2"/>
<path d="M1.00354 178.5H142.681L96.8871 127.846C93.8427 124.479 89.7645 122.627 85.5386 122.694L57.3074 122.692C53.32 122.755 49.7129 124.72 46.7976 127.846L1.00354 178.5Z" fill="#84D1DD"/>
<path fill-rule="evenodd" clip-rule="evenodd" d="M76.4393 131C74.6853 131 73.2828 132.333 72.4113 133.215C71.5214 132.34 70.0933 131 68.343 131C65.7797 131 64 132.805 64 135.394C64 141.015 71.364 145.647 71.6899 145.834C72.0452 146.055 72.4953 146.055 72.8507 145.834C73.162 145.64 80.493 140.986 80.493 135.398C80.4673 132.684 78.9257 131 76.4393 131Z" fill="white"/>
<path d="M120.116 147.886C111.283 139.506 102.195 131.353 95.0854 126.126C95.718 126.645 96.3205 127.219 96.8871 127.846L142.681 178.5V172.148C142.681 172.148 129.269 156.57 120.116 147.886Z" fill="#02317E" fill-opacity="0.3"/>
<path d="M48.6162 126.126C48.6132 126.128 39.3813 131.078 27.9176 142.936C16.4516 154.798 10.1543 161.272 5.43299 167.472C0.711719 173.673 1.00353 174.37 1.00353 174.37V178.5L46.7976 127.846C47.3771 127.225 47.9845 126.65 48.6162 126.126Z" fill="#02317E" fill-opacity="0.3"/>
<path d="M25 68.4998H82.6466" stroke="white" stroke-width="3" stroke-miterlimit="10" stroke-linecap="round" stroke-linejoin="round"/>
<path d="M25 73.7063H82.6466" stroke="white" stroke-width="3" stroke-miterlimit="10" stroke-linecap="round" stroke-linejoin="round"/>
<path d="M25 78.9128H82.6466" stroke="white" stroke-width="3" stroke-miterlimit="10" stroke-linecap="round" stroke-linejoin="round"/>
<rect x="39" y="83.4998" width="160" height="36" rx="4" fill="white"/>
<path d="M63.0979 89.3539C63.6966 87.5112 66.3034 87.5112 66.9021 89.3539L68.5922 94.5555C68.86 95.3795 69.6279 95.9375 70.4943 95.9375H75.9636C77.9011 95.9375 78.7066 98.4167 77.1392 99.5555L72.7145 102.77C72.0135 103.28 71.7202 104.182 71.9879 105.006L73.678 110.208C74.2767 112.051 72.1678 113.583 70.6003 112.444L66.1756 109.229C65.4746 108.72 64.5254 108.72 63.8244 109.229L59.3997 112.444C57.8322 113.583 55.7233 112.051 56.322 110.208L58.0121 105.006C58.2798 104.182 57.9865 103.28 57.2855 102.77L52.8608 99.5555C51.2934 98.4167 52.0989 95.9375 54.0364 95.9375H59.5057C60.3721 95.9375 61.14 95.3795 61.4078 94.5555L63.0979 89.3539Z" fill="#FAA859"/>
<path d="M99.0979 89.3539C99.6966 87.5112 102.303 87.5112 102.902 89.3539L104.592 94.5555C104.86 95.3795 105.628 95.9375 106.494 95.9375H111.964C113.901 95.9375 114.707 98.4167 113.139 99.5555L108.714 102.77C108.013 103.28 107.72 104.182 107.988 105.006L109.678 110.208C110.277 112.051 108.168 113.583 106.6 112.444L102.176 109.229C101.475 108.72 100.525 108.72 99.8244 109.229L95.3997 112.444C93.8322 113.583 91.7233 112.051 92.322 110.208L94.0121 105.006C94.2798 104.182 93.9865 103.28 93.2855 102.77L88.8608 99.5555C87.2934 98.4167 88.0989 95.9375 90.0364 95.9375H95.5057C96.3721 95.9375 97.14 95.3795 97.4078 94.5555L99.0979 89.3539Z" fill="#FAA859"/>
<path d="M135.098 89.3539C135.697 87.5112 138.303 87.5112 138.902 89.3539L140.592 94.5555C140.86 95.3795 141.628 95.9375 142.494 95.9375H147.964C149.901 95.9375 150.707 98.4167 149.139 99.5555L144.714 102.77C144.013 103.28 143.72 104.182 143.988 105.006L145.678 110.208C146.277 112.051 144.168 113.583 142.6 112.444L138.176 109.229C137.475 108.72 136.525 108.72 135.824 109.229L131.4 112.444C129.832 113.583 127.723 112.051 128.322 110.208L130.012 105.006C130.28 104.182 129.987 103.28 129.286 102.77L124.861 99.5555C123.293 98.4167 124.099 95.9375 126.036 95.9375H131.506C132.372 95.9375 133.14 95.3795 133.408 94.5555L135.098 89.3539Z" fill="#FAA859"/>
<path d="M171.098 89.3539C171.697 87.5112 174.303 87.5112 174.902 89.3539L176.592 94.5555C176.86 95.3795 177.628 95.9375 178.494 95.9375H183.964C185.901 95.9375 186.707 98.4167 185.139 99.5555L180.714 102.77C180.013 103.28 179.72 104.182 179.988 105.006L181.678 110.208C182.277 112.051 180.168 113.583 178.6 112.444L174.176 109.229C173.475 108.72 172.525 108.72 171.824 109.229L167.4 112.444C165.832 113.583 163.723 112.051 164.322 110.208L166.012 105.006C166.28 104.182 165.987 103.28 165.286 102.77L160.861 99.5555C159.293 98.4167 160.099 95.9375 162.036 95.9375H167.506C168.372 95.9375 169.14 95.3795 169.408 94.5555L171.098 89.3539Z" fill="#FAA859"/>
</svg>
