<svg width="376" height="60" viewBox="0 0 376 60" fill="none" xmlns="http://www.w3.org/2000/svg">
<path d="M7.22774 35.1353L9.53805 39.3594C9.56137 39.4029 9.59709 39.4387 9.64062 39.462L13.8647 41.7722C14.0451 41.8702 14.0451 42.1283 13.8647 42.2278L9.64062 44.538C9.59709 44.5613 9.56137 44.5971 9.53805 44.6406L7.22774 48.8647C7.12979 49.0451 6.87016 49.0451 6.77221 48.8647L4.46195 44.6406C4.43863 44.5971 4.40286 44.5613 4.35933 44.538L0.135258 42.2278C-0.0450861 42.1298 -0.0450861 41.8702 0.135258 41.7722L4.35933 39.462C4.40286 39.4387 4.43863 39.4029 4.46195 39.3594L6.77221 35.1353C6.87171 34.9549 7.12979 34.9549 7.22774 35.1353Z" fill="white"/>
<path d="M369.228 46.1353L371.538 50.3594C371.561 50.4029 371.597 50.4387 371.641 50.462L375.865 52.7722C376.045 52.8702 376.045 53.1283 375.865 53.2278L371.641 55.538C371.597 55.5613 371.561 55.5971 371.538 55.6406L369.228 59.8647C369.13 60.0451 368.87 60.0451 368.772 59.8647L366.462 55.6406C366.439 55.5971 366.403 55.5613 366.359 55.538L362.135 53.2278C361.955 53.1298 361.955 52.8702 362.135 52.7722L366.359 50.462C366.403 50.4387 366.439 50.4029 366.462 50.3594L368.772 46.1353C368.872 45.9549 369.13 45.9549 369.228 46.1353Z" fill="white"/>
<path d="M37.8091 0.183564L40.9445 5.91628C40.9761 5.97535 41.0246 6.0239 41.0837 6.05555L46.8164 9.1909C47.0612 9.32382 47.0612 9.67407 46.8164 9.8091L41.0837 12.9444C41.0246 12.9761 40.9761 13.0246 40.9445 13.0837L37.8091 18.8164C37.6761 19.0612 37.3238 19.0612 37.1909 18.8164L34.0555 13.0837C34.0239 13.0246 33.9753 12.9761 33.9162 12.9444L28.1836 9.8091C27.9388 9.67618 27.9388 9.32382 28.1836 9.1909L33.9162 6.05555C33.9753 6.0239 34.0239 5.97535 34.0555 5.91628L37.1909 0.183564C37.3259 -0.0611881 37.6761 -0.0611881 37.8091 0.183564Z" fill="white"/>
<path d="M11.5813 31.0483L12.4064 32.5569C12.4148 32.5725 12.4275 32.5852 12.4431 32.5936L13.9517 33.4187C14.0161 33.4536 14.0161 33.5458 13.9517 33.5813L12.4431 34.4064C12.4275 34.4148 12.4148 34.4275 12.4064 34.4431L11.5813 35.9517C11.5464 36.0161 11.4536 36.0161 11.4186 35.9517L10.5936 34.4431C10.5852 34.4275 10.5724 34.4148 10.5569 34.4064L9.04831 33.5813C8.9839 33.5464 8.9839 33.4536 9.04831 33.4187L10.5569 32.5936C10.5724 32.5852 10.5852 32.5725 10.5936 32.5569L11.4186 31.0483C11.4542 30.9839 11.5464 30.9839 11.5813 31.0483Z" fill="white"/>
</svg>
