<svg width="207" height="173" viewBox="0 0 207 173" fill="none" xmlns="http://www.w3.org/2000/svg">
<path d="M157.615 5.9978H47.1117C37.7889 5.9978 30.2314 13.2925 30.2314 22.291V122.129C30.2314 131.127 37.7889 138.422 47.1117 138.422H157.615C166.938 138.422 174.496 131.127 174.496 122.129V22.291C174.496 13.2925 166.938 5.9978 157.615 5.9978Z" fill="#84D1DD"/>
<path d="M144.736 81.9339L157.241 94.4076C152.381 91.0637 146.897 88.756 138.753 91.4832C127.183 95.3642 117.877 91.1168 112.005 86.7384L123.078 75.6937L108.304 90.4304L122.192 104.283L156.487 138.493C157.732 139.732 158.656 141.255 159.179 142.93C163.86 142.876 168.331 140.984 171.622 137.663C174.913 134.342 176.759 129.86 176.759 125.191V113.869L144.736 81.9339Z" fill="#4ABFA7"/>
<path d="M112.264 86.7723C118.139 91.1679 127.45 95.4272 139.025 91.5358C147.165 88.7945 152.661 91.1114 157.523 94.4685L145.008 81.9455L138.753 75.684C138.488 75.4203 138.211 75.1703 137.921 74.935C137.778 74.8185 137.633 74.707 137.487 74.6022C137.193 74.3858 136.891 74.1861 136.581 74.003C136.271 73.8199 135.954 73.6535 135.631 73.5037C135.465 73.4288 135.299 73.3572 135.144 73.2906C134.491 73.0261 133.815 72.8254 133.124 72.6914C132.781 72.6249 132.436 72.5749 132.088 72.5416C131.739 72.5084 131.391 72.4917 131.042 72.4917C130.519 72.4919 129.996 72.5298 129.478 72.6049C129.133 72.6548 128.789 72.7214 128.447 72.8046C127.237 73.1007 126.086 73.6029 125.045 74.2893C124.586 74.5935 124.151 74.9317 123.743 75.3012C123.605 75.426 123.469 75.5542 123.336 75.6874L112.264 86.7723Z" fill="#E1F0FF"/>
<path d="M122.297 104.443L113.321 107.439C94.5549 113.703 90.7511 89.2015 70.4643 95.9772C53.7357 101.561 41.7534 90.1869 38.0542 86.0159L26.2711 97.7351V125.269C26.2711 129.953 28.142 134.445 31.4722 137.757C34.8024 141.069 39.3191 142.93 44.0287 142.93H159.015C159.085 142.93 159.153 142.93 159.221 142.93C158.699 141.262 157.776 139.746 156.532 138.513L122.297 104.443Z" fill="#1DCEAC"/>
<path d="M70.5854 96.0432C90.8922 89.267 94.6898 113.792 113.467 107.52L122.447 104.52L108.572 90.7099L107.874 90.0157L78.727 61.0154C77.1505 59.4452 75.1272 58.395 72.9311 58.0072C70.735 57.6193 68.4721 57.9125 66.449 58.847C66.1269 58.9958 65.8113 59.1611 65.5025 59.3429C65.3481 59.4338 65.1953 59.528 65.0442 59.6271C64.7396 59.8272 64.4453 60.0423 64.1624 60.2717C63.8779 60.5031 63.6012 60.751 63.3322 61.0154L38.1517 86.0773C41.8564 90.2455 53.8472 101.634 70.5854 96.0432Z" fill="#EEF7FF"/>
<path d="M160.104 0.362793H42.9264C38.51 0.362793 34.2744 2.11166 31.1511 5.22479C28.0278 8.33793 26.2725 12.5604 26.2711 16.9637V126.324C26.2711 130.728 28.0259 134.952 31.1493 138.066C34.2728 141.18 38.5091 142.93 42.9264 142.93H160.104C164.521 142.93 168.757 141.18 171.881 138.066C175.004 134.952 176.759 130.728 176.759 126.324V16.9637C176.757 12.5604 175.002 8.33793 171.879 5.22479C168.755 2.11166 164.52 0.362793 160.104 0.362793ZM169.292 126.324C169.289 128.753 168.32 131.081 166.598 132.799C164.875 134.516 162.54 135.482 160.104 135.485H42.9264C40.4904 135.482 38.1549 134.516 36.4324 132.799C34.7099 131.081 33.741 128.753 33.7384 126.324V16.9637C33.741 14.5349 34.7099 12.2064 36.4324 10.489C38.1549 8.77156 40.4904 7.80557 42.9264 7.80294H160.104C162.54 7.80557 164.875 8.77156 166.598 10.489C168.32 12.2064 169.289 14.5349 169.292 16.9637V126.324Z" fill="#D6F0F4"/>
<path d="M126.528 44.0153C127.894 38.2475 124.308 32.4681 118.517 31.1068C112.727 29.7455 106.924 33.3177 105.558 39.0855C104.191 44.8533 107.777 50.6326 113.568 51.994C119.359 53.3553 125.161 49.7831 126.528 44.0153Z" fill="#FFDA66"/>
<path d="M203.148 129.351L156.524 110.225C155.733 109.897 154.845 109.88 154.039 110.177C153.187 110.494 152.496 111.132 152.116 111.951C151.736 112.77 151.698 113.704 152.012 114.546L169.464 161.36C169.778 162.202 170.418 162.884 171.242 163.256C172.066 163.628 173.007 163.659 173.859 163.343C174.288 163.184 174.68 162.94 175.012 162.626C175.344 162.313 175.608 161.935 175.789 161.518L183.95 142.989C183.989 142.895 184.047 142.81 184.12 142.738C184.193 142.667 184.279 142.611 184.375 142.573L203.015 135.648C203.657 135.411 204.213 134.987 204.61 134.434C205.008 133.88 205.228 133.221 205.243 132.543C205.258 131.866 205.067 131.2 204.695 130.634C204.322 130.068 203.785 129.627 203.155 129.369L203.148 129.351Z" fill="#B1CEFF"/>
<path d="M203.693 127.858L156.654 108.248C155.797 107.889 154.854 107.789 153.941 107.959C153.028 108.13 152.186 108.564 151.517 109.207C150.849 109.851 150.383 110.676 150.178 111.582C149.973 112.487 150.037 113.433 150.363 114.304L168.12 161.937C168.565 163.122 169.462 164.084 170.614 164.61C171.766 165.137 173.078 165.185 174.264 164.744C174.864 164.52 175.412 164.177 175.874 163.734C176.336 163.291 176.703 162.759 176.952 162.169L184.998 143.596L203.527 136.712C204.424 136.379 205.198 135.784 205.751 135.005C206.303 134.225 206.608 133.296 206.626 132.34C206.643 131.384 206.373 130.444 205.849 129.643C205.325 128.842 204.573 128.216 203.69 127.848L203.693 127.858ZM202.597 134.217L183.844 141.184C183.579 141.282 183.338 141.432 183.133 141.626C182.929 141.82 182.766 142.053 182.654 142.312L174.503 161.108C174.394 161.366 174.234 161.598 174.032 161.792C173.83 161.985 173.59 162.135 173.328 162.233C173.07 162.331 172.794 162.378 172.518 162.369C172.241 162.36 171.969 162.297 171.717 162.182C171.465 162.067 171.238 161.904 171.049 161.701C170.861 161.499 170.714 161.26 170.618 161.001L152.863 113.375C152.766 113.115 152.721 112.84 152.731 112.563C152.741 112.287 152.805 112.015 152.92 111.764C153.036 111.513 153.2 111.287 153.403 111.099C153.606 110.912 153.844 110.767 154.104 110.672C154.598 110.489 155.144 110.504 155.629 110.713L202.668 130.322C203.057 130.484 203.388 130.758 203.618 131.11C203.848 131.462 203.967 131.876 203.96 132.296C203.952 132.716 203.818 133.124 203.575 133.467C203.332 133.81 202.991 134.071 202.597 134.217Z" fill="white"/>
<path d="M9.36532 1.00051L10.7146 5.69418C10.7554 5.83489 10.8295 5.96289 10.9303 6.06662C11.0311 6.17035 11.1554 6.24654 11.2918 6.28832L15.8415 7.68171C16.0211 7.7335 16.1793 7.84449 16.292 7.99775C16.4047 8.151 16.4657 8.3381 16.4657 8.53048C16.4657 8.72286 16.4047 8.90995 16.292 9.0632C16.1793 9.21646 16.0211 9.32745 15.8415 9.37924L11.2918 10.7712C11.1554 10.813 11.0311 10.8892 10.9303 10.9929C10.8295 11.0966 10.7554 11.2246 10.7146 11.3654L9.36532 16.0604C9.31512 16.2457 9.20753 16.409 9.05898 16.5253C8.91043 16.6415 8.72908 16.7045 8.54261 16.7045C8.35613 16.7045 8.17477 16.6415 8.02622 16.5253C7.87767 16.409 7.77009 16.2457 7.71989 16.0604L6.37474 11.3583C6.33428 11.2176 6.26041 11.0896 6.15984 10.9859C6.05927 10.8821 5.9352 10.8059 5.79885 10.7641L1.24922 9.37216C1.06963 9.32037 0.911402 9.20938 0.798681 9.05613C0.685961 8.90288 0.624939 8.71578 0.624939 8.5234C0.624939 8.33102 0.685961 8.14393 0.798681 7.99068C0.911402 7.83742 1.06963 7.72642 1.24922 7.67463L5.79885 6.28125C5.9352 6.2395 6.05927 6.16329 6.15984 6.05954C6.26041 5.95579 6.33428 5.82777 6.37474 5.68711L7.72537 0.993435C7.77792 0.810685 7.8865 0.650437 8.0348 0.536734C8.18311 0.423032 8.36314 0.362004 8.54791 0.362801C8.73269 0.363598 8.91222 0.426177 9.0596 0.541155C9.20698 0.656133 9.31425 0.817309 9.36532 1.00051Z" fill="#D6F0F4"/>
<path d="M19.808 22.5638C21.5265 22.5638 22.9196 21.1762 22.9196 19.4645C22.9196 17.7528 21.5265 16.3652 19.808 16.3652C18.0895 16.3652 16.6964 17.7528 16.6964 19.4645C16.6964 21.1762 18.0895 22.5638 19.808 22.5638Z" fill="#D6F0F4"/>
<path d="M198.764 108.249L194.216 109.594C194.08 109.634 193.955 109.708 193.855 109.808C193.754 109.908 193.681 110.032 193.64 110.168L192.291 114.7C192.24 114.878 192.132 115.035 191.984 115.146C191.835 115.258 191.655 115.318 191.469 115.318C191.283 115.318 191.102 115.258 190.954 115.146C190.805 115.035 190.697 114.878 190.646 114.7L189.297 110.168C189.257 110.032 189.183 109.908 189.082 109.808C188.982 109.708 188.858 109.634 188.722 109.594L184.172 108.249C183.992 108.199 183.834 108.092 183.721 107.944C183.609 107.796 183.548 107.615 183.548 107.429C183.548 107.243 183.609 107.063 183.721 106.915C183.834 106.767 183.992 106.66 184.172 106.61L188.722 105.265C188.858 105.225 188.982 105.152 189.082 105.051C189.183 104.951 189.257 104.828 189.297 104.692L190.646 100.158C190.697 99.9802 190.805 99.8235 190.954 99.7119C191.102 99.6004 191.283 99.54 191.469 99.54C191.655 99.54 191.835 99.6004 191.984 99.7119C192.132 99.8235 192.24 99.9802 192.291 100.158L193.64 104.692C193.681 104.828 193.754 104.951 193.855 105.051C193.955 105.152 194.08 105.225 194.216 105.265L198.764 106.61C198.944 106.66 199.102 106.767 199.215 106.915C199.327 107.063 199.388 107.243 199.388 107.429C199.388 107.615 199.327 107.796 199.215 107.944C199.102 108.092 198.944 108.199 198.764 108.249Z" fill="#D6F0F4"/>
<path d="M199.388 102.357C200.951 102.357 202.217 101.096 202.217 99.5399C202.217 97.9839 200.951 96.7224 199.388 96.7224C197.826 96.7224 196.56 97.9839 196.56 99.5399C196.56 101.096 197.826 102.357 199.388 102.357Z" fill="#D6F0F4"/>
</svg>
