<!-- Generated by IcoMoon.io -->
<svg version="1.1" xmlns="http://www.w3.org/2000/svg" width="32" height="32" viewBox="0 0 32 32">
<path d="M18.267 18.533h-4.667c-4.933 0-9.067 4.133-9.067 9.333 0.133 0.8 0.8 1.467 1.6 1.467h19.6c0.8 0 1.467-0.667 1.467-1.6 0.133-5.067-3.867-9.2-8.933-9.2zM6.267 27.733c0-4.133 3.333-7.467 7.467-7.467h4.667c4 0 7.333 3.333 7.467 7.467h-19.6z"></path>
<path d="M20.533 4.667c-1.2-1.333-2.8-2-4.533-2s-3.333 0.667-4.533 2c-1.2 1.2-2 2.933-2 4.667s0.667 3.467 1.867 4.667c1.333 1.333 2.933 2 4.667 2s3.333-0.667 4.533-2c1.2-1.2 1.867-2.933 1.867-4.667s-0.667-3.467-1.867-4.667zM20.533 11.2c-0.267 0.667-0.667 1.2-1.067 1.6s-0.933 0.8-1.6 1.067c-0.533 0.267-1.2 0.4-1.867 0.4s-1.333-0.133-1.867-0.4c-0.667-0.267-1.067-0.667-1.6-1.067-0.4-0.4-0.8-0.933-1.067-1.6-0.133-0.533-0.267-1.2-0.267-1.867s0.133-1.333 0.4-1.867c0.267-0.667 0.667-1.2 1.067-1.6s0.933-0.8 1.6-1.067c0.4-0.4 1.067-0.4 1.733-0.4s1.333 0.133 1.867 0.4c0.667 0.267 1.067 0.667 1.6 1.067 0.4 0.533 0.8 1.067 1.067 1.6 0.267 0.667 0.4 1.333 0.4 1.867s-0.267 1.333-0.4 1.867z"></path>
</svg>
