<!-- Generated by IcoMoon.io -->
<svg version="1.1" xmlns="http://www.w3.org/2000/svg" width="32" height="32" viewBox="0 0 32 32">
<path fill="#2bd4ee" d="M22 18.667c-0.133 0-0.4-0.133-0.533-0.133-0.133-0.133-0.133-0.267-0.133-0.533s0.133-0.4 0.133-0.533c0.133-0.133 0.267-0.133 0.533-0.133s0.4 0.133 0.533 0.133c0.133 0.133 0.133 0.267 0.133 0.533s-0.133 0.4-0.133 0.533c-0.133 0-0.4 0.133-0.533 0.133z"></path>
<path fill="#2bd4ee" d="M22 19.467c-0.4 0-0.8-0.133-1.067-0.4s-0.4-0.667-0.4-1.067 0.133-0.8 0.4-1.067c0.533-0.533 1.467-0.533 2.133 0 0.267 0.267 0.4 0.667 0.4 1.067s-0.133 0.8-0.4 1.067c-0.267 0.267-0.667 0.4-1.067 0.4zM22 17.867c0 0-0.133 0 0 0l-0.133 0.267h0.133v-0.267z"></path>
<path fill="#2bd4ee" d="M4.8 12h-1.6v-0.667c0-0.667 0.267-1.467 0.667-2 0.533-0.667 1.2-1.067 1.867-1.333l14.667-3.867c0.533-0.133 1.067-0.133 1.6 0s1.067 0.267 1.467 0.667c0.4 0.267 0.8 0.8 0.933 1.2 0.267 0.533 0.4 1.067 0.4 1.467v1.867h-1.6v-1.867c0-0.267 0-0.533-0.133-0.8s-0.267-0.533-0.533-0.667c-0.267-0.133-0.533-0.267-0.8-0.4-0.267 0-0.533 0-0.8 0l-14.667 3.867c-0.533 0.267-0.8 0.4-1.067 0.8-0.267 0.267-0.4 0.667-0.4 1.067v0.667z"></path>
<path fill="#02317e" d="M25.333 27.467h-18.667c-0.933 0-1.733-0.4-2.4-1.067s-1.067-1.467-1.067-2.4v-12c0-0.933 0.4-1.733 1.067-2.4s1.467-1.067 2.4-1.067h18.667c0.933 0 1.733 0.4 2.4 1.067s1.067 1.467 1.067 2.4v12c0 0.933-0.4 1.733-1.067 2.4s-1.467 1.067-2.4 1.067zM6.667 10.133c-0.533 0-0.933 0.133-1.333 0.533s-0.533 0.8-0.533 1.333v12c0 0.533 0.133 0.933 0.533 1.333s0.8 0.533 1.333 0.533h18.667c0.533 0 0.933-0.133 1.333-0.533s0.533-0.8 0.533-1.333v-12c0-0.533-0.133-0.933-0.533-1.333s-0.8-0.533-1.333-0.533h-18.667z"></path>
</svg>
