<svg width="1366" height="734" viewBox="0 0 1366 734" fill="none" xmlns="http://www.w3.org/2000/svg">
<g opacity="0.65">
<path d="M213.537 74.2535H0V72.3404H213.537C215.837 72.3404 217.999 71.4449 219.625 69.8187L241.881 47.5623C243.869 45.5748 246.511 44.4805 249.322 44.4805H343.407V46.3935H249.322C247.022 46.3935 244.86 47.2888 243.234 48.9149L220.977 71.1714C218.99 73.1588 216.348 74.2535 213.537 74.2535Z" fill="#32B3C7" fill-opacity="0.2"/>
<path d="M464.242 103.668H97.8255C95.0148 103.668 92.3724 102.574 90.3853 100.586L63.7725 73.9737L65.1251 72.6211L91.7379 99.2336C93.364 100.86 95.526 101.755 97.8255 101.755H464.242V103.668Z" fill="#32B3C7" fill-opacity="0.2"/>
<path d="M464.044 106.668C466.229 106.668 468 104.897 468 102.712C468 100.527 466.229 98.7559 464.044 98.7559C461.859 98.7559 460.088 100.527 460.088 102.712C460.088 104.897 461.859 106.668 464.044 106.668Z" fill="#32B3C7" fill-opacity="0.2"/>
<path d="M233.709 140.75H146.834C144.023 140.75 141.381 139.655 139.394 137.668L127.285 125.559C125.659 123.933 123.497 123.038 121.198 123.038H0V121.125H121.198C124.008 121.125 126.651 122.22 128.638 124.207L140.746 136.315C142.373 137.941 144.535 138.837 146.834 138.837H233.709V140.75Z" fill="#32B3C7" fill-opacity="0.2"/>
<path d="M233.511 143.749C235.696 143.749 237.467 141.978 237.467 139.793C237.467 137.608 235.696 135.837 233.511 135.837C231.327 135.837 229.555 137.608 229.555 139.793C229.555 141.977 231.327 143.749 233.511 143.749Z" fill="#32B3C7" fill-opacity="0.2"/>
<path d="M193.291 47.2303H133.457C130.647 47.2303 128.005 46.1357 126.017 44.1485L119.185 37.3163C117.559 35.6901 115.397 34.7949 113.097 34.7949H0V32.8818H113.098C115.908 32.8818 118.55 33.9762 120.538 35.9636L127.37 42.7955C128.996 44.4217 131.158 45.317 133.457 45.317H193.291L193.291 47.2303Z" fill="#32B3C7" fill-opacity="0.2"/>
<path d="M193.093 50.2296C195.278 50.2296 197.049 48.4582 197.049 46.2735C197.049 44.0888 195.278 42.3174 193.093 42.3174C190.908 42.3174 189.137 44.0888 189.137 46.2735C189.137 48.4582 190.908 50.2296 193.093 50.2296Z" fill="#32B3C7" fill-opacity="0.2"/>
<path d="M297.322 103.388L295.97 102.035L314.695 83.3097C316.683 81.3222 319.325 80.2275 322.136 80.2275H393.627V82.1406H322.136C319.836 82.1406 317.674 83.0361 316.048 84.6623L297.322 103.388Z" fill="#32B3C7" fill-opacity="0.2"/>
<path d="M77.42 34.5145L76.0674 33.1618L102.152 7.07693C104.139 5.08945 106.782 3.99512 109.593 3.99512H235.076V5.90814H109.593C107.293 5.90814 105.131 6.80372 103.505 8.42957L77.42 34.5145Z" fill="#32B3C7" fill-opacity="0.2"/>
<path d="M347.712 50.4588C344.943 50.4588 342.69 48.206 342.69 45.4369C342.69 42.6678 344.943 40.415 347.712 40.415C350.481 40.415 352.734 42.6678 352.734 45.4369C352.734 48.206 350.481 50.4588 347.712 50.4588ZM347.712 42.3281C345.998 42.3281 344.603 43.7226 344.603 45.4369C344.603 47.1512 345.998 48.5458 347.712 48.5458C349.427 48.5458 350.821 47.1512 350.821 45.4369C350.821 43.7229 349.427 42.3281 347.712 42.3281Z" fill="#32B3C7" fill-opacity="0.2"/>
<path d="M246.794 90.1561C244.025 90.1561 241.772 87.9033 241.772 85.1342C241.772 82.3651 244.025 80.1123 246.794 80.1123C249.563 80.1123 251.816 82.3651 251.816 85.1342C251.816 87.9033 249.563 90.1561 246.794 90.1561ZM246.794 82.0253C245.08 82.0253 243.685 83.4199 243.685 85.1342C243.685 86.8485 245.08 88.243 246.794 88.243C248.508 88.243 249.903 86.8485 249.903 85.1342C249.903 83.4199 248.508 82.0253 246.794 82.0253Z" fill="#32B3C7" fill-opacity="0.2"/>
<path d="M239.142 10.0438C236.372 10.0438 234.12 7.79099 234.12 5.02189C234.12 2.25278 236.372 0 239.142 0C241.911 0 244.163 2.25278 244.163 5.02189C244.163 7.79099 241.911 10.0438 239.142 10.0438ZM239.142 1.91303C237.427 1.91303 236.033 3.30761 236.033 5.02189C236.033 6.73616 237.427 8.13074 239.142 8.13074C240.856 8.13074 242.25 6.73616 242.25 5.02189C242.25 3.30761 240.856 1.91303 239.142 1.91303Z" fill="#32B3C7" fill-opacity="0.2"/>
<path d="M397.693 86.0906C394.924 86.0906 392.671 83.8379 392.671 81.0688C392.671 78.2997 394.924 76.0469 397.693 76.0469C400.462 76.0469 402.715 78.2997 402.715 81.0688C402.715 83.8379 400.462 86.0906 397.693 86.0906ZM397.693 77.9599C395.979 77.9599 394.584 79.3545 394.584 81.0688C394.584 82.783 395.979 84.1776 397.693 84.1776C399.407 84.1776 400.802 82.783 400.802 81.0688C400.802 79.3545 399.407 77.9599 397.693 77.9599Z" fill="#32B3C7" fill-opacity="0.2"/>
<path d="M242.25 86.1131H154.97C152.16 86.1131 149.517 85.0185 147.53 83.0313L138.471 73.9728L139.824 72.6201L148.882 81.6787C150.509 83.3048 152.67 84.2001 154.97 84.2001H242.25V86.1131Z" fill="#32B3C7" fill-opacity="0.2"/>
<path d="M71.2421 25.3489H59.2547C58.8301 25.3489 58.6159 24.8372 58.9143 24.5348L74.9782 8.24777C75.2028 8.01984 75.5095 7.8916 75.8295 7.8916H87.8169C88.2415 7.8916 88.4554 8.40336 88.1576 8.70574L72.0937 24.9927C71.8688 25.2207 71.5622 25.3489 71.2421 25.3489Z" fill="#32B3C7" fill-opacity="0.2"/>
<path d="M45.1756 25.3489H33.1881C32.7636 25.3489 32.5496 24.8372 32.8478 24.5348L48.9117 8.24777C49.1363 8.01984 49.4429 7.8916 49.7629 7.8916H61.7504C62.1749 7.8916 62.3892 8.40336 62.0908 8.70574L46.0268 24.9927C45.8022 25.2207 45.4956 25.3489 45.1756 25.3489Z" fill="#32B3C7" fill-opacity="0.2"/>
<path d="M19.1093 25.3489H7.12185C6.69731 25.3489 6.48306 24.8372 6.78148 24.5348L22.8454 8.24777C23.07 8.01984 23.3766 7.8916 23.6966 7.8916H35.6841C36.1087 7.8916 36.3226 8.40336 36.0245 8.70574L19.9605 24.9927C19.736 25.2207 19.4293 25.3489 19.1093 25.3489Z" fill="#32B3C7" fill-opacity="0.2"/>
<path d="M153.128 133.201H161.832C162.14 133.201 162.295 132.829 162.079 132.61L150.416 120.785C150.253 120.62 150.03 120.526 149.798 120.526H141.095C140.786 120.526 140.631 120.898 140.847 121.117L152.51 132.942C152.673 133.108 152.896 133.201 153.128 133.201Z" fill="#32B3C7" fill-opacity="0.2"/>
<path d="M172.053 133.201H180.756C181.065 133.201 181.22 132.829 181.004 132.61L169.341 120.785C169.178 120.62 168.955 120.526 168.723 120.526H160.019C159.711 120.526 159.556 120.898 159.772 121.117L171.435 132.942C171.598 133.108 171.821 133.201 172.053 133.201Z" fill="#32B3C7" fill-opacity="0.2"/>
<path d="M190.978 133.201H199.682C199.99 133.201 200.145 132.829 199.929 132.61L188.266 120.785C188.103 120.62 187.88 120.526 187.648 120.526H178.945C178.636 120.526 178.481 120.898 178.698 121.117L190.36 132.942C190.523 133.108 190.746 133.201 190.978 133.201Z" fill="#32B3C7" fill-opacity="0.2"/>
<path d="M209.392 133.201H218.095C218.403 133.201 218.559 132.829 218.343 132.61L206.68 120.785C206.516 120.62 206.294 120.526 206.062 120.526H197.358C197.05 120.526 196.895 120.898 197.111 121.117L208.774 132.942C208.937 133.108 209.16 133.201 209.392 133.201Z" fill="#32B3C7" fill-opacity="0.2"/>
<path d="M361.589 96.7144H355.374C355.154 96.7144 355.043 96.4491 355.198 96.2923L363.526 87.8485C363.642 87.7303 363.801 87.6641 363.967 87.6641H370.182C370.402 87.6641 370.513 87.9294 370.359 88.0862L362.03 96.5299C361.914 96.6478 361.755 96.7144 361.589 96.7144Z" fill="#32B3C7" fill-opacity="0.2"/>
<path d="M348.075 96.7144H341.86C341.64 96.7144 341.529 96.4491 341.683 96.2923L350.012 87.8485C350.128 87.7303 350.287 87.6641 350.453 87.6641H356.667C356.888 87.6641 356.998 87.9294 356.844 88.0862L348.516 96.5299C348.399 96.6478 348.24 96.7144 348.075 96.7144Z" fill="#32B3C7" fill-opacity="0.2"/>
<path d="M334.561 96.7144H328.346C328.126 96.7144 328.015 96.4491 328.169 96.2923L336.498 87.8485C336.614 87.7303 336.773 87.6641 336.939 87.6641H343.154C343.374 87.6641 343.485 87.9294 343.33 88.0862L335.002 96.5299C334.886 96.6478 334.727 96.7144 334.561 96.7144Z" fill="#32B3C7" fill-opacity="0.2"/>
<path d="M321.412 96.7144H315.198C314.978 96.7144 314.867 96.4491 315.021 96.2923L323.349 87.8485C323.466 87.7303 323.625 87.6641 323.791 87.6641H330.005C330.225 87.6641 330.336 87.9294 330.182 88.0862L321.854 96.5299C321.737 96.6478 321.578 96.7144 321.412 96.7144Z" fill="#32B3C7" fill-opacity="0.2"/>
<path d="M50.339 55.4808C51.9901 55.4808 53.3285 54.1424 53.3285 52.4914C53.3285 50.8404 51.9901 49.502 50.339 49.502C48.688 49.502 47.3496 50.8404 47.3496 52.4914C47.3496 54.1424 48.688 55.4808 50.339 55.4808Z" fill="#32B3C7" fill-opacity="0.2"/>
<path d="M60.1437 55.4808C61.7947 55.4808 63.1331 54.1424 63.1331 52.4914C63.1331 50.8404 61.7947 49.502 60.1437 49.502C58.4927 49.502 57.1543 50.8404 57.1543 52.4914C57.1543 54.1424 58.4927 55.4808 60.1437 55.4808Z" fill="#32B3C7" fill-opacity="0.2"/>
<path d="M69.9491 55.4802C71.5999 55.4802 72.9382 54.1419 72.9382 52.4911C72.9382 50.8402 71.5999 49.502 69.9491 49.502C68.2982 49.502 66.96 50.8402 66.96 52.4911C66.96 54.1419 68.2982 55.4802 69.9491 55.4802Z" fill="#32B3C7" fill-opacity="0.2"/>
<path d="M79.7533 55.4802C81.4041 55.4802 82.7424 54.1419 82.7424 52.4911C82.7424 50.8402 81.4041 49.502 79.7533 49.502C78.1024 49.502 76.7642 50.8402 76.7642 52.4911C76.7642 54.1419 78.1024 55.4802 79.7533 55.4802Z" fill="#32B3C7" fill-opacity="0.2"/>
<path d="M89.5583 55.4808C91.2093 55.4808 92.5477 54.1424 92.5477 52.4914C92.5477 50.8404 91.2093 49.502 89.5583 49.502C87.9073 49.502 86.5688 50.8404 86.5688 52.4914C86.5688 54.1424 87.9073 55.4808 89.5583 55.4808Z" fill="#32B3C7" fill-opacity="0.2"/>
<path d="M246.196 24.3913C247.847 24.3913 249.185 23.0531 249.185 21.4022C249.185 19.7514 247.847 18.4131 246.196 18.4131C244.545 18.4131 243.207 19.7514 243.207 21.4022C243.207 23.0531 244.545 24.3913 246.196 24.3913Z" fill="#32B3C7" fill-opacity="0.2"/>
<path d="M256.001 24.3913C257.652 24.3913 258.99 23.0531 258.99 21.4022C258.99 19.7514 257.652 18.4131 256.001 18.4131C254.35 18.4131 253.012 19.7514 253.012 21.4022C253.012 23.0531 254.35 24.3913 256.001 24.3913Z" fill="#32B3C7" fill-opacity="0.2"/>
<path d="M265.806 24.3919C267.457 24.3919 268.795 23.0535 268.795 21.4025C268.795 19.7515 267.457 18.4131 265.806 18.4131C264.155 18.4131 262.816 19.7515 262.816 21.4025C262.816 23.0535 264.155 24.3919 265.806 24.3919Z" fill="#32B3C7" fill-opacity="0.2"/>
<path d="M275.61 24.3913C277.261 24.3913 278.599 23.0531 278.599 21.4022C278.599 19.7514 277.261 18.4131 275.61 18.4131C273.959 18.4131 272.621 19.7514 272.621 21.4022C272.621 23.0531 273.959 24.3913 275.61 24.3913Z" fill="#32B3C7" fill-opacity="0.2"/>
<path d="M285.416 24.3913C287.067 24.3913 288.405 23.0531 288.405 21.4022C288.405 19.7514 287.067 18.4131 285.416 18.4131C283.765 18.4131 282.427 19.7514 282.427 21.4022C282.427 23.0531 283.765 24.3913 285.416 24.3913Z" fill="#32B3C7" fill-opacity="0.2"/>
<path d="M4.42272 96.1947C3.03817 96.1947 1.91162 95.0682 1.91162 93.6836C1.91162 92.2991 3.03817 91.1729 4.42272 91.1729C5.80727 91.1729 6.93351 92.2994 6.93351 93.6836C6.93351 95.0682 5.80697 96.1947 4.42272 96.1947ZM4.42272 92.0098C3.49948 92.0098 2.74856 92.7607 2.74856 93.6836C2.74856 94.6069 3.49948 95.3578 4.42272 95.3578C5.34565 95.3578 6.09658 94.6069 6.09658 93.6836C6.09658 92.7607 5.34565 92.0098 4.42272 92.0098Z" fill="#32B3C7" fill-opacity="0.2"/>
<path d="M11.2674 96.1947C9.88289 96.1947 8.75635 95.0682 8.75635 93.6836C8.75635 92.2991 9.88259 91.1729 11.2674 91.1729C12.652 91.1729 13.7782 92.2994 13.7782 93.6836C13.7782 95.0682 12.652 96.1947 11.2674 96.1947ZM11.2674 92.0098C10.3442 92.0098 9.59328 92.7607 9.59328 93.6836C9.59328 94.6069 10.3442 95.3578 11.2674 95.3578C12.1904 95.3578 12.9413 94.6069 12.9413 93.6836C12.9413 92.7607 12.1904 92.0098 11.2674 92.0098Z" fill="#32B3C7" fill-opacity="0.2"/>
<path d="M18.1122 96.1947C16.7276 96.1947 15.6011 95.0682 15.6011 93.6836C15.6011 92.2991 16.7273 91.1729 18.1122 91.1729C19.4967 91.1729 20.623 92.2994 20.623 93.6836C20.623 95.0682 19.4964 96.1947 18.1122 96.1947ZM18.1122 92.0098C17.1889 92.0098 16.438 92.7607 16.438 93.6836C16.438 94.6069 17.1889 95.3578 18.1122 95.3578C19.0351 95.3578 19.786 94.6069 19.786 93.6836C19.786 92.7607 19.0351 92.0098 18.1122 92.0098Z" fill="#32B3C7" fill-opacity="0.2"/>
<path d="M24.9571 96.1947C23.5725 96.1947 22.4463 95.0682 22.4463 93.6836C22.4463 92.2991 23.5728 91.1729 24.9571 91.1729C26.3416 91.1729 27.4682 92.2994 27.4682 93.6836C27.4679 95.0682 26.3416 96.1947 24.9571 96.1947ZM24.9571 92.0098C24.0341 92.0098 23.2832 92.7607 23.2832 93.6836C23.2832 94.6069 24.0341 95.3578 24.9571 95.3578C25.8803 95.3578 26.6312 94.6069 26.6312 93.6836C26.6309 92.7607 25.88 92.0098 24.9571 92.0098Z" fill="#32B3C7" fill-opacity="0.2"/>
<path d="M31.8018 96.1947C30.4173 96.1947 29.291 95.0682 29.291 93.6836C29.291 92.2991 30.4173 91.1729 31.8018 91.1729C33.1864 91.1729 34.3129 92.2994 34.3129 93.6836C34.3129 95.0682 33.1864 96.1947 31.8018 96.1947ZM31.8018 92.0098C30.8789 92.0098 30.1279 92.7607 30.1279 93.6836C30.1279 94.6069 30.8789 95.3578 31.8018 95.3578C32.725 95.3578 33.476 94.6069 33.476 93.6836C33.476 92.7607 32.725 92.0098 31.8018 92.0098Z" fill="#32B3C7" fill-opacity="0.2"/>
<path d="M38.6463 96.1947C37.2618 96.1947 36.1353 95.0682 36.1353 93.6836C36.1353 92.2991 37.2618 91.1729 38.6463 91.1729C40.0309 91.1729 41.1574 92.2994 41.1574 93.6836C41.1574 95.0682 40.0312 96.1947 38.6463 96.1947ZM38.6463 92.0098C37.7231 92.0098 36.9722 92.7607 36.9722 93.6836C36.9722 94.6069 37.7231 95.3578 38.6463 95.3578C39.5696 95.3578 40.3205 94.6069 40.3205 93.6836C40.3205 92.7607 39.5696 92.0098 38.6463 92.0098Z" fill="#32B3C7" fill-opacity="0.2"/>
<path d="M45.4911 96.1947C44.1065 96.1947 42.98 95.0682 42.98 93.6836C42.98 92.2991 44.1065 91.1729 45.4911 91.1729C46.8756 91.1729 48.0019 92.2994 48.0019 93.6836C48.0019 95.0682 46.8753 96.1947 45.4911 96.1947ZM45.4911 92.0098C44.5678 92.0098 43.8169 92.7607 43.8169 93.6836C43.8169 94.6069 44.5678 95.3578 45.4911 95.3578C46.414 95.3578 47.1649 94.6069 47.1649 93.6836C47.1649 92.7607 46.414 92.0098 45.4911 92.0098Z" fill="#32B3C7" fill-opacity="0.2"/>
<path d="M52.3358 96.1947C50.9512 96.1947 49.8247 95.0682 49.8247 93.6836C49.8247 92.2991 50.9512 91.1729 52.3358 91.1729C53.7204 91.1729 54.8466 92.2994 54.8466 93.6836C54.8466 95.0682 53.7204 96.1947 52.3358 96.1947ZM52.3358 92.0098C51.4126 92.0098 50.6616 92.7607 50.6616 93.6836C50.6616 94.6069 51.4126 95.3578 52.3358 95.3578C53.2587 95.3578 54.0097 94.6069 54.0097 93.6836C54.01 92.7607 53.2587 92.0098 52.3358 92.0098Z" fill="#32B3C7" fill-opacity="0.2"/>
<path d="M9.14732 102.172C7.76277 102.172 6.63623 101.046 6.63623 99.6615C6.63623 98.2769 7.76277 97.1504 9.14732 97.1504C10.5319 97.1504 11.6584 98.2769 11.6584 99.6615C11.6581 101.046 10.5319 102.172 9.14732 102.172ZM9.14732 97.9873C8.22409 97.9873 7.47316 98.7382 7.47316 99.6615C7.47316 100.584 8.22409 101.335 9.14732 101.335C10.0706 101.335 10.8215 100.584 10.8215 99.6615C10.8212 98.7386 10.0703 97.9873 9.14732 97.9873Z" fill="#32B3C7" fill-opacity="0.2"/>
<path d="M15.9921 102.172C14.6075 102.172 13.481 101.046 13.481 99.6615C13.481 98.2769 14.6072 97.1504 15.9921 97.1504C17.3766 97.1504 18.5028 98.2769 18.5028 99.6615C18.5028 101.046 17.3766 102.172 15.9921 102.172ZM15.9921 97.9873C15.0688 97.9873 14.3179 98.7382 14.3179 99.6615C14.3179 100.584 15.0688 101.335 15.9921 101.335C16.915 101.335 17.6659 100.584 17.6659 99.6615C17.6659 98.7386 16.915 97.9873 15.9921 97.9873Z" fill="#32B3C7" fill-opacity="0.2"/>
<path d="M22.8368 102.172C21.4522 102.172 20.3257 101.046 20.3257 99.6615C20.3257 98.2769 21.4519 97.1504 22.8368 97.1504C24.2213 97.1504 25.3476 98.2769 25.3476 99.6615C25.3479 101.046 24.2213 102.172 22.8368 102.172ZM22.8368 97.9873C21.9135 97.9873 21.1626 98.7382 21.1626 99.6615C21.1626 100.584 21.9135 101.335 22.8368 101.335C23.7597 101.335 24.5106 100.584 24.5106 99.6615C24.5109 98.7386 23.76 97.9873 22.8368 97.9873Z" fill="#32B3C7" fill-opacity="0.2"/>
<path d="M29.6815 102.172C28.297 102.172 27.1704 101.046 27.1704 99.6615C27.1704 98.2769 28.297 97.1504 29.6815 97.1504C31.0661 97.1504 32.1923 98.2769 32.1923 99.6615C32.1923 101.046 31.0661 102.172 29.6815 102.172ZM29.6815 97.9873C28.7583 97.9873 28.0073 98.7382 28.0073 99.6615C28.0073 100.584 28.7583 101.335 29.6815 101.335C30.6044 101.335 31.3554 100.584 31.3554 99.6615C31.3554 98.7386 30.6044 97.9873 29.6815 97.9873Z" fill="#32B3C7" fill-opacity="0.2"/>
<path d="M36.5264 102.172C35.1419 102.172 34.0156 101.046 34.0156 99.6615C34.0156 98.2769 35.1422 97.1504 36.5264 97.1504C37.911 97.1504 39.0375 98.2769 39.0375 99.6615C39.0375 101.046 37.911 102.172 36.5264 102.172ZM36.5264 97.9873C35.6035 97.9873 34.8526 98.7382 34.8526 99.6615C34.8526 100.584 35.6035 101.335 36.5264 101.335C37.4496 101.335 38.2006 100.584 38.2006 99.6615C38.2006 98.7386 37.4493 97.9873 36.5264 97.9873Z" fill="#32B3C7" fill-opacity="0.2"/>
<path d="M43.3707 102.172C41.9861 102.172 40.8599 101.046 40.8599 99.6615C40.8599 98.2769 41.9861 97.1504 43.3707 97.1504C44.7552 97.1504 45.8817 98.2769 45.8817 99.6615C45.8817 101.046 44.7552 102.172 43.3707 102.172ZM43.3707 97.9873C42.4477 97.9873 41.6968 98.7382 41.6968 99.6615C41.6968 100.584 42.4477 101.335 43.3707 101.335C44.2939 101.335 45.0448 100.584 45.0448 99.6615C45.0448 98.7386 44.2939 97.9873 43.3707 97.9873Z" fill="#32B3C7" fill-opacity="0.2"/>
<path d="M50.2159 102.172C48.8313 102.172 47.7051 101.046 47.7051 99.6615C47.7051 98.2769 48.8316 97.1504 50.2159 97.1504C51.6004 97.1504 52.727 98.2769 52.727 99.6615C52.7267 101.046 51.6004 102.172 50.2159 102.172ZM50.2159 97.9873C49.2929 97.9873 48.542 98.7382 48.542 99.6615C48.542 100.584 49.2929 101.335 50.2159 101.335C51.1391 101.335 51.89 100.584 51.89 99.6615C51.8897 98.7386 51.1388 97.9873 50.2159 97.9873Z" fill="#32B3C7" fill-opacity="0.2"/>
<path d="M57.0604 102.172C55.6759 102.172 54.5493 101.046 54.5493 99.6615C54.5493 98.2769 55.6756 97.1504 57.0604 97.1504C58.445 97.1504 59.5715 98.2769 59.5715 99.6615C59.5715 101.046 58.445 102.172 57.0604 102.172ZM57.0604 97.9873C56.1372 97.9873 55.3862 98.7382 55.3862 99.6615C55.3862 100.584 56.1372 101.335 57.0604 101.335C57.9836 101.335 58.7346 100.584 58.7346 99.6615C58.7346 98.7386 57.9836 97.9873 57.0604 97.9873Z" fill="#32B3C7" fill-opacity="0.2"/>
<path d="M63.9056 102.172C62.5211 102.172 61.3945 101.046 61.3945 99.6615C61.3945 98.2769 62.5211 97.1504 63.9056 97.1504C65.2902 97.1504 66.4164 98.2769 66.4164 99.6615C66.4164 101.046 65.2899 102.172 63.9056 102.172ZM63.9056 97.9873C62.9824 97.9873 62.2315 98.7382 62.2315 99.6615C62.2315 100.584 62.9824 101.335 63.9056 101.335C64.8286 101.335 65.5795 100.584 65.5795 99.6615C65.5795 98.7386 64.8286 97.9873 63.9056 97.9873Z" fill="#32B3C7" fill-opacity="0.2"/>
<path d="M70.7499 102.172C69.3653 102.172 68.2388 101.046 68.2388 99.6615C68.2388 98.2769 69.365 97.1504 70.7499 97.1504C72.1344 97.1504 73.2607 98.2769 73.2607 99.6615C73.2607 101.046 72.1344 102.172 70.7499 102.172ZM70.7499 97.9873C69.8266 97.9873 69.0757 98.7382 69.0757 99.6615C69.0757 100.584 69.8266 101.335 70.7499 101.335C71.6728 101.335 72.4237 100.584 72.4237 99.6615C72.4237 98.7386 71.6728 97.9873 70.7499 97.9873Z" fill="#32B3C7" fill-opacity="0.2"/>
<path d="M261.681 125.37C260.296 125.37 259.169 124.243 259.169 122.859C259.169 121.474 260.296 120.348 261.681 120.348C263.065 120.348 264.191 121.474 264.191 122.859C264.191 124.243 263.065 125.37 261.681 125.37ZM261.681 121.185C260.757 121.185 260.006 121.936 260.006 122.859C260.006 123.782 260.757 124.533 261.681 124.533C262.603 124.533 263.354 123.782 263.354 122.859C263.354 121.936 262.603 121.185 261.681 121.185Z" fill="#32B3C7" fill-opacity="0.2"/>
<path d="M268.525 125.37C267.14 125.37 266.014 124.243 266.014 122.859C266.014 121.474 267.14 120.348 268.525 120.348C269.909 120.348 271.036 121.474 271.036 122.859C271.036 124.243 269.909 125.37 268.525 125.37ZM268.525 121.185C267.602 121.185 266.851 121.936 266.851 122.859C266.851 123.782 267.602 124.533 268.525 124.533C269.448 124.533 270.199 123.782 270.199 122.859C270.199 121.936 269.448 121.185 268.525 121.185Z" fill="#32B3C7" fill-opacity="0.2"/>
<path d="M275.37 125.37C273.986 125.37 272.859 124.243 272.859 122.859C272.859 121.474 273.986 120.348 275.37 120.348C276.755 120.348 277.881 121.474 277.881 122.859C277.881 124.243 276.755 125.37 275.37 125.37ZM275.37 121.185C274.447 121.185 273.696 121.936 273.696 122.859C273.696 123.782 274.447 124.533 275.37 124.533C276.293 124.533 277.044 123.782 277.044 122.859C277.044 121.936 276.293 121.185 275.37 121.185Z" fill="#32B3C7" fill-opacity="0.2"/>
<path d="M282.215 125.37C280.83 125.37 279.704 124.243 279.704 122.859C279.704 121.474 280.831 120.348 282.215 120.348C283.599 120.348 284.726 121.474 284.726 122.859C284.726 124.243 283.599 125.37 282.215 125.37ZM282.215 121.185C281.292 121.185 280.541 121.936 280.541 122.859C280.541 123.782 281.292 124.533 282.215 124.533C283.138 124.533 283.889 123.782 283.889 122.859C283.889 121.936 283.138 121.185 282.215 121.185Z" fill="#32B3C7" fill-opacity="0.2"/>
<path d="M289.06 125.37C287.675 125.37 286.549 124.243 286.549 122.859C286.549 121.474 287.675 120.348 289.06 120.348C290.444 120.348 291.571 121.474 291.571 122.859C291.571 124.243 290.444 125.37 289.06 125.37ZM289.06 121.185C288.137 121.185 287.386 121.936 287.386 122.859C287.386 123.782 288.137 124.533 289.06 124.533C289.983 124.533 290.734 123.782 290.734 122.859C290.734 121.936 289.983 121.185 289.06 121.185Z" fill="#32B3C7" fill-opacity="0.2"/>
<path d="M295.905 125.37C294.52 125.37 293.394 124.243 293.394 122.859C293.394 121.474 294.52 120.348 295.905 120.348C297.289 120.348 298.416 121.474 298.416 122.859C298.415 124.243 297.289 125.37 295.905 125.37ZM295.905 121.185C294.981 121.185 294.23 121.936 294.23 122.859C294.23 123.782 294.981 124.533 295.905 124.533C296.828 124.533 297.579 123.782 297.579 122.859C297.578 121.936 296.828 121.185 295.905 121.185Z" fill="#32B3C7" fill-opacity="0.2"/>
<path d="M302.749 125.37C301.365 125.37 300.238 124.243 300.238 122.859C300.238 121.474 301.365 120.348 302.749 120.348C304.134 120.348 305.26 121.474 305.26 122.859C305.26 124.243 304.134 125.37 302.749 125.37ZM302.749 121.185C301.826 121.185 301.075 121.936 301.075 122.859C301.075 123.782 301.826 124.533 302.749 124.533C303.672 124.533 304.423 123.782 304.423 122.859C304.423 121.936 303.672 121.185 302.749 121.185Z" fill="#32B3C7" fill-opacity="0.2"/>
<path d="M309.594 125.37C308.21 125.37 307.083 124.243 307.083 122.859C307.083 121.474 308.21 120.348 309.594 120.348C310.979 120.348 312.105 121.474 312.105 122.859C312.105 124.243 310.979 125.37 309.594 125.37ZM309.594 121.185C308.671 121.185 307.92 121.936 307.92 122.859C307.92 123.782 308.671 124.533 309.594 124.533C310.517 124.533 311.268 123.782 311.268 122.859C311.268 121.936 310.517 121.185 309.594 121.185Z" fill="#32B3C7" fill-opacity="0.2"/>
<path d="M316.439 125.37C315.054 125.37 313.928 124.243 313.928 122.859C313.928 121.474 315.054 120.348 316.439 120.348C317.823 120.348 318.95 121.474 318.95 122.859C318.95 124.243 317.823 125.37 316.439 125.37ZM316.439 121.185C315.516 121.185 314.765 121.936 314.765 122.859C314.765 123.782 315.516 124.533 316.439 124.533C317.362 124.533 318.113 123.782 318.113 122.859C318.113 121.936 317.362 121.185 316.439 121.185Z" fill="#32B3C7" fill-opacity="0.2"/>
<path d="M323.283 125.37C321.899 125.37 320.772 124.243 320.772 122.859C320.772 121.474 321.899 120.348 323.283 120.348C324.668 120.348 325.794 121.474 325.794 122.859C325.794 124.243 324.668 125.37 323.283 125.37ZM323.283 121.185C322.36 121.185 321.609 121.936 321.609 122.859C321.609 123.782 322.36 124.533 323.283 124.533C324.206 124.533 324.957 123.782 324.957 122.859C324.957 121.936 324.206 121.185 323.283 121.185Z" fill="#32B3C7" fill-opacity="0.2"/>
<path d="M298.03 132.783C296.646 132.783 295.52 131.656 295.52 130.272C295.52 128.887 296.646 127.761 298.03 127.761C299.415 127.761 300.541 128.887 300.541 130.272C300.541 131.656 299.415 132.783 298.03 132.783ZM298.03 128.598C297.107 128.598 296.356 129.349 296.356 130.272C296.356 131.195 297.107 131.946 298.03 131.946C298.954 131.946 299.704 131.195 299.704 130.272C299.704 129.349 298.954 128.598 298.03 128.598Z" fill="#32B3C7" fill-opacity="0.2"/>
<path d="M304.875 132.783C303.491 132.783 302.364 131.656 302.364 130.272C302.364 128.887 303.491 127.761 304.875 127.761C306.26 127.761 307.386 128.887 307.386 130.272C307.386 131.656 306.26 132.783 304.875 132.783ZM304.875 128.598C303.952 128.598 303.201 129.349 303.201 130.272C303.201 131.195 303.952 131.946 304.875 131.946C305.798 131.946 306.549 131.195 306.549 130.272C306.549 129.349 305.798 128.598 304.875 128.598Z" fill="#32B3C7" fill-opacity="0.2"/>
<path d="M311.72 132.783C310.335 132.783 309.209 131.656 309.209 130.272C309.209 128.887 310.336 127.761 311.72 127.761C313.104 127.761 314.231 128.887 314.231 130.272C314.231 131.656 313.104 132.783 311.72 132.783ZM311.72 128.598C310.797 128.598 310.046 129.349 310.046 130.272C310.046 131.195 310.797 131.946 311.72 131.946C312.643 131.946 313.394 131.195 313.394 130.272C313.394 129.349 312.643 128.598 311.72 128.598Z" fill="#32B3C7" fill-opacity="0.2"/>
<path d="M318.565 132.783C317.18 132.783 316.054 131.656 316.054 130.272C316.054 128.887 317.18 127.761 318.565 127.761C319.949 127.761 321.076 128.887 321.076 130.272C321.076 131.656 319.949 132.783 318.565 132.783ZM318.565 128.598C317.642 128.598 316.891 129.349 316.891 130.272C316.891 131.195 317.642 131.946 318.565 131.946C319.488 131.946 320.239 131.195 320.239 130.272C320.239 129.349 319.488 128.598 318.565 128.598Z" fill="#32B3C7" fill-opacity="0.2"/>
<path d="M325.41 132.783C324.025 132.783 322.898 131.656 322.898 130.272C322.898 128.887 324.025 127.761 325.41 127.761C326.794 127.761 327.92 128.887 327.92 130.272C327.92 131.656 326.794 132.783 325.41 132.783ZM325.41 128.598C324.486 128.598 323.735 129.349 323.735 130.272C323.735 131.195 324.486 131.946 325.41 131.946C326.332 131.946 327.083 131.195 327.083 130.272C327.083 129.349 326.332 128.598 325.41 128.598Z" fill="#32B3C7" fill-opacity="0.2"/>
<path d="M332.254 132.783C330.87 132.783 329.743 131.656 329.743 130.272C329.743 128.887 330.87 127.761 332.254 127.761C333.639 127.761 334.765 128.887 334.765 130.272C334.765 131.656 333.639 132.783 332.254 132.783ZM332.254 128.598C331.331 128.598 330.58 129.349 330.58 130.272C330.58 131.195 331.331 131.946 332.254 131.946C333.177 131.946 333.928 131.195 333.928 130.272C333.928 129.349 333.177 128.598 332.254 128.598Z" fill="#32B3C7" fill-opacity="0.2"/>
<path d="M339.099 132.783C337.714 132.783 336.588 131.656 336.588 130.272C336.588 128.887 337.714 127.761 339.099 127.761C340.484 127.761 341.61 128.887 341.61 130.272C341.61 131.656 340.484 132.783 339.099 132.783ZM339.099 128.598C338.176 128.598 337.425 129.349 337.425 130.272C337.425 131.195 338.176 131.946 339.099 131.946C340.022 131.946 340.773 131.195 340.773 130.272C340.773 129.349 340.022 128.598 339.099 128.598Z" fill="#32B3C7" fill-opacity="0.2"/>
<path d="M345.943 132.783C344.559 132.783 343.433 131.656 343.433 130.272C343.433 128.887 344.559 127.761 345.943 127.761C347.328 127.761 348.455 128.887 348.455 130.272C348.454 131.656 347.328 132.783 345.943 132.783ZM345.943 128.598C345.02 128.598 344.27 129.349 344.27 130.272C344.27 131.195 345.02 131.946 345.943 131.946C346.867 131.946 347.618 131.195 347.618 130.272C347.618 129.349 346.866 128.598 345.943 128.598Z" fill="#32B3C7" fill-opacity="0.2"/>
<path d="M352.788 132.783C351.404 132.783 350.277 131.656 350.277 130.272C350.277 128.887 351.404 127.761 352.788 127.761C354.173 127.761 355.299 128.887 355.299 130.272C355.299 131.656 354.173 132.783 352.788 132.783ZM352.788 128.598C351.865 128.598 351.114 129.349 351.114 130.272C351.114 131.195 351.865 131.946 352.788 131.946C353.711 131.946 354.462 131.195 354.462 130.272C354.462 129.349 353.711 128.598 352.788 128.598Z" fill="#32B3C7" fill-opacity="0.2"/>
<path d="M359.634 132.783C358.249 132.783 357.123 131.656 357.123 130.272C357.123 128.887 358.25 127.761 359.634 127.761C361.018 127.761 362.145 128.887 362.145 130.272C362.145 131.656 361.018 132.783 359.634 132.783ZM359.634 128.598C358.711 128.598 357.96 129.349 357.96 130.272C357.96 131.195 358.711 131.946 359.634 131.946C360.557 131.946 361.308 131.195 361.308 130.272C361.308 129.349 360.557 128.598 359.634 128.598Z" fill="#32B3C7" fill-opacity="0.2"/>
<path d="M144.887 34.4355H139.147V40.1749H144.887V34.4355Z" fill="#32B3C7" fill-opacity="0.2"/>
<path d="M153.757 34.4355H148.018V40.1749H153.757V34.4355Z" fill="#32B3C7" fill-opacity="0.2"/>
<path d="M162.627 34.4355H156.888V40.1749H162.627V34.4355Z" fill="#32B3C7" fill-opacity="0.2"/>
<path d="M171.497 34.4355H165.757V40.1749H171.497V34.4355Z" fill="#32B3C7" fill-opacity="0.2"/>
<path d="M18.1417 131.768H12.4023V137.507H18.1417V131.768Z" fill="#32B3C7" fill-opacity="0.2"/>
<path d="M27.0118 131.768H21.2725V137.507H27.0118V131.768Z" fill="#32B3C7" fill-opacity="0.2"/>
<path d="M35.8815 131.768H30.1421V137.507H35.8815V131.768Z" fill="#32B3C7" fill-opacity="0.2"/>
<path d="M44.7516 131.768H39.0122V137.507H44.7516V131.768Z" fill="#32B3C7" fill-opacity="0.2"/>
<path d="M87.4332 137.925H80.8569V131.349H87.4332V137.925ZM81.6939 137.088H86.5963V132.186H81.6939V137.088Z" fill="#32B3C7" fill-opacity="0.2"/>
<path d="M96.3034 137.925H89.7271V131.349H96.3034V137.925ZM90.564 137.088H95.4664V132.186H90.564V137.088Z" fill="#32B3C7" fill-opacity="0.2"/>
<path d="M105.173 137.925H98.5967V131.349H105.173V137.925ZM99.4336 137.088H104.336V132.186H99.4336V137.088Z" fill="#32B3C7" fill-opacity="0.2"/>
<path d="M114.043 137.925H107.467V131.349H114.043V137.925ZM108.304 137.088H113.206V132.186H108.304V137.088Z" fill="#32B3C7" fill-opacity="0.2"/>
</g>
<g opacity="0.65">
<path d="M470.537 552.496H257V554.409H470.537C472.837 554.409 474.999 555.304 476.625 556.93L498.881 579.187C500.869 581.174 503.511 582.269 506.322 582.269H600.407V580.356H506.322C504.022 580.356 501.86 579.46 500.234 577.834L477.977 555.578C475.99 553.59 473.348 552.496 470.537 552.496Z" fill="#32B3C7" fill-opacity="0.3"/>
<path d="M721.242 523.081H354.826C352.015 523.081 349.372 524.175 347.385 526.163L320.772 552.775L322.125 554.128L348.738 527.515C350.364 525.889 352.526 524.994 354.826 524.994H721.242V523.081Z" fill="#32B3C7" fill-opacity="0.3"/>
<path d="M721.044 520.081C723.229 520.081 725 521.852 725 524.037C725 526.222 723.229 527.993 721.044 527.993C718.859 527.993 717.088 526.222 717.088 524.037C717.088 521.852 718.859 520.081 721.044 520.081Z" fill="#32B3C7" fill-opacity="0.3"/>
<path d="M490.709 485.999H403.834C401.023 485.999 398.381 487.094 396.394 489.081L384.285 501.19C382.659 502.816 380.497 503.711 378.198 503.711H257V505.624H378.198C381.008 505.624 383.651 504.529 385.638 502.542L397.746 490.434C399.373 488.808 401.535 487.912 403.834 487.912H490.709V485.999Z" fill="#32B3C7" fill-opacity="0.3"/>
<path d="M490.512 483C492.696 483 494.468 484.771 494.468 486.956C494.468 489.141 492.696 490.912 490.512 490.912C488.327 490.912 486.556 489.141 486.556 486.956C486.556 484.772 488.327 483 490.512 483Z" fill="#32B3C7" fill-opacity="0.3"/>
<path d="M450.291 579.519H390.457C387.647 579.519 385.005 580.613 383.017 582.601L376.185 589.433C374.559 591.059 372.397 591.954 370.097 591.954H257V593.867H370.098C372.908 593.867 375.55 592.773 377.538 590.785L384.37 583.953C385.996 582.327 388.158 581.432 390.457 581.432H450.291L450.291 579.519Z" fill="#32B3C7" fill-opacity="0.3"/>
<path d="M450.093 576.519C452.278 576.519 454.049 578.291 454.049 580.476C454.049 582.66 452.278 584.432 450.093 584.432C447.908 584.432 446.137 582.66 446.137 580.476C446.137 578.291 447.908 576.519 450.093 576.519Z" fill="#32B3C7" fill-opacity="0.3"/>
<path d="M554.322 523.361L552.97 524.714L571.695 543.439C573.683 545.427 576.325 546.521 579.136 546.521H650.627V544.608H579.136C576.836 544.608 574.674 543.713 573.048 542.087L554.322 523.361Z" fill="#32B3C7" fill-opacity="0.3"/>
<path d="M334.42 592.235L333.067 593.587L359.152 619.672C361.139 621.66 363.782 622.754 366.593 622.754H492.076V620.841H366.593C364.293 620.841 362.131 619.945 360.505 618.319L334.42 592.235Z" fill="#32B3C7" fill-opacity="0.3"/>
<path d="M604.712 576.29C601.943 576.29 599.69 578.543 599.69 581.312C599.69 584.081 601.943 586.334 604.712 586.334C607.481 586.334 609.734 584.081 609.734 581.312C609.734 578.543 607.481 576.29 604.712 576.29ZM604.712 584.421C602.998 584.421 601.603 583.026 601.603 581.312C601.603 579.598 602.998 578.203 604.712 578.203C606.427 578.203 607.821 579.598 607.821 581.312C607.821 583.026 606.427 584.421 604.712 584.421Z" fill="#32B3C7" fill-opacity="0.3"/>
<path d="M503.794 536.593C501.025 536.593 498.772 538.846 498.772 541.615C498.772 544.384 501.025 546.637 503.794 546.637C506.563 546.637 508.816 544.384 508.816 541.615C508.816 538.846 506.563 536.593 503.794 536.593ZM503.794 544.724C502.08 544.724 500.685 543.329 500.685 541.615C500.685 539.901 502.08 538.506 503.794 538.506C505.509 538.506 506.903 539.901 506.903 541.615C506.903 543.329 505.509 544.724 503.794 544.724Z" fill="#32B3C7" fill-opacity="0.3"/>
<path d="M496.142 616.705C493.373 616.705 491.12 618.958 491.12 621.727C491.12 624.496 493.373 626.749 496.142 626.749C498.911 626.749 501.164 624.496 501.164 621.727C501.164 618.958 498.911 616.705 496.142 616.705ZM496.142 624.836C494.428 624.836 493.033 623.441 493.033 621.727C493.033 620.013 494.428 618.618 496.142 618.618C497.856 618.618 499.251 620.013 499.251 621.727C499.251 623.441 497.856 624.836 496.142 624.836Z" fill="#32B3C7" fill-opacity="0.3"/>
<path d="M654.693 540.658C651.924 540.658 649.671 542.911 649.671 545.68C649.671 548.449 651.924 550.702 654.693 550.702C657.462 550.702 659.715 548.449 659.715 545.68C659.715 542.911 657.462 540.658 654.693 540.658ZM654.693 548.789C652.979 548.789 651.584 547.395 651.584 545.68C651.584 543.966 652.979 542.571 654.693 542.571C656.407 542.571 657.802 543.966 657.802 545.68C657.802 547.395 656.407 548.789 654.693 548.789Z" fill="#32B3C7" fill-opacity="0.3"/>
<path d="M499.25 540.636H411.97C409.159 540.636 406.517 541.731 404.529 543.718L395.471 552.776L396.823 554.129L405.882 545.07C407.508 543.444 409.67 542.549 411.97 542.549H499.25V540.636Z" fill="#32B3C7" fill-opacity="0.3"/>
<path d="M328.242 601.4H316.255C315.83 601.4 315.616 601.912 315.914 602.214L331.978 618.501C332.203 618.729 332.509 618.857 332.829 618.857H344.817C345.241 618.857 345.455 618.346 345.158 618.043L329.094 601.756C328.869 601.528 328.562 601.4 328.242 601.4Z" fill="#32B3C7" fill-opacity="0.3"/>
<path d="M302.176 601.4H290.188C289.764 601.4 289.55 601.912 289.848 602.214L305.912 618.501C306.136 618.729 306.443 618.857 306.763 618.857H318.75C319.175 618.857 319.389 618.346 319.091 618.043L303.027 601.756C302.802 601.528 302.496 601.4 302.176 601.4Z" fill="#32B3C7" fill-opacity="0.3"/>
<path d="M276.109 601.4H264.122C263.697 601.4 263.483 601.912 263.781 602.214L279.845 618.501C280.07 618.729 280.377 618.857 280.697 618.857H292.684C293.109 618.857 293.323 618.346 293.024 618.043L276.961 601.756C276.736 601.528 276.429 601.4 276.109 601.4Z" fill="#32B3C7" fill-opacity="0.3"/>
<path d="M410.129 493.548H418.832C419.14 493.548 419.296 493.92 419.079 494.139L407.416 505.964C407.253 506.129 407.031 506.223 406.798 506.223H398.095C397.787 506.223 397.631 505.851 397.848 505.632L409.511 493.807C409.674 493.641 409.896 493.548 410.129 493.548Z" fill="#32B3C7" fill-opacity="0.3"/>
<path d="M429.054 493.548H437.757C438.065 493.548 438.221 493.92 438.004 494.139L426.341 505.964C426.178 506.129 425.956 506.223 425.723 506.223H417.02C416.712 506.223 416.556 505.851 416.773 505.632L428.435 493.807C428.599 493.641 428.821 493.548 429.054 493.548Z" fill="#32B3C7" fill-opacity="0.3"/>
<path d="M447.978 493.548H456.682C456.99 493.548 457.145 493.92 456.929 494.139L445.266 505.964C445.103 506.129 444.88 506.223 444.648 506.223H435.945C435.636 506.223 435.481 505.851 435.698 505.632L447.36 493.807C447.523 493.641 447.746 493.548 447.978 493.548Z" fill="#32B3C7" fill-opacity="0.3"/>
<path d="M466.392 493.548H475.096C475.404 493.548 475.559 493.92 475.343 494.139L463.68 505.964C463.517 506.129 463.295 506.223 463.062 506.223H454.359C454.051 506.223 453.895 505.851 454.111 505.632L465.774 493.807C465.937 493.641 466.16 493.548 466.392 493.548Z" fill="#32B3C7" fill-opacity="0.3"/>
<path d="M618.589 530.035H612.374C612.154 530.035 612.043 530.3 612.198 530.457L620.526 538.9C620.642 539.019 620.801 539.085 620.967 539.085H627.182C627.402 539.085 627.513 538.82 627.359 538.663L619.03 530.219C618.914 530.101 618.755 530.035 618.589 530.035Z" fill="#32B3C7" fill-opacity="0.3"/>
<path d="M605.075 530.035H598.86C598.64 530.035 598.529 530.3 598.683 530.457L607.012 538.9C607.128 539.019 607.287 539.085 607.453 539.085H613.667C613.888 539.085 613.998 538.82 613.844 538.663L605.516 530.219C605.399 530.101 605.24 530.035 605.075 530.035Z" fill="#32B3C7" fill-opacity="0.3"/>
<path d="M591.561 530.035H585.346C585.126 530.035 585.015 530.3 585.169 530.457L593.498 538.9C593.614 539.019 593.773 539.085 593.939 539.085H600.154C600.374 539.085 600.485 538.82 600.33 538.663L592.002 530.219C591.886 530.101 591.727 530.035 591.561 530.035Z" fill="#32B3C7" fill-opacity="0.3"/>
<path d="M578.412 530.035H572.198C571.978 530.035 571.867 530.3 572.021 530.457L580.349 538.9C580.466 539.019 580.625 539.085 580.791 539.085H587.005C587.225 539.085 587.336 538.82 587.182 538.663L578.854 530.219C578.737 530.101 578.578 530.035 578.412 530.035Z" fill="#32B3C7" fill-opacity="0.3"/>
<path d="M307.339 571.268C308.99 571.268 310.328 572.607 310.328 574.258C310.328 575.909 308.99 577.247 307.339 577.247C305.688 577.247 304.35 575.909 304.35 574.258C304.35 572.607 305.688 571.268 307.339 571.268Z" fill="#32B3C7" fill-opacity="0.3"/>
<path d="M317.144 571.268C318.795 571.268 320.133 572.607 320.133 574.258C320.133 575.909 318.795 577.247 317.144 577.247C315.493 577.247 314.154 575.909 314.154 574.258C314.154 572.607 315.493 571.268 317.144 571.268Z" fill="#32B3C7" fill-opacity="0.3"/>
<path d="M326.949 571.269C328.6 571.269 329.938 572.607 329.938 574.258C329.938 575.909 328.6 577.247 326.949 577.247C325.298 577.247 323.96 575.909 323.96 574.258C323.96 572.607 325.298 571.269 326.949 571.269Z" fill="#32B3C7" fill-opacity="0.3"/>
<path d="M336.754 571.269C338.405 571.269 339.743 572.607 339.743 574.258C339.743 575.909 338.405 577.247 336.754 577.247C335.103 577.247 333.765 575.909 333.765 574.258C333.765 572.607 335.103 571.269 336.754 571.269Z" fill="#32B3C7" fill-opacity="0.3"/>
<path d="M346.559 571.268C348.21 571.268 349.548 572.607 349.548 574.258C349.548 575.909 348.21 577.247 346.559 577.247C344.908 577.247 343.569 575.909 343.569 574.258C343.569 572.607 344.908 571.268 346.559 571.268Z" fill="#32B3C7" fill-opacity="0.3"/>
<path d="M503.196 602.358C504.847 602.358 506.185 603.696 506.185 605.347C506.185 606.998 504.847 608.336 503.196 608.336C501.545 608.336 500.207 606.998 500.207 605.347C500.207 603.696 501.545 602.358 503.196 602.358Z" fill="#32B3C7" fill-opacity="0.3"/>
<path d="M513.001 602.358C514.652 602.358 515.99 603.696 515.99 605.347C515.99 606.998 514.652 608.336 513.001 608.336C511.35 608.336 510.012 606.998 510.012 605.347C510.012 603.696 511.35 602.358 513.001 602.358Z" fill="#32B3C7" fill-opacity="0.3"/>
<path d="M522.806 602.357C524.457 602.357 525.795 603.696 525.795 605.347C525.795 606.998 524.457 608.336 522.806 608.336C521.155 608.336 519.816 606.998 519.816 605.347C519.816 603.696 521.155 602.357 522.806 602.357Z" fill="#32B3C7" fill-opacity="0.3"/>
<path d="M532.61 602.358C534.261 602.358 535.599 603.696 535.599 605.347C535.599 606.998 534.261 608.336 532.61 608.336C530.959 608.336 529.621 606.998 529.621 605.347C529.621 603.696 530.959 602.358 532.61 602.358Z" fill="#32B3C7" fill-opacity="0.3"/>
<path d="M542.416 602.358C544.067 602.358 545.405 603.696 545.405 605.347C545.405 606.998 544.067 608.336 542.416 608.336C540.765 608.336 539.427 606.998 539.427 605.347C539.427 603.696 540.765 602.358 542.416 602.358Z" fill="#32B3C7" fill-opacity="0.3"/>
<path d="M261.423 530.554C260.038 530.554 258.912 531.681 258.912 533.065C258.912 534.45 260.038 535.576 261.423 535.576C262.807 535.576 263.934 534.45 263.934 533.065C263.934 531.681 262.807 530.554 261.423 530.554ZM261.423 534.739C260.499 534.739 259.749 533.988 259.749 533.065C259.749 532.142 260.499 531.391 261.423 531.391C262.346 531.391 263.097 532.142 263.097 533.065C263.097 533.988 262.346 534.739 261.423 534.739Z" fill="#32B3C7" fill-opacity="0.3"/>
<path d="M268.267 530.554C266.882 530.554 265.756 531.681 265.756 533.065C265.756 534.45 266.882 535.576 268.267 535.576C269.652 535.576 270.778 534.45 270.778 533.065C270.778 531.681 269.652 530.554 268.267 530.554ZM268.267 534.739C267.344 534.739 266.593 533.988 266.593 533.065C266.593 532.142 267.344 531.391 268.267 531.391C269.19 531.391 269.941 532.142 269.941 533.065C269.941 533.988 269.19 534.739 268.267 534.739Z" fill="#32B3C7" fill-opacity="0.3"/>
<path d="M275.113 530.554C273.728 530.554 272.602 531.681 272.602 533.065C272.602 534.45 273.728 535.576 275.113 535.576C276.497 535.576 277.623 534.45 277.623 533.065C277.623 531.681 276.497 530.554 275.113 530.554ZM275.113 534.739C274.189 534.739 273.438 533.988 273.438 533.065C273.438 532.142 274.189 531.391 275.113 531.391C276.036 531.391 276.787 532.142 276.787 533.065C276.787 533.988 276.036 534.739 275.113 534.739Z" fill="#32B3C7" fill-opacity="0.3"/>
<path d="M281.957 530.554C280.573 530.554 279.446 531.681 279.446 533.065C279.446 534.45 280.573 535.576 281.957 535.576C283.342 535.576 284.468 534.45 284.468 533.065C284.468 531.681 283.342 530.554 281.957 530.554ZM281.957 534.739C281.034 534.739 280.283 533.988 280.283 533.065C280.283 532.142 281.034 531.391 281.957 531.391C282.88 531.391 283.631 532.142 283.631 533.065C283.631 533.988 282.88 534.739 281.957 534.739Z" fill="#32B3C7" fill-opacity="0.3"/>
<path d="M288.802 530.554C287.417 530.554 286.291 531.681 286.291 533.065C286.291 534.45 287.417 535.576 288.802 535.576C290.186 535.576 291.313 534.45 291.313 533.065C291.313 531.681 290.186 530.554 288.802 530.554ZM288.802 534.739C287.879 534.739 287.128 533.988 287.128 533.065C287.128 532.142 287.879 531.391 288.802 531.391C289.725 531.391 290.476 532.142 290.476 533.065C290.476 533.988 289.725 534.739 288.802 534.739Z" fill="#32B3C7" fill-opacity="0.3"/>
<path d="M295.646 530.554C294.261 530.554 293.135 531.681 293.135 533.065C293.135 534.45 294.261 535.576 295.646 535.576C297.03 535.576 298.157 534.45 298.157 533.065C298.157 531.681 297.031 530.554 295.646 530.554ZM295.646 534.739C294.723 534.739 293.972 533.988 293.972 533.065C293.972 532.142 294.723 531.391 295.646 531.391C296.569 531.391 297.32 532.142 297.32 533.065C297.32 533.988 296.569 534.739 295.646 534.739Z" fill="#32B3C7" fill-opacity="0.3"/>
<path d="M302.492 530.554C301.107 530.554 299.98 531.681 299.98 533.065C299.98 534.45 301.107 535.576 302.492 535.576C303.876 535.576 305.002 534.45 305.002 533.065C305.002 531.681 303.876 530.554 302.492 530.554ZM302.492 534.739C301.568 534.739 300.817 533.988 300.817 533.065C300.817 532.142 301.568 531.391 302.492 531.391C303.414 531.391 304.165 532.142 304.165 533.065C304.165 533.988 303.414 534.739 302.492 534.739Z" fill="#32B3C7" fill-opacity="0.3"/>
<path d="M309.336 530.554C307.952 530.554 306.825 531.681 306.825 533.065C306.825 534.45 307.952 535.576 309.336 535.576C310.721 535.576 311.847 534.45 311.847 533.065C311.847 531.681 310.721 530.554 309.336 530.554ZM309.336 534.739C308.413 534.739 307.662 533.988 307.662 533.065C307.662 532.142 308.413 531.391 309.336 531.391C310.259 531.391 311.01 532.142 311.01 533.065C311.01 533.988 310.259 534.739 309.336 534.739Z" fill="#32B3C7" fill-opacity="0.3"/>
<path d="M266.147 524.577C264.763 524.577 263.636 525.703 263.636 527.088C263.636 528.472 264.763 529.599 266.147 529.599C267.532 529.599 268.658 528.472 268.658 527.088C268.658 525.703 267.532 524.577 266.147 524.577ZM266.147 528.762C265.224 528.762 264.473 528.011 264.473 527.088C264.473 526.165 265.224 525.414 266.147 525.414C267.071 525.414 267.821 526.165 267.821 527.088C267.821 528.01 267.07 528.762 266.147 528.762Z" fill="#32B3C7" fill-opacity="0.3"/>
<path d="M272.992 524.577C271.607 524.577 270.48 525.703 270.48 527.088C270.48 528.472 271.607 529.599 272.992 529.599C274.376 529.599 275.502 528.472 275.502 527.088C275.502 525.703 274.376 524.577 272.992 524.577ZM272.992 528.762C272.068 528.762 271.317 528.011 271.317 527.088C271.317 526.165 272.068 525.414 272.992 525.414C273.914 525.414 274.665 526.165 274.665 527.088C274.665 528.01 273.914 528.762 272.992 528.762Z" fill="#32B3C7" fill-opacity="0.3"/>
<path d="M279.836 524.577C278.452 524.577 277.325 525.703 277.325 527.088C277.325 528.472 278.451 529.599 279.836 529.599C281.221 529.599 282.347 528.472 282.347 527.088C282.347 525.703 281.221 524.577 279.836 524.577ZM279.836 528.762C278.913 528.762 278.162 528.011 278.162 527.088C278.162 526.165 278.913 525.414 279.836 525.414C280.759 525.414 281.51 526.165 281.51 527.088C281.51 528.01 280.76 528.762 279.836 528.762Z" fill="#32B3C7" fill-opacity="0.3"/>
<path d="M286.682 524.577C285.297 524.577 284.171 525.703 284.171 527.088C284.171 528.472 285.297 529.599 286.682 529.599C288.067 529.599 289.193 528.472 289.193 527.088C289.193 525.703 288.067 524.577 286.682 524.577ZM286.682 528.762C285.759 528.762 285.008 528.011 285.008 527.088C285.008 526.165 285.759 525.414 286.682 525.414C287.605 525.414 288.356 526.165 288.356 527.088C288.356 528.01 287.605 528.762 286.682 528.762Z" fill="#32B3C7" fill-opacity="0.3"/>
<path d="M293.526 524.577C292.142 524.577 291.016 525.703 291.016 527.088C291.016 528.472 292.142 529.599 293.526 529.599C294.911 529.599 296.038 528.472 296.038 527.088C296.038 525.703 294.911 524.577 293.526 524.577ZM293.526 528.762C292.603 528.762 291.853 528.011 291.853 527.088C291.853 526.165 292.603 525.414 293.526 525.414C294.45 525.414 295.201 526.165 295.201 527.088C295.201 528.01 294.449 528.762 293.526 528.762Z" fill="#32B3C7" fill-opacity="0.3"/>
<path d="M300.371 524.577C298.987 524.577 297.86 525.703 297.86 527.088C297.86 528.472 298.987 529.599 300.371 529.599C301.756 529.599 302.882 528.472 302.882 527.088C302.882 525.703 301.756 524.577 300.371 524.577ZM300.371 528.762C299.448 528.762 298.697 528.011 298.697 527.088C298.697 526.165 299.448 525.414 300.371 525.414C301.294 525.414 302.045 526.165 302.045 527.088C302.045 528.01 301.294 528.762 300.371 528.762Z" fill="#32B3C7" fill-opacity="0.3"/>
<path d="M307.216 524.577C305.831 524.577 304.705 525.703 304.705 527.088C304.705 528.472 305.832 529.599 307.216 529.599C308.6 529.599 309.727 528.472 309.727 527.088C309.727 525.703 308.6 524.577 307.216 524.577ZM307.216 528.762C306.293 528.762 305.542 528.011 305.542 527.088C305.542 526.165 306.293 525.414 307.216 525.414C308.139 525.414 308.89 526.165 308.89 527.088C308.89 528.01 308.139 528.762 307.216 528.762Z" fill="#32B3C7" fill-opacity="0.3"/>
<path d="M314.061 524.577C312.676 524.577 311.55 525.703 311.55 527.088C311.55 528.472 312.676 529.599 314.061 529.599C315.445 529.599 316.572 528.472 316.572 527.088C316.572 525.703 315.445 524.577 314.061 524.577ZM314.061 528.762C313.138 528.762 312.387 528.011 312.387 527.088C312.387 526.165 313.138 525.414 314.061 525.414C314.984 525.414 315.735 526.165 315.735 527.088C315.735 528.01 314.984 528.762 314.061 528.762Z" fill="#32B3C7" fill-opacity="0.3"/>
<path d="M320.906 524.577C319.521 524.577 318.395 525.703 318.395 527.088C318.395 528.472 319.521 529.599 320.906 529.599C322.29 529.599 323.416 528.472 323.416 527.088C323.416 525.703 322.29 524.577 320.906 524.577ZM320.906 528.762C319.982 528.762 319.231 528.011 319.231 527.088C319.231 526.165 319.982 525.414 320.906 525.414C321.829 525.414 322.579 526.165 322.579 527.088C322.579 528.01 321.829 528.762 320.906 528.762Z" fill="#32B3C7" fill-opacity="0.3"/>
<path d="M327.75 524.577C326.366 524.577 325.239 525.703 325.239 527.088C325.239 528.472 326.365 529.599 327.75 529.599C329.135 529.599 330.261 528.472 330.261 527.088C330.261 525.703 329.135 524.577 327.75 524.577ZM327.75 528.762C326.827 528.762 326.076 528.011 326.076 527.088C326.076 526.165 326.827 525.414 327.75 525.414C328.673 525.414 329.424 526.165 329.424 527.088C329.424 528.01 328.673 528.762 327.75 528.762Z" fill="#32B3C7" fill-opacity="0.3"/>
<path d="M518.68 501.379C517.295 501.379 516.169 502.506 516.169 503.89C516.169 505.275 517.295 506.401 518.68 506.401C520.065 506.401 521.191 505.275 521.191 503.89C521.191 502.506 520.065 501.379 518.68 501.379ZM518.68 505.564C517.757 505.564 517.006 504.813 517.006 503.89C517.006 502.967 517.757 502.216 518.68 502.216C519.603 502.216 520.354 502.967 520.354 503.89C520.354 504.813 519.603 505.564 518.68 505.564Z" fill="#32B3C7" fill-opacity="0.3"/>
<path d="M525.525 501.379C524.14 501.379 523.014 502.506 523.014 503.89C523.014 505.275 524.14 506.401 525.525 506.401C526.909 506.401 528.036 505.275 528.036 503.89C528.036 502.506 526.909 501.379 525.525 501.379ZM525.525 505.564C524.602 505.564 523.851 504.813 523.851 503.89C523.851 502.967 524.602 502.216 525.525 502.216C526.448 502.216 527.199 502.967 527.199 503.89C527.199 504.813 526.448 505.564 525.525 505.564Z" fill="#32B3C7" fill-opacity="0.3"/>
<path d="M532.369 501.379C530.985 501.379 529.858 502.506 529.858 503.89C529.858 505.275 530.985 506.401 532.369 506.401C533.754 506.401 534.88 505.275 534.88 503.89C534.88 502.506 533.754 501.379 532.369 501.379ZM532.369 505.564C531.446 505.564 530.695 504.813 530.695 503.89C530.695 502.967 531.446 502.216 532.369 502.216C533.292 502.216 534.043 502.967 534.043 503.89C534.043 504.813 533.292 505.564 532.369 505.564Z" fill="#32B3C7" fill-opacity="0.3"/>
<path d="M539.214 501.379C537.829 501.379 536.703 502.506 536.703 503.89C536.703 505.275 537.83 506.401 539.214 506.401C540.598 506.401 541.725 505.275 541.725 503.89C541.725 502.506 540.598 501.379 539.214 501.379ZM539.214 505.564C538.291 505.564 537.54 504.813 537.54 503.89C537.54 502.967 538.291 502.216 539.214 502.216C540.137 502.216 540.888 502.967 540.888 503.89C540.888 504.813 540.137 505.564 539.214 505.564Z" fill="#32B3C7" fill-opacity="0.3"/>
<path d="M546.059 501.379C544.674 501.379 543.548 502.506 543.548 503.89C543.548 505.275 544.674 506.401 546.059 506.401C547.443 506.401 548.57 505.275 548.57 503.89C548.57 502.506 547.443 501.379 546.059 501.379ZM546.059 505.564C545.136 505.564 544.385 504.813 544.385 503.89C544.385 502.967 545.136 502.216 546.059 502.216C546.982 502.216 547.733 502.967 547.733 503.89C547.733 504.813 546.982 505.564 546.059 505.564Z" fill="#32B3C7" fill-opacity="0.3"/>
<path d="M552.904 501.379C551.519 501.379 550.393 502.506 550.393 503.89C550.393 505.275 551.519 506.401 552.904 506.401C554.288 506.401 555.415 505.275 555.415 503.89C555.414 502.506 554.288 501.379 552.904 501.379ZM552.904 505.564C551.98 505.564 551.229 504.813 551.229 503.89C551.229 502.967 551.98 502.216 552.904 502.216C553.827 502.216 554.578 502.967 554.578 503.89C554.578 504.813 553.827 505.564 552.904 505.564Z" fill="#32B3C7" fill-opacity="0.3"/>
<path d="M559.748 501.379C558.364 501.379 557.237 502.506 557.237 503.89C557.237 505.275 558.364 506.401 559.748 506.401C561.133 506.401 562.259 505.275 562.259 503.89C562.259 502.506 561.133 501.379 559.748 501.379ZM559.748 505.564C558.825 505.564 558.074 504.813 558.074 503.89C558.074 502.967 558.825 502.216 559.748 502.216C560.671 502.216 561.422 502.967 561.422 503.89C561.422 504.813 560.671 505.564 559.748 505.564Z" fill="#32B3C7" fill-opacity="0.3"/>
<path d="M566.593 501.379C565.209 501.379 564.082 502.506 564.082 503.89C564.082 505.275 565.209 506.401 566.593 506.401C567.978 506.401 569.104 505.275 569.104 503.89C569.104 502.506 567.978 501.379 566.593 501.379ZM566.593 505.564C565.67 505.564 564.919 504.813 564.919 503.89C564.919 502.967 565.67 502.216 566.593 502.216C567.516 502.216 568.267 502.967 568.267 503.89C568.267 504.813 567.516 505.564 566.593 505.564Z" fill="#32B3C7" fill-opacity="0.3"/>
<path d="M573.438 501.379C572.053 501.379 570.927 502.506 570.927 503.89C570.927 505.275 572.053 506.401 573.438 506.401C574.822 506.401 575.949 505.275 575.949 503.89C575.949 502.506 574.822 501.379 573.438 501.379ZM573.438 505.564C572.515 505.564 571.764 504.813 571.764 503.89C571.764 502.967 572.515 502.216 573.438 502.216C574.361 502.216 575.112 502.967 575.112 503.89C575.112 504.813 574.361 505.564 573.438 505.564Z" fill="#32B3C7" fill-opacity="0.3"/>
<path d="M580.283 501.379C578.899 501.379 577.772 502.506 577.772 503.89C577.772 505.275 578.899 506.401 580.283 506.401C581.668 506.401 582.794 505.275 582.794 503.89C582.794 502.506 581.668 501.379 580.283 501.379ZM580.283 505.564C579.36 505.564 578.609 504.813 578.609 503.89C578.609 502.967 579.36 502.216 580.283 502.216C581.206 502.216 581.957 502.967 581.957 503.89C581.957 504.813 581.206 505.564 580.283 505.564Z" fill="#32B3C7" fill-opacity="0.3"/>
<path d="M555.03 493.966C553.646 493.966 552.52 495.093 552.52 496.477C552.52 497.862 553.646 498.988 555.03 498.988C556.415 498.988 557.541 497.862 557.541 496.477C557.541 495.093 556.415 493.966 555.03 493.966ZM555.03 498.151C554.107 498.151 553.356 497.4 553.356 496.477C553.356 495.554 554.107 494.803 555.03 494.803C555.954 494.803 556.704 495.554 556.704 496.477C556.704 497.4 555.954 498.151 555.03 498.151Z" fill="#32B3C7" fill-opacity="0.3"/>
<path d="M561.875 493.966C560.491 493.966 559.364 495.093 559.364 496.477C559.364 497.862 560.491 498.988 561.875 498.988C563.26 498.988 564.386 497.862 564.386 496.477C564.386 495.093 563.26 493.966 561.875 493.966ZM561.875 498.151C560.952 498.151 560.201 497.4 560.201 496.477C560.201 495.554 560.952 494.803 561.875 494.803C562.798 494.803 563.549 495.554 563.549 496.477C563.549 497.4 562.798 498.151 561.875 498.151Z" fill="#32B3C7" fill-opacity="0.3"/>
<path d="M568.72 493.966C567.335 493.966 566.209 495.093 566.209 496.477C566.209 497.862 567.336 498.988 568.72 498.988C570.104 498.988 571.231 497.862 571.231 496.477C571.231 495.093 570.104 493.966 568.72 493.966ZM568.72 498.151C567.797 498.151 567.046 497.4 567.046 496.477C567.046 495.554 567.797 494.803 568.72 494.803C569.643 494.803 570.394 495.554 570.394 496.477C570.394 497.4 569.643 498.151 568.72 498.151Z" fill="#32B3C7" fill-opacity="0.3"/>
<path d="M575.565 493.966C574.18 493.966 573.054 495.093 573.054 496.477C573.054 497.862 574.18 498.988 575.565 498.988C576.949 498.988 578.076 497.862 578.076 496.477C578.076 495.093 576.949 493.966 575.565 493.966ZM575.565 498.151C574.642 498.151 573.891 497.4 573.891 496.477C573.891 495.554 574.642 494.803 575.565 494.803C576.488 494.803 577.239 495.554 577.239 496.477C577.239 497.4 576.488 498.151 575.565 498.151Z" fill="#32B3C7" fill-opacity="0.3"/>
<path d="M582.41 493.966C581.025 493.966 579.898 495.093 579.898 496.477C579.898 497.862 581.025 498.988 582.41 498.988C583.794 498.988 584.92 497.862 584.92 496.477C584.92 495.093 583.794 493.966 582.41 493.966ZM582.41 498.151C581.486 498.151 580.735 497.4 580.735 496.477C580.735 495.554 581.486 494.803 582.41 494.803C583.332 494.803 584.083 495.554 584.083 496.477C584.083 497.4 583.332 498.151 582.41 498.151Z" fill="#32B3C7" fill-opacity="0.3"/>
<path d="M589.254 493.966C587.87 493.966 586.743 495.093 586.743 496.477C586.743 497.862 587.87 498.988 589.254 498.988C590.639 498.988 591.765 497.862 591.765 496.477C591.765 495.093 590.639 493.966 589.254 493.966ZM589.254 498.151C588.331 498.151 587.58 497.4 587.58 496.477C587.58 495.554 588.331 494.803 589.254 494.803C590.177 494.803 590.928 495.554 590.928 496.477C590.928 497.4 590.177 498.151 589.254 498.151Z" fill="#32B3C7" fill-opacity="0.3"/>
<path d="M596.099 493.966C594.714 493.966 593.588 495.093 593.588 496.477C593.588 497.862 594.714 498.988 596.099 498.988C597.484 498.988 598.61 497.862 598.61 496.477C598.61 495.093 597.484 493.966 596.099 493.966ZM596.099 498.151C595.176 498.151 594.425 497.4 594.425 496.477C594.425 495.554 595.176 494.803 596.099 494.803C597.022 494.803 597.773 495.554 597.773 496.477C597.773 497.4 597.022 498.151 596.099 498.151Z" fill="#32B3C7" fill-opacity="0.3"/>
<path d="M602.943 493.966C601.559 493.966 600.433 495.093 600.433 496.477C600.433 497.862 601.559 498.988 602.943 498.988C604.328 498.988 605.455 497.862 605.455 496.477C605.454 495.093 604.328 493.966 602.943 493.966ZM602.943 498.151C602.02 498.151 601.27 497.4 601.27 496.477C601.27 495.554 602.02 494.803 602.943 494.803C603.867 494.803 604.618 495.554 604.618 496.477C604.618 497.4 603.866 498.151 602.943 498.151Z" fill="#32B3C7" fill-opacity="0.3"/>
<path d="M609.788 493.966C608.404 493.966 607.277 495.093 607.277 496.477C607.277 497.862 608.404 498.988 609.788 498.988C611.173 498.988 612.299 497.862 612.299 496.477C612.299 495.093 611.173 493.966 609.788 493.966ZM609.788 498.151C608.865 498.151 608.114 497.4 608.114 496.477C608.114 495.554 608.865 494.803 609.788 494.803C610.711 494.803 611.462 495.554 611.462 496.477C611.462 497.4 610.711 498.151 609.788 498.151Z" fill="#32B3C7" fill-opacity="0.3"/>
<path d="M616.634 493.966C615.249 493.966 614.123 495.093 614.123 496.477C614.123 497.862 615.25 498.988 616.634 498.988C618.018 498.988 619.145 497.862 619.145 496.477C619.145 495.093 618.018 493.966 616.634 493.966ZM616.634 498.151C615.711 498.151 614.96 497.4 614.96 496.477C614.96 495.554 615.711 494.803 616.634 494.803C617.557 494.803 618.308 495.554 618.308 496.477C618.308 497.4 617.557 498.151 616.634 498.151Z" fill="#32B3C7" fill-opacity="0.3"/>
<path d="M401.887 592.313H396.147V586.574H401.887V592.313Z" fill="#32B3C7" fill-opacity="0.3"/>
<path d="M410.757 592.313H405.018V586.574H410.757V592.313Z" fill="#32B3C7" fill-opacity="0.3"/>
<path d="M419.627 592.313H413.888V586.574H419.627V592.313Z" fill="#32B3C7" fill-opacity="0.3"/>
<path d="M428.497 592.313H422.758V586.574H428.497V592.313Z" fill="#32B3C7" fill-opacity="0.3"/>
<path d="M275.142 494.981H269.402V489.242H275.142V494.981Z" fill="#32B3C7" fill-opacity="0.3"/>
<path d="M284.012 494.981H278.272V489.242H284.012V494.981Z" fill="#32B3C7" fill-opacity="0.3"/>
<path d="M292.882 494.981H287.143V489.242H292.882V494.981Z" fill="#32B3C7" fill-opacity="0.3"/>
<path d="M301.752 494.981H296.013V489.242H301.752V494.981Z" fill="#32B3C7" fill-opacity="0.3"/>
<path d="M344.433 488.824H337.856V495.4H344.433V488.824ZM338.693 489.661H343.596V494.563H338.693V489.661Z" fill="#32B3C7" fill-opacity="0.3"/>
<path d="M353.303 488.824H346.727V495.4H353.303V488.824ZM347.563 489.661H352.466V494.563H347.563V489.661Z" fill="#32B3C7" fill-opacity="0.3"/>
<path d="M362.173 488.824H355.597V495.4H362.173V488.824ZM356.434 489.661H361.336V494.563H356.434V489.661Z" fill="#32B3C7" fill-opacity="0.3"/>
<path d="M371.043 488.824H364.467V495.4H371.043V488.824ZM365.304 489.661H370.206V494.563H365.304V489.661Z" fill="#32B3C7" fill-opacity="0.3"/>
</g>
<g opacity="0.65">
<path d="M1152.46 659.496H1366V661.409H1152.46C1150.16 661.409 1148 662.304 1146.38 663.93L1124.12 686.187C1122.13 688.174 1119.49 689.269 1116.68 689.269H1022.59V687.356H1116.68C1118.98 687.356 1121.14 686.46 1122.77 684.834L1145.02 662.578C1147.01 660.59 1149.65 659.496 1152.46 659.496Z" fill="#32B3C7" fill-opacity="0.2"/>
<path d="M901.758 630.081H1268.17C1270.99 630.081 1273.63 631.175 1275.61 633.163L1302.23 659.775L1300.87 661.128L1274.26 634.515C1272.64 632.889 1270.47 631.994 1268.17 631.994H901.758V630.081Z" fill="#32B3C7" fill-opacity="0.2"/>
<path d="M901.956 627.081C899.771 627.081 898 628.852 898 631.037C898 633.222 899.771 634.993 901.956 634.993C904.141 634.993 905.912 633.222 905.912 631.037C905.912 628.852 904.141 627.081 901.956 627.081Z" fill="#32B3C7" fill-opacity="0.2"/>
<path d="M1132.29 592.999H1219.17C1221.98 592.999 1224.62 594.094 1226.61 596.081L1238.71 608.19C1240.34 609.816 1242.5 610.711 1244.8 610.711H1366V612.624H1244.8C1241.99 612.624 1239.35 611.529 1237.36 609.542L1225.25 597.434C1223.63 595.808 1221.47 594.912 1219.17 594.912H1132.29V592.999Z" fill="#32B3C7" fill-opacity="0.2"/>
<path d="M1132.49 590C1130.3 590 1128.53 591.771 1128.53 593.956C1128.53 596.141 1130.3 597.912 1132.49 597.912C1134.67 597.912 1136.44 596.141 1136.44 593.956C1136.44 591.772 1134.67 590 1132.49 590Z" fill="#32B3C7" fill-opacity="0.2"/>
<path d="M1172.71 686.519H1232.54C1235.35 686.519 1238 687.613 1239.98 689.601L1246.81 696.433C1248.44 698.059 1250.6 698.954 1252.9 698.954H1366V700.867H1252.9C1250.09 700.867 1247.45 699.773 1245.46 697.785L1238.63 690.953C1237 689.327 1234.84 688.432 1232.54 688.432H1172.71L1172.71 686.519Z" fill="#32B3C7" fill-opacity="0.2"/>
<path d="M1172.91 683.519C1170.72 683.519 1168.95 685.291 1168.95 687.476C1168.95 689.66 1170.72 691.432 1172.91 691.432C1175.09 691.432 1176.86 689.66 1176.86 687.476C1176.86 685.291 1175.09 683.519 1172.91 683.519Z" fill="#32B3C7" fill-opacity="0.2"/>
<path d="M1068.68 630.361L1070.03 631.714L1051.3 650.439C1049.32 652.427 1046.67 653.521 1043.86 653.521H972.373V651.608H1043.86C1046.16 651.608 1048.33 650.713 1049.95 649.087L1068.68 630.361Z" fill="#32B3C7" fill-opacity="0.2"/>
<path d="M1288.58 699.235L1289.93 700.587L1263.85 726.672C1261.86 728.66 1259.22 729.754 1256.41 729.754H1130.92V727.841H1256.41C1258.71 727.841 1260.87 726.945 1262.5 725.319L1288.58 699.235Z" fill="#32B3C7" fill-opacity="0.2"/>
<path d="M1018.29 683.29C1021.06 683.29 1023.31 685.543 1023.31 688.312C1023.31 691.081 1021.06 693.334 1018.29 693.334C1015.52 693.334 1013.27 691.081 1013.27 688.312C1013.27 685.543 1015.52 683.29 1018.29 683.29ZM1018.29 691.421C1020 691.421 1021.4 690.026 1021.4 688.312C1021.4 686.598 1020 685.203 1018.29 685.203C1016.57 685.203 1015.18 686.598 1015.18 688.312C1015.18 690.026 1016.57 691.421 1018.29 691.421Z" fill="#32B3C7" fill-opacity="0.2"/>
<path d="M1119.21 643.593C1121.97 643.593 1124.23 645.846 1124.23 648.615C1124.23 651.384 1121.97 653.637 1119.21 653.637C1116.44 653.637 1114.18 651.384 1114.18 648.615C1114.18 645.846 1116.44 643.593 1119.21 643.593ZM1119.21 651.724C1120.92 651.724 1122.31 650.329 1122.31 648.615C1122.31 646.901 1120.92 645.506 1119.21 645.506C1117.49 645.506 1116.1 646.901 1116.1 648.615C1116.1 650.329 1117.49 651.724 1119.21 651.724Z" fill="#32B3C7" fill-opacity="0.2"/>
<path d="M1126.86 723.705C1129.63 723.705 1131.88 725.958 1131.88 728.727C1131.88 731.496 1129.63 733.749 1126.86 733.749C1124.09 733.749 1121.84 731.496 1121.84 728.727C1121.84 725.958 1124.09 723.705 1126.86 723.705ZM1126.86 731.836C1128.57 731.836 1129.97 730.441 1129.97 728.727C1129.97 727.013 1128.57 725.618 1126.86 725.618C1125.14 725.618 1123.75 727.013 1123.75 728.727C1123.75 730.441 1125.14 731.836 1126.86 731.836Z" fill="#32B3C7" fill-opacity="0.2"/>
<path d="M968.307 647.658C971.076 647.658 973.329 649.911 973.329 652.68C973.329 655.449 971.076 657.702 968.307 657.702C965.538 657.702 963.285 655.449 963.285 652.68C963.285 649.911 965.538 647.658 968.307 647.658ZM968.307 655.789C970.021 655.789 971.416 654.395 971.416 652.68C971.416 650.966 970.021 649.571 968.307 649.571C966.593 649.571 965.198 650.966 965.198 652.68C965.198 654.395 966.593 655.789 968.307 655.789Z" fill="#32B3C7" fill-opacity="0.2"/>
<path d="M1123.75 647.636H1211.03C1213.84 647.636 1216.48 648.731 1218.47 650.718L1227.53 659.776L1226.18 661.129L1217.12 652.07C1215.49 650.444 1213.33 649.549 1211.03 649.549H1123.75V647.636Z" fill="#32B3C7" fill-opacity="0.2"/>
<path d="M1294.76 708.4H1306.74C1307.17 708.4 1307.38 708.912 1307.08 709.214L1291.02 725.501C1290.8 725.729 1290.49 725.857 1290.17 725.857H1278.18C1277.76 725.857 1277.54 725.346 1277.84 725.043L1293.91 708.756C1294.13 708.528 1294.44 708.4 1294.76 708.4Z" fill="#32B3C7" fill-opacity="0.2"/>
<path d="M1320.82 708.4H1332.81C1333.24 708.4 1333.45 708.912 1333.15 709.214L1317.09 725.501C1316.86 725.729 1316.56 725.857 1316.24 725.857H1304.25C1303.82 725.857 1303.61 725.346 1303.91 725.043L1319.97 708.756C1320.2 708.528 1320.5 708.4 1320.82 708.4Z" fill="#32B3C7" fill-opacity="0.2"/>
<path d="M1346.89 708.4H1358.88C1359.3 708.4 1359.52 708.912 1359.22 709.214L1343.15 725.501C1342.93 725.729 1342.62 725.857 1342.3 725.857H1330.31C1329.89 725.857 1329.68 725.346 1329.97 725.043L1346.04 708.756C1346.26 708.528 1346.57 708.4 1346.89 708.4Z" fill="#32B3C7" fill-opacity="0.2"/>
<path d="M1212.87 600.548H1204.17C1203.86 600.548 1203.7 600.92 1203.92 601.139L1215.58 612.964C1215.75 613.129 1215.97 613.223 1216.2 613.223H1224.9C1225.21 613.223 1225.37 612.851 1225.15 612.632L1213.49 600.807C1213.33 600.641 1213.1 600.548 1212.87 600.548Z" fill="#32B3C7" fill-opacity="0.2"/>
<path d="M1193.95 600.548H1185.24C1184.94 600.548 1184.78 600.92 1185 601.139L1196.66 612.964C1196.82 613.129 1197.04 613.223 1197.28 613.223H1205.98C1206.29 613.223 1206.44 612.851 1206.23 612.632L1194.56 600.807C1194.4 600.641 1194.18 600.548 1193.95 600.548Z" fill="#32B3C7" fill-opacity="0.2"/>
<path d="M1175.02 600.548H1166.32C1166.01 600.548 1165.85 600.92 1166.07 601.139L1177.73 612.964C1177.9 613.129 1178.12 613.223 1178.35 613.223H1187.06C1187.36 613.223 1187.52 612.851 1187.3 612.632L1175.64 600.807C1175.48 600.641 1175.25 600.548 1175.02 600.548Z" fill="#32B3C7" fill-opacity="0.2"/>
<path d="M1156.61 600.548H1147.9C1147.6 600.548 1147.44 600.92 1147.66 601.139L1159.32 612.964C1159.48 613.129 1159.71 613.223 1159.94 613.223H1168.64C1168.95 613.223 1169.1 612.851 1168.89 612.632L1157.23 600.807C1157.06 600.641 1156.84 600.548 1156.61 600.548Z" fill="#32B3C7" fill-opacity="0.2"/>
<path d="M1004.41 637.035H1010.62C1010.84 637.035 1010.96 637.3 1010.8 637.457L1002.47 645.9C1002.36 646.019 1002.2 646.085 1002.03 646.085H995.817C995.597 646.085 995.486 645.82 995.64 645.663L1003.97 637.219C1004.09 637.101 1004.24 637.035 1004.41 637.035Z" fill="#32B3C7" fill-opacity="0.2"/>
<path d="M1017.92 637.035H1024.14C1024.36 637.035 1024.47 637.3 1024.32 637.457L1015.99 645.9C1015.87 646.019 1015.71 646.085 1015.55 646.085H1009.33C1009.11 646.085 1009 645.82 1009.15 645.663L1017.48 637.219C1017.6 637.101 1017.76 637.035 1017.92 637.035Z" fill="#32B3C7" fill-opacity="0.2"/>
<path d="M1031.44 637.035H1037.65C1037.87 637.035 1037.98 637.3 1037.83 637.457L1029.5 645.9C1029.38 646.019 1029.23 646.085 1029.06 646.085H1022.85C1022.63 646.085 1022.51 645.82 1022.67 645.663L1031 637.219C1031.11 637.101 1031.27 637.035 1031.44 637.035Z" fill="#32B3C7" fill-opacity="0.2"/>
<path d="M1044.59 637.035H1050.8C1051.02 637.035 1051.13 637.3 1050.98 637.457L1042.65 645.9C1042.53 646.019 1042.37 646.085 1042.21 646.085H1035.99C1035.77 646.085 1035.66 645.82 1035.82 645.663L1044.15 637.219C1044.26 637.101 1044.42 637.035 1044.59 637.035Z" fill="#32B3C7" fill-opacity="0.2"/>
<path d="M1315.66 678.268C1314.01 678.268 1312.67 679.607 1312.67 681.258C1312.67 682.909 1314.01 684.247 1315.66 684.247C1317.31 684.247 1318.65 682.909 1318.65 681.258C1318.65 679.607 1317.31 678.268 1315.66 678.268Z" fill="#32B3C7" fill-opacity="0.2"/>
<path d="M1305.86 678.268C1304.21 678.268 1302.87 679.607 1302.87 681.258C1302.87 682.909 1304.21 684.247 1305.86 684.247C1307.51 684.247 1308.85 682.909 1308.85 681.258C1308.85 679.607 1307.51 678.268 1305.86 678.268Z" fill="#32B3C7" fill-opacity="0.2"/>
<path d="M1296.05 678.269C1294.4 678.269 1293.06 679.607 1293.06 681.258C1293.06 682.909 1294.4 684.247 1296.05 684.247C1297.7 684.247 1299.04 682.909 1299.04 681.258C1299.04 679.607 1297.7 678.269 1296.05 678.269Z" fill="#32B3C7" fill-opacity="0.2"/>
<path d="M1286.25 678.269C1284.6 678.269 1283.26 679.607 1283.26 681.258C1283.26 682.909 1284.6 684.247 1286.25 684.247C1287.9 684.247 1289.24 682.909 1289.24 681.258C1289.24 679.607 1287.9 678.269 1286.25 678.269Z" fill="#32B3C7" fill-opacity="0.2"/>
<path d="M1276.44 678.268C1274.79 678.268 1273.45 679.607 1273.45 681.258C1273.45 682.909 1274.79 684.247 1276.44 684.247C1278.09 684.247 1279.43 682.909 1279.43 681.258C1279.43 679.607 1278.09 678.268 1276.44 678.268Z" fill="#32B3C7" fill-opacity="0.2"/>
<path d="M1119.8 709.358C1118.15 709.358 1116.81 710.696 1116.81 712.347C1116.81 713.998 1118.15 715.336 1119.8 715.336C1121.45 715.336 1122.79 713.998 1122.79 712.347C1122.79 710.696 1121.45 709.358 1119.8 709.358Z" fill="#32B3C7" fill-opacity="0.2"/>
<path d="M1110 709.358C1108.35 709.358 1107.01 710.696 1107.01 712.347C1107.01 713.998 1108.35 715.336 1110 715.336C1111.65 715.336 1112.99 713.998 1112.99 712.347C1112.99 710.696 1111.65 709.358 1110 709.358Z" fill="#32B3C7" fill-opacity="0.2"/>
<path d="M1100.19 709.357C1098.54 709.357 1097.2 710.696 1097.2 712.347C1097.2 713.998 1098.54 715.336 1100.19 715.336C1101.85 715.336 1103.18 713.998 1103.18 712.347C1103.18 710.696 1101.85 709.357 1100.19 709.357Z" fill="#32B3C7" fill-opacity="0.2"/>
<path d="M1090.39 709.358C1088.74 709.358 1087.4 710.696 1087.4 712.347C1087.4 713.998 1088.74 715.336 1090.39 715.336C1092.04 715.336 1093.38 713.998 1093.38 712.347C1093.38 710.696 1092.04 709.358 1090.39 709.358Z" fill="#32B3C7" fill-opacity="0.2"/>
<path d="M1080.58 709.358C1078.93 709.358 1077.59 710.696 1077.59 712.347C1077.59 713.998 1078.93 715.336 1080.58 715.336C1082.23 715.336 1083.57 713.998 1083.57 712.347C1083.57 710.696 1082.23 709.358 1080.58 709.358Z" fill="#32B3C7" fill-opacity="0.2"/>
<path d="M1361.58 637.554C1362.96 637.554 1364.09 638.681 1364.09 640.065C1364.09 641.45 1362.96 642.576 1361.58 642.576C1360.19 642.576 1359.07 641.45 1359.07 640.065C1359.07 638.681 1360.19 637.554 1361.58 637.554ZM1361.58 641.739C1362.5 641.739 1363.25 640.988 1363.25 640.065C1363.25 639.142 1362.5 638.391 1361.58 638.391C1360.65 638.391 1359.9 639.142 1359.9 640.065C1359.9 640.988 1360.65 641.739 1361.58 641.739Z" fill="#32B3C7" fill-opacity="0.2"/>
<path d="M1354.73 637.554C1356.12 637.554 1357.24 638.681 1357.24 640.065C1357.24 641.45 1356.12 642.576 1354.73 642.576C1353.35 642.576 1352.22 641.45 1352.22 640.065C1352.22 638.681 1353.35 637.554 1354.73 637.554ZM1354.73 641.739C1355.66 641.739 1356.41 640.988 1356.41 640.065C1356.41 639.142 1355.66 638.391 1354.73 638.391C1353.81 638.391 1353.06 639.142 1353.06 640.065C1353.06 640.988 1353.81 641.739 1354.73 641.739Z" fill="#32B3C7" fill-opacity="0.2"/>
<path d="M1347.89 637.554C1349.27 637.554 1350.4 638.681 1350.4 640.065C1350.4 641.45 1349.27 642.576 1347.89 642.576C1346.5 642.576 1345.38 641.45 1345.38 640.065C1345.38 638.681 1346.5 637.554 1347.89 637.554ZM1347.89 641.739C1348.81 641.739 1349.56 640.988 1349.56 640.065C1349.56 639.142 1348.81 638.391 1347.89 638.391C1346.96 638.391 1346.21 639.142 1346.21 640.065C1346.21 640.988 1346.96 641.739 1347.89 641.739Z" fill="#32B3C7" fill-opacity="0.2"/>
<path d="M1341.04 637.554C1342.43 637.554 1343.55 638.681 1343.55 640.065C1343.55 641.45 1342.43 642.576 1341.04 642.576C1339.66 642.576 1338.53 641.45 1338.53 640.065C1338.53 638.681 1339.66 637.554 1341.04 637.554ZM1341.04 641.739C1341.97 641.739 1342.72 640.988 1342.72 640.065C1342.72 639.142 1341.97 638.391 1341.04 638.391C1340.12 638.391 1339.37 639.142 1339.37 640.065C1339.37 640.988 1340.12 641.739 1341.04 641.739Z" fill="#32B3C7" fill-opacity="0.2"/>
<path d="M1334.2 637.554C1335.58 637.554 1336.71 638.681 1336.71 640.065C1336.71 641.45 1335.58 642.576 1334.2 642.576C1332.81 642.576 1331.69 641.45 1331.69 640.065C1331.69 638.681 1332.81 637.554 1334.2 637.554ZM1334.2 641.739C1335.12 641.739 1335.87 640.988 1335.87 640.065C1335.87 639.142 1335.12 638.391 1334.2 638.391C1333.27 638.391 1332.52 639.142 1332.52 640.065C1332.52 640.988 1333.27 641.739 1334.2 641.739Z" fill="#32B3C7" fill-opacity="0.2"/>
<path d="M1327.35 637.554C1328.74 637.554 1329.86 638.681 1329.86 640.065C1329.86 641.45 1328.74 642.576 1327.35 642.576C1325.97 642.576 1324.84 641.45 1324.84 640.065C1324.84 638.681 1325.97 637.554 1327.35 637.554ZM1327.35 641.739C1328.28 641.739 1329.03 640.988 1329.03 640.065C1329.03 639.142 1328.28 638.391 1327.35 638.391C1326.43 638.391 1325.68 639.142 1325.68 640.065C1325.68 640.988 1326.43 641.739 1327.35 641.739Z" fill="#32B3C7" fill-opacity="0.2"/>
<path d="M1320.51 637.554C1321.89 637.554 1323.02 638.681 1323.02 640.065C1323.02 641.45 1321.89 642.576 1320.51 642.576C1319.12 642.576 1318 641.45 1318 640.065C1318 638.681 1319.12 637.554 1320.51 637.554ZM1320.51 641.739C1321.43 641.739 1322.18 640.988 1322.18 640.065C1322.18 639.142 1321.43 638.391 1320.51 638.391C1319.59 638.391 1318.83 639.142 1318.83 640.065C1318.83 640.988 1319.59 641.739 1320.51 641.739Z" fill="#32B3C7" fill-opacity="0.2"/>
<path d="M1313.66 637.554C1315.05 637.554 1316.17 638.681 1316.17 640.065C1316.17 641.45 1315.05 642.576 1313.66 642.576C1312.28 642.576 1311.15 641.45 1311.15 640.065C1311.15 638.681 1312.28 637.554 1313.66 637.554ZM1313.66 641.739C1314.59 641.739 1315.34 640.988 1315.34 640.065C1315.34 639.142 1314.59 638.391 1313.66 638.391C1312.74 638.391 1311.99 639.142 1311.99 640.065C1311.99 640.988 1312.74 641.739 1313.66 641.739Z" fill="#32B3C7" fill-opacity="0.2"/>
<path d="M1356.85 631.577C1358.24 631.577 1359.36 632.703 1359.36 634.088C1359.36 635.472 1358.24 636.599 1356.85 636.599C1355.47 636.599 1354.34 635.472 1354.34 634.088C1354.34 632.703 1355.47 631.577 1356.85 631.577ZM1356.85 635.762C1357.78 635.762 1358.53 635.011 1358.53 634.088C1358.53 633.165 1357.78 632.414 1356.85 632.414C1355.93 632.414 1355.18 633.165 1355.18 634.088C1355.18 635.01 1355.93 635.762 1356.85 635.762Z" fill="#32B3C7" fill-opacity="0.2"/>
<path d="M1350.01 631.577C1351.39 631.577 1352.52 632.703 1352.52 634.088C1352.52 635.472 1351.39 636.599 1350.01 636.599C1348.62 636.599 1347.5 635.472 1347.5 634.088C1347.5 632.703 1348.62 631.577 1350.01 631.577ZM1350.01 635.762C1350.93 635.762 1351.68 635.011 1351.68 634.088C1351.68 633.165 1350.93 632.414 1350.01 632.414C1349.08 632.414 1348.33 633.165 1348.33 634.088C1348.33 635.01 1349.08 635.762 1350.01 635.762Z" fill="#32B3C7" fill-opacity="0.2"/>
<path d="M1343.16 631.577C1344.55 631.577 1345.67 632.703 1345.67 634.088C1345.67 635.472 1344.55 636.599 1343.16 636.599C1341.78 636.599 1340.65 635.472 1340.65 634.088C1340.65 632.703 1341.78 631.577 1343.16 631.577ZM1343.16 635.762C1344.09 635.762 1344.84 635.011 1344.84 634.088C1344.84 633.165 1344.09 632.414 1343.16 632.414C1342.24 632.414 1341.49 633.165 1341.49 634.088C1341.49 635.01 1342.24 635.762 1343.16 635.762Z" fill="#32B3C7" fill-opacity="0.2"/>
<path d="M1336.32 631.577C1337.7 631.577 1338.83 632.703 1338.83 634.088C1338.83 635.472 1337.7 636.599 1336.32 636.599C1334.93 636.599 1333.81 635.472 1333.81 634.088C1333.81 632.703 1334.93 631.577 1336.32 631.577ZM1336.32 635.762C1337.24 635.762 1337.99 635.011 1337.99 634.088C1337.99 633.165 1337.24 632.414 1336.32 632.414C1335.4 632.414 1334.64 633.165 1334.64 634.088C1334.64 635.01 1335.4 635.762 1336.32 635.762Z" fill="#32B3C7" fill-opacity="0.2"/>
<path d="M1329.47 631.577C1330.86 631.577 1331.98 632.703 1331.98 634.088C1331.98 635.472 1330.86 636.599 1329.47 636.599C1328.09 636.599 1326.96 635.472 1326.96 634.088C1326.96 632.703 1328.09 631.577 1329.47 631.577ZM1329.47 635.762C1330.4 635.762 1331.15 635.011 1331.15 634.088C1331.15 633.165 1330.4 632.414 1329.47 632.414C1328.55 632.414 1327.8 633.165 1327.8 634.088C1327.8 635.01 1328.55 635.762 1329.47 635.762Z" fill="#32B3C7" fill-opacity="0.2"/>
<path d="M1322.63 631.577C1324.01 631.577 1325.14 632.703 1325.14 634.088C1325.14 635.472 1324.01 636.599 1322.63 636.599C1321.24 636.599 1320.12 635.472 1320.12 634.088C1320.12 632.703 1321.24 631.577 1322.63 631.577ZM1322.63 635.762C1323.55 635.762 1324.3 635.011 1324.3 634.088C1324.3 633.165 1323.55 632.414 1322.63 632.414C1321.71 632.414 1320.95 633.165 1320.95 634.088C1320.95 635.01 1321.71 635.762 1322.63 635.762Z" fill="#32B3C7" fill-opacity="0.2"/>
<path d="M1315.78 631.577C1317.17 631.577 1318.29 632.703 1318.29 634.088C1318.29 635.472 1317.17 636.599 1315.78 636.599C1314.4 636.599 1313.27 635.472 1313.27 634.088C1313.27 632.703 1314.4 631.577 1315.78 631.577ZM1315.78 635.762C1316.71 635.762 1317.46 635.011 1317.46 634.088C1317.46 633.165 1316.71 632.414 1315.78 632.414C1314.86 632.414 1314.11 633.165 1314.11 634.088C1314.11 635.01 1314.86 635.762 1315.78 635.762Z" fill="#32B3C7" fill-opacity="0.2"/>
<path d="M1308.94 631.577C1310.32 631.577 1311.45 632.703 1311.45 634.088C1311.45 635.472 1310.32 636.599 1308.94 636.599C1307.55 636.599 1306.43 635.472 1306.43 634.088C1306.43 632.703 1307.55 631.577 1308.94 631.577ZM1308.94 635.762C1309.86 635.762 1310.61 635.011 1310.61 634.088C1310.61 633.165 1309.86 632.414 1308.94 632.414C1308.02 632.414 1307.26 633.165 1307.26 634.088C1307.26 635.01 1308.02 635.762 1308.94 635.762Z" fill="#32B3C7" fill-opacity="0.2"/>
<path d="M1302.09 631.577C1303.48 631.577 1304.61 632.703 1304.61 634.088C1304.61 635.472 1303.48 636.599 1302.09 636.599C1300.71 636.599 1299.58 635.472 1299.58 634.088C1299.58 632.703 1300.71 631.577 1302.09 631.577ZM1302.09 635.762C1303.02 635.762 1303.77 635.011 1303.77 634.088C1303.77 633.165 1303.02 632.414 1302.09 632.414C1301.17 632.414 1300.42 633.165 1300.42 634.088C1300.42 635.01 1301.17 635.762 1302.09 635.762Z" fill="#32B3C7" fill-opacity="0.2"/>
<path d="M1295.25 631.577C1296.63 631.577 1297.76 632.703 1297.76 634.088C1297.76 635.472 1296.63 636.599 1295.25 636.599C1293.87 636.599 1292.74 635.472 1292.74 634.088C1292.74 632.703 1293.87 631.577 1295.25 631.577ZM1295.25 635.762C1296.17 635.762 1296.92 635.011 1296.92 634.088C1296.92 633.165 1296.17 632.414 1295.25 632.414C1294.33 632.414 1293.58 633.165 1293.58 634.088C1293.58 635.01 1294.33 635.762 1295.25 635.762Z" fill="#32B3C7" fill-opacity="0.2"/>
<path d="M1104.32 608.379C1105.7 608.379 1106.83 609.506 1106.83 610.89C1106.83 612.275 1105.7 613.401 1104.32 613.401C1102.93 613.401 1101.81 612.275 1101.81 610.89C1101.81 609.506 1102.93 608.379 1104.32 608.379ZM1104.32 612.564C1105.24 612.564 1105.99 611.813 1105.99 610.89C1105.99 609.967 1105.24 609.216 1104.32 609.216C1103.4 609.216 1102.65 609.967 1102.65 610.89C1102.65 611.813 1103.4 612.564 1104.32 612.564Z" fill="#32B3C7" fill-opacity="0.2"/>
<path d="M1097.47 608.379C1098.86 608.379 1099.99 609.506 1099.99 610.89C1099.99 612.275 1098.86 613.401 1097.47 613.401C1096.09 613.401 1094.96 612.275 1094.96 610.89C1094.96 609.506 1096.09 608.379 1097.47 608.379ZM1097.47 612.564C1098.4 612.564 1099.15 611.813 1099.15 610.89C1099.15 609.967 1098.4 609.216 1097.47 609.216C1096.55 609.216 1095.8 609.967 1095.8 610.89C1095.8 611.813 1096.55 612.564 1097.47 612.564Z" fill="#32B3C7" fill-opacity="0.2"/>
<path d="M1090.63 608.379C1092.01 608.379 1093.14 609.506 1093.14 610.89C1093.14 612.275 1092.01 613.401 1090.63 613.401C1089.24 613.401 1088.12 612.275 1088.12 610.89C1088.12 609.506 1089.25 608.379 1090.63 608.379ZM1090.63 612.564C1091.55 612.564 1092.3 611.813 1092.3 610.89C1092.3 609.967 1091.55 609.216 1090.63 609.216C1089.71 609.216 1088.96 609.967 1088.96 610.89C1088.96 611.813 1089.71 612.564 1090.63 612.564Z" fill="#32B3C7" fill-opacity="0.2"/>
<path d="M1083.79 608.379C1085.17 608.379 1086.3 609.506 1086.3 610.89C1086.3 612.275 1085.17 613.401 1083.79 613.401C1082.4 613.401 1081.27 612.275 1081.27 610.89C1081.27 609.506 1082.4 608.379 1083.79 608.379ZM1083.79 612.564C1084.71 612.564 1085.46 611.813 1085.46 610.89C1085.46 609.967 1084.71 609.216 1083.79 609.216C1082.86 609.216 1082.11 609.967 1082.11 610.89C1082.11 611.813 1082.86 612.564 1083.79 612.564Z" fill="#32B3C7" fill-opacity="0.2"/>
<path d="M1076.94 608.379C1078.32 608.379 1079.45 609.506 1079.45 610.89C1079.45 612.275 1078.32 613.401 1076.94 613.401C1075.56 613.401 1074.43 612.275 1074.43 610.89C1074.43 609.506 1075.56 608.379 1076.94 608.379ZM1076.94 612.564C1077.86 612.564 1078.61 611.813 1078.61 610.89C1078.61 609.967 1077.86 609.216 1076.94 609.216C1076.02 609.216 1075.27 609.967 1075.27 610.89C1075.27 611.813 1076.02 612.564 1076.94 612.564Z" fill="#32B3C7" fill-opacity="0.2"/>
<path d="M1070.1 608.379C1071.48 608.379 1072.61 609.506 1072.61 610.89C1072.61 612.275 1071.48 613.401 1070.1 613.401C1068.71 613.401 1067.58 612.275 1067.58 610.89C1067.58 609.506 1068.71 608.379 1070.1 608.379ZM1070.1 612.564C1071.02 612.564 1071.77 611.813 1071.77 610.89C1071.77 609.967 1071.02 609.216 1070.1 609.216C1069.17 609.216 1068.42 609.967 1068.42 610.89C1068.42 611.813 1069.17 612.564 1070.1 612.564Z" fill="#32B3C7" fill-opacity="0.2"/>
<path d="M1063.25 608.379C1064.64 608.379 1065.76 609.506 1065.76 610.89C1065.76 612.275 1064.64 613.401 1063.25 613.401C1061.87 613.401 1060.74 612.275 1060.74 610.89C1060.74 609.506 1061.87 608.379 1063.25 608.379ZM1063.25 612.564C1064.17 612.564 1064.92 611.813 1064.92 610.89C1064.92 609.967 1064.17 609.216 1063.25 609.216C1062.33 609.216 1061.58 609.967 1061.58 610.89C1061.58 611.813 1062.33 612.564 1063.25 612.564Z" fill="#32B3C7" fill-opacity="0.2"/>
<path d="M1056.41 608.379C1057.79 608.379 1058.92 609.506 1058.92 610.89C1058.92 612.275 1057.79 613.401 1056.41 613.401C1055.02 613.401 1053.9 612.275 1053.9 610.89C1053.89 609.506 1055.02 608.379 1056.41 608.379ZM1056.41 612.564C1057.33 612.564 1058.08 611.813 1058.08 610.89C1058.08 609.967 1057.33 609.216 1056.41 609.216C1055.48 609.216 1054.73 609.967 1054.73 610.89C1054.73 611.813 1055.48 612.564 1056.41 612.564Z" fill="#32B3C7" fill-opacity="0.2"/>
<path d="M1049.56 608.379C1050.95 608.379 1052.07 609.506 1052.07 610.89C1052.07 612.275 1050.95 613.401 1049.56 613.401C1048.18 613.401 1047.05 612.275 1047.05 610.89C1047.05 609.506 1048.18 608.379 1049.56 608.379ZM1049.56 612.564C1050.48 612.564 1051.24 611.813 1051.24 610.89C1051.24 609.967 1050.48 609.216 1049.56 609.216C1048.64 609.216 1047.89 609.967 1047.89 610.89C1047.89 611.813 1048.64 612.564 1049.56 612.564Z" fill="#32B3C7" fill-opacity="0.2"/>
<path d="M1042.72 608.379C1044.1 608.379 1045.23 609.506 1045.23 610.89C1045.23 612.275 1044.1 613.401 1042.72 613.401C1041.33 613.401 1040.2 612.275 1040.2 610.89C1040.2 609.506 1041.33 608.379 1042.72 608.379ZM1042.72 612.564C1043.64 612.564 1044.39 611.813 1044.39 610.89C1044.39 609.967 1043.64 609.216 1042.72 609.216C1041.79 609.216 1041.04 609.967 1041.04 610.89C1041.04 611.813 1041.79 612.564 1042.72 612.564Z" fill="#32B3C7" fill-opacity="0.2"/>
<path d="M1067.97 600.966C1069.35 600.966 1070.48 602.093 1070.48 603.477C1070.48 604.862 1069.35 605.988 1067.97 605.988C1066.59 605.988 1065.46 604.862 1065.46 603.477C1065.46 602.093 1066.59 600.966 1067.97 600.966ZM1067.97 605.151C1068.89 605.151 1069.64 604.4 1069.64 603.477C1069.64 602.554 1068.89 601.803 1067.97 601.803C1067.05 601.803 1066.3 602.554 1066.3 603.477C1066.3 604.4 1067.05 605.151 1067.97 605.151Z" fill="#32B3C7" fill-opacity="0.2"/>
<path d="M1061.12 600.966C1062.51 600.966 1063.64 602.093 1063.64 603.477C1063.64 604.862 1062.51 605.988 1061.12 605.988C1059.74 605.988 1058.61 604.862 1058.61 603.477C1058.61 602.093 1059.74 600.966 1061.12 600.966ZM1061.12 605.151C1062.05 605.151 1062.8 604.4 1062.8 603.477C1062.8 602.554 1062.05 601.803 1061.12 601.803C1060.2 601.803 1059.45 602.554 1059.45 603.477C1059.45 604.4 1060.2 605.151 1061.12 605.151Z" fill="#32B3C7" fill-opacity="0.2"/>
<path d="M1054.28 600.966C1055.66 600.966 1056.79 602.093 1056.79 603.477C1056.79 604.862 1055.66 605.988 1054.28 605.988C1052.9 605.988 1051.77 604.862 1051.77 603.477C1051.77 602.093 1052.9 600.966 1054.28 600.966ZM1054.28 605.151C1055.2 605.151 1055.95 604.4 1055.95 603.477C1055.95 602.554 1055.2 601.803 1054.28 601.803C1053.36 601.803 1052.61 602.554 1052.61 603.477C1052.61 604.4 1053.36 605.151 1054.28 605.151Z" fill="#32B3C7" fill-opacity="0.2"/>
<path d="M1047.44 600.966C1048.82 600.966 1049.95 602.093 1049.95 603.477C1049.95 604.862 1048.82 605.988 1047.44 605.988C1046.05 605.988 1044.92 604.862 1044.92 603.477C1044.92 602.093 1046.05 600.966 1047.44 600.966ZM1047.44 605.151C1048.36 605.151 1049.11 604.4 1049.11 603.477C1049.11 602.554 1048.36 601.803 1047.44 601.803C1046.51 601.803 1045.76 602.554 1045.76 603.477C1045.76 604.4 1046.51 605.151 1047.44 605.151Z" fill="#32B3C7" fill-opacity="0.2"/>
<path d="M1040.59 600.966C1041.98 600.966 1043.1 602.093 1043.1 603.477C1043.1 604.862 1041.98 605.988 1040.59 605.988C1039.21 605.988 1038.08 604.862 1038.08 603.477C1038.08 602.093 1039.21 600.966 1040.59 600.966ZM1040.59 605.151C1041.51 605.151 1042.26 604.4 1042.26 603.477C1042.26 602.554 1041.51 601.803 1040.59 601.803C1039.67 601.803 1038.92 602.554 1038.92 603.477C1038.92 604.4 1039.67 605.151 1040.59 605.151Z" fill="#32B3C7" fill-opacity="0.2"/>
<path d="M1033.75 600.966C1035.13 600.966 1036.26 602.093 1036.26 603.477C1036.26 604.862 1035.13 605.988 1033.75 605.988C1032.36 605.988 1031.23 604.862 1031.23 603.477C1031.23 602.093 1032.36 600.966 1033.75 600.966ZM1033.75 605.151C1034.67 605.151 1035.42 604.4 1035.42 603.477C1035.42 602.554 1034.67 601.803 1033.75 601.803C1032.82 601.803 1032.07 602.554 1032.07 603.477C1032.07 604.4 1032.82 605.151 1033.75 605.151Z" fill="#32B3C7" fill-opacity="0.2"/>
<path d="M1026.9 600.966C1028.29 600.966 1029.41 602.093 1029.41 603.477C1029.41 604.862 1028.29 605.988 1026.9 605.988C1025.52 605.988 1024.39 604.862 1024.39 603.477C1024.39 602.093 1025.52 600.966 1026.9 600.966ZM1026.9 605.151C1027.82 605.151 1028.58 604.4 1028.58 603.477C1028.58 602.554 1027.82 601.803 1026.9 601.803C1025.98 601.803 1025.23 602.554 1025.23 603.477C1025.23 604.4 1025.98 605.151 1026.9 605.151Z" fill="#32B3C7" fill-opacity="0.2"/>
<path d="M1020.06 600.966C1021.44 600.966 1022.57 602.093 1022.57 603.477C1022.57 604.862 1021.44 605.988 1020.06 605.988C1018.67 605.988 1017.55 604.862 1017.55 603.477C1017.55 602.093 1018.67 600.966 1020.06 600.966ZM1020.06 605.151C1020.98 605.151 1021.73 604.4 1021.73 603.477C1021.73 602.554 1020.98 601.803 1020.06 601.803C1019.13 601.803 1018.38 602.554 1018.38 603.477C1018.38 604.4 1019.13 605.151 1020.06 605.151Z" fill="#32B3C7" fill-opacity="0.2"/>
<path d="M1013.21 600.966C1014.6 600.966 1015.72 602.093 1015.72 603.477C1015.72 604.862 1014.6 605.988 1013.21 605.988C1011.83 605.988 1010.7 604.862 1010.7 603.477C1010.7 602.093 1011.83 600.966 1013.21 600.966ZM1013.21 605.151C1014.13 605.151 1014.89 604.4 1014.89 603.477C1014.89 602.554 1014.13 601.803 1013.21 601.803C1012.29 601.803 1011.54 602.554 1011.54 603.477C1011.54 604.4 1012.29 605.151 1013.21 605.151Z" fill="#32B3C7" fill-opacity="0.2"/>
<path d="M1006.37 600.966C1007.75 600.966 1008.88 602.093 1008.88 603.477C1008.88 604.862 1007.75 605.988 1006.37 605.988C1004.98 605.988 1003.86 604.862 1003.86 603.477C1003.86 602.093 1004.98 600.966 1006.37 600.966ZM1006.37 605.151C1007.29 605.151 1008.04 604.4 1008.04 603.477C1008.04 602.554 1007.29 601.803 1006.37 601.803C1005.44 601.803 1004.69 602.554 1004.69 603.477C1004.69 604.4 1005.44 605.151 1006.37 605.151Z" fill="#32B3C7" fill-opacity="0.2"/>
<path d="M1221.11 699.313H1226.85V693.574H1221.11V699.313Z" fill="#32B3C7" fill-opacity="0.2"/>
<path d="M1212.24 699.313H1217.98V693.574H1212.24V699.313Z" fill="#32B3C7" fill-opacity="0.2"/>
<path d="M1203.37 699.313H1209.11V693.574H1203.37V699.313Z" fill="#32B3C7" fill-opacity="0.2"/>
<path d="M1194.5 699.313H1200.24V693.574H1194.5V699.313Z" fill="#32B3C7" fill-opacity="0.2"/>
<path d="M1347.86 601.981H1353.6V596.242H1347.86V601.981Z" fill="#32B3C7" fill-opacity="0.2"/>
<path d="M1338.99 601.981H1344.73V596.242H1338.99V601.981Z" fill="#32B3C7" fill-opacity="0.2"/>
<path d="M1330.12 601.981H1335.86V596.242H1330.12V601.981Z" fill="#32B3C7" fill-opacity="0.2"/>
<path d="M1321.25 601.981H1326.99V596.242H1321.25V601.981Z" fill="#32B3C7" fill-opacity="0.2"/>
<path d="M1278.57 595.824H1285.14V602.4H1278.57V595.824ZM1284.31 596.661H1279.4V601.563H1284.31V596.661Z" fill="#32B3C7" fill-opacity="0.2"/>
<path d="M1269.7 595.824H1276.27V602.4H1269.7V595.824ZM1275.44 596.661H1270.53V601.563H1275.44V596.661Z" fill="#32B3C7" fill-opacity="0.2"/>
<path d="M1260.83 595.824H1267.4V602.4H1260.83V595.824ZM1266.57 596.661H1261.66V601.563H1266.57V596.661Z" fill="#32B3C7" fill-opacity="0.2"/>
<path d="M1251.96 595.824H1258.53V602.4H1251.96V595.824ZM1257.7 596.661H1252.79V601.563H1257.7V596.661Z" fill="#32B3C7" fill-opacity="0.2"/>
</g>
</svg>
