<svg width="80" height="80" viewBox="0 0 80 80" fill="none" xmlns="http://www.w3.org/2000/svg">
<path opacity="0.3" fill-rule="evenodd" clip-rule="evenodd" d="M62.3118 32.3993C62.3118 20.108 52.3201 10.1421 40.0014 10.1421C27.6782 10.1421 17.6865 20.108 17.6865 32.3993C17.6865 44.6862 27.6782 54.6521 40.0014 54.6521C52.32 54.6521 62.3118 44.6862 62.3118 32.3993Z" fill="#32B3C7"/>
<path d="M40.002 44.3441C39.139 44.3441 38.4395 43.6491 38.4395 42.7862V42.7771C38.4395 41.9143 39.139 41.2146 40.002 41.2146C40.8649 41.2146 41.5645 41.9143 41.5645 42.7771C41.5645 43.6399 40.8649 44.3441 40.002 44.3441Z" fill="#294563"/>
<path d="M40.0022 38.0103C39.1392 38.0103 38.4397 37.3106 38.4397 36.4478V31.4913C38.4397 30.6285 39.1392 29.9288 40.0022 29.9288C40.888 29.9288 41.7116 29.575 42.3214 28.9327C42.9267 28.295 43.2348 27.4597 43.1891 26.5808C43.1027 24.9255 41.7322 23.6031 40.0691 23.5703C38.4569 23.5361 37.0695 24.7072 36.8397 26.2919C36.8187 26.4656 36.8086 26.6147 36.8086 26.7475C36.8086 27.6103 36.1091 28.31 35.2461 28.31C34.3831 28.31 33.6836 27.6103 33.6836 26.7475C33.6836 26.4828 33.7019 26.2045 33.7395 25.8974C33.7406 25.888 33.7419 25.8789 33.7431 25.8695C34.1873 22.7138 36.9348 20.3799 40.1309 20.4459C43.4241 20.5109 46.1381 23.1341 46.3095 26.418C46.4005 28.1616 45.7887 29.8188 44.5877 31.0841C43.7644 31.9514 42.7092 32.5624 41.5645 32.8558V36.4477C41.5647 37.3106 40.8652 38.0103 40.0022 38.0103Z" fill="#294563"/>
<path d="M40 1.7998C56.679 1.7998 70.2002 15.321 70.2002 32C70.2002 44.7962 62.2411 55.7353 51.001 60.1338L50.4629 60.3389C49.896 60.5483 49.397 60.9287 49.0557 61.4414L48.9199 61.6689L41.0576 76.334C40.6334 77.1252 39.5436 77.1746 39.0361 76.4824L38.9424 76.334L31.0801 61.6689C30.7854 61.1194 30.321 60.696 29.7754 60.4385L29.5371 60.3389C18.0137 56.0828 9.7998 44.9995 9.7998 32C9.7998 15.321 23.321 1.7998 40 1.7998Z" stroke="#294563" stroke-width="1.6"/>
</svg>
