<svg width="20" height="20" viewBox="0 0 20 20" fill="none" xmlns="http://www.w3.org/2000/svg">
<path fill-rule="evenodd" clip-rule="evenodd" d="M2.9454 2.9454C4.55118 1.33962 6.72908 0.4375 9 0.4375C11.2709 0.4375 13.4488 1.33962 15.0546 2.9454C16.6604 4.55118 17.5625 6.72908 17.5625 9C17.5625 11.0827 16.8037 13.0871 15.4393 14.6438L19.3977 18.6023C19.6174 18.8219 19.6174 19.1781 19.3977 19.3977C19.1781 19.6174 18.8219 19.6174 18.6023 19.3977L14.6438 15.4393C13.0871 16.8037 11.0827 17.5625 9 17.5625C6.72908 17.5625 4.55118 16.6604 2.9454 15.0546C1.33962 13.4488 0.4375 11.2709 0.4375 9C0.4375 6.72908 1.33962 4.55118 2.9454 2.9454ZM9 1.5625C7.02745 1.5625 5.1357 2.34609 3.74089 3.74089C2.34609 5.1357 1.5625 7.02745 1.5625 9C1.5625 10.9725 2.34609 12.8643 3.74089 14.2591C5.1357 15.6539 7.02745 16.4375 9 16.4375C10.9725 16.4375 12.8643 15.6539 14.2591 14.2591C15.6539 12.8643 16.4375 10.9725 16.4375 9C16.4375 7.02745 15.6539 5.1357 14.2591 3.74089C12.8643 2.34609 10.9725 1.5625 9 1.5625Z" fill="#294563"/>
</svg>
