<svg width="240" height="241" viewBox="0 0 240 241" fill="none" xmlns="http://www.w3.org/2000/svg">
<g clip-path="url(#clip0_914_53629)">
<mask id="mask0_914_53629" style="mask-type:luminance" maskUnits="userSpaceOnUse" x="0" y="0" width="240" height="241">
<path d="M240 0.5H0V240.5H240V0.5Z" fill="white"/>
</mask>
<g mask="url(#mask0_914_53629)">
<g opacity="0.314906">
<path d="M138.041 36.4091C138.041 39.5211 135.518 42.0441 132.406 42.0441C129.294 42.0441 126.771 39.5211 126.771 36.4091C126.771 33.2972 129.294 30.7744 132.406 30.7744C135.518 30.7744 138.041 33.2972 138.041 36.4091Z" fill="#469BA8"/>
</g>
<g opacity="0.680432">
<path d="M93.6929 49.7315L90.3466 51.6635C89.7407 52.0134 88.966 51.8057 88.6162 51.2L82.5737 40.7339C82.2239 40.1282 82.4316 39.3536 83.0373 39.0039L86.3838 37.0717C86.9896 36.722 87.7642 36.9296 88.114 37.5353L94.1565 48.0013C94.5064 48.6072 94.2987 49.3817 93.6929 49.7315Z" fill="#46DEF5"/>
</g>
<g opacity="0.680432">
<path d="M37.276 72.4449L38.0287 72.7002C38.8822 72.9897 39.8235 72.8405 40.5459 72.3014L41.183 71.826C43.002 70.4686 45.5883 71.7862 45.5593 74.0558L45.5492 74.8506C45.5375 75.7519 45.9701 76.6011 46.706 77.1215L47.3551 77.5805C49.2083 78.8911 48.7541 81.7576 46.5867 82.4315L45.8276 82.6674C44.9669 82.9349 44.2932 83.6089 44.0257 84.4696L43.7896 85.2287C43.1159 87.3961 40.2492 87.8501 38.9387 85.9969L38.4795 85.348C37.9591 84.6121 37.1099 84.1794 36.2087 84.191L35.4138 84.201C33.1443 84.23 31.8267 81.6441 33.1842 79.8249L33.6598 79.1878C34.1988 78.4655 34.3478 77.5242 34.0583 76.6705L33.803 75.9179C33.0742 73.7682 35.1263 71.716 37.276 72.4449Z" fill="#46DEF5"/>
</g>
<g opacity="0.680432">
<path d="M31.9322 112.35L32.7773 116.121C32.9304 116.803 32.5012 117.481 31.8184 117.634L20.0261 120.277C19.3436 120.43 18.6663 120.001 18.513 119.318L17.6679 115.547C17.515 114.865 17.9442 114.188 18.6268 114.035L30.4192 111.391C31.1018 111.238 31.7791 111.668 31.9322 112.35Z" fill="#4DBECF"/>
</g>
<g opacity="0.680432">
<path d="M43.906 160.589C43.906 163.701 41.3832 166.224 38.2714 166.224C35.1593 166.224 32.6367 163.701 32.6367 160.589C32.6367 157.478 35.1593 154.955 38.2714 154.955C41.3832 154.955 43.906 157.478 43.906 160.589Z" fill="#25DCF8"/>
</g>
<g opacity="0.680432">
<path d="M37.276 188.335L38.0287 188.591C38.8822 188.88 39.8235 188.731 40.5459 188.192L41.183 187.716C43.002 186.359 45.5883 187.677 45.5593 189.946L45.5492 190.741C45.5375 191.642 45.9701 192.492 46.706 193.012L47.3551 193.471C49.2083 194.782 48.7541 197.648 46.5867 198.322L45.8276 198.558C44.9669 198.825 44.2932 199.499 44.0257 200.36L43.7896 201.119C43.1159 203.287 40.2492 203.741 38.9387 201.887L38.4795 201.238C37.9591 200.502 37.1099 200.07 36.2087 200.081L35.4138 200.092C33.1443 200.121 31.8267 197.535 33.1842 195.716L33.6598 195.078C34.1988 194.356 34.3478 193.415 34.0583 192.561L33.803 191.808C33.0742 189.659 35.1263 187.606 37.276 188.335Z" fill="#33E3FF"/>
</g>
<g opacity="0.680432">
<path d="M182.315 67.0747C180.608 64.8492 181.136 61.534 183.486 59.7307C185.837 57.9274 189.176 58.2746 190.883 60.5002C190.887 60.5044 190.89 60.5087 190.893 60.5127" stroke="#25DCF8" stroke-width="8" stroke-linecap="round" stroke-linejoin="round"/>
</g>
<g opacity="0.680432">
<path d="M197.511 97.774L198.264 98.0293C199.117 98.3188 200.059 98.1696 200.781 97.6305L201.418 97.1551C203.238 95.7977 205.824 97.1153 205.795 99.3849L205.784 100.18C205.773 101.081 206.206 101.93 206.941 102.451L207.591 102.91C209.444 104.22 208.99 107.087 206.822 107.761L206.063 107.996C205.202 108.264 204.528 108.938 204.261 109.799L204.025 110.558C203.351 112.725 200.484 113.179 199.174 111.326L198.715 110.677C198.195 109.941 197.345 109.508 196.444 109.52L195.649 109.53C193.38 109.559 192.062 106.973 193.42 105.154L193.895 104.517C194.434 103.795 194.583 102.853 194.294 102L194.038 101.247C193.309 99.0973 195.362 97.0451 197.511 97.774Z" fill="#33E3FF"/>
</g>
<g opacity="0.680432">
<path d="M202.774 164.552C206.605 165.057 209.32 168.802 208.787 172.848C208.254 176.894 204.663 179.809 200.832 179.304C200.824 179.303 200.817 179.302 200.81 179.301" stroke="#25DCF8" stroke-width="6" stroke-linecap="round" stroke-linejoin="round"/>
</g>
<g opacity="0.680432">
<path d="M190.702 212.089L187.356 214.021C186.75 214.37 185.975 214.163 185.626 213.557L179.583 203.091C179.234 202.485 179.441 201.711 180.047 201.361L183.393 199.429C183.999 199.079 184.774 199.287 185.123 199.893L191.166 210.359C191.516 210.964 191.308 211.739 190.702 212.089Z" fill="#46DEF5"/>
</g>
<g opacity="0.680432">
<path d="M81.0291 218.195C78.6766 215.129 79.4049 210.561 82.6428 208.077C85.8808 205.592 90.4811 206.071 92.8336 209.137L92.8471 209.154" stroke="#469BA8" stroke-width="8" stroke-linecap="round" stroke-linejoin="round"/>
</g>
<g opacity="0.2">
<path d="M223.472 120.5C223.472 177.646 177.146 223.972 120 223.972C62.8537 223.972 16.5273 177.646 16.5273 120.5C16.5273 63.3539 62.8537 17.0281 120 17.0281C177.146 17.0281 223.472 63.3539 223.472 120.5Z" fill="#84D1DD"/>
</g>
<path d="M184.324 120.5C184.324 156.025 155.525 184.824 120 184.824C84.4748 184.824 55.6758 156.025 55.6758 120.5C55.6758 84.9749 84.4748 56.1763 120 56.1763C155.525 56.1763 184.324 84.9749 184.324 120.5Z" fill="#58D1E3"/>
<path d="M85.9094 120.631L108.549 143.27L154.09 97.7295" stroke="white" stroke-width="16" stroke-linecap="round" stroke-linejoin="round"/>
</g>
</g>
<defs>
<clipPath id="clip0_914_53629">
<rect width="240" height="240" fill="white" transform="translate(0 0.5)"/>
</clipPath>
</defs>
</svg>
