<svg width="26" height="22" viewBox="0 0 26 22" fill="none" xmlns="http://www.w3.org/2000/svg">
<path d="M9.47949 0C13.6979 0.000112982 17.3456 2.32488 18.5557 5.78711C18.6141 5.95441 18.5863 6.13962 18.4824 6.2832C18.3754 6.42296 18.2102 6.50609 18.0342 6.50781L17.875 6.5C12.7976 6.50002 8.66723 9.90262 8.66699 14.083C8.67065 14.5639 8.72889 15.0433 8.8418 15.5107C8.85607 15.5716 8.8597 15.6352 8.85254 15.6973C8.81811 15.9943 8.54998 16.207 8.25293 16.1729C7.43322 16.0819 6.6263 15.8977 5.84863 15.623L2.98242 17.2617C2.82241 17.3566 2.62453 17.3631 2.45898 17.2783C2.19285 17.1419 2.08737 16.815 2.22363 16.5488L3.34277 14.3105C1.29039 12.9137 0.0439737 10.6073 0 8.125C0 3.64432 4.25237 0 9.47949 0ZM5.95801 3.25C5.06069 3.25017 4.33301 3.97765 4.33301 4.875C4.33301 5.77235 5.06069 6.49983 5.95801 6.5C6.85546 6.5 7.58301 5.77246 7.58301 4.875C7.58301 3.97754 6.85546 3.25 5.95801 3.25ZM12.458 3.25C11.5607 3.25017 10.833 3.97765 10.833 4.875C10.833 5.77235 11.5607 6.49983 12.458 6.5C13.3555 6.5 14.083 5.77246 14.083 4.875C14.083 3.97754 13.3555 3.25 12.458 3.25Z" fill="#02317E"/>
<path d="M17.875 7.58337C22.3557 7.58337 26 10.4986 26 14.0834C25.9241 16.1377 24.8195 18.0157 23.0615 19.0814L23.7979 20.9232C23.8554 21.067 23.8487 21.229 23.7793 21.3676C23.6455 21.6349 23.3201 21.7432 23.0527 21.6097L20.3662 20.267C19.5524 20.4766 18.7154 20.5831 17.875 20.5834C13.3943 20.5834 9.75 17.6681 9.75 14.0834C9.75 10.4986 13.3943 7.58337 17.875 7.58337ZM15.167 10.8334C14.5688 10.8334 14.0832 11.3182 14.083 11.9164C14.083 12.5147 14.5687 13.0004 15.167 13.0004C15.7652 13.0002 16.25 12.5146 16.25 11.9164C16.2498 11.3183 15.765 10.8335 15.167 10.8334ZM20.583 10.8334C19.9849 10.8335 19.5002 11.3183 19.5 11.9164C19.5 12.5146 19.9848 13.0002 20.583 13.0004C21.1813 13.0004 21.667 12.5147 21.667 11.9164C21.6669 11.3182 21.1812 10.8334 20.583 10.8334Z" fill="#02317E"/>
</svg>
