<svg width="26" height="26" viewBox="0 0 26 26" fill="none" xmlns="http://www.w3.org/2000/svg">
<path d="M12.2645 0.0150361C5.39792 0.341983 -0.0207707 6.06051 5.9856e-05 12.9349C0.0064023 15.0286 0.511871 17.0048 1.40354 18.751L0.034508 25.3965C-0.0395494 25.7559 0.284662 26.0707 0.641766 25.9861L7.15353 24.4433C8.82651 25.2767 10.7056 25.758 12.6943 25.7884C19.7126 25.8956 25.5647 20.3229 25.7834 13.3072C26.0179 5.78685 19.8111 -0.344369 12.2645 0.0150361ZM20.0344 20.0345C18.1274 21.9415 15.5918 22.9917 12.8949 22.9917C11.3158 22.9917 9.80393 22.6374 8.40119 21.9387L7.49435 21.487L3.50196 22.4329L4.34234 18.3534L3.89557 17.4785C3.16737 16.0524 2.79814 14.5102 2.79814 12.8949C2.79814 10.198 3.84837 7.66247 5.7554 5.75539C7.64538 3.8654 10.2223 2.79806 12.8951 2.79806C15.592 2.79813 18.1275 3.84836 20.0345 5.75532C21.9415 7.66235 22.9917 10.1978 22.9918 12.8947C22.9917 15.5677 21.9244 18.1445 20.0344 20.0345Z" fill="#02317E"/>
<path d="M19.1527 15.6914L16.655 14.9742C16.3266 14.88 15.973 14.9731 15.7337 15.2169L15.1229 15.8392C14.8654 16.1016 14.4745 16.186 14.1337 16.048C12.9521 15.5699 10.4666 13.36 9.83187 12.2546C9.64875 11.9357 9.67903 11.5371 9.90388 11.2461L10.4371 10.5562C10.6461 10.2859 10.6902 9.92292 10.552 9.61046L9.50113 7.23372C9.24942 6.66445 8.52197 6.49874 8.04672 6.90068C7.34961 7.49028 6.52248 8.38624 6.42194 9.37883C6.24466 11.1289 6.99518 13.3349 9.8333 15.9838C13.1121 19.044 15.7377 19.4483 17.4473 19.0342C18.4169 18.7994 19.1918 17.8578 19.6809 17.0869C20.0143 16.5613 19.751 15.8632 19.1527 15.6914Z" fill="#02317E"/>
</svg>
