<svg width="28" height="28" viewBox="0 0 28 28" fill="none" xmlns="http://www.w3.org/2000/svg">
<path d="M13.2828 0.303141C8.73646 0.524929 4.5615 3.03712 2.21362 6.96108C1.20617 8.64156 0.625599 10.3348 0.339584 12.412C0.267014 12.9537 0.267014 15.0692 0.339584 15.6109C0.851849 19.3728 2.5594 22.4266 5.44516 24.7469C7.4003 26.3165 9.64573 27.2591 12.3437 27.6387C12.8645 27.7112 14.525 27.741 15.1184 27.6856C17.1376 27.4979 18.9049 26.969 20.5997 26.035C24.5996 23.8384 27.2506 19.8035 27.6689 15.2697C27.7287 14.6427 27.7287 13.3844 27.6689 12.7532C27.5408 11.3542 27.178 9.92112 26.6358 8.65862C25.3039 5.55358 22.9817 3.11816 19.9636 1.65947C17.8633 0.644354 15.6136 0.187981 13.2828 0.303141ZM9.73537 10.1941C10.2818 10.3519 10.5294 10.9064 10.2732 11.4139C10.1708 11.6229 9.03955 13.1499 7.79304 14.7578C6.92218 15.8838 6.70874 16.1696 6.70874 16.2123C6.70874 16.2336 7.41737 16.2506 8.28396 16.2506C9.96589 16.2506 10.1025 16.2634 10.3245 16.4724C10.4782 16.6132 10.5635 16.8947 10.5422 17.1677C10.5166 17.4534 10.4227 17.5942 10.1623 17.7435L9.97443 17.8501H7.6052C5.47931 17.8458 5.2061 17.8416 4.9585 17.7733C4.66822 17.6923 4.48893 17.5601 4.37367 17.3425C4.27975 17.1634 4.3139 16.7113 4.4377 16.4639C4.54015 16.2592 5.06949 15.5597 6.76424 13.3716C7.75888 12.0878 7.90403 11.8916 7.90403 11.785C7.90403 11.7509 7.53263 11.7338 6.52945 11.721C4.98839 11.6997 4.88166 11.6826 4.61699 11.4097C4.48893 11.2774 4.46758 11.2263 4.45478 10.9831C4.4377 10.7571 4.45051 10.6846 4.53162 10.5566C4.6298 10.3946 4.85178 10.2623 5.11645 10.1984C5.3427 10.1472 9.55181 10.1386 9.73537 10.1941ZM17.4663 10.2495C17.5858 10.3135 17.684 10.4073 17.7395 10.514C17.8292 10.6803 17.8292 10.74 17.842 13.8195C17.8505 15.9777 17.8377 17.0226 17.8035 17.1762C17.7438 17.4833 17.5431 17.6795 17.2358 17.7392C16.8217 17.8245 16.5357 17.6923 16.3735 17.3383L16.271 17.1122L16.2796 13.9005L16.2924 10.6846L16.3948 10.5097C16.5954 10.1557 17.0736 10.0405 17.4663 10.2495ZM13.5176 12.4376C13.6371 12.4802 13.8207 12.5655 13.9274 12.6295C14.2476 12.8172 14.2817 12.8172 14.4653 12.6551C14.7598 12.3907 14.9391 12.3523 15.2934 12.476C15.5154 12.557 15.6136 12.6423 15.7203 12.847C15.7972 12.9963 15.8014 13.1285 15.8014 15.0862C15.8014 17.4321 15.8057 17.398 15.477 17.624C15.144 17.8501 14.8025 17.833 14.4952 17.5728C14.3884 17.479 14.2903 17.4022 14.2775 17.4022C14.2604 17.4022 14.1024 17.479 13.9189 17.5728C13.7353 17.6667 13.4749 17.7733 13.3426 17.8074C12.2028 18.106 10.9904 17.3383 10.5678 16.0544C10.4525 15.7047 10.444 15.6279 10.4483 15.0777C10.4483 14.5488 10.4611 14.4422 10.5635 14.1394C10.8453 13.2821 11.5496 12.5869 12.3266 12.3907C12.6425 12.3139 13.223 12.3352 13.5176 12.4376ZM21.7779 12.4376C22.3755 12.6124 22.9006 13.0006 23.2378 13.5124C23.9806 14.6555 23.7757 16.3317 22.7853 17.2146C22.1834 17.752 21.2016 17.9908 20.3563 17.8032C19.8398 17.688 19.4513 17.479 19.0885 17.1079C18.5335 16.5492 18.2987 15.9521 18.303 15.099C18.303 14.5318 18.3756 14.2034 18.5975 13.747C18.9433 13.0475 19.6648 12.5143 20.4673 12.3693C20.7704 12.3181 21.4918 12.3523 21.7779 12.4376Z" fill="#02317E"/>
<path d="M12.8134 13.8408C12.5573 13.9219 12.3438 14.1053 12.1987 14.3783C12.0962 14.5659 12.0706 14.664 12.0536 14.9967C12.0279 15.4701 12.1048 15.7516 12.3268 16.0246C12.5487 16.2933 12.7921 16.3957 13.1677 16.3701C13.6544 16.336 13.9276 16.1398 14.0983 15.7047C14.2221 15.3848 14.2307 14.873 14.1197 14.5446C14.0087 14.229 13.68 13.8963 13.4025 13.8281C13.1549 13.7641 13.0567 13.7683 12.8134 13.8408Z" fill="#02317E"/>
<path d="M20.6762 13.8409C20.2279 13.9816 19.9419 14.4124 19.9078 15.0138C19.8608 15.837 20.292 16.3787 20.9878 16.3787C21.4318 16.3744 21.7605 16.1526 21.9526 15.7176C22.0934 15.4062 22.0934 14.7878 21.9526 14.4679C21.8117 14.1565 21.5001 13.8835 21.2183 13.8238C20.9579 13.7684 20.9067 13.7684 20.6762 13.8409Z" fill="#02317E"/>
</svg>
