<?xml version="1.0" encoding="utf-8"?>
<!-- Generator: Adobe Illustrator 24.2.3, SVG Export Plug-In . SVG Version: 6.00 Build 0)  -->
<svg version="1.1" id="Layer_1" xmlns="http://www.w3.org/2000/svg" xmlns:xlink="http://www.w3.org/1999/xlink" x="0px" y="0px"
	 width="1357px" height="1373.5px" viewBox="0 0 1357 1373.5" style="enable-background:new 0 0 1357 1373.5;" xml:space="preserve"
	>
<style type="text/css">
	.st0{fill:none;stroke:#FFFFFF;stroke-width:2;stroke-miterlimit:10;}
</style>
<desc>Created with Sketch.</desc>
<g id="_x31_440px-IEG-2019">
	<g id="_x5B_1440px---IEG_x5D_--1.0---Homepage" transform="translate(-163.000000, -405.000000)">
		<g id="Logo-BG-left-1" transform="translate(163.000000, 405.000000)">
			<path id="Stroke-1-Copy-3" class="st0" d="M973,881.8c0,265.3-215.8,481.2-481.5,481.2S10,1147.1,10,881.8
				c0-53.4,43.1-96.6,96.3-96.6s96.3,43.2,96.3,96.6c0,160.2,129.2,289.8,288.9,289.8S780.4,1042,780.4,881.8V492
				c0-52.8,43.1-96,96.3-96c53.3-0.6,96.3,42.6,96.3,96V881.8z"/>
			<path id="Stroke-1-Copy" class="st0" d="M400,482.3C400,221.3,612,9,873,9s473,212.3,473,473.3c0,52.5-42.3,95-94.6,95
				c-52.3,0-94.6-42.5-94.6-95c0-157.6-126.9-285-283.8-285s-283.8,127.4-283.8,285v383.3c0,52-42.3,94.4-94.6,94.4
				c-52.3,0.6-94.6-41.9-94.6-94.4L400,482.3L400,482.3z"/>
		</g>
	</g>
</g>
</svg>
