<?xml version="1.0" encoding="utf-8"?>
<!-- Generator: Adobe Illustrator 24.2.3, SVG Export Plug-In . SVG Version: 6.00 Build 0)  -->
<svg version="1.1" id="Layer_1" xmlns="http://www.w3.org/2000/svg" xmlns:xlink="http://www.w3.org/1999/xlink" x="0px" y="0px"
	 width="601px" height="538.4px" viewBox="0 0 601 538.4" enable-background="new 0 0 601 538.4" xml:space="preserve">
<path fill="#62626B" d="M16.9,340.3c-1.7-1.7-4-2.7-6.4-2.6c-2.5-0.1-5,0.9-6.8,2.6C2,342,1,344.3,1,346.8v75.1
	c-0.1,5,3.9,9.1,8.8,9.2c0.1,0,0.2,0,0.4,0c2.4,0,4.7-0.9,6.5-2.6l0,0c1.8-1.7,2.9-4.1,2.8-6.6v-75.1
	C19.6,344.3,18.7,342,16.9,340.3z"/>
<path fill="#62626B" d="M89.1,366.9L89.1,366.9c-3.6-5.5-10-8.3-19.2-8.3c-4.5,0-9,1.2-12.8,3.5c-2.7,1.6-5.1,3.5-7.3,5.7
	c-0.2-2-1.1-3.9-2.5-5.3c-3.6-3.5-9.3-3.5-12.8,0c-1.7,1.7-2.6,4-2.5,6.5V422c-0.1,2.4,0.9,4.7,2.5,6.5c3.6,3.5,9.3,3.5,12.8,0
	c1.7-1.7,2.6-4,2.5-6.5v-32.9c-0.1-3.7,1.3-7.3,3.9-10c2.6-2.6,6.2-4,10.8-4c4.4,0,7.4,1.2,9.2,3.5s2.7,6,2.7,10.4V422
	c-0.1,2.4,0.9,4.7,2.5,6.5c3.6,3.5,9.3,3.5,12.8,0c1.7-1.7,2.6-4,2.5-6.5v-32.9C94.3,379.7,92.6,372.3,89.1,366.9z"/>
<path fill="#62626B" d="M139.7,414.1c-1.1,0-2.2,0.2-3.3,0.7c-0.8,0.3-1.6,0.4-2.5,0.5c-1.1,0.1-2.2-0.3-3.1-0.9
	c-0.8-0.8-1.1-1.9-1-3v-33.6h7.9c2.2,0.1,4.4-0.8,6-2.3c1.6-1.5,2.5-3.6,2.4-5.8c0.1-4.5-3.5-8.3-8-8.4c-0.1,0-0.2,0-0.4,0h-7.9v-7
	c0-2.5-0.9-8.4-2.5-10.1c-1.6-1.7-3.9-2.7-6.3-2.6c-2.4-0.1-4.8,0.9-6.5,2.6c-1.7,1.7-2.6,7.6-2.6,10.1v7h-4.7
	c-2.2-0.1-4.4,0.8-6,2.3c-1.6,1.5-2.5,3.6-2.4,5.8c-0.1,4.6,3.5,8.3,8.1,8.4c0.1,0,0.2,0,0.3,0h4.7V412c0,7.8,2,13,6,15.5
	c4.3,2.5,9.1,3.7,14.1,3.6c3.2,0,6.4-0.9,9.2-2.6c2.9-1.8,4.4-4.1,4.4-6.9c0.1-1.9-0.6-3.8-1.8-5.4
	C142.9,414.9,141.4,414.1,139.7,414.1z"/>
<path fill="#62626B" d="M212.7,374.9c-3-5.3-7.3-9.7-12.4-12.9c-5-3.1-10.8-4.8-16.6-4.8c-5.9,0-11.7,1.6-16.8,4.6
	c-5.3,3.2-9.7,7.8-12.7,13.3c-3.3,6.1-4.9,13-4.8,20c-0.1,6.4,1.5,12.8,4.5,18.4c3,5.4,7.5,9.9,12.9,12.9c9.9,5.1,21.4,6.1,32,2.5
	c3.6-1.1,7-2.9,10-5.2c2.7-2.1,4.1-4.6,4.1-7.3c0-2-0.8-4-2.3-5.4c-2.6-2.6-6.3-3.1-10.5-1l-2.4,1.5c-1.4,0.8-2.9,1.5-4.4,1.9
	c-2.6,0.7-5.2,1-7.9,0.9c-4.3,0-8.4-1.4-11.7-4c-3.1-2.4-5.3-5.9-6.3-9.7h40.9c2.3,0,4.5-0.8,6.2-2.2c1.8-1.5,2.9-3.7,2.9-6
	C217.3,386.3,215.8,380.3,212.7,374.9z M183.6,373.8c3.7,0,7.2,1.2,10,3.6c2.6,1.9,4.3,4.8,4.8,8h-30.9
	C169.5,377.6,174.8,373.8,183.6,373.8L183.6,373.8z"/>
<path fill="#62626B" d="M268.8,361L268.8,361c-2.1-1.7-4.6-2.5-7.3-2.5c-4.3,0-8.5,1-12.4,2.9c-2.7,1.3-5,3.2-6.9,5.4
	c-0.3-1.7-1.1-3.2-2.3-4.4c-3.6-3.5-9.3-3.5-12.8,0c-1.7,1.7-2.6,4.1-2.5,6.5V422c-0.1,2.4,0.9,4.7,2.5,6.5c3.6,3.5,9.3,3.5,12.8,0
	c1.7-1.7,2.6-4,2.5-6.5v-30.5c-0.1-3.2,0.6-6.5,1.9-9.4c1-2.3,2.6-4.3,4.6-5.7c1.7-1.2,3.7-1.8,5.7-1.8c0.9,0,1.7,0.1,2.6,0.3
	l1.6,0.5c4.5,1.6,7.9,1.2,10.5-1.4c1.6-1.6,2.4-3.9,2.4-6.9C271.8,364.7,270.7,362.5,268.8,361z"/>
<path fill="#62626B" d="M350.9,382.6L350.9,382.6c-1.7-1.7-3.9-2.6-6.3-2.6h-20.8c-2.4-0.1-4.7,0.8-6.3,2.5c-3.4,3.5-3.4,9.1,0,12.6
	c1.7,1.6,4,2.5,6.3,2.5h10.7V412c-2,0.6-4,1-6.1,1.3c-2.4,0.4-4.9,0.6-7.4,0.6c-5,0-10-1.3-14.3-3.9c-13.9-8.4-18.4-26.5-10-40.4
	c2.5-4.1,5.9-7.6,10-10c4.3-2.6,9.2-4,14.3-3.9c4.7,0,9.4,1,13.7,2.8c4.4,2,8.1,1.3,10.7-1.6c1.6-1.7,2.4-4,2.4-6.3
	c0-3.1-1.7-5.9-4.4-7.3c-6.3-3.5-13.8-5.2-22.3-5.2c-16.8,0-32.4,8.8-41,23.3c-8.5,14.5-8.5,32.4,0,46.9c8.6,14.5,24.2,23.3,41,23.3
	c9.8,0.1,19.5-2.7,27.8-7.9c2.8-1.6,4.6-4.6,4.5-7.9v-26.8C353.5,386.6,352.6,384.3,350.9,382.6z"/>
<path fill="#62626B" d="M405.9,361L405.9,361c-2.1-1.7-4.6-2.5-7.3-2.5c-4.3,0-8.5,1-12.4,2.9c-2.7,1.3-5,3.2-6.9,5.4
	c-0.3-1.7-1.1-3.2-2.3-4.4c-3.6-3.5-9.3-3.5-12.8,0c-1.7,1.7-2.6,4-2.5,6.5V422c-0.1,2.4,0.9,4.7,2.5,6.5c3.6,3.5,9.3,3.5,12.8,0
	c1.7-1.7,2.6-4,2.5-6.5v-30.5c-0.1-3.2,0.6-6.5,1.9-9.4c1-2.3,2.6-4.3,4.7-5.7c1.7-1.2,3.7-1.8,5.8-1.8c0.9,0,1.7,0.1,2.6,0.3
	l1.6,0.5c4.5,1.6,7.9,1.2,10.5-1.4c1.6-1.6,2.4-3.9,2.4-6.9C409,364.7,407.8,362.5,405.9,361z"/>
<path fill="#62626B" d="M470.9,374.9c-3-5.3-7.3-9.7-12.4-12.9c-5-3.1-10.8-4.8-16.7-4.8c-5.9,0-11.7,1.6-16.8,4.6
	c-5.4,3.2-9.7,7.8-12.7,13.3c-3.3,6.1-4.9,13-4.8,20c-0.1,6.4,1.4,12.7,4.5,18.4c3,5.4,7.5,9.9,12.9,12.9c9.9,5.1,21.4,6.1,32,2.5
	c3.6-1.1,7-2.9,10-5.2c2.7-2.1,4.1-4.6,4.1-7.3c0-2-0.8-4-2.3-5.4c-2.6-2.6-6.3-3.1-10.5-1c-0.4,0.3-1.2,0.8-2.4,1.5
	c-1.4,0.8-2.9,1.5-4.4,1.9c-2.6,0.7-5.2,1-7.8,0.9c-4.3,0-8.4-1.4-11.7-4c-3.1-2.4-5.3-5.9-6.3-9.7h40.9c2.3,0,4.5-0.8,6.2-2.2
	c1.8-1.5,2.9-3.7,2.9-6C475.5,386.3,474,380.2,470.9,374.9z M441.8,373.8c3.7,0,7.2,1.2,10,3.6c2.6,1.9,4.3,4.8,4.8,8h-30.9
	C427.7,377.6,433,373.8,441.8,373.8L441.8,373.8z"/>
<path fill="#62626B" d="M546.2,361.6c-1.6-1.6-3.9-2.5-6.2-2.5c-4-0.1-7.5,2.7-8.4,6.6c-2.3-1.8-4.8-3.2-7.5-4.3
	c-3.7-1.5-7.7-2.3-11.7-2.3c-5.7,0-11.2,1.6-16,4.6c-4.9,3.2-8.8,7.6-11.4,12.9c-2.8,5.8-4.2,12.1-4.1,18.5
	c-0.1,6.4,1.3,12.7,4.2,18.5c2.6,5.2,6.6,9.6,11.5,12.8c4.9,3.1,10.5,4.7,16.3,4.6c4.1,0,8.1-0.9,11.7-2.7c2.6-1.2,5-2.8,7.1-4.7
	c0.4,1.4,1.1,2.6,2.1,3.7c1.6,1.7,3.9,2.6,6.2,2.5c2.3,0.1,4.6-0.9,6.3-2.5c1.6-1.7,2.5-3.9,2.5-6.3v-52.9
	C548.8,365.6,547.9,363.3,546.2,361.6z M531.9,395.1c0,5.7-1.6,10.5-4.8,14.2c-3.1,3.6-7.6,5.7-12.4,5.5c-4.7,0.2-9.3-1.9-12.3-5.5
	c-3.2-3.7-4.8-8.5-4.8-14.2c-0.2-5.2,1.5-10.2,4.8-14.2c5.9-6.8,16.2-7.5,23-1.6c0.6,0.5,1.1,1,1.6,1.6
	C530.4,384.9,532.1,389.9,531.9,395.1z"/>
<path fill="#62626B" d="M594.5,414.1c-1.1,0-2.3,0.2-3.3,0.7c-0.8,0.3-1.6,0.4-2.5,0.5c-1.1,0.1-2.2-0.3-3-0.9c-0.8-0.8-1.1-1.9-1-3
	v-33.6h7.9c2.2,0.1,4.4-0.8,6-2.3c1.6-1.5,2.5-3.6,2.4-5.8c0.1-4.6-3.5-8.3-8.1-8.4c-0.1,0-0.2,0-0.4,0h-7.9v-10.7
	c0.1-2.4-0.9-4.7-2.5-6.5c-1.6-1.7-3.9-2.7-6.3-2.6c-4.9-0.1-9,3.8-9.1,8.8c0,0.1,0,0.2,0,0.3v10.7h-4.7c-2.2-0.1-4.4,0.8-6,2.3
	c-1.6,1.5-2.5,3.6-2.4,5.8c-0.1,4.6,3.5,8.3,8.1,8.4c0.1,0,0.2,0,0.4,0h4.7V412c0,7.8,2,13,6,15.5c4.3,2.5,9.1,3.7,14.1,3.6
	c3.2,0,6.4-0.9,9.2-2.6c2.9-1.8,4.4-4.1,4.4-6.9c0.1-1.9-0.6-3.8-1.8-5.4C597.7,414.9,596.2,414.1,594.5,414.1z"/>
<g>
	<path fill="#90909C" d="M37.9,484.6v6.6h21.4v18.5h9.1v6.8H42.2c4.1,6.4,13,11.5,26.9,15.3l-4,6.5c-16-5.4-26.1-12.7-30.2-21.8
		h-0.6c-1.3,2.9-3,5.7-5,8.2C24,530.6,15.6,535.1,4,538.3l-4-6.3c11.6-3.2,19.5-7.2,23.7-12.1c0.8-1.1,1.6-2.2,2.2-3.4H0.1v-6.8h8.9
		v-18.5h21.5v-6.6H37.9z M17.7,473.4v-6.2H25v6.2h18.5v-6.2h7.3v6.2h17.2v6.7H50.8v6.7h-7.3v-6.7H25v6.7h-7.3v-6.7H0.5v-6.7H17.7z
		 M28.9,509.7c1-3.4,1.5-6.8,1.7-10.3V498H16.1v11.8H28.9z M52.2,509.7V498H37.9v1.5c-0.1,3.5-0.6,6.9-1.4,10.3H52.2z"/>
	<path fill="#90909C" d="M94.1,472.4v-5.3h7.2v5.3h18.6v-5.3h7.2v5.3h17.4v6.5h-17.4v4.8h-7.2v-4.8h-18.6v4.8h-7.2v-4.8H76.7v-6.5
		L94.1,472.4z M107.1,517.4v-4.3h7.1v4.3h29.4v6.5h-29.4v14h-7.1v-14H77.6v-6.6L107.1,517.4z M114.5,487.2h26.2v6.4h-15.5l5,2
		c-0.8,1.9-1.8,3.7-2.7,5.4c4.9,2.2,9.7,4.8,14.1,7.9l-3.7,5.7c-4.2-3.3-8.8-6.2-13.6-8.7c-2.1,2.8-4.5,5.4-7.3,7.6l-5.2-4.6
		c5.3-4,9.4-9.3,11.8-15.4H96l4.8,1.9c-0.9,1.8-1.9,3.6-2.8,5.2c4.1,1.8,8,4.1,11.7,6.6l-3.7,5.7c-3.5-2.9-7.3-5.4-11.4-7.4
		c-2.8,3.6-6.2,6.7-10,9.3l-5.2-4.4c6.5-4.1,11.6-10,14.8-17H79.9v-6.4h27.3c-0.9-1.8-1.8-3.4-2.7-4.8l7.3-1.2
		C112.8,483,113.7,485.1,114.5,487.2L114.5,487.2z"/>
	<path fill="#90909C" d="M218.9,537.6h-7.3v-2.9h-49.5v2.9h-7.3v-67.4h64.1V537.6z M211.6,527.9v-50.8h-49.5v50.9L211.6,527.9z
		 M205.7,482.3v6.6h-15.2v9.4h12.8v6.4h-12.8v10.6h7.8c-1.2-2.8-2.7-5.4-4.4-7.9l5.7-1.8c1.8,2.5,3.3,5.1,4.6,7.9l-4.1,1.8h7.8v6.6
		h-42.1v-6.6h17.3v-10.6h-12.8v-6.4h12.8v-9.4h-15.3v-6.6L205.7,482.3z"/>
	<path fill="#90909C" d="M255.1,469.9v5.7c-2.3,6.6-5,13.4-8,20.7c4.4,7,6.7,13,7,18.3c0,3.5-0.8,6.1-2.2,7.6
		c-2.1,1.9-5.8,2.9-11.1,3l-2.2-7c1.2,0.2,2.5,0.3,3.7,0.4c1.9-0.2,3.1-0.5,3.7-1.1c0.7-0.8,1.1-1.8,1-2.9c0-5.1-2.4-10.8-7.1-17.2
		c3.1-6.7,5.8-13.7,8.1-20.7h-10.4v61.1h-7v-67.9H255.1z M268.5,503.8c-2.1,9.7-5.6,19-10.5,27.7l-6-3.8c4.6-7.9,8-16.4,9.9-25.3
		L268.5,503.8z M265.1,537.4l-1.5-6.9c2.2,0.3,4.4,0.5,6.6,0.5c1.8,0,2.7-1.1,2.7-3.1v-31.3h-18.3v-7h43.6v7h-18.1v33.1
		c0,5-2.5,7.6-7.5,7.6L265.1,537.4z M294.3,471.3v6.9h-35v-6.9H294.3z M298.8,528.6l-6.4,2.8c-2.3-9.5-5.1-18.8-8.4-28l6.3-2.1
		C293.7,510.2,296.5,519.3,298.8,528.6L298.8,528.6z"/>
	<path fill="#90909C" d="M318.4,473.9v-6h6.9v6h7.6v6.4h-7.6v6.3h3.2c4-5,7.5-10.5,10.3-16.3l5.7,3c-2.4,4.6-5,9-7.9,13.3h4.3v6.6
		h-9.4c-1.7,2-3.3,3.7-5,5.4h11.9v5.2c-2.7,3.2-5.7,6.2-8.9,8.9v2.4c4.4-0.6,8.7-1.5,13-2.7v6.7c-4.3,1.1-8.6,1.9-13,2.5v7.5
		c0,5.1-2.6,7.7-7.7,7.7h-7l-1.8-6.5c2,0.3,4.1,0.5,6.2,0.5c2.2,0,3.4-1.2,3.4-3.7v-4.7c-4.8,0.6-10.1,1.2-16,1.7l-1-6.9
		c6.2-0.3,11.8-0.8,16.9-1.3v-4.7c2.6-1.9,5.1-4,7.4-6.3h-10.4c-3.4,2.7-7.1,5.2-10.9,7.3l-4.5-5.1c1.8-1,3.4-2,5.1-3v-5.6h7.6
		c2.1-1.8,4.1-3.6,6-5.4h-17.1v-6.6h12.8v-6.3h-9.2v-6.4H318.4z M344,502.6l-4.3-5.3c4.6-7.5,7.7-17.5,9.4-30.1l7.1,1.2
		c-0.6,3.5-1.2,6.9-1.9,9.9h18.9v6.9h-4.2c-0.5,11.8-2.9,22-7.3,30.5c3.5,6,8.2,11.2,13.7,15.3l-3.7,6.4c-5.6-4.2-10.4-9.4-14-15.3
		c-4.4,6.2-10.1,11.4-16.6,15.4l-4.1-6.7c6.9-3.7,12.7-9.2,16.9-15.8c-2.7-6.1-4.7-12.4-6-18.9C346.7,498.4,345.4,500.6,344,502.6
		L344,502.6z M352.3,485.3c-0.1,0.1-0.1,0.1-0.1,0.2c0.7,7.7,2.5,15.2,5.3,22.4c2.8-7.2,4.4-14.9,4.7-22.6L352.3,485.3z"/>
	<path fill="#90909C" d="M411.7,473.5c-0.7-1.8-1.6-3.6-2.6-5.3l8.5-1.3c0.8,2,1.6,4.1,2.4,6.6h30.5v6.9h-15.9c5.2,4,10,8.3,14.5,13
		l-6.1,4.2c-1.6-1.8-3.4-3.7-5.4-5.7c-12.7,1.1-29,1.9-49,2.6l-1.6-6.2c1.2-0.1,2.4-0.4,3.5-0.9c2.6-1.8,5.6-4,9.2-7h-18.3v-6.9
		L411.7,473.5z M399.4,537.8h-7.3v-40.2h47.4v32.6c0,5-2.7,7.5-8.1,7.5h-7.8l-1.9-7l7.3,0.3c2,0,3-0.8,3-2.4v-3h-32.7L399.4,537.8z
		 M398.7,488.2c12.7-0.5,23.7-1.1,33.2-1.7c-1.5-1.4-3.1-2.7-4.7-4l3.3-2.1h-21.7C405.6,483.2,402.3,485.8,398.7,488.2L398.7,488.2z
		 M432.2,503.7h-32.7v5h32.7L432.2,503.7z M399.4,519.4h32.7v-4.7h-32.7V519.4z"/>
	<path fill="#90909C" d="M461,493.2l-4.2-5.5c6.3-5.7,11.3-12.8,14.4-20.7l6.8,1.5c-0.7,1.8-1.4,3.6-2.3,5.3h14.7c-0.9-2-2-4-3.2-6
		l7.4-1.2c1,2.1,2,4.5,3,7.2h24v6H498v3.9h20.6v5.5H498v3.7h20.6v5.5H498v4H523v6H466v-20.3C464.5,489.8,462.8,491.5,461,493.2z
		 M459,519.8v-6.6h29.8v-3h7.2v3h29.3v6.6h-20.9c5,4,12.3,7.2,21.8,9.6l-3.2,6.4c-12.1-4.1-20.8-9.5-26.1-16h-1v18h-7.2v-18h-1
		c-4.8,6.3-13.4,11.8-25.8,16.3l-3.8-6.3c10.4-3,17.9-6.5,22.3-10.2L459,519.8z M490.9,479.8h-18.2v3.9h18.2L490.9,479.8z
		 M490.9,489.2h-18.2v3.7h18.2L490.9,489.2z M490.9,498.4h-18.2v4h18.2L490.9,498.4z"/>
	<path fill="#90909C" d="M600.1,537.8h-7v-2.9h-49.3v2.9h-6.9v-67.7h63.2V537.8z M593.1,528.4v-51.7h-49.3v51.7H593.1z M573.5,488.4
		v-8.5h6.9v8.5h8.9v6.5h-8.9v21.8c0,5-2.4,7.6-7.2,7.6h-8.8l-1.5-6.7c2.6,0.3,5.3,0.5,7.9,0.5c1.7,0,2.6-1.1,2.6-3.1v-18.1
		c-5.5,9.3-13.3,17-22.5,22.5l-3.9-6.4c8.5-4.2,15.8-10.3,21.4-18h-20v-6.5L573.5,488.4z"/>
</g>
<g>
	<path fill="#90909C" d="M300.5,0C229,0,170.9,58.1,170.9,129.6S229,259.2,300.5,259.2s129.6-58.1,129.6-129.6S372,0,300.5,0z
		 M300.5,249.6c-66.3,0-120-53.7-120-120S234.2,9.5,300.5,9.5s120,53.7,120,120S366.8,249.6,300.5,249.6z"/>
	<path fill="#4DBFA8" d="M300.5,22.7c-59.1,0-106.9,47.9-106.9,106.9s47.9,106.9,106.9,106.9s106.9-47.9,106.9-106.9
		S359.6,22.7,300.5,22.7z M328,148.1c0,25.3-20.5,45.8-45.8,45.8c-25.3,0-45.8-20.5-45.8-45.8c0-5.1,4.1-9.2,9.2-9.2
		c5.1,0,9.2,4.1,9.2,9.2c0.3,15.2,12.9,27.3,28,27c14.8-0.3,26.7-12.2,27-27v-36.9c0.2-5.1,4.4-9,9.5-8.9c4.8,0.2,8.7,4,8.9,8.9
		L328,148.1L328,148.1z M355.5,120.3L355.5,120.3c-5.1,0-9.2-4.1-9.2-9.1l0,0c0.3-15.2-11.8-27.8-27-28c-15.2-0.3-27.8,11.8-28,27
		c0,0.4,0,0.7,0,1.1v37c0,5.1-4.1,9.2-9.2,9.2s-9.2-4.1-9.2-9.2v-37c0.4-25.3,21.2-45.5,46.5-45.1c24.8,0.4,44.8,20.4,45.1,45.1
		C364.6,116.2,360.5,120.3,355.5,120.3z"/>
	<g>
		<path fill="#FFFFFF" d="M282.2,193.9c25.3,0,45.8-20.5,45.8-45.8v-36.9c-0.2-4.8-4-8.7-8.9-8.9c-5.1-0.2-9.3,3.8-9.5,8.9v36.9
			c-0.3,14.8-12.2,26.7-27,27c-15.2,0.3-27.8-11.8-28-27c0-5.1-4.1-9.2-9.2-9.2c-5.1,0-9.2,4.1-9.2,9.2
			C236.3,173.4,256.9,193.9,282.2,193.9z"/>
		<path fill="#FFFFFF" d="M319.5,66c-25.3-0.4-46.1,19.8-46.5,45.1v37c0,5.1,4.1,9.2,9.2,9.2c5.1,0,9.2-4.1,9.2-9.2v-37
			c0-0.4,0-0.7,0-1.1c0.3-15.2,12.9-27.3,28-27c15.2,0.3,27.3,12.9,27,28l0,0c0,5.1,4.1,9.2,9.2,9.1l0,0c5,0,9.1-4.1,9.2-9.1
			C364.3,86.4,344.3,66.4,319.5,66z"/>
	</g>
</g>
</svg>
