<?xml version="1.0" encoding="utf-8"?>
<!-- Generator: Adobe Illustrator 24.2.3, SVG Export Plug-In . SVG Version: 6.00 Build 0)  -->
<svg version="1.1" id="Layer_1" xmlns="http://www.w3.org/2000/svg" xmlns:xlink="http://www.w3.org/1999/xlink" x="0px" y="0px"
	 width="421.3px" height="91.8px" viewBox="0 0 421.3 91.8" style="enable-background:new 0 0 421.3 91.8;" xml:space="preserve">
<style type="text/css">
	.st0{fill:#FFFFFF;}
	.st1{fill:#90909C;}
	.st2{fill:#64646C;}
	.st3{fill:#4DBFA8;}
</style>
<g>
	<circle class="st0" cx="45.9" cy="45.9" r="45.9"/>
	<path class="st1" d="M45.9,0C20.6,0,0,20.6,0,45.9s20.6,45.9,45.9,45.9s45.9-20.6,45.9-45.9S71.3,0,45.9,0z M45.9,88.5
		c-23.5,0-42.6-19.1-42.6-42.6S22.4,3.3,45.9,3.3s42.6,19.1,42.6,42.6S69.4,88.5,45.9,88.5z"/>
	<path class="st2" d="M122.7,8.1c-0.9-0.9-2-1.4-3.3-1.3c-1.3,0-2.5,0.4-3.5,1.3c-0.9,0.9-1.4,2.1-1.4,3.4v38.4
		c-0.1,2.5,1.9,4.6,4.5,4.7c0.1,0,0.2,0,0.2,0c1.2,0,2.4-0.5,3.3-1.3l0,0c0.9-0.9,1.5-2.1,1.4-3.4V11.5
		C124.1,10.2,123.6,9,122.7,8.1z"/>
	<path class="st2" d="M159.6,21.8L159.6,21.8c-1.8-2.8-5.1-4.3-9.8-4.3c-2.3,0-4.6,0.6-6.6,1.8c-1.4,0.8-2.6,1.8-3.7,2.9
		c-0.1-1-0.5-2-1.3-2.7c-1.8-1.8-4.7-1.8-6.6,0c-0.9,0.9-1.3,2.1-1.3,3.3V50c0,1.2,0.4,2.4,1.3,3.3c1.8,1.8,4.7,1.8,6.6,0
		c0.9-0.9,1.3-2.1,1.3-3.3V33.1c-0.1-1.9,0.7-3.8,2-5.1s3.2-2,5.5-2c2.2,0,3.8,0.6,4.7,1.8s1.4,3.1,1.4,5.3v16.8
		c0,1.2,0.4,2.4,1.3,3.3c1.8,1.8,4.7,1.8,6.6,0c0.9-0.9,1.3-2.1,1.3-3.3V33.1C162.3,28.3,161.4,24.5,159.6,21.8z"/>
	<path class="st2" d="M185.5,45.9c-0.6,0-1.2,0.1-1.7,0.4c-0.4,0.1-0.8,0.2-1.3,0.2c-0.6,0-1.1-0.1-1.6-0.5c-0.4-0.4-0.6-1-0.5-1.5
		V27.3h4c1.1,0,2.2-0.4,3.1-1.2c0.8-0.8,1.3-1.9,1.2-3c0.1-2.3-1.8-4.3-4.1-4.3c-0.1,0-0.1,0-0.2,0h-4v-3.6c0-1.3-0.4-4.3-1.3-5.2
		c-0.8-0.9-2-1.4-3.2-1.3c-1.2,0-2.4,0.5-3.3,1.3c-0.9,0.9-1.3,3.9-1.3,5.2v3.6h-2.4c-1.1,0-2.2,0.4-3.1,1.2c-0.8,0.8-1.3,1.9-1.2,3
		c-0.1,2.3,1.8,4.3,4.1,4.3c0.1,0,0.1,0,0.2,0h2.4v17.5c0,4,1,6.7,3.1,7.9c2,1.2,4.4,1.8,7.2,1.8c1.7,0,3.3-0.4,4.7-1.3
		c1.5-0.9,2.2-2.1,2.2-3.5c0-1-0.3-2-0.9-2.7C187.1,46.3,186.3,45.9,185.5,45.9z"/>
	<path class="st2" d="M222.8,25.8c-1.5-2.7-3.7-5-6.4-6.6c-2.6-1.6-5.5-2.5-8.5-2.5s-6,0.8-8.6,2.3c-2.7,1.6-5,4-6.5,6.8
		c-1.7,3.2-2.5,6.7-2.4,10.2c0,3.3,0.7,6.5,2.3,9.4c1.5,2.8,3.8,5.1,6.6,6.6c5.1,2.6,11,3.1,16.4,1.3c1.8-0.6,3.6-1.5,5.1-2.7
		c1.4-1.1,2.1-2.3,2.1-3.7c0-1-0.4-2-1.2-2.7c-1.3-1.3-3.2-1.6-5.4-0.5c-0.2,0.1-0.6,0.4-1.2,0.8c-0.7,0.4-1.5,0.7-2.3,1
		c-1.3,0.4-2.7,0.5-4,0.5c-2.2,0-4.3-0.7-6-2.1c-1.6-1.2-2.7-3-3.2-5h20.9c1.2,0,2.3-0.4,3.2-1.1c0.9-0.7,1.5-1.9,1.5-3
		C225.2,31.7,224.4,28.6,222.8,25.8z M207.9,25.3c1.9,0,3.7,0.6,5.1,1.8c1.3,1,2.2,2.4,2.4,4.1h-15.8
		C200.7,27.2,203.4,25.3,207.9,25.3L207.9,25.3z"/>
	<path class="st2" d="M251.5,18.8L251.5,18.8c-1-0.9-2.4-1.3-3.7-1.3c-2.2,0-4.4,0.5-6.3,1.5c-1.4,0.7-2.6,1.6-3.5,2.8
		c-0.2-0.9-0.6-1.6-1.2-2.3c-1.8-1.8-4.7-1.8-6.6,0c-0.9,0.9-1.3,2.1-1.3,3.3V50c0,1.2,0.4,2.4,1.3,3.3c1.8,1.8,4.7,1.8,6.6,0
		c0.9-0.9,1.3-2.1,1.3-3.3V34.4c0-1.7,0.3-3.3,1-4.8c0.5-1.2,1.3-2.2,2.4-2.9c0.9-0.6,1.9-1,2.9-1c0.4,0,0.9,0.1,1.3,0.2
		c0.4,0.1,0.7,0.2,0.8,0.2c2.3,0.8,4,0.6,5.4-0.7c0.8-0.8,1.2-2,1.2-3.5C253.1,20.6,252.5,19.5,251.5,18.8z"/>
	<path class="st2" d="M293.5,29.8L293.5,29.8c-0.8-0.9-2-1.4-3.2-1.3h-10.6c-1.2,0-2.4,0.4-3.2,1.3c-1.8,1.8-1.8,4.7,0,6.5
		c0.9,0.8,2,1.3,3.2,1.3h5.5v7.3c-1,0.3-2.1,0.5-3.1,0.7c-1.2,0.2-2.5,0.3-3.8,0.3c-2.6,0-5.1-0.7-7.3-2c-7.1-4.3-9.4-13.5-5.1-20.7
		c1.3-2.1,3-3.9,5.1-5.1c2.2-1.3,4.7-2,7.3-2c2.4,0,4.8,0.5,7,1.4c2.3,1,4.1,0.7,5.5-0.8c0.8-0.9,1.2-2,1.2-3.2c0-1.6-0.9-3-2.3-3.7
		c-3.2-1.8-7.1-2.7-11.4-2.7s-8.5,1.1-12.2,3.2s-6.7,5.1-8.8,8.7c-4.4,7.4-4.4,16.6,0,24s12.4,11.9,21,11.9c5,0,10-1.4,14.2-4.1
		c1.5-0.8,2.3-2.4,2.3-4V33C294.8,31.8,294.4,30.7,293.5,29.8z"/>
	<path class="st2" d="M321.6,18.8L321.6,18.8c-1-0.9-2.4-1.3-3.7-1.3c-2.2,0-4.4,0.5-6.3,1.5c-1.4,0.7-2.6,1.6-3.5,2.8
		c-0.2-0.9-0.6-1.6-1.2-2.3c-1.8-1.8-4.7-1.8-6.6,0c-0.9,0.9-1.3,2.1-1.3,3.3V50c0,1.2,0.4,2.4,1.3,3.3c1.8,1.8,4.7,1.8,6.6,0
		c0.9-0.9,1.3-2.1,1.3-3.3V34.4c0-1.7,0.3-3.3,1-4.8c0.5-1.2,1.3-2.2,2.4-2.9c0.9-0.6,1.9-1,2.9-1c0.4,0,0.9,0.1,1.3,0.2
		c0.4,0.1,0.7,0.2,0.8,0.2c2.3,0.8,4,0.6,5.4-0.7c0.8-0.8,1.2-2,1.2-3.5C323.2,20.6,322.6,19.5,321.6,18.8z"/>
	<path class="st2" d="M354.9,25.8c-1.5-2.7-3.7-5-6.4-6.6c-2.6-1.6-5.5-2.5-8.5-2.5s-6,0.8-8.6,2.3c-2.7,1.6-5,4-6.5,6.8
		c-1.7,3.2-2.5,6.7-2.4,10.2c0,3.3,0.7,6.5,2.3,9.4c1.5,2.8,3.8,5.1,6.6,6.6c5.1,2.6,11,3.1,16.4,1.3c1.8-0.6,3.6-1.5,5.1-2.7
		c1.4-1.1,2.1-2.3,2.1-3.7c0-1-0.4-2-1.2-2.7c-1.3-1.3-3.2-1.6-5.4-0.5c-0.2,0.1-0.6,0.4-1.2,0.8c-0.7,0.4-1.5,0.7-2.3,1
		c-1.3,0.4-2.7,0.5-4,0.5c-2.2,0-4.3-0.7-6-2.1c-1.6-1.2-2.7-3-3.2-5h20.9c1.2,0,2.3-0.4,3.2-1.1c0.9-0.7,1.5-1.9,1.5-3
		C357.3,31.7,356.5,28.6,354.9,25.8z M340,25.3c1.9,0,3.7,0.6,5.1,1.8c1.3,1,2.2,2.4,2.4,4.1h-15.8C332.8,27.2,335.5,25.3,340,25.3
		L340,25.3z"/>
	<path class="st2" d="M393.4,19.1c-0.8-0.8-2-1.3-3.2-1.3c-2.1,0-3.9,1.4-4.3,3.4c-1.2-0.9-2.5-1.6-3.8-2.2c-1.9-0.8-3.9-1.2-6-1.2
		c-2.9,0-5.7,0.8-8.2,2.4s-4.5,3.9-5.8,6.6c-1.4,2.9-2.2,6.2-2.1,9.5c-0.1,3.3,0.7,6.5,2.1,9.4c1.3,2.7,3.4,4.9,5.9,6.5
		s5.4,2.4,8.3,2.4c2.1,0,4.1-0.5,6-1.4c1.3-0.6,2.6-1.4,3.6-2.4c0.2,0.7,0.6,1.4,1.1,1.9c0.8,0.8,2,1.3,3.2,1.3s2.4-0.4,3.2-1.3
		c0.8-0.9,1.3-2,1.3-3.2V22.3C394.7,21.1,394.2,19.9,393.4,19.1z M386.1,36.2c0,2.9-0.8,5.4-2.5,7.3c-3.1,3.5-8.4,3.8-11.9,0.7
		c-0.2-0.2-0.5-0.4-0.7-0.7c-1.6-1.9-2.4-4.3-2.4-7.3c0-2.9,0.8-5.4,2.5-7.3c3-3.5,8.3-3.8,11.8-0.8c0.3,0.2,0.6,0.5,0.8,0.8
		C385.2,30.8,386.1,33.3,386.1,36.2L386.1,36.2L386.1,36.2z"/>
	<path class="st2" d="M418.1,45.9c-0.6,0-1.2,0.1-1.7,0.4c-0.4,0.1-0.8,0.2-1.3,0.2c-0.6,0-1.1-0.1-1.6-0.5c-0.4-0.4-0.5-1-0.5-1.5
		V27.3h4c1.1,0,2.2-0.4,3.1-1.2c0.8-0.8,1.3-1.9,1.2-3c0.1-2.3-1.8-4.3-4.1-4.3c-0.1,0-0.1,0-0.2,0h-4v-5.4c0-1.2-0.4-2.4-1.3-3.3
		c-0.8-0.9-2-1.4-3.2-1.3c-2.5,0-4.6,2-4.6,4.5c0,0.1,0,0.1,0,0.2v5.4h-2.4c-1.1,0-2.2,0.4-3.1,1.2c-0.8,0.8-1.3,1.9-1.2,3
		c-0.1,2.3,1.8,4.3,4.1,4.3c0.1,0,0.1,0,0.2,0h2.4v17.5c0,4,1,6.7,3.1,7.9c2,1.2,4.4,1.8,7.2,1.8c1.7,0,3.3-0.4,4.7-1.3
		c1.5-0.9,2.2-2.1,2.2-3.5c0-1-0.3-2-0.9-2.7C419.8,46.3,419,45.9,418.1,45.9z"/>
	<path class="st1" d="M126.6,83.8c0.2,0.2,0.4,0.5,0.4,0.9c0,0.3-0.1,0.6-0.4,0.9c-0.2,0.2-0.6,0.3-0.9,0.3h-9.2
		c-0.7,0-1.3-0.6-1.3-1.3l0,0v-16c0-0.7,0.6-1.3,1.3-1.3l0,0h9.2c0.3,0,0.7,0.1,0.9,0.3c0.2,0.2,0.4,0.6,0.4,0.9s-0.1,0.6-0.4,0.9
		c-0.2,0.2-0.6,0.3-0.9,0.3h-7.8v5.4h6.7c0.3,0,0.7,0.1,0.9,0.3c0.2,0.2,0.4,0.5,0.4,0.9c0,0.3-0.1,0.7-0.4,0.9
		c-0.3,0.2-0.6,0.3-0.9,0.3h-6.7v5.8h7.8C126,83.4,126.4,83.6,126.6,83.8z"/>
	<path class="st1" d="M146.8,68.6c1.2,0.8,2.1,2,2.7,3.3c1.2,3,1.2,6.4,0,9.4c-0.6,1.3-1.5,2.5-2.7,3.3c-1.3,0.8-2.7,1.3-4.3,1.2
		H136c-0.7,0-1.3-0.6-1.3-1.3l0,0v-16c0-0.7,0.6-1.3,1.3-1.3l0,0h6.5C144.1,67.3,145.6,67.8,146.8,68.6z M146.3,81.5
		c1.8-3,1.8-6.8,0-9.8c-0.9-1.3-2.3-1.9-4-1.9h-4.9v13.6h4.9C144.1,83.4,145.4,82.8,146.3,81.5L146.3,81.5z"/>
	<path class="st1" d="M172.2,67.7c0.2,0.2,0.3,0.6,0.3,0.9v10.1c0,1.3-0.3,2.6-0.9,3.7c-0.6,1.1-1.5,2-2.5,2.6c-1.1,0.6-2.4,1-3.7,1
		s-2.6-0.3-3.7-1c-1.1-0.6-2-1.5-2.6-2.6c-0.6-1.2-0.9-2.4-0.9-3.7V68.6c0-0.3,0.1-0.7,0.4-0.9c0.3-0.2,0.6-0.4,1-0.4
		c0.3,0,0.7,0.1,0.9,0.4c0.2,0.2,0.4,0.6,0.4,0.9v10.1c0,0.9,0.2,1.7,0.6,2.5c0.4,0.7,1,1.3,1.7,1.7c0.7,0.4,1.5,0.6,2.3,0.6
		s1.6-0.2,2.3-0.6s1.3-1,1.7-1.7s0.7-1.6,0.6-2.5V68.6c0-0.3,0.1-0.7,0.3-0.9c0.2-0.2,0.5-0.4,0.9-0.4
		C171.7,67.3,172,67.5,172.2,67.7z"/>
	<path class="st1" d="M195.2,69.5c0,0.3-0.1,0.6-0.3,0.9s-0.5,0.4-0.9,0.4c-0.2,0-0.5-0.1-0.7-0.2c-1.1-0.6-2.3-0.9-3.5-0.9
		s-2.4,0.3-3.5,0.9c-1,0.6-1.8,1.4-2.4,2.4c-0.6,1.1-0.9,2.3-0.8,3.6c0,1.3,0.3,2.6,0.9,3.8c0.6,1,1.4,1.8,2.4,2.4
		c1.1,0.6,2.2,0.8,3.4,0.8s2.5-0.3,3.5-1c0.2-0.1,0.4-0.2,0.7-0.2c0.4,0,0.7,0.2,0.9,0.4c0.2,0.2,0.3,0.5,0.3,0.8
		c0,0.2-0.1,0.4-0.2,0.6c-0.1,0.2-0.3,0.3-0.5,0.4c-0.7,0.4-1.5,0.7-2.3,0.9c-0.8,0.2-1.7,0.3-2.5,0.3c-1.6,0-3.3-0.4-4.7-1.1
		c-1.4-0.8-2.6-1.9-3.4-3.3c-0.9-1.5-1.3-3.3-1.3-5.1c0-1.7,0.4-3.3,1.2-4.8c0.8-1.4,2-2.6,3.4-3.4c3-1.6,6.6-1.6,9.6,0
		C195,68.6,195.2,69,195.2,69.5z"/>
	<path class="st1" d="M217.1,84.7c0,0.7-0.5,1.2-1.2,1.2l0,0c-0.2,0-0.5-0.1-0.7-0.2c-0.2-0.2-0.4-0.4-0.5-0.6l-1.6-3.9h-8.2
		l-1.6,3.9c-0.1,0.2-0.2,0.5-0.4,0.6s-0.4,0.2-0.7,0.2s-0.6-0.1-0.8-0.3c-0.2-0.2-0.3-0.5-0.3-0.8c0-0.1,0-0.3,0.1-0.4l6.7-16.3
		c0.1-0.3,0.3-0.5,0.5-0.7c0.2-0.1,0.5-0.2,0.8-0.2s0.5,0.1,0.7,0.2s0.4,0.4,0.4,0.6l6.7,16.1C217,84.4,217.1,84.6,217.1,84.7z
		 M205.9,78.8h6.2l-3.1-7.4L205.9,78.8z"/>
	<path class="st1" d="M235.8,67.7c0.2,0.2,0.4,0.6,0.4,0.9s-0.1,0.7-0.4,0.9c-0.3,0.2-0.6,0.3-0.9,0.3h-4.7v14.8
		c0,0.3-0.1,0.7-0.4,0.9c-0.5,0.5-1.4,0.5-1.9,0c-0.3-0.2-0.4-0.6-0.4-0.9V69.8h-4.7c-0.3,0-0.7-0.1-0.9-0.3
		c-0.2-0.2-0.4-0.6-0.4-0.9s0.1-0.6,0.4-0.9c0.2-0.2,0.6-0.3,0.9-0.3h12.1C235.2,67.4,235.6,67.5,235.8,67.7z"/>
	<path class="st1" d="M245.9,85.5c-0.2,0.2-0.6,0.4-0.9,0.4c-0.4,0-0.7-0.1-1-0.4c-0.2-0.2-0.4-0.6-0.4-0.9v-16
		c0-0.3,0.1-0.7,0.4-0.9c0.3-0.2,0.6-0.4,1-0.4c0.3,0,0.7,0.1,0.9,0.4c0.2,0.2,0.4,0.6,0.4,0.9v15.9
		C246.3,84.9,246.2,85.3,245.9,85.5z"/>
	<path class="st1" d="M270.8,81.5c-0.7,1.4-1.8,2.6-3.2,3.4c-2.8,1.7-6.4,1.7-9.2,0c-1.4-0.8-2.5-2-3.2-3.4c-1.5-3-1.5-6.6,0-9.7
		c0.7-1.4,1.8-2.6,3.2-3.4c2.8-1.7,6.4-1.7,9.2,0c1.3,0.8,2.4,2,3.2,3.4C272.4,74.8,272.4,78.4,270.8,81.5z M268.5,73
		c-0.5-1-1.2-1.9-2.2-2.5c-2-1.2-4.5-1.2-6.4,0c-1,0.6-1.7,1.5-2.2,2.5c-0.5,1.1-0.8,2.4-0.8,3.6s0.3,2.5,0.8,3.6
		c0.5,1,1.2,1.9,2.2,2.5c2,1.2,4.5,1.2,6.4,0c1-0.6,1.7-1.5,2.2-2.5C269.5,77.9,269.5,75.3,268.5,73L268.5,73z"/>
	<path class="st1" d="M294.4,67.7c0.2,0.2,0.3,0.5,0.3,0.8v16c0,0.3-0.1,0.7-0.4,0.9c-0.2,0.2-0.6,0.4-0.9,0.4c-0.2,0-0.4,0-0.6-0.1
		s-0.3-0.1-0.4-0.3L282.1,72v12.7c0,0.6-0.5,1.1-1.1,1.2c0,0,0,0-0.1,0c-0.3,0-0.6-0.1-0.8-0.3c-0.2-0.2-0.3-0.5-0.3-0.8V68.6
		c0-0.3,0.1-0.7,0.4-0.9c0.2-0.2,0.6-0.4,0.9-0.4c0.2,0,0.4,0,0.6,0.1s0.3,0.2,0.4,0.3l10.4,13.6V68.5c0-0.6,0.5-1.1,1.1-1.2
		c0,0,0,0,0.1,0C293.9,67.4,294.2,67.5,294.4,67.7z"/>
	<path class="st1" d="M329.9,76.5c0.2,0.2,0.4,0.6,0.4,0.9v5.9c0,0.5-0.2,0.9-0.6,1.1c-1.7,1.1-3.7,1.7-5.6,1.7
		c-1.7,0-3.4-0.4-4.8-1.2c-4.5-2.6-6.1-8.4-3.5-13c0.8-1.5,2.1-2.7,3.5-3.5c1.5-0.9,3.2-1.3,4.8-1.3c0.9,0,1.7,0.1,2.5,0.3
		c0.8,0.2,1.5,0.5,2.2,0.9c0.2,0.1,0.4,0.3,0.5,0.4c0.1,0.2,0.2,0.4,0.2,0.6c0,0.3-0.1,0.7-0.4,0.9c-0.2,0.2-0.5,0.4-0.9,0.4
		c-0.2,0-0.5-0.1-0.7-0.2c-1.1-0.5-2.3-0.8-3.5-0.8c-2.5,0-4.8,1.3-6,3.5c-0.6,1.1-0.9,2.3-0.9,3.5s0.3,2.5,0.9,3.5s1.5,1.9,2.5,2.5
		s2.3,1,3.5,1c0.6,0,1.3-0.1,1.9-0.2s1.2-0.3,1.7-0.6v-4.2h-3.2c-0.3,0-0.7-0.1-0.9-0.4c-0.2-0.2-0.4-0.6-0.4-0.9s0.1-0.7,0.4-0.9
		c0.2-0.2,0.6-0.4,0.9-0.4h4.6C329.4,76.1,329.7,76.3,329.9,76.5z"/>
	<path class="st1" d="M352.8,84.2c0.1,0.2,0.2,0.4,0.2,0.6c0,0.3-0.1,0.6-0.4,0.8c-0.2,0.2-0.6,0.3-0.9,0.3s-0.6-0.1-0.8-0.2
		c-0.6-0.3-1-0.8-1.3-1.4c-0.4-0.9-0.5-2-0.5-3c0.1-0.7-0.2-1.5-0.8-2c-0.6-0.4-1.3-0.7-2.1-0.6h-5.4v5.9c0,0.3-0.1,0.7-0.3,0.9
		c-0.2,0.2-0.5,0.4-0.8,0.4c-0.4,0-0.8-0.1-1-0.4c-0.3-0.2-0.4-0.5-0.4-0.9v-16c0-0.7,0.6-1.3,1.3-1.3l0,0h7.4
		c0.9,0,1.8,0.2,2.6,0.7c0.8,0.5,1.5,1.1,1.9,1.9c0.5,0.8,0.7,1.8,0.7,2.8s-0.3,1.9-0.8,2.8c-0.5,0.8-1.2,1.5-2,1.9
		c0.6,0.3,1.2,0.8,1.5,1.4c0.4,0.6,0.6,1.3,0.6,2.1c0,0.7,0.1,1.4,0.2,2.1c0.1,0.3,0.3,0.6,0.6,0.8C352.6,83.9,352.7,84,352.8,84.2z
		 M348.2,75.9c0.4-0.3,0.7-0.8,1-1.3c0.3-0.6,0.4-1.2,0.4-1.8c0-0.8-0.3-1.6-0.8-2.2s-1.2-0.9-1.9-0.9H341v6.7h6
		C347.4,76.4,347.8,76.2,348.2,75.9L348.2,75.9z"/>
	<path class="st1" d="M376.1,81.5c-0.7,1.4-1.8,2.6-3.2,3.4c-2.8,1.7-6.4,1.7-9.2,0c-1.4-0.8-2.5-2-3.2-3.4c-1.5-3-1.5-6.6,0-9.7
		c0.7-1.4,1.8-2.6,3.2-3.4c2.8-1.7,6.4-1.7,9.2,0c1.3,0.8,2.4,2,3.2,3.4C377.7,74.8,377.7,78.4,376.1,81.5z M373.8,73
		c-0.5-1-1.2-1.9-2.2-2.5c-2-1.2-4.5-1.2-6.4,0c-1,0.6-1.7,1.5-2.2,2.5c-0.5,1.1-0.8,2.4-0.8,3.6s0.3,2.5,0.8,3.6
		c0.5,1,1.2,1.9,2.2,2.5c2,1.2,4.5,1.2,6.4,0c1-0.6,1.7-1.5,2.2-2.5C374.8,77.9,374.8,75.3,373.8,73L373.8,73z"/>
	<path class="st1" d="M399.1,67.7c0.2,0.2,0.3,0.6,0.3,0.9v10.1c0,1.3-0.3,2.6-0.9,3.7s-1.5,2-2.6,2.6s-2.4,1-3.7,1
		c-1.3,0-2.6-0.3-3.7-1c-1.1-0.6-2-1.5-2.6-2.6c-0.6-1.2-0.9-2.4-0.9-3.7V68.6c0-0.3,0.1-0.7,0.4-0.9c0.3-0.2,0.6-0.4,1-0.4
		c0.3,0,0.7,0.1,0.9,0.4c0.2,0.2,0.4,0.6,0.4,0.9v10.1c0,0.9,0.2,1.7,0.6,2.5c0.4,0.7,1,1.3,1.7,1.7c0.7,0.4,1.5,0.6,2.3,0.6
		s1.6-0.2,2.3-0.6c0.7-0.4,1.3-1,1.7-1.7c0.4-0.7,0.7-1.6,0.7-2.5V68.6c0-0.3,0.1-0.7,0.3-0.9c0.2-0.2,0.5-0.4,0.9-0.4
		C398.6,67.3,398.9,67.5,399.1,67.7z"/>
	<path class="st1" d="M418.3,68.1c0.8,0.5,1.5,1.2,1.9,2.1c0.5,0.9,0.7,1.9,0.7,2.9s-0.2,2-0.7,2.9c-0.4,0.8-1.1,1.6-1.9,2.1
		s-1.7,0.8-2.6,0.8h-5v5.8c0,0.3-0.1,0.7-0.3,0.9c-0.5,0.5-1.3,0.5-1.8,0c-0.2-0.2-0.3-0.6-0.3-0.9V68.6c0-0.7,0.5-1.3,1.2-1.3l0,0
		h6.1C416.6,67.4,417.5,67.6,418.3,68.1z M417,75.9c0.4-0.3,0.7-0.7,1-1.2c0.2-0.5,0.4-1.1,0.4-1.6c0-0.8-0.3-1.6-0.8-2.3
		c-0.4-0.6-1.1-0.9-1.9-0.9h-5v6.6h5C416.2,76.3,416.7,76.2,417,75.9z"/>
	<path class="st3" d="M45.9,8C25,8,8,25,8,45.9s17,37.9,37.9,37.9s37.9-17,37.9-37.9S66.9,8,45.9,8z M55.7,52.5
		c0,9-7.3,16.2-16.2,16.2c-9,0-16.2-7.3-16.2-16.2c0-1.8,1.5-3.2,3.2-3.2s3.2,1.5,3.2,3.2c0.1,5.4,4.6,9.7,9.9,9.6
		c5.2-0.1,9.5-4.3,9.6-9.6V39.4c0.1-1.8,1.6-3.2,3.4-3.1c1.7,0.1,3.1,1.4,3.1,3.1V52.5L55.7,52.5z M65.4,42.6L65.4,42.6
		c-1.8,0-3.2-1.4-3.2-3.2l0,0c0.1-5.4-4.2-9.8-9.6-9.9s-9.8,4.2-9.9,9.6c0,0.1,0,0.3,0,0.4v13.1c0,1.8-1.5,3.2-3.2,3.2
		s-3.2-1.5-3.2-3.2V39.4c0.1-9,7.5-16.1,16.5-16c8.8,0.1,15.9,7.2,16,16C68.7,41.2,67.2,42.6,65.4,42.6z"/>
	<g>
		<path class="st0" d="M39.4,68.7c9,0,16.2-7.3,16.2-16.2V39.4c-0.1-1.7-1.4-3.1-3.1-3.1c-1.8-0.1-3.3,1.3-3.4,3.1v13.1
			c-0.1,5.2-4.3,9.5-9.6,9.6c-5.4,0.1-9.8-4.2-9.9-9.6c0-1.8-1.5-3.2-3.2-3.2c-1.8,0-3.2,1.5-3.2,3.2C23.2,61.5,30.5,68.7,39.4,68.7
			z"/>
		<path class="st0" d="M52.7,23.4c-9-0.1-16.4,7-16.5,16v13.1c0,1.8,1.5,3.2,3.2,3.2s3.2-1.5,3.2-3.2V39.4c0-0.1,0-0.3,0-0.4
			c0.1-5.4,4.6-9.7,9.9-9.6s9.7,4.6,9.6,9.9l0,0c0,1.8,1.5,3.2,3.2,3.2l0,0c1.8,0,3.2-1.4,3.2-3.2C68.6,30.6,61.5,23.5,52.7,23.4z"
			/>
	</g>
</g>
</svg>
