<?xml version="1.0" encoding="utf-8"?>
<!-- Generator: Adobe Illustrator 24.2.3, SVG Export Plug-In . SVG Version: 6.00 Build 0)  -->
<svg version="1.1" id="Layer_1" xmlns="http://www.w3.org/2000/svg" xmlns:xlink="http://www.w3.org/1999/xlink" x="0px" y="0px"
	 width="638.9px" height="498.7px" viewBox="0 0 638.9 498.7" enable-background="new 0 0 638.9 498.7" xml:space="preserve">
<g>
	<path fill="#62626B" d="M16.9,336.2c-1.8-1.8-4.2-2.8-6.8-2.8c-2.7-0.1-5.3,0.9-7.2,2.8C1,338,0,340.6,0,343.2v80
		c-0.1,5.3,4.1,9.6,9.3,9.8c0.2,0,0.3,0,0.5,0c2.6,0,5.1-1,6.9-2.8l0,0c2-1.8,3.1-4.3,3-7v-80C19.8,340.6,18.8,338.1,16.9,336.2z"/>
	<path fill="#62626B" d="M93.8,364.6L93.8,364.6c-3.8-5.9-10.7-8.9-20.4-8.9c-4.8,0-9.6,1.3-13.8,3.7c-2.8,1.7-5.4,3.7-7.7,6.1
		c-0.2-2.1-1.1-4.2-2.6-5.7c-3.8-3.7-9.9-3.7-13.6,0c-1.8,1.8-2.8,4.3-2.7,6.9v56.5c-0.1,2.6,0.9,5,2.7,6.9c3.8,3.7,9.9,3.7,13.6,0
		c1.8-1.8,2.8-4.3,2.7-6.9v-35c-0.2-4,1.3-7.8,4.1-10.7c2.7-2.8,6.6-4.2,11.5-4.2c4.6,0,7.9,1.3,9.8,3.8s2.9,6.4,2.9,11.1v35
		c-0.1,2.6,0.9,5,2.7,6.9c3.8,3.7,9.9,3.7,13.6,0c1.8-1.8,2.8-4.3,2.7-6.9v-35C99.3,378.3,97.5,370.3,93.8,364.6z"/>
	<path fill="#62626B" d="M147.7,414.8c-1.2,0-2.4,0.3-3.5,0.7c-0.9,0.3-1.7,0.4-2.6,0.5c-1.2,0.1-2.3-0.3-3.3-1
		c-0.8-0.9-1.2-2-1-3.2V376h8.4c2.4,0.1,4.7-0.8,6.4-2.5c1.7-1.6,2.6-3.9,2.6-6.2c0.1-4.9-3.7-8.9-8.6-9c-0.1,0-0.3,0-0.4,0h-8.4
		v-7.5c0-2.7-0.9-8.9-2.7-10.8c-1.7-1.8-4.2-2.8-6.7-2.8c-2.6-0.1-5.1,0.9-6.9,2.8c-1.9,1.8-2.8,8.1-2.8,10.8v7.5h-5
		c-2.4-0.1-4.7,0.8-6.4,2.5c-1.7,1.6-2.6,3.9-2.6,6.2c-0.1,4.8,3.7,8.9,8.6,9c0.1,0,0.3,0,0.4,0h5v36.6c0,8.3,2.2,13.8,6.4,16.5
		c4.5,2.7,9.7,4,15,3.8c3.5,0,6.9-0.9,9.8-2.7c3.1-1.9,4.6-4.4,4.6-7.3c0.1-2.1-0.6-4.1-1.9-5.7
		C151.1,415.7,149.5,414.9,147.7,414.8z"/>
	<path fill="#62626B" d="M225.4,373.1c-3.2-5.6-7.7-10.4-13.3-13.8c-5.3-3.3-11.5-5.1-17.7-5.1c-6.3,0-12.5,1.7-17.9,4.9
		c-5.7,3.4-10.4,8.3-13.5,14.1c-3.5,6.5-5.2,13.9-5.1,21.3c-0.1,6.8,1.6,13.6,4.8,19.6c3.2,5.8,7.9,10.5,13.7,13.7
		c10.5,5.5,22.9,6.5,34.2,2.8c3.9-1.2,7.5-3.1,10.6-5.5c2.9-2.3,4.3-4.9,4.3-7.7c0-2.2-0.9-4.2-2.4-5.7c-2.8-2.8-6.7-3.3-11.2-1
		l-2.6,1.6c-1.5,0.9-3.1,1.6-4.7,2c-2.7,0.7-5.5,1.1-8.4,1c-4.5,0-8.9-1.5-12.5-4.3c-3.3-2.6-5.7-6.2-6.7-10.3h43.5
		c2.4,0,4.7-0.8,6.6-2.4c1.9-1.6,3-3.9,3.1-6.3C230.4,385.3,228.7,378.8,225.4,373.1z M194.4,371.9c3.9,0,7.7,1.3,10.7,3.8
		c2.8,2,4.6,5.1,5.1,8.5h-32.9C179.4,375.9,185,371.9,194.4,371.9L194.4,371.9z"/>
	<path fill="#62626B" d="M285.1,358.3L285.1,358.3c-2.2-1.8-4.9-2.7-7.7-2.6c-4.6,0-9.1,1-13.2,3.1c-2.8,1.4-5.3,3.4-7.4,5.8
		c-0.3-1.8-1.2-3.4-2.5-4.7c-3.8-3.7-9.9-3.7-13.6,0c-1.8,1.8-2.8,4.3-2.7,6.9v56.5c-0.1,2.6,0.9,5,2.7,6.9c3.8,3.7,9.9,3.7,13.6,0
		c1.8-1.8,2.8-4.3,2.7-6.9v-32.4c-0.1-3.5,0.6-6.9,2-10c1.1-2.4,2.8-4.6,5-6.1c1.8-1.3,3.9-2,6.1-2c0.9,0,1.8,0.1,2.7,0.4l1.8,0.5
		c4.8,1.8,8.4,1.3,11.2-1.5c1.7-1.7,2.6-4.1,2.6-7.3C288.4,362.2,287.2,359.9,285.1,358.3z"/>
	<path fill="#62626B" d="M372.6,381.3L372.6,381.3c-1.8-1.8-4.2-2.8-6.7-2.8h-22.1c-2.5-0.1-5,0.9-6.8,2.7c-3.7,3.7-3.7,9.7,0,13.4
		c1.8,1.8,4.2,2.7,6.8,2.7h11.4v15.3c-2.1,0.6-4.3,1.1-6.5,1.4c-2.6,0.4-5.2,0.6-7.9,0.7c-5.4,0-10.6-1.4-15.2-4.2
		c-14.8-8.9-19.6-28.2-10.7-43c2.6-4.4,6.3-8.1,10.7-10.7c4.6-2.8,9.9-4.2,15.2-4.2c5,0,10,1,14.6,3c4.7,2.1,8.6,1.4,11.4-1.7
		c1.7-1.8,2.6-4.2,2.6-6.7c0-3.3-1.8-6.3-4.7-7.7c-6.7-3.7-14.7-5.5-23.8-5.5c-17.9,0-34.5,9.4-43.7,24.8c-9.1,15.4-9.1,34.6,0,50
		c9.2,15.4,25.8,24.9,43.7,24.8c10.5,0.1,20.8-2.9,29.7-8.4c3-1.7,4.9-4.9,4.8-8.4v-28.6C375.3,385.5,374.4,383.1,372.6,381.3z"/>
	<path fill="#62626B" d="M431.1,358.3L431.1,358.3c-2.2-1.8-4.9-2.7-7.7-2.6c-4.6,0-9.1,1-13.2,3.1c-2.8,1.4-5.3,3.4-7.3,5.8
		c-0.3-1.8-1.2-3.4-2.5-4.7c-3.8-3.7-9.9-3.7-13.7,0c-1.8,1.8-2.8,4.3-2.7,6.9v56.5c-0.1,2.6,0.9,5,2.7,6.9c3.8,3.7,9.9,3.7,13.7,0
		c1.8-1.8,2.8-4.3,2.7-6.9v-32.4c-0.1-3.5,0.6-6.9,2-10c1.1-2.5,2.8-4.6,5-6.1c1.8-1.3,3.9-2,6.1-2c0.9,0,1.8,0.1,2.7,0.4l1.8,0.5
		c4.8,1.8,8.4,1.3,11.2-1.5c1.7-1.7,2.6-4.1,2.6-7.3C434.4,362.2,433.2,359.8,431.1,358.3z"/>
	<path fill="#62626B" d="M500.3,373.1c-3.2-5.6-7.7-10.4-13.2-13.8c-5.3-3.3-11.5-5.1-17.7-5.1c-6.3,0-12.5,1.7-17.9,4.9
		c-5.7,3.4-10.3,8.3-13.5,14.1c-3.5,6.5-5.2,13.9-5.1,21.3c-0.1,6.8,1.6,13.6,4.8,19.6c3.2,5.8,7.9,10.5,13.7,13.7
		c10.5,5.5,22.9,6.5,34.1,2.7c3.9-1.2,7.5-3.1,10.7-5.5c2.9-2.3,4.3-4.9,4.3-7.7c0-2.2-0.9-4.2-2.4-5.7c-2.8-2.8-6.7-3.3-11.2-1
		l-2.6,1.6c-1.5,0.9-3.1,1.6-4.7,2c-2.7,0.7-5.5,1.1-8.3,1c-4.5,0-8.9-1.5-12.5-4.3c-3.3-2.6-5.6-6.2-6.7-10.3h43.5
		c2.4,0,4.7-0.8,6.6-2.4c1.9-1.6,3-3.9,3.1-6.3C505.4,385.3,503.7,378.8,500.3,373.1z M469.3,371.9c3.9,0,7.7,1.3,10.7,3.8
		c2.8,2,4.6,5.1,5.1,8.5h-32.8C454.4,375.9,460,371.9,469.3,371.9L469.3,371.9z"/>
	<path fill="#62626B" d="M580.5,358.9c-1.8-1.8-4.2-2.7-6.6-2.6c-4.3-0.1-8,2.8-9,7c-2.4-1.9-5.1-3.4-8-4.6c-4-1.6-8.2-2.5-12.5-2.4
		c-6,0-11.9,1.7-17,4.9c-5.2,3.4-9.4,8.1-12.1,13.7c-3,6.1-4.5,12.9-4.4,19.7c-0.1,6.8,1.4,13.5,4.5,19.6c2.8,5.6,7,10.3,12.3,13.6
		c5.2,3.3,11.2,5,17.4,5c4.3,0,8.6-1,12.5-2.9c2.8-1.3,5.3-3,7.6-5c0.4,1.5,1.2,2.8,2.3,3.9c1.7,1.8,4.1,2.7,6.6,2.7
		c2.5,0.1,4.9-0.9,6.7-2.7c1.7-1.8,2.7-4.2,2.6-6.7v-56.4C583.3,363.2,582.3,360.7,580.5,358.9z M565.3,394.6
		c0,6.1-1.7,11.1-5.2,15.1c-3.2,3.9-8.1,6.1-13.1,5.9c-5,0.2-9.9-2-13.1-5.9c-3.4-4-5.1-9-5.1-15.1s1.7-11.2,5.2-15.2
		c6.3-7.2,17.3-8,24.5-1.7c0.6,0.5,1.2,1.1,1.7,1.7C563.5,383.5,565.3,388.6,565.3,394.6z"/>
	<path fill="#62626B" d="M632,414.8c-1.2,0-2.4,0.3-3.5,0.7c-0.9,0.3-1.7,0.5-2.7,0.5c-1.2,0.1-2.3-0.3-3.3-1c-0.8-0.9-1.2-2-1-3.2
		V376h8.4c2.4,0.1,4.7-0.8,6.4-2.5c1.7-1.6,2.6-3.9,2.6-6.2c0.1-4.8-3.7-8.9-8.6-9c-0.1,0-0.3,0-0.4,0h-8.4V347
		c0.1-2.6-0.9-5-2.7-6.9c-1.7-1.8-4.2-2.8-6.7-2.8c-5.2-0.1-9.5,4-9.7,9.3c0,0.1,0,0.3,0,0.4v11.3h-5c-2.4-0.1-4.7,0.8-6.4,2.5
		c-1.7,1.6-2.6,3.9-2.6,6.2c-0.1,4.9,3.7,8.9,8.6,9c0.1,0,0.3,0,0.4,0h5v36.6c0,8.3,2.2,13.8,6.4,16.5c4.5,2.7,9.7,4,15,3.8
		c3.5,0,6.9-0.9,9.8-2.7c3.1-1.9,4.7-4.4,4.7-7.3c0.1-2.1-0.6-4.1-1.9-5.7C635.4,415.7,633.8,414.9,632,414.8z"/>
	<g enable-background="new    ">
		<path fill="#908F9C" d="M3.9,459.5h19.6c0.6,0,1.2,0.2,1.6,0.6s0.7,0.9,0.7,1.5s-0.2,1.1-0.7,1.5c-0.4,0.4-1,0.6-1.6,0.6H5.8
			l0.5-0.9v13.9l-0.5-0.6H21c0.6,0,1.2,0.2,1.6,0.6c0.4,0.4,0.7,0.9,0.7,1.5s-0.2,1.1-0.7,1.5c-0.4,0.4-1,0.6-1.6,0.6H5.9l0.4-0.5
			V494L6,493.6h17.5c0.6,0,1.2,0.2,1.6,0.7c0.4,0.4,0.7,0.9,0.7,1.5s-0.2,1.1-0.7,1.5c-0.4,0.4-1,0.6-1.6,0.6H3.9
			c-0.6,0-1.1-0.2-1.6-0.7c-0.4-0.4-0.6-1-0.6-1.6v-34c0-0.6,0.2-1.1,0.6-1.6C2.8,459.8,3.3,459.5,3.9,459.5z"/>
		<path fill="#908F9C" d="M58.4,459.5c2.7,0,5,0.5,7.1,1.5c2,1,3.7,2.4,5.1,4.2s2.4,3.9,3.1,6.2s1,4.8,1,7.3c0,3.5-0.6,6.7-1.8,9.7
			s-3,5.2-5.4,7c-2.4,1.7-5.4,2.6-9,2.6H44.7c-0.6,0-1.1-0.2-1.6-0.7c-0.4-0.4-0.6-1-0.6-1.6v-34c0-0.6,0.2-1.1,0.6-1.6
			c0.4-0.4,0.9-0.6,1.6-0.6L58.4,459.5L58.4,459.5z M57.8,493.8c2.8,0,5.1-0.7,6.9-2c1.8-1.4,3.1-3.2,3.9-5.4
			c0.8-2.3,1.2-4.8,1.2-7.5c0-2-0.2-3.9-0.7-5.7s-1.2-3.4-2.1-4.8c-1-1.4-2.2-2.5-3.7-3.3c-1.5-0.8-3.3-1.2-5.5-1.2H46.5l0.4-0.4v31
			l-0.3-0.5h11.2V493.8z"/>
		<path fill="#908F9C" d="M118.5,459.5c0.6,0,1.1,0.2,1.5,0.7c0.4,0.4,0.6,1,0.6,1.6v21.8c0,2.8-0.7,5.4-2,7.6
			c-1.3,2.2-3.1,4-5.3,5.3c-2.2,1.3-4.7,2-7.5,2s-5.3-0.7-7.6-2c-2.2-1.3-4-3.1-5.3-5.3s-1.9-4.8-1.9-7.6v-21.8
			c0-0.6,0.2-1.2,0.6-1.6c0.4-0.4,1-0.7,1.7-0.7c0.6,0,1.1,0.2,1.6,0.7c0.5,0.4,0.7,1,0.7,1.6v21.8c0,2,0.5,3.8,1.4,5.4
			c0.9,1.6,2.2,2.8,3.7,3.7c1.6,0.9,3.3,1.3,5.1,1.3c1.9,0,3.6-0.4,5.2-1.3c1.6-0.9,2.9-2.1,3.8-3.7c1-1.6,1.5-3.4,1.5-5.4v-21.8
			c0-0.6,0.2-1.2,0.6-1.6C117.4,459.7,117.9,459.5,118.5,459.5z"/>
		<path fill="#908F9C" d="M167.4,462.1c0.6,0.3,1,0.8,1.1,1.5s-0.1,1.3-0.5,1.8c-0.3,0.5-0.8,0.7-1.3,0.8c-0.5,0-1-0.1-1.5-0.3
			c-1.2-0.7-2.5-1.3-3.9-1.7s-2.9-0.6-4.4-0.6c-2.2,0-4.1,0.4-5.9,1.1c-1.8,0.8-3.4,1.8-4.7,3.2c-1.3,1.4-2.3,3-3.1,4.8
			c-0.7,1.9-1.1,3.9-1.1,6.2c0,2.4,0.4,4.6,1.2,6.5s1.8,3.5,3.2,4.9c1.3,1.3,2.9,2.4,4.7,3.1c1.8,0.7,3.7,1,5.8,1
			c1.5,0,3-0.2,4.3-0.6c1.4-0.4,2.7-1,4-1.8c0.5-0.3,1-0.3,1.5-0.3c0.5,0.1,1,0.3,1.3,0.8c0.4,0.6,0.6,1.2,0.5,1.8s-0.5,1.1-1,1.4
			c-0.9,0.5-2,1.1-3.1,1.5c-1.2,0.5-2.4,0.8-3.7,1.1c-1.3,0.3-2.5,0.4-3.8,0.4c-2.6,0-5.1-0.5-7.5-1.4c-2.3-0.9-4.4-2.2-6.2-4
			c-1.8-1.7-3.2-3.8-4.3-6.2s-1.6-5.2-1.6-8.2c0-2.9,0.5-5.5,1.5-7.9s2.4-4.5,4.2-6.2c1.8-1.8,3.9-3.1,6.2-4.1
			c2.4-1,4.9-1.5,7.7-1.5c1.9,0,3.8,0.3,5.6,0.8C164.2,460.4,165.9,461.1,167.4,462.1z"/>
	</g>
	<g enable-background="new    ">
		<path fill="#908F9C" d="M197.3,465.3l-12.9,31.5c-0.1,0.4-0.4,0.8-0.8,1c-0.4,0.3-0.8,0.4-1.2,0.4c-0.7,0-1.2-0.2-1.5-0.6
			c-0.3-0.4-0.5-0.8-0.5-1.3c0-0.3,0-0.5,0.1-0.8l14.2-34.7c0.2-0.5,0.5-0.9,0.9-1.1c0.4-0.2,0.8-0.3,1.3-0.3s0.9,0.1,1.3,0.4
			c0.4,0.3,0.7,0.6,0.8,1l14.2,34.3c0.1,0.3,0.2,0.6,0.2,0.9c0,0.7-0.2,1.2-0.7,1.6c-0.4,0.4-0.9,0.6-1.5,0.6
			c-0.4,0-0.8-0.1-1.2-0.4c-0.4-0.3-0.6-0.6-0.8-1.1L196,465.2L197.3,465.3z M187.1,487.8l1.9-4.3h16.3l0.8,4.3H187.1z"/>
	</g>
	<g enable-background="new    ">
		<path fill="#908F9C" d="M225,463.7c-0.6,0-1.1-0.2-1.6-0.6s-0.6-0.9-0.6-1.5s0.2-1.1,0.6-1.5s0.9-0.6,1.6-0.6h25.6
			c0.6,0,1.2,0.2,1.6,0.6c0.4,0.4,0.7,0.9,0.7,1.5c0,0.7-0.2,1.2-0.7,1.5c-0.4,0.4-1,0.5-1.6,0.5L225,463.7L225,463.7z M237.8,498
			c-0.7,0-1.2-0.2-1.7-0.7c-0.4-0.4-0.7-1-0.7-1.6v-34h4.7v34c0,0.6-0.2,1.2-0.7,1.6C239,497.8,238.5,498,237.8,498z"/>
		<path fill="#908F9C" d="M273.4,495.8c0,0.6-0.2,1.2-0.7,1.6c-0.5,0.4-1,0.7-1.6,0.7c-0.7,0-1.2-0.2-1.7-0.7
			c-0.4-0.4-0.6-1-0.6-1.6v-34c0-0.7,0.2-1.2,0.7-1.6c0.4-0.4,1-0.6,1.6-0.6s1.2,0.2,1.6,0.6c0.4,0.4,0.7,1,0.7,1.6V495.8z"/>
		<path fill="#908F9C" d="M327.1,478.8c0,2.8-0.5,5.4-1.4,7.8c-0.9,2.4-2.2,4.5-3.8,6.3c-1.7,1.8-3.6,3.2-5.9,4.2
			c-2.3,1-4.7,1.5-7.4,1.5c-2.7,0-5.2-0.5-7.5-1.5s-4.2-2.4-5.9-4.2c-1.7-1.8-2.9-3.9-3.8-6.3c-0.9-2.4-1.4-5-1.4-7.8
			c0-2.9,0.5-5.5,1.4-7.9s2.2-4.5,3.8-6.3s3.6-3.2,5.9-4.2s4.7-1.5,7.5-1.5c2.7,0,5.2,0.5,7.4,1.5c2.3,1,4.2,2.4,5.9,4.2
			s2.9,3.9,3.8,6.3C326.6,473.3,327.1,475.9,327.1,478.8z M322.4,478.8c0-3-0.6-5.7-1.8-8s-2.8-4.1-4.9-5.4c-2.1-1.3-4.4-2-7.2-2
			s-5.1,0.7-7.2,2s-3.7,3.1-4.9,5.4c-1.2,2.3-1.8,5-1.8,8s0.6,5.6,1.8,7.9c1.2,2.3,2.8,4.2,4.9,5.5s4.5,2,7.2,2s5.1-0.7,7.2-2
			c2.1-1.3,3.7-3.1,4.9-5.5C321.8,484.4,322.4,481.8,322.4,478.8z"/>
		<path fill="#908F9C" d="M372.3,459.5c0.6,0,1.1,0.2,1.5,0.6c0.4,0.4,0.6,0.9,0.6,1.5v34.2c0,0.7-0.2,1.3-0.7,1.7
			c-0.4,0.4-1,0.6-1.6,0.6c-0.3,0-0.7-0.1-1-0.2c-0.3-0.1-0.6-0.3-0.8-0.5l-23.5-31.1l1.1-0.7v30.5c0,0.6-0.2,1.1-0.6,1.5
			c-0.4,0.4-0.9,0.6-1.5,0.6s-1.1-0.2-1.4-0.6c-0.4-0.4-0.5-0.9-0.5-1.5v-34.3c0-0.7,0.2-1.2,0.6-1.6c0.4-0.4,0.9-0.6,1.5-0.6
			c0.3,0,0.7,0.1,1,0.2c0.3,0.1,0.6,0.3,0.8,0.6l23.2,30.7l-0.7,0.9v-30.4c0-0.6,0.2-1.1,0.6-1.5
			C371.2,459.7,371.7,459.5,372.3,459.5z"/>
		<path fill="#908F9C" d="M435.3,498.6c-2.8,0-5.4-0.5-7.8-1.5c-2.4-1-4.5-2.4-6.3-4.2s-3.2-3.9-4.2-6.3c-1-2.4-1.5-5-1.5-7.8
			s0.5-5.4,1.5-7.8c1-2.4,2.4-4.5,4.2-6.3s3.9-3.2,6.3-4.2c2.4-1,5-1.5,7.8-1.5c1.9,0,3.7,0.2,5.4,0.6c1.7,0.4,3.3,1.1,4.8,2
			c0.4,0.2,0.6,0.4,0.8,0.8s0.2,0.7,0.2,1c0,0.6-0.2,1.2-0.6,1.6c-0.4,0.4-0.9,0.7-1.5,0.7c-0.2,0-0.4,0-0.6-0.1
			c-0.2-0.1-0.4-0.1-0.6-0.2c-1.1-0.6-2.4-1.1-3.7-1.4c-1.3-0.3-2.7-0.5-4.2-0.5c-2.9,0-5.5,0.7-7.8,2c-2.3,1.4-4.1,3.2-5.4,5.5
			c-1.3,2.3-2,4.9-2,7.9c0,2.9,0.7,5.5,2,7.8s3.1,4.2,5.4,5.5c2.3,1.4,4.9,2,7.8,2c1.5,0,3-0.2,4.5-0.6c1.6-0.4,2.9-0.9,4-1.5
			l-0.4,1.3v-11.6l0.9,0.8h-8.4c-0.6,0-1.1-0.2-1.6-0.6c-0.4-0.4-0.6-0.9-0.6-1.6c0-0.6,0.2-1.1,0.6-1.6c0.4-0.4,0.9-0.6,1.6-0.6h10
			c0.7,0,1.2,0.2,1.6,0.7c0.4,0.4,0.6,1,0.6,1.6v12.7c0,0.4-0.1,0.8-0.3,1.2c-0.2,0.3-0.5,0.6-0.8,0.8c-1.6,1.1-3.5,1.9-5.5,2.6
			C439.5,498.3,437.5,498.6,435.3,498.6z"/>
	</g>
	<g enable-background="new    ">
		<path fill="#908F9C" d="M468.6,498c-0.7,0-1.3-0.2-1.8-0.7c-0.5-0.4-0.7-1-0.7-1.6v-34c0-0.6,0.2-1.1,0.6-1.6
			c0.4-0.4,0.9-0.6,1.6-0.6h15.2c2.1,0,3.9,0.5,5.6,1.4c1.6,0.9,3,2.2,3.9,3.9s1.5,3.5,1.5,5.6c0,1.5-0.3,3-0.9,4.3
			c-0.6,1.3-1.4,2.5-2.4,3.5s-2.2,1.7-3.5,2.2l-1.2-0.9c1.2,0.3,2.4,0.8,3.4,1.6s1.8,1.7,2.4,2.9c0.6,1.2,1,2.5,1,4
			c0.1,1.4,0.2,2.4,0.3,3.2s0.3,1.4,0.5,1.9s0.5,0.8,0.9,1.1c0.5,0.3,0.9,0.8,1,1.3c0.2,0.5,0.1,1.1-0.3,1.6
			c-0.2,0.3-0.5,0.6-0.9,0.7c-0.4,0.1-0.8,0.2-1.2,0.1c-0.4,0-0.8-0.1-1-0.3c-0.6-0.3-1.2-0.8-1.7-1.5c-0.5-0.6-1-1.6-1.4-2.8
			s-0.5-2.9-0.5-5c0-1.2-0.2-2.1-0.5-2.9c-0.4-0.8-0.9-1.4-1.5-1.9s-1.3-0.8-2.1-1s-1.6-0.3-2.4-0.3H470l0.7-1v14.4
			c0,0.6-0.2,1.2-0.5,1.6C469.7,497.8,469.2,498,468.6,498z M470,478.5h13.5c1.1-0.1,2.1-0.4,3-1.1c0.9-0.7,1.7-1.6,2.3-2.8
			s0.9-2.5,0.9-4c0-1.9-0.6-3.6-1.8-4.8c-1.2-1.3-2.8-1.9-4.6-1.9h-13l0.4-1v16.7L470,478.5z"/>
	</g>
	<g enable-background="new    ">
		<path fill="#908F9C" d="M547,478.8c0,2.8-0.5,5.4-1.4,7.8c-0.9,2.4-2.2,4.5-3.9,6.3c-1.6,1.8-3.6,3.2-5.9,4.2
			c-2.3,1-4.7,1.5-7.4,1.5s-5.2-0.5-7.5-1.5s-4.2-2.4-5.9-4.2s-2.9-3.9-3.9-6.3c-0.9-2.4-1.4-5-1.4-7.8c0-2.9,0.5-5.5,1.4-7.9
			c0.9-2.4,2.2-4.5,3.9-6.3c1.6-1.8,3.6-3.2,5.9-4.2c2.3-1,4.7-1.5,7.5-1.5c2.7,0,5.2,0.5,7.4,1.5c2.3,1,4.2,2.4,5.9,4.2
			s2.9,3.9,3.9,6.3C546.5,473.3,547,475.9,547,478.8z M542.3,478.8c0-3-0.6-5.7-1.8-8s-2.8-4.1-4.9-5.4c-2.1-1.3-4.4-2-7.2-2
			c-2.7,0-5.1,0.7-7.2,2s-3.7,3.1-4.9,5.4c-1.2,2.3-1.8,5-1.8,8s0.6,5.6,1.8,7.9c1.2,2.3,2.8,4.2,4.9,5.5s4.5,2,7.2,2s5.1-0.7,7.2-2
			c2.1-1.3,3.7-3.1,4.9-5.5C541.7,484.4,542.3,481.8,542.3,478.8z"/>
		<path fill="#908F9C" d="M590.9,459.5c0.6,0,1.1,0.2,1.5,0.7c0.4,0.4,0.6,1,0.6,1.6v21.8c0,2.8-0.7,5.4-2,7.6
			c-1.3,2.2-3.1,4-5.3,5.3s-4.7,2-7.5,2s-5.3-0.7-7.6-2c-2.2-1.3-4-3.1-5.3-5.3s-1.9-4.8-1.9-7.6v-21.8c0-0.6,0.2-1.2,0.6-1.6
			c0.4-0.4,1-0.7,1.7-0.7c0.6,0,1.1,0.2,1.6,0.7c0.5,0.4,0.7,1,0.7,1.6v21.8c0,2,0.5,3.8,1.4,5.4c0.9,1.6,2.2,2.8,3.7,3.7
			c1.6,0.9,3.3,1.3,5.1,1.3c1.9,0,3.6-0.4,5.2-1.3c1.6-0.9,2.9-2.1,3.8-3.7c1-1.6,1.5-3.4,1.5-5.4v-21.8c0-0.6,0.2-1.2,0.5-1.6
			C589.8,459.7,590.3,459.5,590.9,459.5z"/>
		<path fill="#908F9C" d="M627.1,459.5c2,0,3.8,0.5,5.4,1.5c1.6,1,2.9,2.3,3.8,4.1c0.9,1.7,1.4,3.7,1.4,5.9s-0.5,4.1-1.4,5.9
			s-2.2,3.2-3.8,4.2s-3.4,1.5-5.4,1.5H616l0.4-0.7v13.9c0,0.6-0.2,1.2-0.6,1.6c-0.4,0.4-0.9,0.7-1.5,0.7c-0.7,0-1.2-0.2-1.6-0.7
			c-0.4-0.4-0.6-1-0.6-1.6v-34c0-0.6,0.2-1.1,0.6-1.6c0.4-0.4,0.9-0.6,1.6-0.6h12.8L627.1,459.5L627.1,459.5z M627.1,478.4
			c1.2,0,2.3-0.3,3.2-1s1.6-1.6,2.2-2.7c0.6-1.1,0.8-2.4,0.8-3.7c0-1.4-0.3-2.6-0.8-3.7c-0.5-1.1-1.3-1.9-2.2-2.6
			c-0.9-0.6-2-1-3.2-1H616l0.4-0.6v15.7l-0.4-0.6h11.1V478.4z"/>
	</g>
</g>
<g>
	<path fill="#90909C" d="M319.4,0c-71.5,0-129.6,58.1-129.6,129.6s58.1,129.6,129.6,129.6S449,201.1,449,129.6S390.9,0,319.4,0z
		 M319.4,249.6c-66.3,0-120-53.7-120-120S253.1,9.5,319.4,9.5s120,53.7,120,120S385.7,249.6,319.4,249.6z"/>
	<path fill="#4DBFA8" d="M319.4,22.7c-59.1,0-106.9,47.9-106.9,106.9s47.9,106.9,106.9,106.9s106.9-47.9,106.9-106.9
		S378.5,22.7,319.4,22.7z M346.9,148.1c0,25.3-20.5,45.8-45.8,45.8s-45.8-20.5-45.8-45.8c0-5.1,4.1-9.2,9.2-9.2s9.2,4.1,9.2,9.2
		c0.3,15.2,12.9,27.3,28,27c14.8-0.3,26.7-12.2,27-27v-36.9c0.2-5.1,4.4-9,9.5-8.9c4.8,0.2,8.7,4,8.9,8.9L346.9,148.1L346.9,148.1z
		 M374.4,120.3L374.4,120.3c-5.1,0-9.2-4.1-9.2-9.1l0,0c0.3-15.2-11.8-27.8-27-28c-15.2-0.3-27.8,11.8-28,27c0,0.4,0,0.7,0,1.1v37
		c0,5.1-4.1,9.2-9.2,9.2s-9.2-4.1-9.2-9.2v-37c0.4-25.3,21.2-45.5,46.5-45.1c24.8,0.4,44.8,20.4,45.1,45.1
		C383.5,116.2,379.4,120.3,374.4,120.3z"/>
	<g>
		<path fill="#FFFFFF" d="M301.1,193.9c25.3,0,45.8-20.5,45.8-45.8v-36.9c-0.2-4.8-4-8.7-8.9-8.9c-5.1-0.2-9.3,3.8-9.5,8.9v36.9
			c-0.3,14.8-12.2,26.7-27,27c-15.2,0.3-27.8-11.8-28-27c0-5.1-4.1-9.2-9.2-9.2s-9.2,4.1-9.2,9.2
			C255.2,173.4,275.8,193.9,301.1,193.9z"/>
		<path fill="#FFFFFF" d="M338.4,66c-25.3-0.4-46.1,19.8-46.5,45.1v37c0,5.1,4.1,9.2,9.2,9.2s9.2-4.1,9.2-9.2v-37c0-0.4,0-0.7,0-1.1
			c0.3-15.2,12.9-27.3,28-27c15.2,0.3,27.3,12.9,27,28l0,0c0,5.1,4.1,9.2,9.2,9.1l0,0c5,0,9.1-4.1,9.2-9.1
			C383.2,86.4,363.2,66.4,338.4,66z"/>
	</g>
</g>
</svg>
