<?xml version="1.0" encoding="utf-8"?>
<!-- Generator: Adobe Illustrator 26.0.1, SVG Export Plug-In . SVG Version: 6.00 Build 0)  -->
<svg version="1.1" id="Layer_1" xmlns="http://www.w3.org/2000/svg" xmlns:xlink="http://www.w3.org/1999/xlink" x="0px" y="0px"
	 viewBox="0 0 440.9 111.9" style="enable-background:new 0 0 440.9 111.9;" xml:space="preserve">
<style type="text/css">
	.st0{fill:#FFFFFF;}
	.st1{fill:#4DBFA8;}
</style>
<g>
	<circle class="st0" cx="55.9" cy="55.9" r="45.9"/>
	<path class="st0" d="M55.9,10C30.6,10,10,30.6,10,55.9s20.6,45.9,45.9,45.9s45.9-20.6,45.9-45.9S81.3,10,55.9,10z M55.9,98.5
		c-23.5,0-42.6-19.1-42.6-42.6s19.1-42.6,42.6-42.6s42.6,19.1,42.6,42.6S79.4,98.5,55.9,98.5z"/>
	<path class="st0" d="M132.7,18.1c-0.9-0.9-2-1.4-3.3-1.3c-1.3,0-2.5,0.4-3.5,1.3c-0.9,0.9-1.4,2.1-1.4,3.4v38.4
		c-0.1,2.5,1.9,4.6,4.5,4.7c0.1,0,0.2,0,0.2,0c1.2,0,2.4-0.5,3.3-1.3l0,0c0.9-0.9,1.5-2.1,1.4-3.4V21.5
		C134.1,20.2,133.6,19,132.7,18.1z"/>
	<path class="st0" d="M169.6,31.8L169.6,31.8c-1.8-2.8-5.1-4.3-9.8-4.3c-2.3,0-4.6,0.6-6.6,1.8c-1.4,0.8-2.6,1.8-3.7,2.9
		c-0.1-1-0.5-2-1.3-2.7c-1.8-1.8-4.7-1.8-6.6,0c-0.9,0.9-1.3,2.1-1.3,3.3v27.2c0,1.2,0.4,2.4,1.3,3.3c1.8,1.8,4.7,1.8,6.6,0
		c0.9-0.9,1.3-2.1,1.3-3.3V43.1c-0.1-1.9,0.7-3.8,2-5.1c1.3-1.3,3.2-2,5.5-2c2.2,0,3.8,0.6,4.7,1.8c0.9,1.2,1.4,3.1,1.4,5.3v16.8
		c0,1.2,0.4,2.4,1.3,3.3c1.8,1.8,4.7,1.8,6.6,0c0.9-0.9,1.3-2.1,1.3-3.3V43.1C172.3,38.3,171.4,34.5,169.6,31.8z"/>
	<path class="st0" d="M195.5,55.9c-0.6,0-1.2,0.1-1.7,0.4c-0.4,0.1-0.8,0.2-1.3,0.2c-0.6,0-1.1-0.1-1.6-0.5c-0.4-0.4-0.6-1-0.5-1.5
		V37.3h4c1.1,0,2.2-0.4,3.1-1.2c0.8-0.8,1.3-1.9,1.2-3c0.1-2.3-1.8-4.3-4.1-4.3c-0.1,0-0.1,0-0.2,0h-4v-3.6c0-1.3-0.4-4.3-1.3-5.2
		c-0.8-0.9-2-1.4-3.2-1.3c-1.2,0-2.4,0.5-3.3,1.3c-0.9,0.9-1.3,3.9-1.3,5.2v3.6h-2.4c-1.1,0-2.2,0.4-3.1,1.2c-0.8,0.8-1.3,1.9-1.2,3
		c-0.1,2.3,1.8,4.3,4.1,4.3c0.1,0,0.1,0,0.2,0h2.4v17.5c0,4,1,6.7,3.1,7.9c2,1.2,4.4,1.8,7.2,1.8c1.7,0,3.3-0.4,4.7-1.3
		c1.5-0.9,2.2-2.1,2.2-3.5c0-1-0.3-2-0.9-2.7C197.1,56.3,196.3,55.9,195.5,55.9z"/>
	<path class="st0" d="M232.8,35.8c-1.5-2.7-3.7-5-6.4-6.6c-2.6-1.6-5.5-2.5-8.5-2.5c-3,0-6,0.8-8.6,2.3c-2.7,1.6-5,4-6.5,6.8
		c-1.7,3.2-2.5,6.7-2.4,10.2c0,3.3,0.7,6.5,2.3,9.4c1.5,2.8,3.8,5.1,6.6,6.6c5.1,2.6,11,3.1,16.4,1.3c1.8-0.6,3.6-1.5,5.1-2.7
		c1.4-1.1,2.1-2.3,2.1-3.7c0-1-0.4-2-1.2-2.7c-1.3-1.3-3.2-1.6-5.4-0.5c-0.2,0.1-0.6,0.4-1.2,0.8c-0.7,0.4-1.5,0.7-2.3,1
		c-1.3,0.4-2.7,0.5-4,0.5c-2.2,0-4.3-0.7-6-2.1c-1.6-1.2-2.7-3-3.2-5h20.9c1.2,0,2.3-0.4,3.2-1.1c0.9-0.7,1.5-1.9,1.5-3
		C235.2,41.7,234.4,38.6,232.8,35.8z M217.9,35.3c1.9,0,3.7,0.6,5.1,1.8c1.3,1,2.2,2.4,2.4,4.1h-15.8
		C210.7,37.2,213.4,35.3,217.9,35.3C217.9,35.3,217.9,35.3,217.9,35.3z"/>
	<path class="st0" d="M261.5,28.8L261.5,28.8c-1-0.9-2.4-1.3-3.7-1.3c-2.2,0-4.4,0.5-6.3,1.5c-1.4,0.7-2.6,1.6-3.5,2.8
		c-0.2-0.9-0.6-1.6-1.2-2.3c-1.8-1.8-4.7-1.8-6.6,0c-0.9,0.9-1.3,2.1-1.3,3.3v27.2c0,1.2,0.4,2.4,1.3,3.3c1.8,1.8,4.7,1.8,6.6,0
		c0.9-0.9,1.3-2.1,1.3-3.3V44.4c0-1.7,0.3-3.3,1-4.8c0.5-1.2,1.3-2.2,2.4-2.9c0.9-0.6,1.9-1,2.9-1c0.4,0,0.9,0.1,1.3,0.2
		c0.4,0.1,0.7,0.2,0.8,0.2c2.3,0.8,4,0.6,5.4-0.7c0.8-0.8,1.2-2,1.2-3.5C263.1,30.6,262.5,29.5,261.5,28.8z"/>
	<path class="st0" d="M303.5,39.8L303.5,39.8c-0.8-0.9-2-1.4-3.2-1.3h-10.6c-1.2,0-2.4,0.4-3.2,1.3c-1.8,1.8-1.8,4.7,0,6.5
		c0.9,0.8,2,1.3,3.2,1.3h5.5v7.3c-1,0.3-2.1,0.5-3.1,0.7c-1.2,0.2-2.5,0.3-3.8,0.3c-2.6,0-5.1-0.7-7.3-2c-7.1-4.3-9.4-13.5-5.1-20.7
		c1.3-2.1,3-3.9,5.1-5.1c2.2-1.3,4.7-2,7.3-2c2.4,0,4.8,0.5,7,1.4c2.3,1,4.1,0.7,5.5-0.8c0.8-0.9,1.2-2,1.2-3.2c0-1.6-0.9-3-2.3-3.7
		c-3.2-1.8-7.1-2.7-11.4-2.7c-4.3,0-8.5,1.1-12.2,3.2c-3.7,2.1-6.7,5.1-8.8,8.7c-4.4,7.4-4.4,16.6,0,24c4.4,7.4,12.4,11.9,21,11.9
		c5,0,10-1.4,14.2-4.1c1.5-0.8,2.3-2.4,2.3-4V43C304.8,41.8,304.4,40.7,303.5,39.8z"/>
	<path class="st0" d="M331.6,28.8L331.6,28.8c-1-0.9-2.4-1.3-3.7-1.3c-2.2,0-4.4,0.5-6.3,1.5c-1.4,0.7-2.6,1.6-3.5,2.8
		c-0.2-0.9-0.6-1.6-1.2-2.3c-1.8-1.8-4.7-1.8-6.6,0c-0.9,0.9-1.3,2.1-1.3,3.3v27.2c0,1.2,0.4,2.4,1.3,3.3c1.8,1.8,4.7,1.8,6.6,0
		c0.9-0.9,1.3-2.1,1.3-3.3V44.4c0-1.7,0.3-3.3,1-4.8c0.5-1.2,1.3-2.2,2.4-2.9c0.9-0.6,1.9-1,2.9-1c0.4,0,0.9,0.1,1.3,0.2
		c0.4,0.1,0.7,0.2,0.8,0.2c2.3,0.8,4,0.6,5.4-0.7c0.8-0.8,1.2-2,1.2-3.5C333.2,30.6,332.6,29.5,331.6,28.8z"/>
	<path class="st0" d="M364.9,35.8c-1.5-2.7-3.7-5-6.4-6.6c-2.6-1.6-5.5-2.5-8.5-2.5c-3,0-6,0.8-8.6,2.3c-2.7,1.6-5,4-6.5,6.8
		c-1.7,3.2-2.5,6.7-2.4,10.2c0,3.3,0.7,6.5,2.3,9.4c1.5,2.8,3.8,5.1,6.6,6.6c5.1,2.6,11,3.1,16.4,1.3c1.8-0.6,3.6-1.5,5.1-2.7
		c1.4-1.1,2.1-2.3,2.1-3.7c0-1-0.4-2-1.2-2.7c-1.3-1.3-3.2-1.6-5.4-0.5c-0.2,0.1-0.6,0.4-1.2,0.8c-0.7,0.4-1.5,0.7-2.3,1
		c-1.3,0.4-2.7,0.5-4,0.5c-2.2,0-4.3-0.7-6-2.1c-1.6-1.2-2.7-3-3.2-5h20.9c1.2,0,2.3-0.4,3.2-1.1c0.9-0.7,1.5-1.9,1.5-3
		C367.3,41.7,366.5,38.6,364.9,35.8z M350,35.3c1.9,0,3.7,0.6,5.1,1.8c1.3,1,2.2,2.4,2.4,4.1h-15.8C342.8,37.2,345.5,35.3,350,35.3
		L350,35.3z"/>
	<path class="st0" d="M403.4,29.1c-0.8-0.8-2-1.3-3.2-1.3c-2.1,0-3.9,1.4-4.3,3.4c-1.2-0.9-2.5-1.6-3.8-2.2c-1.9-0.8-3.9-1.2-6-1.2
		c-2.9,0-5.7,0.8-8.2,2.4c-2.5,1.6-4.5,3.9-5.8,6.6c-1.4,2.9-2.2,6.2-2.1,9.5c-0.1,3.3,0.7,6.5,2.1,9.4c1.3,2.7,3.4,4.9,5.9,6.5
		c2.5,1.6,5.4,2.4,8.3,2.4c2.1,0,4.1-0.5,6-1.4c1.3-0.6,2.6-1.4,3.6-2.4c0.2,0.7,0.6,1.4,1.1,1.9c0.8,0.8,2,1.3,3.2,1.3
		c1.2,0,2.4-0.4,3.2-1.3c0.8-0.9,1.3-2,1.3-3.2V32.3C404.7,31.1,404.2,29.9,403.4,29.1z M396.1,46.2c0,2.9-0.8,5.4-2.5,7.3
		c-3.1,3.5-8.4,3.8-11.9,0.7c-0.2-0.2-0.5-0.4-0.7-0.7c-1.6-1.9-2.4-4.3-2.4-7.3c0-2.9,0.8-5.4,2.5-7.3c3-3.5,8.3-3.8,11.8-0.8
		c0.3,0.2,0.6,0.5,0.8,0.8C395.2,40.8,396.1,43.3,396.1,46.2L396.1,46.2L396.1,46.2z"/>
	<path class="st0" d="M428.1,55.9c-0.6,0-1.2,0.1-1.7,0.4c-0.4,0.1-0.8,0.2-1.3,0.2c-0.6,0-1.1-0.1-1.6-0.5c-0.4-0.4-0.5-1-0.5-1.5
		V37.3h4c1.1,0,2.2-0.4,3.1-1.2c0.8-0.8,1.3-1.9,1.2-3c0.1-2.3-1.8-4.3-4.1-4.3c-0.1,0-0.1,0-0.2,0h-4v-5.4c0-1.2-0.4-2.4-1.3-3.3
		c-0.8-0.9-2-1.4-3.2-1.3c-2.5,0-4.6,2-4.6,4.5c0,0.1,0,0.1,0,0.2v5.4h-2.4c-1.1,0-2.2,0.4-3.1,1.2c-0.8,0.8-1.3,1.9-1.2,3
		c-0.1,2.3,1.8,4.3,4.1,4.3c0.1,0,0.1,0,0.2,0h2.4v17.5c0,4,1,6.7,3.1,7.9c2,1.2,4.4,1.8,7.2,1.8c1.7,0,3.3-0.4,4.7-1.3
		c1.5-0.9,2.2-2.1,2.2-3.5c0-1-0.3-2-0.9-2.7C429.8,56.3,429,55.9,428.1,55.9z"/>
	<path class="st0" d="M136.6,93.8c0.2,0.2,0.4,0.5,0.4,0.9c0,0.3-0.1,0.6-0.4,0.9c-0.2,0.2-0.6,0.3-0.9,0.3h-9.2
		c-0.7,0-1.3-0.6-1.3-1.3v0v-16c0-0.7,0.6-1.3,1.3-1.3h0h9.2c0.3,0,0.7,0.1,0.9,0.3c0.2,0.2,0.4,0.6,0.4,0.9c0,0.3-0.1,0.6-0.4,0.9
		c-0.2,0.2-0.6,0.3-0.9,0.3h-7.8v5.4h6.7c0.3,0,0.7,0.1,0.9,0.3c0.2,0.2,0.4,0.5,0.4,0.9c0,0.3-0.1,0.7-0.4,0.9
		c-0.3,0.2-0.6,0.3-0.9,0.3h-6.7v5.8h7.8C136,93.4,136.4,93.6,136.6,93.8z"/>
	<path class="st0" d="M156.8,78.6c1.2,0.8,2.1,2,2.7,3.3c1.2,3,1.2,6.4,0,9.4c-0.6,1.3-1.5,2.5-2.7,3.3c-1.3,0.8-2.7,1.3-4.3,1.2
		H146c-0.7,0-1.3-0.6-1.3-1.3v0v-16c0-0.7,0.6-1.3,1.3-1.3h0h6.5C154.1,77.3,155.6,77.8,156.8,78.6z M156.3,91.5
		c1.8-3,1.8-6.8,0-9.8c-0.9-1.3-2.3-1.9-4-1.9h-4.9v13.6h4.9C154.1,93.4,155.4,92.8,156.3,91.5L156.3,91.5z"/>
	<path class="st0" d="M182.2,77.7c0.2,0.2,0.3,0.6,0.3,0.9v10.1c0,1.3-0.3,2.6-0.9,3.7c-0.6,1.1-1.5,2-2.5,2.6c-1.1,0.6-2.4,1-3.7,1
		c-1.3,0-2.6-0.3-3.7-1c-1.1-0.6-2-1.5-2.6-2.6c-0.6-1.2-0.9-2.4-0.9-3.7V78.6c0-0.3,0.1-0.7,0.4-0.9c0.3-0.2,0.6-0.4,1-0.4
		c0.3,0,0.7,0.1,0.9,0.4c0.2,0.2,0.4,0.6,0.4,0.9v10.1c0,0.9,0.2,1.7,0.6,2.5c0.4,0.7,1,1.3,1.7,1.7c0.7,0.4,1.5,0.6,2.3,0.6
		c0.8,0,1.6-0.2,2.3-0.6c0.7-0.4,1.3-1,1.7-1.7c0.4-0.7,0.7-1.6,0.6-2.5V78.6c0-0.3,0.1-0.7,0.3-0.9c0.2-0.2,0.5-0.4,0.9-0.4
		C181.7,77.3,182,77.5,182.2,77.7z"/>
	<path class="st0" d="M205.2,79.5c0,0.3-0.1,0.6-0.3,0.9c-0.2,0.3-0.5,0.4-0.9,0.4c-0.2,0-0.5-0.1-0.7-0.2c-1.1-0.6-2.3-0.9-3.5-0.9
		c-1.2,0-2.4,0.3-3.5,0.9c-1,0.6-1.8,1.4-2.4,2.4c-0.6,1.1-0.9,2.3-0.8,3.6c0,1.3,0.3,2.6,0.9,3.8c0.6,1,1.4,1.8,2.4,2.4
		c1.1,0.6,2.2,0.8,3.4,0.8c1.2,0,2.5-0.3,3.5-1c0.2-0.1,0.4-0.2,0.7-0.2c0.4,0,0.7,0.2,0.9,0.4c0.2,0.2,0.3,0.5,0.3,0.8
		c0,0.2-0.1,0.4-0.2,0.6c-0.1,0.2-0.3,0.3-0.5,0.4c-0.7,0.4-1.5,0.7-2.3,0.9c-0.8,0.2-1.7,0.3-2.5,0.3c-1.6,0-3.3-0.4-4.7-1.1
		c-1.4-0.8-2.6-1.9-3.4-3.3c-0.9-1.5-1.3-3.3-1.3-5.1c0-1.7,0.4-3.3,1.2-4.8c0.8-1.4,2-2.6,3.4-3.4c3-1.6,6.6-1.6,9.6,0
		C205,78.6,205.2,79,205.2,79.5z"/>
	<path class="st0" d="M227.1,94.7c0,0.7-0.5,1.2-1.2,1.2h0c-0.2,0-0.5-0.1-0.7-0.2c-0.2-0.2-0.4-0.4-0.5-0.6l-1.6-3.9h-8.2l-1.6,3.9
		c-0.1,0.2-0.2,0.5-0.4,0.6c-0.2,0.1-0.4,0.2-0.7,0.2c-0.3,0-0.6-0.1-0.8-0.3c-0.2-0.2-0.3-0.5-0.3-0.8c0-0.1,0-0.3,0.1-0.4
		l6.7-16.3c0.1-0.3,0.3-0.5,0.5-0.7c0.2-0.1,0.5-0.2,0.8-0.2c0.3,0,0.5,0.1,0.7,0.2c0.2,0.1,0.4,0.4,0.4,0.6l6.7,16.1
		C227,94.4,227.1,94.6,227.1,94.7z M215.9,88.8h6.2l-3.1-7.4L215.9,88.8z"/>
	<path class="st0" d="M245.8,77.7c0.2,0.2,0.4,0.6,0.4,0.9c0,0.3-0.1,0.7-0.4,0.9c-0.3,0.2-0.6,0.3-0.9,0.3h-4.7v14.8
		c0,0.3-0.1,0.7-0.4,0.9c-0.5,0.5-1.4,0.5-1.9,0c-0.3-0.2-0.4-0.6-0.4-0.9V79.8h-4.7c-0.3,0-0.7-0.1-0.9-0.3
		c-0.2-0.2-0.4-0.6-0.4-0.9c0-0.3,0.1-0.6,0.4-0.9c0.2-0.2,0.6-0.3,0.9-0.3h12.1C245.2,77.4,245.6,77.5,245.8,77.7z"/>
	<path class="st0" d="M255.9,95.5c-0.2,0.2-0.6,0.4-0.9,0.4c-0.4,0-0.7-0.1-1-0.4c-0.2-0.2-0.4-0.6-0.4-0.9V78.6
		c0-0.3,0.1-0.7,0.4-0.9c0.3-0.2,0.6-0.4,1-0.4c0.3,0,0.7,0.1,0.9,0.4c0.2,0.2,0.4,0.6,0.4,0.9v15.9
		C256.3,94.9,256.2,95.3,255.9,95.5z"/>
	<path class="st0" d="M280.8,91.5c-0.7,1.4-1.8,2.6-3.2,3.4c-2.8,1.7-6.4,1.7-9.2,0c-1.4-0.8-2.5-2-3.2-3.4c-1.5-3-1.5-6.6,0-9.7
		c0.7-1.4,1.8-2.6,3.2-3.4c2.8-1.7,6.4-1.7,9.2,0c1.3,0.8,2.4,2,3.2,3.4C282.4,84.8,282.4,88.4,280.8,91.5z M278.5,83
		c-0.5-1-1.2-1.9-2.2-2.5c-2-1.2-4.5-1.2-6.4,0c-1,0.6-1.7,1.5-2.2,2.5c-0.5,1.1-0.8,2.4-0.8,3.6c0,1.2,0.3,2.5,0.8,3.6
		c0.5,1,1.2,1.9,2.2,2.5c2,1.2,4.5,1.2,6.4,0c1-0.6,1.7-1.5,2.2-2.5C279.5,87.9,279.5,85.3,278.5,83L278.5,83z"/>
	<path class="st0" d="M304.4,77.7c0.2,0.2,0.3,0.5,0.3,0.8v16c0,0.3-0.1,0.7-0.4,0.9c-0.2,0.2-0.6,0.4-0.9,0.4c-0.2,0-0.4,0-0.6-0.1
		c-0.2-0.1-0.3-0.1-0.4-0.3L292.1,82v12.7c0,0.6-0.5,1.1-1.1,1.2c0,0,0,0-0.1,0c-0.3,0-0.6-0.1-0.8-0.3c-0.2-0.2-0.3-0.5-0.3-0.8
		V78.6c0-0.3,0.1-0.7,0.4-0.9c0.2-0.2,0.6-0.4,0.9-0.4c0.2,0,0.4,0,0.6,0.1c0.2,0.1,0.3,0.2,0.4,0.3l10.4,13.6V78.5
		c0-0.6,0.5-1.1,1.1-1.2c0,0,0,0,0.1,0C303.9,77.4,304.2,77.5,304.4,77.7z"/>
	<path class="st0" d="M339.9,86.5c0.2,0.2,0.4,0.6,0.4,0.9v5.9c0,0.5-0.2,0.9-0.6,1.1c-1.7,1.1-3.7,1.7-5.6,1.7
		c-1.7,0-3.4-0.4-4.8-1.2c-4.5-2.6-6.1-8.4-3.5-13c0.8-1.5,2.1-2.7,3.5-3.5c1.5-0.9,3.2-1.3,4.8-1.3c0.9,0,1.7,0.1,2.5,0.3
		c0.8,0.2,1.5,0.5,2.2,0.9c0.2,0.1,0.4,0.3,0.5,0.4c0.1,0.2,0.2,0.4,0.2,0.6c0,0.3-0.1,0.7-0.4,0.9c-0.2,0.2-0.5,0.4-0.9,0.4
		c-0.2,0-0.5-0.1-0.7-0.2c-1.1-0.5-2.3-0.8-3.5-0.8c-2.5,0-4.8,1.3-6,3.5c-0.6,1.1-0.9,2.3-0.9,3.5c0,1.2,0.3,2.5,0.9,3.5
		c0.6,1,1.5,1.9,2.5,2.5c1,0.6,2.3,1,3.5,1c0.6,0,1.3-0.1,1.9-0.2c0.6-0.1,1.2-0.3,1.7-0.6v-4.2h-3.2c-0.3,0-0.7-0.1-0.9-0.4
		c-0.2-0.2-0.4-0.6-0.4-0.9c0-0.3,0.1-0.7,0.4-0.9c0.2-0.2,0.6-0.4,0.9-0.4h4.6C339.4,86.1,339.7,86.3,339.9,86.5z"/>
	<path class="st0" d="M362.8,94.2c0.1,0.2,0.2,0.4,0.2,0.6c0,0.3-0.1,0.6-0.4,0.8c-0.2,0.2-0.6,0.3-0.9,0.3c-0.3,0-0.6-0.1-0.8-0.2
		c-0.6-0.3-1-0.8-1.3-1.4c-0.4-0.9-0.5-2-0.5-3c0.1-0.7-0.2-1.5-0.8-2c-0.6-0.4-1.3-0.7-2.1-0.6h-5.4v5.9c0,0.3-0.1,0.7-0.3,0.9
		c-0.2,0.2-0.5,0.4-0.8,0.4c-0.4,0-0.8-0.1-1-0.4c-0.3-0.2-0.4-0.5-0.4-0.9v-16c0-0.7,0.6-1.3,1.3-1.3h0h7.4c0.9,0,1.8,0.2,2.6,0.7
		c0.8,0.5,1.5,1.1,1.9,1.9c0.5,0.8,0.7,1.8,0.7,2.8c0,1-0.3,1.9-0.8,2.8c-0.5,0.8-1.2,1.5-2,1.9c0.6,0.3,1.2,0.8,1.5,1.4
		c0.4,0.6,0.6,1.3,0.6,2.1c0,0.7,0.1,1.4,0.2,2.1c0.1,0.3,0.3,0.6,0.6,0.8C362.6,93.9,362.7,94,362.8,94.2z M358.2,85.9
		c0.4-0.3,0.7-0.8,1-1.3c0.3-0.6,0.4-1.2,0.4-1.8c0-0.8-0.3-1.6-0.8-2.2c-0.5-0.6-1.2-0.9-1.9-0.9h-5.9v6.7h6
		C357.4,86.4,357.8,86.2,358.2,85.9L358.2,85.9z"/>
	<path class="st0" d="M386.1,91.5c-0.7,1.4-1.8,2.6-3.2,3.4c-2.8,1.7-6.4,1.7-9.2,0c-1.4-0.8-2.5-2-3.2-3.4c-1.5-3-1.5-6.6,0-9.7
		c0.7-1.4,1.8-2.6,3.2-3.4c2.8-1.7,6.4-1.7,9.2,0c1.3,0.8,2.4,2,3.2,3.4C387.7,84.8,387.7,88.4,386.1,91.5z M383.8,83
		c-0.5-1-1.2-1.9-2.2-2.5c-2-1.2-4.5-1.2-6.4,0c-1,0.6-1.7,1.5-2.2,2.5c-0.5,1.1-0.8,2.4-0.8,3.6c0,1.2,0.3,2.5,0.8,3.6
		c0.5,1,1.2,1.9,2.2,2.5c2,1.2,4.5,1.2,6.4,0c1-0.6,1.7-1.5,2.2-2.5C384.8,87.9,384.8,85.3,383.8,83L383.8,83z"/>
	<path class="st0" d="M409.1,77.7c0.2,0.2,0.3,0.6,0.3,0.9v10.1c0,1.3-0.3,2.6-0.9,3.7c-0.6,1.1-1.5,2-2.6,2.6c-1.1,0.6-2.4,1-3.7,1
		c-1.3,0-2.6-0.3-3.7-1c-1.1-0.6-2-1.5-2.6-2.6c-0.6-1.2-0.9-2.4-0.9-3.7V78.6c0-0.3,0.1-0.7,0.4-0.9c0.3-0.2,0.6-0.4,1-0.4
		c0.3,0,0.7,0.1,0.9,0.4c0.2,0.2,0.4,0.6,0.4,0.9v10.1c0,0.9,0.2,1.7,0.6,2.5c0.4,0.7,1,1.3,1.7,1.7c0.7,0.4,1.5,0.6,2.3,0.6
		c0.8,0,1.6-0.2,2.3-0.6c0.7-0.4,1.3-1,1.7-1.7c0.4-0.7,0.7-1.6,0.7-2.5V78.6c0-0.3,0.1-0.7,0.3-0.9c0.2-0.2,0.5-0.4,0.9-0.4
		C408.6,77.3,408.9,77.5,409.1,77.7z"/>
	<path class="st0" d="M428.3,78.1c0.8,0.5,1.5,1.2,1.9,2.1c0.5,0.9,0.7,1.9,0.7,2.9c0,1-0.2,2-0.7,2.9c-0.4,0.8-1.1,1.6-1.9,2.1
		c-0.8,0.5-1.7,0.8-2.6,0.8h-5v5.8c0,0.3-0.1,0.7-0.3,0.9c-0.5,0.5-1.3,0.5-1.8,0c-0.2-0.2-0.3-0.6-0.3-0.9V78.6
		c0-0.7,0.5-1.3,1.2-1.3c0,0,0,0,0,0h6.1C426.6,77.4,427.5,77.6,428.3,78.1z M427,85.9c0.4-0.3,0.7-0.7,1-1.2
		c0.2-0.5,0.4-1.1,0.4-1.6c0-0.8-0.3-1.6-0.8-2.3c-0.4-0.6-1.1-0.9-1.9-0.9h-5v6.6h5C426.2,86.3,426.7,86.2,427,85.9z"/>
	<path class="st1" d="M55.9,18C35,18,18,35,18,55.9s17,37.9,37.9,37.9s37.9-17,37.9-37.9S76.9,18,55.9,18z M65.7,62.5
		c0,9-7.3,16.2-16.2,16.2c-9,0-16.2-7.3-16.2-16.2c0-1.8,1.5-3.2,3.2-3.2s3.2,1.5,3.2,3.2c0.1,5.4,4.6,9.7,9.9,9.6
		c5.2-0.1,9.5-4.3,9.6-9.6V49.4c0.1-1.8,1.6-3.2,3.4-3.1c1.7,0.1,3.1,1.4,3.1,3.1L65.7,62.5L65.7,62.5z M75.4,52.6L75.4,52.6
		c-1.8,0-3.2-1.4-3.2-3.2v0c0.1-5.4-4.2-9.8-9.6-9.9s-9.8,4.2-9.9,9.6c0,0.1,0,0.3,0,0.4v13.1c0,1.8-1.5,3.2-3.2,3.2
		s-3.2-1.5-3.2-3.2V49.4c0.1-9,7.5-16.1,16.5-16c8.8,0.1,15.9,7.2,16,16C78.7,51.2,77.2,52.6,75.4,52.6z"/>
	<g>
		<path class="st0" d="M49.4,78.7c9,0,16.2-7.3,16.2-16.2V49.4c-0.1-1.7-1.4-3.1-3.1-3.1c-1.8-0.1-3.3,1.3-3.4,3.1v13.1
			c-0.1,5.2-4.3,9.5-9.6,9.6c-5.4,0.1-9.8-4.2-9.9-9.6c0-1.8-1.5-3.2-3.2-3.2c-1.8,0-3.2,1.5-3.2,3.2C33.2,71.5,40.5,78.7,49.4,78.7
			z"/>
		<path class="st0" d="M62.7,33.4c-9-0.1-16.4,7-16.5,16v13.1c0,1.8,1.5,3.2,3.2,3.2s3.2-1.5,3.2-3.2V49.4c0-0.1,0-0.3,0-0.4
			c0.1-5.4,4.6-9.7,9.9-9.6s9.7,4.6,9.6,9.9v0c0,1.8,1.5,3.2,3.2,3.2v0c1.8,0,3.2-1.4,3.2-3.2C78.6,40.6,71.5,33.5,62.7,33.4z"/>
	</g>
</g>
</svg>
