<?xml version="1.0" encoding="utf-8"?>
<!-- Generator: Adobe Illustrator 26.0.1, SVG Export Plug-In . SVG Version: 6.00 Build 0)  -->
<svg version="1.1" id="Layer_1" xmlns="http://www.w3.org/2000/svg" xmlns:xlink="http://www.w3.org/1999/xlink" x="0px" y="0px"
	 viewBox="0 0 555.5 137.8" style="enable-background:new 0 0 555.5 137.8;" xml:space="preserve">
<style type="text/css">
	.st0{fill:#FFFFFF;}
	.st1{fill:#90909C;}
	.st2{fill:#64646C;}
	.st3{fill:#4DBFA8;}
</style>
<g>
	<circle class="st0" cx="68.9" cy="68.9" r="58.9"/>
	<path class="st1" d="M68.9,10C36.4,10,10,36.4,10,68.9s26.4,58.9,58.9,58.9s58.9-26.4,58.9-58.9S101.4,10,68.9,10z M68.9,123.5
		c-30.1,0-54.6-24.5-54.6-54.6s24.5-54.6,54.6-54.6s54.6,24.4,54.6,54.6S99,123.5,68.9,123.5z"/>
	<path class="st2" d="M167.2,11.7c-1.1-1.1-2.6-1.7-4.2-1.7s-3.2,0.6-4.4,1.7c-1.1,1.1-1.8,2.7-1.7,4.3v48.6c-0.1,3.2,2.5,5.9,5.6,6
		c0.1,0,0.2,0,0.3,0c1.6,0,3-0.6,4.2-1.7l0,0c1.2-1.1,1.8-2.6,1.8-4.3V16C169,14.4,168.4,12.8,167.2,11.7z"/>
	<path class="st2" d="M214,29L214,29c-2.3-3.6-6.4-5.4-12.4-5.4c-2.9,0-5.9,0.8-8.4,2.3c-1.7,1-3.3,2.3-4.7,3.7
		c-0.1-1.4-0.7-2.5-1.6-3.5c-2.3-2.3-6-2.3-8.4,0c-1.1,1.1-1.7,2.6-1.7,4.2v34.4c0,1.6,0.6,3,1.7,4.2c2.3,2.3,6,2.3,8.4,0
		c1.1-1.1,1.7-2.6,1.7-4.2V43.3c-0.1-2.4,0.8-4.7,2.5-6.4c1.7-1.7,4.1-2.6,7-2.6c2.8,0,4.9,0.8,6,2.3c1.1,1.5,1.8,3.8,1.8,6.8v21.3
		c0,1.6,0.6,3,1.7,4.2c2.3,2.3,6,2.3,8.4,0c1.1-1.1,1.7-2.6,1.7-4.2V43.3C217.4,37.2,216.1,32.5,214,29z"/>
	<path class="st2" d="M246.7,59.5c-0.8,0-1.5,0.1-2.1,0.5c-0.6,0.1-1,0.2-1.6,0.3c-0.7,0-1.5-0.2-1.9-0.6c-0.5-0.6-0.7-1.2-0.7-1.9
		V36h5.1c1.5,0,2.8-0.6,3.8-1.5c1-1,1.6-2.4,1.6-3.7c0.1-2.9-2.3-5.4-5.2-5.4c-0.1,0-0.2,0-0.2,0h-5.1v-4.5c0-1.7-0.6-5.4-1.7-6.5
		c-1-1.1-2.5-1.7-4.1-1.7c-1.6,0-3,0.6-4.2,1.7c-1.1,1.1-1.7,4.9-1.7,6.5v4.5h-3c-1.5,0-2.8,0.6-3.8,1.5c-1,1-1.6,2.4-1.6,3.7
		c-0.1,2.9,2.3,5.4,5.2,5.4c0.1,0,0.1,0,0.2,0h3v22.1c0,5.1,1.4,8.5,3.9,10c2.5,1.6,5.5,2.4,9.1,2.4c2.1,0,4.2-0.6,6-1.7
		c1.9-1.1,2.8-2.7,2.8-4.5c0-1.2-0.3-2.5-1.1-3.5C248.9,60.1,247.8,59.5,246.7,59.5z"/>
	<path class="st2" d="M294,34.1c-1.9-3.4-4.7-6.3-8-8.4c-3.3-2-7-3.2-10.8-3.2c-3.8,0-7.6,1-10.9,2.9c-3.5,2-6.3,5.1-8.2,8.6
		c-2.1,3.9-3.2,8.5-3,13c0,4.2,0.9,8.2,2.9,12c1.9,3.5,4.9,6.4,8.4,8.4c6.4,3.4,13.9,3.9,20.8,1.7c2.4-0.8,4.5-1.9,6.4-3.4
		c1.7-1.4,2.6-2.9,2.6-4.7c0-1.4-0.6-2.6-1.5-3.5c-1.7-1.7-4.1-2-6.8-0.6c-0.2,0.1-0.8,0.5-1.6,0.9c-0.9,0.6-1.8,0.9-2.8,1.2
		c-1.7,0.5-3.4,0.7-5.1,0.6c-2.7,0-5.4-0.9-7.6-2.6c-2-1.6-3.5-3.8-4.1-6.3h26.4c1.5,0,2.9-0.5,4.1-1.5c1.1-0.9,1.8-2.4,1.9-3.8
		C297,41.5,296,37.5,294,34.1z M275.1,33.4c2.4,0,4.6,0.8,6.5,2.4c1.7,1.2,2.8,3,3,5.2h-20C266,35.8,269.4,33.4,275.1,33.4
		L275.1,33.4z"/>
	<path class="st2" d="M330.3,25.1L330.3,25.1c-1.4-1.1-3-1.7-4.7-1.6c-2.8,0-5.5,0.7-8,1.9c-1.7,0.9-3.3,2-4.5,3.5
		c-0.2-1.1-0.8-2-1.5-2.8c-2.3-2.3-6-2.3-8.4,0c-1.1,1.1-1.7,2.6-1.7,4.2v34.4c0,1.6,0.6,3,1.7,4.2c2.3,2.3,6,2.3,8.4,0
		c1.1-1.1,1.7-2.6,1.7-4.2V44.9c0-2.1,0.3-4.2,1.2-6.1c0.7-1.5,1.7-2.8,3-3.7c1.1-0.8,2.4-1.2,3.7-1.2c0.6,0,1.1,0.1,1.7,0.2
		c0.6,0.1,0.9,0.2,1,0.3c2.9,1,5.1,0.8,6.8-0.9c1-1,1.6-2.5,1.6-4.4C332.3,27.5,331.6,26,330.3,25.1z"/>
	<path class="st2" d="M383.5,39.1L383.5,39.1c-1-1.1-2.6-1.7-4.1-1.7H366c-1.6,0-3,0.6-4.1,1.6c-2.3,2.3-2.3,5.9,0,8.1
		c1.1,1,2.6,1.7,4.1,1.6h6.9V58c-1.2,0.3-2.6,0.7-3.9,0.9c-1.6,0.2-3.2,0.3-4.9,0.5c-3.3,0-6.4-0.9-9.3-2.6c-9-5.4-12-17.2-6.5-26.2
		c1.6-2.7,3.8-4.9,6.5-6.5c2.8-1.7,6-2.6,9.3-2.6c3,0,6.1,0.7,8.8,1.8c2.8,1.2,5.2,0.8,6.9-1c1-1.1,1.6-2.6,1.6-4.1
		c0-2-1.1-3.8-2.8-4.7c-4.1-2.3-8.9-3.4-14.4-3.4c-5.4,0-10.7,1.4-15.3,4.1c-4.6,2.6-8.5,6.4-11.2,11.1c-5.5,9.4-5.5,21,0,30.4
		c5.5,9.4,15.7,15.1,26.5,15.1c6.4,0,12.6-1.8,18.1-5.2c1.8-1,2.9-2.9,2.9-5.1V43.2C385.2,41.7,384.5,40.2,383.5,39.1z"/>
	<path class="st2" d="M419,25.1L419,25.1c-1.4-1.1-3-1.7-4.7-1.6c-2.8,0-5.5,0.7-8,1.9c-1.7,0.9-3.3,2-4.5,3.5
		c-0.2-1.1-0.8-2-1.5-2.8c-2.3-2.3-6-2.3-8.4,0c-1.1,1.1-1.7,2.6-1.7,4.2v34.4c0,1.6,0.6,3,1.7,4.2c2.3,2.3,6,2.3,8.4,0
		c1.1-1.1,1.7-2.6,1.7-4.2V44.9c0-2.1,0.3-4.2,1.2-6.1c0.7-1.5,1.7-2.8,3-3.7c1.1-0.8,2.4-1.2,3.7-1.2c0.6,0,1.1,0.1,1.7,0.2
		c0.6,0.1,0.9,0.2,1,0.3c2.9,1,5.1,0.8,6.8-0.9c1-1,1.6-2.5,1.6-4.4C421.1,27.5,420.3,26,419,25.1z"/>
	<path class="st2" d="M461.1,34.1c-1.9-3.4-4.7-6.3-8-8.4s-7-3.2-10.7-3.2c-3.8,0-7.6,1-10.9,2.9c-3.5,2-6.3,5.1-8.2,8.6
		c-2.1,3.9-3.2,8.5-3,13c0,4.2,0.9,8.2,2.9,12c1.9,3.5,4.9,6.4,8.4,8.4c6.4,3.4,13.9,3.9,20.8,1.7c2.4-0.8,4.5-1.9,6.4-3.4
		c1.7-1.4,2.6-2.9,2.6-4.7c0-1.4-0.6-2.6-1.5-3.5c-1.7-1.7-4.1-2-6.8-0.6c-0.2,0.1-0.8,0.5-1.6,0.9c-0.9,0.6-1.8,0.9-2.8,1.2
		c-1.7,0.5-3.4,0.7-5.1,0.6c-2.7,0-5.4-0.9-7.6-2.6c-2-1.6-3.5-3.8-4.1-6.3h26.5c1.5,0,2.9-0.5,4.1-1.5c1.1-0.9,1.8-2.4,1.9-3.8
		C464.2,41.5,463.2,37.5,461.1,34.1z M442.3,33.4c2.4,0,4.6,0.8,6.4,2.4c1.7,1.2,2.8,3,3,5.2h-20C433.2,35.8,436.6,33.4,442.3,33.4
		L442.3,33.4z"/>
	<path class="st2" d="M509.9,25.6c-1-1-2.5-1.7-4.1-1.6c-2.6,0-4.9,1.7-5.4,4.3c-1.5-1.1-3.2-2-4.9-2.8c-2.4-1-5-1.5-7.6-1.5
		c-3.6,0-7.2,1-10.4,3s-5.8,5-7.3,8.4c-1.8,3.7-2.7,7.8-2.7,12c-0.1,4.2,0.9,8.2,2.7,12c1.7,3.4,4.3,6.2,7.4,8.2c3.2,2,6.8,3,10.5,3
		c2.6,0,5.2-0.6,7.6-1.7c1.7-0.8,3.3-1.8,4.6-3c0.2,0.9,0.7,1.7,1.4,2.4c1,1,2.5,1.7,3.9,1.6c1.5,0,2.9-0.6,4.1-1.7
		c1-1.1,1.6-2.6,1.6-4.1V29.6C511.6,28.1,511,26.6,509.9,25.6z M500.6,47.2c0,3.7-1,6.8-3.2,9.1c-3.9,4.4-10.7,4.9-15.1,0.9
		c-0.3-0.2-0.6-0.6-0.9-0.9c-2-2.5-3-5.5-3-9.1c0-3.7,1-6.8,3.2-9.3c3.8-4.4,10.5-4.9,14.9-1c0.3,0.3,0.7,0.7,1,1
		C499.6,40.5,500.6,43.5,500.6,47.2L500.6,47.2L500.6,47.2z"/>
	<path class="st2" d="M541.2,59.5c-0.8,0-1.5,0.1-2.1,0.5c-0.6,0.1-1,0.2-1.6,0.3c-0.7,0-1.5-0.1-1.9-0.6c-0.5-0.6-0.7-1.2-0.6-1.9
		V36h5.1c1.5,0,2.8-0.6,3.8-1.5c1-1,1.6-2.4,1.6-3.7c0.1-2.9-2.3-5.4-5.2-5.4c-0.1,0-0.2,0-0.2,0H535v-6.9c0-1.6-0.6-3-1.7-4.2
		c-1-1.1-2.5-1.7-4.1-1.7c-3.2,0-5.9,2.5-5.9,5.6c0,0.1,0,0.1,0,0.2v6.9h-3c-1.5,0-2.8,0.6-3.8,1.5c-1,1-1.6,2.4-1.6,3.7
		c-0.1,2.9,2.3,5.4,5.2,5.4c0.1,0,0.1,0,0.2,0h3v22.1c0,5.1,1.4,8.5,3.9,10c2.5,1.6,5.5,2.4,9.1,2.4c2.1,0,4.2-0.6,6-1.7
		c1.9-1.1,2.8-2.7,2.8-4.5c0-1.2-0.3-2.5-1.1-3.5C543.3,60,542.3,59.5,541.2,59.5z"/>
	<path class="st3" d="M68.9,20.3C42,20.3,20.3,42,20.3,68.9s21.8,48.6,48.6,48.6s48.6-21.8,48.6-48.6S95.8,20.3,68.9,20.3z
		 M81.4,77.4c0,11.5-9.4,20.9-20.9,20.9s-20.9-9.4-20.9-20.9c0-2.3,1.9-4.2,4.2-4.2c2.3,0,4.2,1.9,4.2,4.2
		c0.1,6.9,5.9,12.4,12.8,12.3c6.8-0.1,12.1-5.5,12.3-12.3V60.6c0.1-2.3,2-4.1,4.3-4.1c2.1,0.1,3.9,1.8,4.1,4.1V77.4L81.4,77.4z
		 M94,64.7L94,64.7c-2.3,0-4.2-1.8-4.2-4.2l0,0c0.1-6.9-5.3-12.6-12.3-12.8s-12.6,5.3-12.8,12.3c0,0.2,0,0.3,0,0.5v16.8
		c0,2.3-1.9,4.2-4.2,4.2c-2.3,0-4.2-1.9-4.2-4.2V60.6C56.6,49,66,39.9,77.5,40c11.3,0.2,20.3,9.3,20.5,20.5
		C98.1,62.8,96.2,64.7,94,64.7z"/>
	<g>
		<path class="st0" d="M60.6,98.1c11.5,0,20.9-9.4,20.9-20.9V60.6c-0.1-2.1-1.8-3.9-4.1-4.1s-4.3,1.7-4.3,4.1v16.8
			C73,84,67.6,89.4,60.8,89.6c-6.9,0.1-12.6-5.3-12.8-12.3c0-2.3-1.9-4.2-4.2-4.2c-2.3,0-4.2,1.9-4.2,4.2
			C39.8,88.9,49,98.1,60.6,98.1z"/>
		<path class="st0" d="M77.6,40c-11.5-0.2-21,9-21.1,20.5v16.8c0,2.3,1.9,4.2,4.2,4.2c2.3,0,4.2-1.9,4.2-4.2V60.6c0-0.2,0-0.3,0-0.5
			c0.1-6.9,5.9-12.4,12.8-12.3c6.9,0.1,12.4,5.9,12.3,12.8l0,0c0,2.3,1.9,4.2,4.2,4.2l0,0c2.3,0,4.2-1.8,4.2-4.2
			C97.9,49.3,88.8,40.2,77.6,40z"/>
	</g>
	<path class="st1" d="M180.6,94v4.2h13.3v11.5h5.6v4.2h-16.3c2.5,3.9,8.1,7.2,16.7,9.6l-2.5,4.1c-9.9-3.4-16.3-7.9-18.7-13.5h-0.3
		c-0.8,1.8-1.8,3.5-3,5.1c-3.3,3.6-8.5,6.4-15.7,8.5l-2.5-3.9c7.2-2,12.2-4.5,14.7-7.4c0.6-0.7,1-1.4,1.4-2.1h-16v-4.2h5.5V98.1
		h13.4V94H180.6z M168.1,87.1v-3.8h4.5v3.8h11.5v-3.8h4.5v3.8h10.7v4.2h-10.7v4.2h-4.5v-4.2h-11.5v4.2h-4.5v-4.2h-10.7v-4.2H168.1z
		 M174.9,109.6c0.6-2.1,0.9-4.3,1-6.4v-0.9h-9v7.3H174.9z M189.5,109.6v-7.3h-8.9v0.9c-0.1,2.1-0.3,4.3-0.9,6.4H189.5z"/>
	<path class="st1" d="M217.8,86.4v-3.3h4.5v3.3H234v-3.3h4.5v3.3h10.8v4.1h-10.8v3H234v-2.9h-11.6v2.9h-4.5v-2.9h-10.7v-4.1h10.7
		V86.4z M225.9,114.4v-2.7h4.4v2.7h18.3v4.1h-18.3v8.7h-4.4v-8.7h-18.3v-4.1H225.9z M230.6,95.7h16.3v3.9h-9.6l3,1.2
		c-0.6,1.1-1.1,2.4-1.7,3.4c3,1.4,6,2.9,8.8,4.9l-2.4,3.6c-2.6-2-5.4-3.8-8.5-5.3c-1.2,1.8-2.8,3.4-4.5,4.6l-3.3-2.8
		c3.3-2.5,5.9-5.8,7.3-9.6H219l2.9,1.1c-0.6,1.1-1.1,2.3-1.8,3.3c2.6,1.1,5,2.6,7.2,4.2l-2.4,3.6c-2.1-1.8-4.5-3.4-7.1-4.6
		c-1.8,2.3-3.8,4.2-6.2,5.8l-3.3-2.7c4.1-2.6,7.2-6.2,9.3-10.5h-8.9v-3.9h17c-0.6-1.1-1.1-2-1.7-2.9l4.5-0.8
		C229.4,92.9,230,94.2,230.6,95.7L230.6,95.7z"/>
	<path class="st1" d="M297.6,127h-4.5v-1.8h-30.8v1.8h-4.5V85h39.8V127z M293.1,120.9V89.3h-30.8v31.6H293.1z M289.5,92.6v4.1H280
		v5.9h8v3.9h-8v6.5h4.9c-0.8-1.7-1.7-3.4-2.7-5l3.6-1.1c1.1,1.6,2,3.2,2.8,5L286,113h4.9v4.1h-26.2V113h10.7v-6.5h-8v-3.9h8v-5.9
		h-9.5v-4.1L289.5,92.6z"/>
	<path class="st1" d="M321.3,84.9v3.6c-1.5,4.1-3,8.4-5,12.9c2.7,4.3,4.2,8.1,4.4,11.4c0,2.1-0.5,3.8-1.4,4.7
		c-1.4,1.1-3.6,1.8-6.9,1.8l-1.4-4.4c0.8,0.1,1.6,0.2,2.4,0.2c1.1-0.1,1.9-0.3,2.4-0.7c0.5-0.5,0.7-1.1,0.6-1.8
		c0-3.2-1.5-6.8-4.4-10.7c1.9-4.2,3.6-8.5,5.1-12.9h-6.4V127h-4.4V84.9H321.3z M329.7,105.9c-1.2,6.1-3.5,11.8-6.5,17.3l-3.7-2.4
		c2.8-4.9,5-10.3,6.2-15.8L329.7,105.9z M327.5,126.8l-0.9-4.3c1.4,0.2,2.7,0.3,4.2,0.3c1.1,0,1.7-0.7,1.7-1.9v-19.4h-11.4v-4.4
		h27.1v4.4h-11.3v20.5c0,3.2-1.6,4.7-4.6,4.7H327.5z M345.7,85.7V90h-21.8v-4.3H345.7z M348.5,121.4l-3.9,1.8
		c-1.4-5.9-3.2-11.7-5.2-17.4l3.9-1.4C345.3,110,347,115.6,348.5,121.4L348.5,121.4z"/>
	<path class="st1" d="M363.7,87.4v-3.7h4.3v3.7h4.7v3.9H368v3.9h2c2.5-3.2,4.6-6.5,6.4-10.2L380,87c-1.5,2.8-3.2,5.6-5,8.2h2.6v4.1
		h-5.9c-1,1.2-2,2.4-3,3.4h7.4v3.3c-1.7,2-3.6,3.8-5.5,5.5v1.5c2.7-0.3,5.4-0.9,8.1-1.7v4.2c-2.7,0.7-5.3,1.2-8.1,1.6v4.6
		c0,3.2-1.6,4.7-4.7,4.7h-4.4l-1.1-4.1c1.2,0.2,2.6,0.3,3.8,0.3c1.4,0,2.1-0.8,2.1-2.3v-2.9c-2.9,0.3-6.3,0.7-9.9,1l-0.6-4.3
		c3.8-0.2,7.3-0.5,10.5-0.8v-2.9c1.7-1.1,3.2-2.5,4.6-3.9h-6.4c-2.1,1.7-4.4,3.3-6.8,4.5l-2.9-2.8c1.1-0.6,2.1-1.2,3.2-1.9v-3.5h4.7
		c1.4-1.1,2.6-2.3,3.7-3.4h-10.6v-4.1h8v-3.9h-5.8v-3.9L363.7,87.4z M379.6,105.2l-2.7-3.3c2.8-4.6,4.7-10.9,5.9-18.7l4.4,0.8
		c-0.3,2.1-0.8,4.3-1.1,6.2h11.6v4.3h-2.6c-0.3,7.3-1.8,13.7-4.5,19c2.1,3.7,5.1,7,8.6,9.6l-2.3,3.9c-3.5-2.6-6.4-5.9-8.7-9.6
		c-2.8,3.8-6.3,7.1-10.4,9.6l-2.6-4.2c4.3-2.4,7.9-5.6,10.5-9.8c-1.7-3.7-2.9-7.7-3.7-11.7C381.3,102.6,380.5,104,379.6,105.2z
		 M384.8,94.4v0.1c0.5,4.7,1.6,9.5,3.3,13.9c1.7-4.5,2.7-9.3,2.9-14H384.8z"/>
	<path class="st1" d="M424,87.1c-0.5-1.1-1-2.3-1.6-3.3l5.3-0.8c0.6,1.2,1,2.6,1.5,4.1h19v4.3h-9.8c3.2,2.5,6.2,5.2,9,8.1l-3.8,2.6
		c-1-1.1-2.1-2.4-3.4-3.6c-7.9,0.7-18.1,1.1-30.5,1.6l-1-3.8c0.8-0.1,1.5-0.2,2.1-0.6c1.6-1.1,3.5-2.5,5.6-4.3H405v-4.3H424z
		 M416.3,127h-4.5v-24.9h29.5v20.3c0,3.2-1.7,4.7-5.1,4.7h-4.9l-1.1-4.4l4.5,0.2c1.2,0,1.9-0.6,1.9-1.5v-2h-20.4v7.6H416.3z
		 M415.9,96.2c7.9-0.3,14.8-0.7,20.7-1c-0.9-0.9-1.9-1.7-2.9-2.5l2-1.4h-13.5C420.2,93.2,418,94.7,415.9,96.2z M436.6,105.9h-20.3v3
		h20.3V105.9z M416.3,115.6h20.3v-2.9h-20.3V115.6z"/>
	<path class="st1" d="M457.2,99.4l-2.6-3.4c3.9-3.5,7-7.9,8.9-12.9l4.2,0.9c-0.5,1.1-0.9,2.3-1.5,3.3h9.1c-0.6-1.2-1.2-2.5-2-3.7
		l4.6-0.8c0.6,1.4,1.2,2.8,1.8,4.5h14.9V91H480v2.5h12.9v3.4H480v2.3h12.9v3.4H480v2.5h15.6v3.7H460V96.2
		C459.3,97.2,458.3,98.4,457.2,99.4z M455.9,116v-4.2h18.5v-1.9h4.5v1.9h18.2v4.2h-13c3.2,2.5,7.7,4.5,13.5,6l-1.9,3.9
		c-7.6-2.6-13-5.9-16.3-9.9H479v11.2h-4.5V116h-0.6c-2.9,3.8-8.4,7.3-16,10.2l-2.4-3.8c6.4-1.9,11.1-4.1,13.9-6.3H455.9z M475.8,91
		h-11.3v2.5h11.3V91z M475.8,96.9h-11.3v2.4h11.3V96.9z M475.8,102.6h-11.3v2.5h11.3V102.6z"/>
	<path class="st1" d="M545.4,127.1h-4.3v-1.8h-30.7v1.8h-4.3V85h39.3V127.1z M541.1,121.3V89.1h-30.7v32.2H541.1z M528.9,96.3V91
		h4.3v5.3h5.5v4.1h-5.5v13.5c0,3.2-1.5,4.6-4.5,4.6h-5.4l-0.9-4.2c1.7,0.2,3.3,0.3,5,0.3c1,0,1.6-0.7,1.6-1.9v-11.3
		c-3.4,5.8-8.2,10.6-14,14l-2.4-3.9c5.3-2.6,9.8-6.4,13.3-11.2h-12.4v-4.1L528.9,96.3z"/>
</g>
</svg>
