<?xml version="1.0" encoding="utf-8"?>
<!-- Generator: Adobe Illustrator 24.2.3, SVG Export Plug-In . SVG Version: 6.00 Build 0)  -->
<svg version="1.1" id="Layer_1" xmlns="http://www.w3.org/2000/svg" xmlns:xlink="http://www.w3.org/1999/xlink" x="0px" y="0px"
	 width="91.8px" height="91.8px" viewBox="0 0 91.8 91.8" enable-background="new 0 0 91.8 91.8" xml:space="preserve">
<path fill="#FFFFFF" d="M45.9,0C20.6,0,0,20.6,0,45.9s20.6,45.9,45.9,45.9s45.9-20.6,45.9-45.9S71.3,0,45.9,0z M45.9,88.5
	c-23.5,0-42.6-19.1-42.6-42.6S22.4,3.3,45.9,3.3s42.6,19.1,42.6,42.6S69.4,88.5,45.9,88.5z"/>
<path fill="#FFFFFF" d="M45.9,8C25,8,8,25,8,45.9s17,37.9,37.9,37.9s37.9-17,37.9-37.9S66.9,8,45.9,8z M55.7,52.5
	c0,9-7.3,16.2-16.2,16.2c-9,0-16.2-7.3-16.2-16.2c0-1.8,1.5-3.2,3.2-3.2s3.2,1.5,3.2,3.2c0.1,5.4,4.6,9.7,9.9,9.6
	c5.2-0.1,9.5-4.3,9.6-9.6V39.4c0.1-1.8,1.6-3.2,3.4-3.1c1.7,0.1,3.1,1.4,3.1,3.1V52.5L55.7,52.5z M65.4,42.6L65.4,42.6
	c-1.8,0-3.2-1.4-3.2-3.2l0,0c0.1-5.4-4.2-9.8-9.6-9.9s-9.8,4.2-9.9,9.6c0,0.1,0,0.3,0,0.4v13.1c0,1.8-1.5,3.2-3.2,3.2
	s-3.2-1.5-3.2-3.2V39.4c0.1-9,7.5-16.1,16.5-16c8.8,0.1,15.9,7.2,16,16C68.7,41.2,67.2,42.6,65.4,42.6z"/>
</svg>
