<?xml version="1.0" encoding="utf-8"?>
<!-- Generator: Adobe Illustrator 26.0.1, SVG Export Plug-In . SVG Version: 6.00 Build 0)  -->
<svg version="1.1" id="Layer_1" xmlns="http://www.w3.org/2000/svg" xmlns:xlink="http://www.w3.org/1999/xlink" x="0px" y="0px"
	 viewBox="0 0 279.2 279.2" style="enable-background:new 0 0 279.2 279.2;" xml:space="preserve">
<style type="text/css">
	.st0{fill:#90909C;}
	.st1{fill:#4DBFA8;}
	.st2{fill:#FFFFFF;}
</style>
<g>
	<path class="st0" d="M139.6,10C68.1,10,10,68.1,10,139.6s58.1,129.6,129.6,129.6s129.6-58.1,129.6-129.6S211.1,10,139.6,10z
		 M139.6,259.6c-66.3,0-120-53.7-120-120s53.7-120.1,120-120.1s120,53.7,120,120S205.9,259.6,139.6,259.6z"/>
	<path class="st1" d="M139.6,32.7c-59.1,0-106.9,47.9-106.9,106.9s47.9,106.9,106.9,106.9s106.9-47.9,106.9-106.9
		S198.7,32.7,139.6,32.7z M167.1,158.1c0,25.3-20.5,45.8-45.8,45.8c-25.3,0-45.8-20.5-45.8-45.8c0-5.1,4.1-9.2,9.2-9.2
		c5.1,0,9.2,4.1,9.2,9.2c0.3,15.2,12.9,27.3,28,27c14.8-0.3,26.7-12.2,27-27v-36.9c0.2-5.1,4.4-9,9.5-8.9c4.8,0.2,8.7,4,8.9,8.9
		L167.1,158.1L167.1,158.1z M194.6,130.3L194.6,130.3c-5.1,0-9.2-4.1-9.2-9.1v0c0.3-15.2-11.8-27.8-27-28c-15.2-0.3-27.8,11.8-28,27
		c0,0.4,0,0.7,0,1.1v37c0,5.1-4.1,9.2-9.2,9.2c-5.1,0-9.2-4.1-9.2-9.2v-37c0.4-25.3,21.2-45.5,46.5-45.1
		c24.8,0.4,44.8,20.4,45.1,45.1C203.7,126.2,199.6,130.3,194.6,130.3z"/>
	<g>
		<path class="st2" d="M121.3,203.9c25.3,0,45.8-20.5,45.8-45.8v-36.9c-0.2-4.8-4-8.7-8.9-8.9c-5.1-0.2-9.3,3.8-9.5,8.9v36.9
			c-0.3,14.8-12.2,26.7-27,27c-15.2,0.3-27.8-11.8-28-27c0-5.1-4.1-9.2-9.2-9.2c-5.1,0-9.2,4.1-9.2,9.2
			C75.4,183.4,96,203.9,121.3,203.9z"/>
		<path class="st2" d="M158.6,76c-25.3-0.4-46.1,19.8-46.5,45.1v37c0,5.1,4.1,9.2,9.2,9.2c5.1,0,9.2-4.1,9.2-9.2v-37
			c0-0.4,0-0.7,0-1.1c0.3-15.2,12.9-27.3,28-27c15.2,0.3,27.3,12.9,27,28v0c0,5.1,4.1,9.2,9.2,9.1v0c5,0,9.1-4.1,9.2-9.1
			C203.4,96.4,183.4,76.4,158.6,76z"/>
	</g>
</g>
</svg>
